o Grass_Cube.065
usemtl lilly_pad
v 15.378232955932617 1.3728150129318237 6.893805027008057
v 15.293270111083984 1.6230700016021729 6.969178199768066
v 15.288747787475586 1.5883009433746338 7.01268196105957
v 15.378232955932617 1.3728150129318237 6.893805027008057
v 15.288747787475586 1.5883009433746338 7.01268196105957
v 15.370538711547852 1.3443520069122314 6.972177028656006
v 15.370538711547852 1.3443520069122314 6.972177028656006
v 15.288747787475586 1.5883009433746338 7.01268196105957
v 15.22292709350586 1.5730149745941162 6.993622779846191
v 15.370538711547852 1.3443520069122314 6.972177028656006
v 15.22292709350586 1.5730149745941162 6.993622779846191
v 15.269682884216309 1.3207429647445679 6.953701972961426
v 15.269682884216309 1.3207429647445679 6.953701972961426
v 15.22292709350586 1.5730149745941162 6.993622779846191
v 15.227449417114258 1.6077840328216553 6.9501190185546875
v 15.269682884216309 1.3207429647445679 6.953701972961426
v 15.227449417114258 1.6077840328216553 6.9501190185546875
v 15.277377128601074 1.3492059707641602 6.87532901763916
v 15.277377128601074 1.3492059707641602 6.87532901763916
v 15.227449417114258 1.6077840328216553 6.9501190185546875
v 15.293270111083984 1.6230700016021729 6.969178199768066
v 15.277377128601074 1.3492059707641602 6.87532901763916
v 15.293270111083984 1.6230700016021729 6.969178199768066
v 15.378232955932617 1.3728150129318237 6.893805027008057
v 15.370538711547852 1.3443520069122314 6.972177028656006
v 15.269682884216309 1.3207429647445679 6.953701972961426
v 15.277377128601074 1.3492059707641602 6.87532901763916
v 15.370538711547852 1.3443520069122314 6.972177028656006
v 15.277377128601074 1.3492059707641602 6.87532901763916
v 15.378232955932617 1.3728150129318237 6.893805027008057
v 15.288747787475586 1.5883009433746338 7.01268196105957
v 15.293270111083984 1.6230700016021729 6.969178199768066
v 15.134907722473145 1.8250559568405151 7.109714031219482
v 15.288747787475586 1.5883009433746338 7.01268196105957
v 15.134907722473145 1.8250559568405151 7.109714031219482
v 15.131037712097168 1.7953039407730103 7.146942138671875
v 15.074713706970215 1.7822240591049194 7.130631923675537
v 15.131037712097168 1.7953039407730103 7.146942138671875
v 14.962523460388184 1.862475037574768 7.256279945373535
v 15.074713706970215 1.7822240591049194 7.130631923675537
v 14.962523460388184 1.862475037574768 7.256279945373535
v 14.954623222351074 1.860640048980713 7.253993034362793
v 15.293270111083984 1.6230700016021729 6.969178199768066
v 15.227449417114258 1.6077840328216553 6.9501190185546875
v 15.078583717346191 1.8119759559631348 7.093404769897461
v 15.293270111083984 1.6230700016021729 6.969178199768066
v 15.078583717346191 1.8119759559631348 7.093404769897461
v 15.134907722473145 1.8250559568405151 7.109714031219482
v 15.22292709350586 1.5730149745941162 6.993622779846191
v 15.288747787475586 1.5883009433746338 7.01268196105957
v 15.131037712097168 1.7953039407730103 7.146942138671875
v 15.22292709350586 1.5730149745941162 6.993622779846191
v 15.131037712097168 1.7953039407730103 7.146942138671875
v 15.074713706970215 1.7822240591049194 7.130631923675537
v 15.227449417114258 1.6077840328216553 6.9501190185546875
v 15.22292709350586 1.5730149745941162 6.993622779846191
v 15.074713706970215 1.7822240591049194 7.130631923675537
v 15.227449417114258 1.6077840328216553 6.9501190185546875
v 15.074713706970215 1.7822240591049194 7.130631923675537
v 15.078583717346191 1.8119759559631348 7.093404769897461
v 14.954623222351074 1.860640048980713 7.253993034362793
v 14.962523460388184 1.862475037574768 7.256279945373535
v 14.963462829589844 1.8697060346603394 7.247231960296631
v 14.954623222351074 1.860640048980713 7.253993034362793
v 14.963462829589844 1.8697060346603394 7.247231960296631
v 14.95556354522705 1.8678710460662842 7.244945049285889
v 15.078583717346191 1.8119759559631348 7.093404769897461
v 15.074713706970215 1.7822240591049194 7.130631923675537
v 14.954623222351074 1.860640048980713 7.253993034362793
v 15.078583717346191 1.8119759559631348 7.093404769897461
v 14.954623222351074 1.860640048980713 7.253993034362793
v 14.95556354522705 1.8678710460662842 7.244945049285889
v 15.131037712097168 1.7953039407730103 7.146942138671875
v 15.134907722473145 1.8250559568405151 7.109714031219482
v 14.963462829589844 1.8697060346603394 7.247231960296631
v 15.131037712097168 1.7953039407730103 7.146942138671875
v 14.963462829589844 1.8697060346603394 7.247231960296631
v 14.962523460388184 1.862475037574768 7.256279945373535
v 15.134907722473145 1.8250559568405151 7.109714031219482
v 15.078583717346191 1.8119759559631348 7.093404769897461
v 14.95556354522705 1.8678710460662842 7.244945049285889
v 15.134907722473145 1.8250559568405151 7.109714031219482
v 14.95556354522705 1.8678710460662842 7.244945049285889
v 14.963462829589844 1.8697060346603394 7.247231960296631
v 15.4085693359375 1.393692970275879 6.847407817840576
v 15.458541870117188 1.6921889781951904 6.867967128753662
v 15.527924537658691 1.663993000984192 6.874967098236084
v 15.4085693359375 1.393692970275879 6.847407817840576
v 15.527924537658691 1.663993000984192 6.874967098236084
v 15.509796142578125 1.3866709470748901 6.849298000335693
v 15.509796142578125 1.3866709470748901 6.849298000335693
v 15.527924537658691 1.663993000984192 6.874967098236084
v 15.517027854919434 1.6604750156402588 6.96878719329834
v 15.509796142578125 1.3866709470748901 6.849298000335693
v 15.517027854919434 1.6604750156402588 6.96878719329834
v 15.507283210754395 1.3847559690475464 6.97678279876709
v 15.507283210754395 1.3847559690475464 6.97678279876709
v 15.517027854919434 1.6604750156402588 6.96878719329834
v 15.447646141052246 1.6886709928512573 6.961787223815918
v 15.507283210754395 1.3847559690475464 6.97678279876709
v 15.447646141052246 1.6886709928512573 6.961787223815918
v 15.40605640411377 1.3917779922485352 6.974893093109131
v 15.40605640411377 1.3917779922485352 6.974893093109131
v 15.447646141052246 1.6886709928512573 6.961787223815918
v 15.458541870117188 1.6921889781951904 6.867967128753662
v 15.40605640411377 1.3917779922485352 6.974893093109131
v 15.458541870117188 1.6921889781951904 6.867967128753662
v 15.4085693359375 1.393692970275879 6.847407817840576
v 15.509796142578125 1.3866709470748901 6.849298000335693
v 15.507283210754395 1.3847559690475464 6.97678279876709
v 15.40605640411377 1.3917779922485352 6.974893093109131
v 15.509796142578125 1.3866709470748901 6.849298000335693
v 15.40605640411377 1.3917779922485352 6.974893093109131
v 15.4085693359375 1.393692970275879 6.847407817840576
v 15.527924537658691 1.663993000984192 6.874967098236084
v 15.458541870117188 1.6921889781951904 6.867967128753662
v 15.629949569702148 2.0551230907440186 7.044674873352051
v 15.527924537658691 1.663993000984192 6.874967098236084
v 15.629949569702148 2.0551230907440186 7.044674873352051
v 15.68263053894043 2.0337140560150146 7.049991130828857
v 15.674357414245605 2.03104305267334 7.121226787567139
v 15.68263053894043 2.0337140560150146 7.049991130828857
v 15.824861526489258 2.215456962585449 7.268574237823486
v 15.674357414245605 2.03104305267334 7.121226787567139
v 15.824861526489258 2.215456962585449 7.268574237823486
v 15.823298454284668 2.214951992034912 7.282043933868408
v 15.458541870117188 1.6921889781951904 6.867967128753662
v 15.447646141052246 1.6886709928512573 6.961787223815918
v 15.621676445007324 2.0524520874023438 7.115911960601807
v 15.458541870117188 1.6921889781951904 6.867967128753662
v 15.621676445007324 2.0524520874023438 7.115911960601807
v 15.629949569702148 2.0551230907440186 7.044674873352051
v 15.517027854919434 1.6604750156402588 6.96878719329834
v 15.527924537658691 1.663993000984192 6.874967098236084
v 15.68263053894043 2.0337140560150146 7.049991130828857
v 15.517027854919434 1.6604750156402588 6.96878719329834
v 15.68263053894043 2.0337140560150146 7.049991130828857
v 15.674357414245605 2.03104305267334 7.121226787567139
v 15.447646141052246 1.6886709928512573 6.961787223815918
v 15.517027854919434 1.6604750156402588 6.96878719329834
v 15.674357414245605 2.03104305267334 7.121226787567139
v 15.447646141052246 1.6886709928512573 6.961787223815918
v 15.674357414245605 2.03104305267334 7.121226787567139
v 15.621676445007324 2.0524520874023438 7.115911960601807
v 15.823298454284668 2.214951992034912 7.282043933868408
v 15.824861526489258 2.215456962585449 7.268574237823486
v 15.807600021362305 2.2224719524383545 7.266831874847412
v 15.823298454284668 2.214951992034912 7.282043933868408
v 15.807600021362305 2.2224719524383545 7.266831874847412
v 15.806035995483398 2.2219669818878174 7.280303001403809
v 15.621676445007324 2.0524520874023438 7.115911960601807
v 15.674357414245605 2.03104305267334 7.121226787567139
v 15.823298454284668 2.214951992034912 7.282043933868408
v 15.621676445007324 2.0524520874023438 7.115911960601807
v 15.823298454284668 2.214951992034912 7.282043933868408
v 15.806035995483398 2.2219669818878174 7.280303001403809
v 15.68263053894043 2.0337140560150146 7.049991130828857
v 15.629949569702148 2.0551230907440186 7.044674873352051
v 15.807600021362305 2.2224719524383545 7.266831874847412
v 15.68263053894043 2.0337140560150146 7.049991130828857
v 15.807600021362305 2.2224719524383545 7.266831874847412
v 15.824861526489258 2.215456962585449 7.268574237823486
v 15.629949569702148 2.0551230907440186 7.044674873352051
v 15.621676445007324 2.0524520874023438 7.115911960601807
v 15.806035995483398 2.2219669818878174 7.280303001403809
v 15.629949569702148 2.0551230907440186 7.044674873352051
v 15.806035995483398 2.2219669818878174 7.280303001403809
v 15.807600021362305 2.2224719524383545 7.266831874847412
v 15.362261772155762 1.4532489776611328 6.854865074157715
v 15.385022163391113 1.7773220539093018 6.7305588722229
v 15.366744995117188 1.740638017654419 6.6776509284973145
v 15.362261772155762 1.4532489776611328 6.854865074157715
v 15.366744995117188 1.740638017654419 6.6776509284973145
v 15.32876205444336 1.4320470094680786 6.756669998168945
v 15.32876205444336 1.4320470094680786 6.756669998168945
v 15.366744995117188 1.740638017654419 6.6776509284973145
v 15.43199634552002 1.7286659479141235 6.663412094116211
v 15.32876205444336 1.4320470094680786 6.756669998168945
v 15.43199634552002 1.7286659479141235 6.663412094116211
v 15.426850318908691 1.4150840044021606 6.721263885498047
v 15.426850318908691 1.4150840044021606 6.721263885498047
v 15.43199634552002 1.7286659479141235 6.663412094116211
v 15.450272560119629 1.7653499841690063 6.716320037841797
v 15.426850318908691 1.4150840044021606 6.721263885498047
v 15.450272560119629 1.7653499841690063 6.716320037841797
v 15.46035099029541 1.4362850189208984 6.8194580078125
v 15.46035099029541 1.4362850189208984 6.8194580078125
v 15.450272560119629 1.7653499841690063 6.716320037841797
v 15.385022163391113 1.7773220539093018 6.7305588722229
v 15.46035099029541 1.4362850189208984 6.8194580078125
v 15.385022163391113 1.7773220539093018 6.7305588722229
v 15.362261772155762 1.4532489776611328 6.854865074157715
v 15.32876205444336 1.4320470094680786 6.756669998168945
v 15.426850318908691 1.4150840044021606 6.721263885498047
v 15.46035099029541 1.4362850189208984 6.8194580078125
v 15.32876205444336 1.4320470094680786 6.756669998168945
v 15.46035099029541 1.4362850189208984 6.8194580078125
v 15.362261772155762 1.4532489776611328 6.854865074157715
v 15.366744995117188 1.740638017654419 6.6776509284973145
v 15.385022163391113 1.7773220539093018 6.7305588722229
v 15.440662384033203 1.9829109907150269 6.525160789489746
v 15.366744995117188 1.740638017654419 6.6776509284973145
v 15.440662384033203 1.9829109907150269 6.525160789489746
v 15.425023078918457 1.9515199661254883 6.479887008666992
v 15.48085880279541 1.9412750005722046 6.467700958251953
v 15.425023078918457 1.9515199661254883 6.479887008666992
v 15.479159355163574 2.0343739986419678 6.271896839141846
v 15.48085880279541 1.9412750005722046 6.467700958251953
v 15.479159355163574 2.0343739986419678 6.271896839141846
v 15.486990928649902 2.032938003540039 6.270187854766846
v 15.385022163391113 1.7773220539093018 6.7305588722229
v 15.450272560119629 1.7653499841690063 6.716320037841797
v 15.496499061584473 1.9726669788360596 6.512976169586182
v 15.385022163391113 1.7773220539093018 6.7305588722229
v 15.496499061584473 1.9726669788360596 6.512976169586182
v 15.440662384033203 1.9829109907150269 6.525160789489746
v 15.43199634552002 1.7286659479141235 6.663412094116211
v 15.366744995117188 1.740638017654419 6.6776509284973145
v 15.425023078918457 1.9515199661254883 6.479887008666992
v 15.43199634552002 1.7286659479141235 6.663412094116211
v 15.425023078918457 1.9515199661254883 6.479887008666992
v 15.48085880279541 1.9412750005722046 6.467700958251953
v 15.450272560119629 1.7653499841690063 6.716320037841797
v 15.43199634552002 1.7286659479141235 6.663412094116211
v 15.48085880279541 1.9412750005722046 6.467700958251953
v 15.450272560119629 1.7653499841690063 6.716320037841797
v 15.48085880279541 1.9412750005722046 6.467700958251953
v 15.496499061584473 1.9726669788360596 6.512976169586182
v 15.486990928649902 2.032938003540039 6.270187854766846
v 15.479159355163574 2.0343739986419678 6.271896839141846
v 15.48296070098877 2.042004108428955 6.282899856567383
v 15.486990928649902 2.032938003540039 6.270187854766846
v 15.48296070098877 2.042004108428955 6.282899856567383
v 15.490791320800781 2.040566921234131 6.281190872192383
v 15.496499061584473 1.9726669788360596 6.512976169586182
v 15.48085880279541 1.9412750005722046 6.467700958251953
v 15.486990928649902 2.032938003540039 6.270187854766846
v 15.496499061584473 1.9726669788360596 6.512976169586182
v 15.486990928649902 2.032938003540039 6.270187854766846
v 15.490791320800781 2.040566921234131 6.281190872192383
v 15.425023078918457 1.9515199661254883 6.479887008666992
v 15.440662384033203 1.9829109907150269 6.525160789489746
v 15.48296070098877 2.042004108428955 6.282899856567383
v 15.425023078918457 1.9515199661254883 6.479887008666992
v 15.48296070098877 2.042004108428955 6.282899856567383
v 15.479159355163574 2.0343739986419678 6.271896839141846
v 15.440662384033203 1.9829109907150269 6.525160789489746
v 15.496499061584473 1.9726669788360596 6.512976169586182
v 15.490791320800781 2.040566921234131 6.281190872192383
v 15.440662384033203 1.9829109907150269 6.525160789489746
v 15.490791320800781 2.040566921234131 6.281190872192383
v 15.48296070098877 2.042004108428955 6.282899856567383
v 15.357748031616211 1.3815510272979736 6.884860038757324
v 15.404598236083984 1.6869460344314575 7.097333908081055
v 15.449917793273926 1.6549229621887207 7.09993314743042
v 15.357748031616211 1.3815510272979736 6.884860038757324
v 15.449917793273926 1.6549229621887207 7.09993314743042
v 15.436063766479492 1.3565850257873535 6.89806604385376
v 15.436063766479492 1.3565850257873535 6.89806604385376
v 15.449917793273926 1.6549229621887207 7.09993314743042
v 15.422951698303223 1.6212120056152344 7.154788017272949
v 15.436063766479492 1.3565850257873535 6.89806604385376
v 15.422951698303223 1.6212120056152344 7.154788017272949
v 15.405253410339355 1.3053410053253174 6.983903884887695
v 15.405253410339355 1.3053410053253174 6.983903884887695
v 15.422951698303223 1.6212120056152344 7.154788017272949
v 15.377632141113281 1.6532349586486816 7.152188777923584
v 15.405253410339355 1.3053410053253174 6.983903884887695
v 15.377632141113281 1.6532349586486816 7.152188777923584
v 15.32693862915039 1.3303070068359375 6.97069787979126
v 15.32693862915039 1.3303070068359375 6.97069787979126
v 15.377632141113281 1.6532349586486816 7.152188777923584
v 15.404598236083984 1.6869460344314575 7.097333908081055
v 15.32693862915039 1.3303070068359375 6.97069787979126
v 15.404598236083984 1.6869460344314575 7.097333908081055
v 15.357748031616211 1.3815510272979736 6.884860038757324
v 15.436063766479492 1.3565850257873535 6.89806604385376
v 15.405253410339355 1.3053410053253174 6.983903884887695
v 15.32693862915039 1.3303070068359375 6.97069787979126
v 15.436063766479492 1.3565850257873535 6.89806604385376
v 15.32693862915039 1.3303070068359375 6.97069787979126
v 15.357748031616211 1.3815510272979736 6.884860038757324
v 15.449917793273926 1.6549229621887207 7.09993314743042
v 15.404598236083984 1.6869460344314575 7.097333908081055
v 15.440993309020996 1.8353220224380493 7.272477149963379
v 15.449917793273926 1.6549229621887207 7.09993314743042
v 15.440993309020996 1.8353220224380493 7.272477149963379
v 15.479774475097656 1.807919979095459 7.274701118469238
v 15.456698417663574 1.7790720462799072 7.321640968322754
v 15.479774475097656 1.807919979095459 7.274701118469238
v 15.495983123779297 1.887526035308838 7.416800022125244
v 15.456698417663574 1.7790720462799072 7.321640968322754
v 15.495983123779297 1.887526035308838 7.416800022125244
v 15.492746353149414 1.8834799528121948 7.423384189605713
v 15.404598236083984 1.6869460344314575 7.097333908081055
v 15.377632141113281 1.6532349586486816 7.152188777923584
v 15.41791820526123 1.806475043296814 7.3194169998168945
v 15.404598236083984 1.6869460344314575 7.097333908081055
v 15.41791820526123 1.806475043296814 7.3194169998168945
v 15.440993309020996 1.8353220224380493 7.272477149963379
v 15.422951698303223 1.6212120056152344 7.154788017272949
v 15.449917793273926 1.6549229621887207 7.09993314743042
v 15.479774475097656 1.807919979095459 7.274701118469238
v 15.422951698303223 1.6212120056152344 7.154788017272949
v 15.479774475097656 1.807919979095459 7.274701118469238
v 15.456698417663574 1.7790720462799072 7.321640968322754
v 15.377632141113281 1.6532349586486816 7.152188777923584
v 15.422951698303223 1.6212120056152344 7.154788017272949
v 15.456698417663574 1.7790720462799072 7.321640968322754
v 15.377632141113281 1.6532349586486816 7.152188777923584
v 15.456698417663574 1.7790720462799072 7.321640968322754
v 15.41791820526123 1.806475043296814 7.3194169998168945
v 15.492746353149414 1.8834799528121948 7.423384189605713
v 15.495983123779297 1.887526035308838 7.416800022125244
v 15.486557960510254 1.894184947013855 7.416259765625
v 15.492746353149414 1.8834799528121948 7.423384189605713
v 15.486557960510254 1.894184947013855 7.416259765625
v 15.483321189880371 1.8901400566101074 7.422842979431152
v 15.41791820526123 1.806475043296814 7.3194169998168945
v 15.456698417663574 1.7790720462799072 7.321640968322754
v 15.492746353149414 1.8834799528121948 7.423384189605713
v 15.41791820526123 1.806475043296814 7.3194169998168945
v 15.492746353149414 1.8834799528121948 7.423384189605713
v 15.483321189880371 1.8901400566101074 7.422842979431152
v 15.479774475097656 1.807919979095459 7.274701118469238
v 15.440993309020996 1.8353220224380493 7.272477149963379
v 15.486557960510254 1.894184947013855 7.416259765625
v 15.479774475097656 1.807919979095459 7.274701118469238
v 15.486557960510254 1.894184947013855 7.416259765625
v 15.495983123779297 1.887526035308838 7.416800022125244
v 15.440993309020996 1.8353220224380493 7.272477149963379
v 15.41791820526123 1.806475043296814 7.3194169998168945
v 15.483321189880371 1.8901400566101074 7.422842979431152
v 15.440993309020996 1.8353220224380493 7.272477149963379
v 15.483321189880371 1.8901400566101074 7.422842979431152
v 15.486557960510254 1.894184947013855 7.416259765625
v 15.292332649230957 1.3505040407180786 6.9604268074035645
v 15.139665603637695 1.6777329444885254 6.818458080291748
v 15.079695701599121 1.6108160018920898 6.784080982208252
v 15.292332649230957 1.3505040407180786 6.9604268074035645
v 15.079695701599121 1.6108160018920898 6.784080982208252
v 15.187275886535645 1.294193983078003 6.909025192260742
v 15.187275886535645 1.294193983078003 6.909025192260742
v 15.079695701599121 1.6108160018920898 6.784080982208252
v 15.147656440734863 1.6010249853134155 6.6845808029174805
v 15.187275886535645 1.294193983078003 6.909025192260742
v 15.147656440734863 1.6010249853134155 6.6845808029174805
v 15.265348434448242 1.2784780263900757 6.7666778564453125
v 15.265348434448242 1.2784780263900757 6.7666778564453125
v 15.147656440734863 1.6010249853134155 6.6845808029174805
v 15.207627296447754 1.6679420471191406 6.718957901000977
v 15.265348434448242 1.2784780263900757 6.7666778564453125
v 15.207627296447754 1.6679420471191406 6.718957901000977
v 15.370404243469238 1.3347879648208618 6.818080902099609
v 15.370404243469238 1.3347879648208618 6.818080902099609
v 15.207627296447754 1.6679420471191406 6.718957901000977
v 15.139665603637695 1.6777329444885254 6.818458080291748
v 15.370404243469238 1.3347879648208618 6.818080902099609
v 15.139665603637695 1.6777329444885254 6.818458080291748
v 15.292332649230957 1.3505040407180786 6.9604268074035645
v 15.187275886535645 1.294193983078003 6.909025192260742
v 15.265348434448242 1.2784780263900757 6.7666778564453125
v 15.370404243469238 1.3347879648208618 6.818080902099609
v 15.187275886535645 1.294193983078003 6.909025192260742
v 15.370404243469238 1.3347879648208618 6.818080902099609
v 15.292332649230957 1.3505040407180786 6.9604268074035645
v 15.079695701599121 1.6108160018920898 6.784080982208252
v 15.139665603637695 1.6777329444885254 6.818458080291748
v 14.897425651550293 1.8923139572143555 6.588542938232422
v 15.079695701599121 1.6108160018920898 6.784080982208252
v 14.897425651550293 1.8923139572143555 6.588542938232422
v 14.860750198364258 1.85139000415802 6.567519187927246
v 14.902313232421875 1.8454020023345947 6.506669044494629
v 14.860750198364258 1.85139000415802 6.567519187927246
v 14.66435718536377 1.9300789833068848 6.318745136260986
v 14.902313232421875 1.8454020023345947 6.506669044494629
v 14.66435718536377 1.9300789833068848 6.318745136260986
v 14.670186042785645 1.92923903465271 6.310211181640625
v 15.139665603637695 1.6777329444885254 6.818458080291748
v 15.207627296447754 1.6679420471191406 6.718957901000977
v 14.93898868560791 1.8863259553909302 6.527691841125488
v 15.139665603637695 1.6777329444885254 6.818458080291748
v 14.93898868560791 1.8863259553909302 6.527691841125488
v 14.897425651550293 1.8923139572143555 6.588542938232422
v 15.147656440734863 1.6010249853134155 6.6845808029174805
v 15.079695701599121 1.6108160018920898 6.784080982208252
v 14.860750198364258 1.85139000415802 6.567519187927246
v 15.147656440734863 1.6010249853134155 6.6845808029174805
v 14.860750198364258 1.85139000415802 6.567519187927246
v 14.902313232421875 1.8454020023345947 6.506669044494629
v 15.207627296447754 1.6679420471191406 6.718957901000977
v 15.147656440734863 1.6010249853134155 6.6845808029174805
v 14.902313232421875 1.8454020023345947 6.506669044494629
v 15.207627296447754 1.6679420471191406 6.718957901000977
v 14.902313232421875 1.8454020023345947 6.506669044494629
v 14.93898868560791 1.8863259553909302 6.527691841125488
v 14.670186042785645 1.92923903465271 6.310211181640625
v 14.66435718536377 1.9300789833068848 6.318745136260986
v 14.673270225524902 1.940024971961975 6.323854923248291
v 14.670186042785645 1.92923903465271 6.310211181640625
v 14.673270225524902 1.940024971961975 6.323854923248291
v 14.679100036621094 1.9391859769821167 6.315320014953613
v 14.93898868560791 1.8863259553909302 6.527691841125488
v 14.902313232421875 1.8454020023345947 6.506669044494629
v 14.670186042785645 1.92923903465271 6.310211181640625
v 14.93898868560791 1.8863259553909302 6.527691841125488
v 14.670186042785645 1.92923903465271 6.310211181640625
v 14.679100036621094 1.9391859769821167 6.315320014953613
v 14.860750198364258 1.85139000415802 6.567519187927246
v 14.897425651550293 1.8923139572143555 6.588542938232422
v 14.673270225524902 1.940024971961975 6.323854923248291
v 14.860750198364258 1.85139000415802 6.567519187927246
v 14.673270225524902 1.940024971961975 6.323854923248291
v 14.66435718536377 1.9300789833068848 6.318745136260986
v 14.897425651550293 1.8923139572143555 6.588542938232422
v 14.93898868560791 1.8863259553909302 6.527691841125488
v 14.679100036621094 1.9391859769821167 6.315320014953613
v 14.897425651550293 1.8923139572143555 6.588542938232422
v 14.679100036621094 1.9391859769821167 6.315320014953613
v 14.673270225524902 1.940024971961975 6.323854923248291
vt 0.375 0
vt 0.625 0
vt 0.625 0.25
vt 0.375 0
vt 0.625 0.25
vt 0.375 0.25
vt 0.375 0.25
vt 0.625 0.25
vt 0.625 0.5
vt 0.375 0.25
vt 0.625 0.5
vt 0.375 0.5
vt 0.375 0.5
vt 0.625 0.5
vt 0.625 0.75
vt 0.375 0.5
vt 0.625 0.75
vt 0.375 0.75
vt 0.375 0.75
vt 0.625 0.75
vt 0.625 1
vt 0.375 0.75
vt 0.625 1
vt 0.375 1
vt 0.125 0.5
vt 0.375 0.5
vt 0.375 0.75
vt 0.125 0.5
vt 0.375 0.75
vt 0.125 0.75
vt 0.625 0.25
vt 0.625 0
vt 0.625 0
vt 0.625 0.25
vt 0.625 0
vt 0.625 0.25
vt 0.625 0.5
vt 0.625 0.25
vt 0.625 0.25
vt 0.625 0.5
vt 0.625 0.25
vt 0.625 0.5
vt 0.625 1
vt 0.625 0.75
vt 0.625 0.75
vt 0.625 1
vt 0.625 0.75
vt 0.625 1
vt 0.625 0.5
vt 0.625 0.25
vt 0.625 0.25
vt 0.625 0.5
vt 0.625 0.25
vt 0.625 0.5
vt 0.625 0.75
vt 0.625 0.5
vt 0.625 0.5
vt 0.625 0.75
vt 0.625 0.5
vt 0.625 0.75
vt 0.625 0.5
vt 0.875 0.5
vt 0.875 0.75
vt 0.625 0.5
vt 0.875 0.75
vt 0.625 0.75
vt 0.625 0.75
vt 0.625 0.5
vt 0.625 0.5
vt 0.625 0.75
vt 0.625 0.5
vt 0.625 0.75
vt 0.625 0.25
vt 0.625 0
vt 0.625 0
vt 0.625 0.25
vt 0.625 0
vt 0.625 0.25
vt 0.625 1
vt 0.625 0.75
vt 0.625 0.75
vt 0.625 1
vt 0.625 0.75
vt 0.625 1
vt 0.375 0
vt 0.625 0
vt 0.625 0.25
vt 0.375 0
vt 0.625 0.25
vt 0.375 0.25
vt 0.375 0.25
vt 0.625 0.25
vt 0.625 0.5
vt 0.375 0.25
vt 0.625 0.5
vt 0.375 0.5
vt 0.375 0.5
vt 0.625 0.5
vt 0.625 0.75
vt 0.375 0.5
vt 0.625 0.75
vt 0.375 0.75
vt 0.375 0.75
vt 0.625 0.75
vt 0.625 1
vt 0.375 0.75
vt 0.625 1
vt 0.375 1
vt 0.125 0.5
vt 0.375 0.5
vt 0.375 0.75
vt 0.125 0.5
vt 0.375 0.75
vt 0.125 0.75
vt 0.625 0.25
vt 0.625 0
vt 0.625 0
vt 0.625 0.25
vt 0.625 0
vt 0.625 0.25
vt 0.625 0.5
vt 0.625 0.25
vt 0.625 0.25
vt 0.625 0.5
vt 0.625 0.25
vt 0.625 0.5
vt 0.625 1
vt 0.625 0.75
vt 0.625 0.75
vt 0.625 1
vt 0.625 0.75
vt 0.625 1
vt 0.625 0.5
vt 0.625 0.25
vt 0.625 0.25
vt 0.625 0.5
vt 0.625 0.25
vt 0.625 0.5
vt 0.625 0.75
vt 0.625 0.5
vt 0.625 0.5
vt 0.625 0.75
vt 0.625 0.5
vt 0.625 0.75
vt 0.625 0.5
vt 0.875 0.5
vt 0.875 0.75
vt 0.625 0.5
vt 0.875 0.75
vt 0.625 0.75
vt 0.625 0.75
vt 0.625 0.5
vt 0.625 0.5
vt 0.625 0.75
vt 0.625 0.5
vt 0.625 0.75
vt 0.625 0.25
vt 0.625 0
vt 0.625 0
vt 0.625 0.25
vt 0.625 0
vt 0.625 0.25
vt 0.625 1
vt 0.625 0.75
vt 0.625 0.75
vt 0.625 1
vt 0.625 0.75
vt 0.625 1
vt 0.375 0
vt 0.625 0
vt 0.625 0.25
vt 0.375 0
vt 0.625 0.25
vt 0.375 0.25
vt 0.375 0.25
vt 0.625 0.25
vt 0.625 0.5
vt 0.375 0.25
vt 0.625 0.5
vt 0.375 0.5
vt 0.375 0.5
vt 0.625 0.5
vt 0.625 0.75
vt 0.375 0.5
vt 0.625 0.75
vt 0.375 0.75
vt 0.375 0.75
vt 0.625 0.75
vt 0.625 1
vt 0.375 0.75
vt 0.625 1
vt 0.375 1
vt 0.125 0.5
vt 0.375 0.5
vt 0.375 0.75
vt 0.125 0.5
vt 0.375 0.75
vt 0.125 0.75
vt 0.625 0.25
vt 0.625 0
vt 0.625 0
vt 0.625 0.25
vt 0.625 0
vt 0.625 0.25
vt 0.625 0.5
vt 0.625 0.25
vt 0.625 0.25
vt 0.625 0.5
vt 0.625 0.25
vt 0.625 0.5
vt 0.625 1
vt 0.625 0.75
vt 0.625 0.75
vt 0.625 1
vt 0.625 0.75
vt 0.625 1
vt 0.625 0.5
vt 0.625 0.25
vt 0.625 0.25
vt 0.625 0.5
vt 0.625 0.25
vt 0.625 0.5
vt 0.625 0.75
vt 0.625 0.5
vt 0.625 0.5
vt 0.625 0.75
vt 0.625 0.5
vt 0.625 0.75
vt 0.625 0.5
vt 0.875 0.5
vt 0.875 0.75
vt 0.625 0.5
vt 0.875 0.75
vt 0.625 0.75
vt 0.625 0.75
vt 0.625 0.5
vt 0.625 0.5
vt 0.625 0.75
vt 0.625 0.5
vt 0.625 0.75
vt 0.625 0.25
vt 0.625 0
vt 0.625 0
vt 0.625 0.25
vt 0.625 0
vt 0.625 0.25
vt 0.625 1
vt 0.625 0.75
vt 0.625 0.75
vt 0.625 1
vt 0.625 0.75
vt 0.625 1
vt 0.375 0
vt 0.625 0
vt 0.625 0.25
vt 0.375 0
vt 0.625 0.25
vt 0.375 0.25
vt 0.375 0.25
vt 0.625 0.25
vt 0.625 0.5
vt 0.375 0.25
vt 0.625 0.5
vt 0.375 0.5
vt 0.375 0.5
vt 0.625 0.5
vt 0.625 0.75
vt 0.375 0.5
vt 0.625 0.75
vt 0.375 0.75
vt 0.375 0.75
vt 0.625 0.75
vt 0.625 1
vt 0.375 0.75
vt 0.625 1
vt 0.375 1
vt 0.125 0.5
vt 0.375 0.5
vt 0.375 0.75
vt 0.125 0.5
vt 0.375 0.75
vt 0.125 0.75
vt 0.625 0.25
vt 0.625 0
vt 0.625 0
vt 0.625 0.25
vt 0.625 0
vt 0.625 0.25
vt 0.625 0.5
vt 0.625 0.25
vt 0.625 0.25
vt 0.625 0.5
vt 0.625 0.25
vt 0.625 0.5
vt 0.625 1
vt 0.625 0.75
vt 0.625 0.75
vt 0.625 1
vt 0.625 0.75
vt 0.625 1
vt 0.625 0.5
vt 0.625 0.25
vt 0.625 0.25
vt 0.625 0.5
vt 0.625 0.25
vt 0.625 0.5
vt 0.625 0.75
vt 0.625 0.5
vt 0.625 0.5
vt 0.625 0.75
vt 0.625 0.5
vt 0.625 0.75
vt 0.625 0.5
vt 0.875 0.5
vt 0.875 0.75
vt 0.625 0.5
vt 0.875 0.75
vt 0.625 0.75
vt 0.625 0.75
vt 0.625 0.5
vt 0.625 0.5
vt 0.625 0.75
vt 0.625 0.5
vt 0.625 0.75
vt 0.625 0.25
vt 0.625 0
vt 0.625 0
vt 0.625 0.25
vt 0.625 0
vt 0.625 0.25
vt 0.625 1
vt 0.625 0.75
vt 0.625 0.75
vt 0.625 1
vt 0.625 0.75
vt 0.625 1
vt 0.375 0
vt 0.625 0
vt 0.625 0.25
vt 0.375 0
vt 0.625 0.25
vt 0.375 0.25
vt 0.375 0.25
vt 0.625 0.25
vt 0.625 0.5
vt 0.375 0.25
vt 0.625 0.5
vt 0.375 0.5
vt 0.375 0.5
vt 0.625 0.5
vt 0.625 0.75
vt 0.375 0.5
vt 0.625 0.75
vt 0.375 0.75
vt 0.375 0.75
vt 0.625 0.75
vt 0.625 1
vt 0.375 0.75
vt 0.625 1
vt 0.375 1
vt 0.125 0.5
vt 0.375 0.5
vt 0.375 0.75
vt 0.125 0.5
vt 0.375 0.75
vt 0.125 0.75
vt 0.625 0.25
vt 0.625 0
vt 0.625 0
vt 0.625 0.25
vt 0.625 0
vt 0.625 0.25
vt 0.625 0.5
vt 0.625 0.25
vt 0.625 0.25
vt 0.625 0.5
vt 0.625 0.25
vt 0.625 0.5
vt 0.625 1
vt 0.625 0.75
vt 0.625 0.75
vt 0.625 1
vt 0.625 0.75
vt 0.625 1
vt 0.625 0.5
vt 0.625 0.25
vt 0.625 0.25
vt 0.625 0.5
vt 0.625 0.25
vt 0.625 0.5
vt 0.625 0.75
vt 0.625 0.5
vt 0.625 0.5
vt 0.625 0.75
vt 0.625 0.5
vt 0.625 0.75
vt 0.625 0.5
vt 0.875 0.5
vt 0.875 0.75
vt 0.625 0.5
vt 0.875 0.75
vt 0.625 0.75
vt 0.625 0.75
vt 0.625 0.5
vt 0.625 0.5
vt 0.625 0.75
vt 0.625 0.5
vt 0.625 0.75
vt 0.625 0.25
vt 0.625 0
vt 0.625 0
vt 0.625 0.25
vt 0.625 0
vt 0.625 0.25
vt 0.625 1
vt 0.625 0.75
vt 0.625 0.75
vt 0.625 1
vt 0.625 0.75
vt 0.625 1
vn 0.9239763982966548 0.24899363109247377 0.290292588720633
vn 0.9371760070454879 0.2608933088462041 0.23159406991016568
vn 0.9384386940400619 0.2424100082080702 0.2461101490165455
vn 0.9351022815697871 0.2814006759711261 0.21540051663348472
vn 0.9514114242787833 0.24990300380608393 0.17990216908229142
vn 0.9358271600204181 0.2668077252423472 0.2303066744997271
vn -0.22960235691515382 -0.22630232674548936 0.9466097477886988
vn -0.19749846980157848 -0.21069836710003356 0.9573925801505954
vn -0.21079464061491623 -0.22119437309480583 0.9521757552044812
vn -0.14429343476034315 -0.18569155195252493 0.9719557871727115
vn -0.12269838473346578 -0.18479756875710382 0.975087157625031
vn -0.15209388251498226 -0.19339222105046308 0.9692610070247785
vn -0.9622276446406075 -0.13930400785840713 -0.23390671919372788
vn -0.985554207013913 -0.11809451588096354 -0.1213943588311161
vn -0.9724021547625017 -0.13050029158063933 -0.19340042220898088
vn -0.9739252711768194 -0.15810409324342775 -0.1627042158729521
vn -0.9808994793357504 -0.15149992273864385 -0.12199993790588112
vn -0.9663434560888097 -0.1659074658506095 -0.1966088442806264
vn 0.2060085324525418 0.31271295495536 -0.9272384226076036
vn 0.15749409901405428 0.32078798953933213 -0.9339650285439303
vn 0.18480561315395616 0.31350951113853665 -0.9314282966350476
vn 0.10749489774552393 0.3129851324903338 -0.9436552091726551
vn 0.08750217226871877 0.30870766430049495 -0.9471235124577936
vn 0.1267968032723647 0.3049923162570056 -0.9438761876984162
vn 0.26969972363153677 -0.9132990732235502 -0.30519970826014425
vn 0.26969972363153677 -0.9132990732235502 -0.30519970826014425
vn 0.26969972363153677 -0.9132990732235502 -0.30519970826014425
vn 0.26969972363153677 -0.9132990732235502 -0.30519970826014425
vn 0.26969972363153677 -0.9132990732235502 -0.30519970826014425
vn 0.26969972363153677 -0.9132990732235502 -0.30519970826014425
vn 0.8363646627148555 0.38248384510759814 0.39268340835025456
vn 0.8363646627148555 0.38248384510759814 0.39268340835025456
vn 0.8363646627148555 0.38248384510759814 0.39268340835025456
vn 0.8363646627148555 0.38248384510759814 0.39268340835025456
vn 0.8363646627148555 0.38248384510759814 0.39268340835025456
vn 0.8363646627148555 0.38248384510759814 0.39268340835025456
vn 0.03120059967414617 -0.8295159853133571 0.5576107537427735
vn 0.03120059967414617 -0.8295159853133571 0.5576107537427735
vn 0.03120059967414617 -0.8295159853133571 0.5576107537427735
vn 0.031198860599511522 -0.8294697493363516 0.5576796266972484
vn 0.031198860599511522 -0.8294697493363516 0.5576796266972484
vn 0.031198860599511522 -0.8294697493363516 0.5576796266972484
vn 0.08500128787070728 0.613109275161806 -0.7854118650560902
vn 0.08500128787070728 0.613109275161806 -0.7854118650560902
vn 0.08500128787070728 0.613109275161806 -0.7854118650560902
vn 0.08500128787070728 0.613109275161806 -0.7854118650560902
vn 0.08500128787070728 0.613109275161806 -0.7854118650560902
vn 0.08500128787070728 0.613109275161806 -0.7854118650560902
vn -0.0945016552441217 -0.5914103999279804 0.8008140708136611
vn -0.0945016552441217 -0.5914103999279804 0.8008140708136611
vn -0.0945016552441217 -0.5914103999279804 0.8008140708136611
vn -0.0945016552441217 -0.5914103999279804 0.8008140708136611
vn -0.0945016552441217 -0.5914103999279804 0.8008140708136611
vn -0.0945016552441217 -0.5914103999279804 0.8008140708136611
vn -0.8542970329384492 -0.3590987574841556 -0.3757986986218792
vn -0.8542970329384492 -0.3590987574841556 -0.3757986986218792
vn -0.8542970329384492 -0.3590987574841556 -0.3757986986218792
vn -0.8542970329384492 -0.3590987574841556 -0.3757986986218792
vn -0.8542970329384492 -0.3590987574841556 -0.3757986986218792
vn -0.8542970329384492 -0.3590987574841556 -0.3757986986218792
vn -0.3384889020180717 0.7518753810008472 0.5657814725275397
vn -0.3384889020180717 0.7518753810008472 0.5657814725275397
vn -0.3384889020180717 0.7518753810008472 0.5657814725275397
vn -0.3384889020180717 0.7518753810008472 0.5657814725275397
vn -0.3384889020180717 0.7518753810008472 0.5657814725275397
vn -0.3384889020180717 0.7518753810008472 0.5657814725275397
vn -0.7639903095852463 -0.4629941277957964 -0.4493943084713569
vn -0.7639903095852463 -0.4629941277957964 -0.4493943084713569
vn -0.7639903095852463 -0.4629941277957964 -0.4493943084713569
vn -0.7640256754039862 -0.4629155700706073 -0.44941511134994944
vn -0.7640256754039862 -0.4629155700706073 -0.44941511134994944
vn -0.7640256754039862 -0.4629155700706073 -0.44941511134994944
vn 0.5899028422637685 0.5998028635515843 0.5406025911558758
vn 0.5899028422637685 0.5998028635515843 0.5406025911558758
vn 0.5899028422637685 0.5998028635515843 0.5406025911558758
vn 0.5899063292307678 0.5997063913742722 0.5407058043690017
vn 0.5899063292307678 0.5997063913742722 0.5407058043690017
vn 0.5899063292307678 0.5997063913742722 0.5407058043690017
vn -0.09219950909782859 0.9075951181613682 -0.4095977929771738
vn -0.09219950909782859 0.9075951181613682 -0.4095977929771738
vn -0.09219950909782859 0.9075951181613682 -0.4095977929771738
vn -0.0922040957788229 0.9075403071850736 -0.40971819041388907
vn -0.0922040957788229 0.9075403071850736 -0.40971819041388907
vn -0.0922040957788229 0.9075403071850736 -0.40971819041388907
vn 0.1318990732931353 0.05209963394582843 -0.9898930561465328
vn 0.09479768797876519 0.06339845218729599 -0.9934757342855112
vn 0.10689487444851382 0.060097119243320514 -0.9924524281169805
vn 0.03399977273698654 0.08149945205975626 -0.996093296216671
vn 0.011599806711307108 0.07929868091057272 -0.9967834086149827
vn 0.04619923021250842 0.07669872439006724 -0.9959834018720936
vn 0.9911838827590672 -0.06179899629310191 0.11719809988146154
vn 0.9944058823467375 -0.07000041266254346 0.07910046384996804
vn 0.9927168709590446 -0.0794013539020973 0.09060154033898966
vn 0.998939548693084 -0.032001268590958656 0.033101312140562895
vn 0.9983743120513415 -0.0556985687747577 0.012099688940379537
vn 0.9983333149443944 -0.03860128901508323 0.04290143072801779
vn -0.08970164233550691 0.04350079592703493 0.9950182390871171
vn -0.06859688297156152 0.03429844148578076 0.9970547048974957
vn -0.07339919780888571 0.03199965255477627 0.9967891351722219
vn -0.027100225473915503 0.04740039487997355 0.9985082775543153
vn -0.007199746992678497 0.034898772673064384 0.9993649179899979
vn -0.029701480063324712 0.04490223787549039 0.9985497539511095
vn -0.9827776212741717 0.13489693100532527 -0.12629713032379442
vn -0.9842040883163133 0.16590069590181122 -0.061800255992587774
vn -0.9835688373862815 0.1528951480652818 -0.0959969573512306
vn -0.9878955588138757 0.1526993175970991 -0.027299876944787103
vn -0.9862695776867296 0.16499491855367546 0.006999784361403005
vn -0.9881381284769105 0.14590562724305295 -0.04790184744830004
vn -0.06889933672280624 -0.997490449317688 -0.016299844145090454
vn -0.06889933672280624 -0.997490449317688 -0.016299844145090454
vn -0.06889933672280624 -0.997490449317688 -0.016299844145090454
vn -0.06889933672280624 -0.997490449317688 -0.016299844145090454
vn -0.06889933672280624 -0.997490449317688 -0.016299844145090454
vn -0.06889933672280624 -0.997490449317688 -0.016299844145090454
vn 0.22890065010641517 0.33660096094928377 -0.9134025867430414
vn 0.22890065010641517 0.33660096094928377 -0.9134025867430414
vn 0.22890065010641517 0.33660096094928377 -0.9134025867430414
vn 0.22890065010641517 0.33660096094928377 -0.9134025867430414
vn 0.22890065010641517 0.33660096094928377 -0.9134025867430414
vn 0.22890065010641517 0.33660096094928377 -0.9134025867430414
vn 0.7483234205650983 -0.6604206287746466 0.06210194298612204
vn 0.7483234205650983 -0.6604206287746466 0.06210194298612204
vn 0.7483234205650983 -0.6604206287746466 0.06210194298612204
vn 0.7483627487259706 -0.6603671261787465 0.062196904920850234
vn 0.7483627487259706 -0.6603671261787465 0.062196904920850234
vn 0.7483627487259706 -0.6603671261787465 0.062196904920850234
vn -0.8842068362971715 0.4592035571475859 -0.08550066519244712
vn -0.8842068362971715 0.4592035571475859 -0.08550066519244712
vn -0.8842068362971715 0.4592035571475859 -0.08550066519244712
vn -0.8842068362971715 0.4592035571475859 -0.08550066519244712
vn -0.8842068362971715 0.4592035571475859 -0.08550066519244712
vn -0.8842068362971715 0.4592035571475859 -0.08550066519244712
vn 0.9030943882369268 -0.42009738663798546 0.08909944823008792
vn 0.9030943882369268 -0.42009738663798546 0.08909944823008792
vn 0.9030943882369268 -0.42009738663798546 0.08909944823008792
vn 0.9030943882369268 -0.42009738663798546 0.08909944823008792
vn 0.9030943882369268 -0.42009738663798546 0.08909944823008792
vn 0.9030943882369268 -0.42009738663798546 0.08909944823008792
vn -0.2130924339915822 -0.29298960814618813 0.9320668989369197
vn -0.2130924339915822 -0.29298960814618813 0.9320668989369197
vn -0.2130924339915822 -0.29298960814618813 0.9320668989369197
vn -0.21309867740137664 -0.29289817649613886 0.932094207628725
vn -0.21309867740137664 -0.29289817649613886 0.932094207628725
vn -0.21309867740137664 -0.29289817649613886 0.932094207628725
vn 0.3686177255646897 0.9263445066387489 0.07750372519903684
vn 0.3686177255646897 0.9263445066387489 0.07750372519903684
vn 0.3686177255646897 0.9263445066387489 0.07750372519903684
vn 0.36861486664426546 0.9263373221084179 0.07760312981984537
vn 0.36861486664426546 0.9263373221084179 0.07760312981984537
vn 0.36861486664426546 0.9263373221084179 0.07760312981984537
vn -0.2828002723604371 -0.49130047913888303 0.8238008528465885
vn -0.2828002723604371 -0.49130047913888303 0.8238008528465885
vn -0.2828002723604371 -0.49130047913888303 0.8238008528465885
vn -0.28278637565993353 -0.49137634859491336 0.823760371578197
vn -0.28278637565993353 -0.49137634859491336 0.823760371578197
vn -0.28278637565993353 -0.49137634859491336 0.823760371578197
vn 0.32228467217601126 0.6141708107232647 -0.7203657441438541
vn 0.32228467217601126 0.6141708107232647 -0.7203657441438541
vn 0.32228467217601126 0.6141708107232647 -0.7203657441438541
vn 0.32228467217601126 0.6141708107232647 -0.7203657441438541
vn 0.32228467217601126 0.6141708107232647 -0.7203657441438541
vn 0.32228467217601126 0.6141708107232647 -0.7203657441438541
vn -0.6528195777463773 0.7560226278337892 -0.047501422234850245
vn -0.6528195777463773 0.7560226278337892 -0.047501422234850245
vn -0.6528195777463773 0.7560226278337892 -0.047501422234850245
vn -0.6528769318294398 0.7559732939987631 -0.04749832255602879
vn -0.6528769318294398 0.7559732939987631 -0.04749832255602879
vn -0.6528769318294398 0.7559732939987631 -0.04749832255602879
vn -0.9638210256957077 0.15520338822599253 0.2167047270136156
vn -0.9554399148472987 0.16800701820873623 0.24271013771409727
vn -0.9574804409627002 0.16819656861717225 0.2343952206835327
vn -0.9440617420593695 0.18049268201365415 0.2759888021629613
vn -0.9385494027174409 0.1788094162402582 0.2952155336742171
vn -0.945912358591422 0.17910234248575532 0.27050353191802873
vn -0.22809614643395398 -0.20559651838758122 -0.951683886387116
vn -0.28130300536971553 -0.19300205998782557 -0.940010012718174
vn -0.26690480435012165 -0.193403474731829 -0.9441170061896345
vn -0.3471124376715035 -0.1777063708617898 -0.9208329932017415
vn -0.38209734582071914 -0.1770987790302526 -0.9069937380063633
vn -0.33460114322373374 -0.17900061587132376 -0.9252031422725807
vn 0.9555127802787772 -0.06800091275362403 -0.2870038372367093
vn 0.9554813319094533 -0.06889864996297082 -0.28689440636899394
vn 0.95558859129596 -0.07029915691727431 -0.2861965630850993
vn 0.9486380448094652 -0.06780271993099621 -0.30901238018894
vn 0.9486380448094652 -0.06780271993099621 -0.30901238018894
vn 0.9486380448094652 -0.06780271993099621 -0.30901238018894
vn 0.25179888701619435 0.31349860058968726 0.9155959523314382
vn 0.2853024608653258 0.29500254527469133 0.9119078923365248
vn 0.279609179540471 0.28980950846854175 0.9153300800901971
vn 0.3532001020415777 0.3159000994078693 0.8806002584100902
vn 0.3746120213439345 0.28550915716949615 0.8821283096222315
vn 0.34930713627198884 0.31290640198925707 0.8832180411108006
vn -0.0818961415651892 -0.9680543959066086 0.23698883636708654
vn -0.0818961415651892 -0.9680543959066086 0.23698883636708654
vn -0.0818961415651892 -0.9680543959066086 0.23698883636708654
vn -0.0818961415651892 -0.9680543959066086 0.23698883636708654
vn -0.0818961415651892 -0.9680543959066086 0.23698883636708654
vn -0.0818961415651892 -0.9680543959066086 0.23698883636708654
vn -0.936185034026982 0.3404945456947052 0.08729860489179887
vn -0.936185034026982 0.3404945456947052 0.08729860489179887
vn -0.936185034026982 0.3404945456947052 0.08729860489179887
vn -0.936153149604666 0.3405829607787781 0.08729563169153952
vn -0.936153149604666 0.3405829607787781 0.08729563169153952
vn -0.936153149604666 0.3405829607787781 0.08729563169153952
vn -0.25089196574462536 -0.8750719932017511 -0.41388673358627004
vn -0.25089196574462536 -0.8750719932017511 -0.41388673358627004
vn -0.25089196574462536 -0.8750719932017511 -0.41388673358627004
vn -0.25089196574462536 -0.8750719932017511 -0.41388673358627004
vn -0.25089196574462536 -0.8750719932017511 -0.41388673358627004
vn -0.25089196574462536 -0.8750719932017511 -0.41388673358627004
vn 0.2740985818852374 0.6415966801542521 0.7163963061208122
vn 0.2740985818852374 0.6415966801542521 0.7163963061208122
vn 0.2740985818852374 0.6415966801542521 0.7163963061208122
vn 0.2740985818852374 0.6415966801542521 0.7163963061208122
vn 0.2740985818852374 0.6415966801542521 0.7163963061208122
vn 0.2740985818852374 0.6415966801542521 0.7163963061208122
vn -0.2741932049684563 -0.6164847594032598 -0.7380817216085431
vn -0.2741932049684563 -0.6164847594032598 -0.7380817216085431
vn -0.2741932049684563 -0.6164847594032598 -0.7380817216085431
vn -0.27421011114024807 -0.6164227502619025 -0.7381272301629339
vn -0.27421011114024807 -0.6164227502619025 -0.7381272301629339
vn -0.27421011114024807 -0.6164227502619025 -0.7381272301629339
vn 0.9429259768559359 -0.3153086736248552 -0.10710295284077688
vn 0.9429259768559359 -0.3153086736248552 -0.10710295284077688
vn 0.9429259768559359 -0.3153086736248552 -0.10710295284077688
vn 0.9429259768559359 -0.3153086736248552 -0.10710295284077688
vn 0.9429259768559359 -0.3153086736248552 -0.10710295284077688
vn 0.9429259768559359 -0.3153086736248552 -0.10710295284077688
vn 0.024400973101258532 0.8176326344732925 -0.5752229720343017
vn 0.024400973101258532 0.8176326344732925 -0.5752229720343017
vn 0.024400973101258532 0.8176326344732925 -0.5752229720343017
vn 0.024500101693376537 0.8175034098499994 -0.575402398240256
vn 0.024500101693376537 0.8175034098499994 -0.575402398240256
vn 0.024500101693376537 0.8175034098499994 -0.575402398240256
vn 0.9448100721741792 -0.30740325898766796 -0.1133012086519068
vn 0.9448100721741792 -0.30740325898766796 -0.1133012086519068
vn 0.9448100721741792 -0.30740325898766796 -0.1133012086519068
vn 0.9448788561823515 -0.30719314816478993 -0.11329747066963523
vn 0.9448788561823515 -0.30719314816478993 -0.11329747066963523
vn 0.9448788561823515 -0.30719314816478993 -0.11329747066963523
vn -0.873897505132908 0.48489861545056906 -0.03429990169956964
vn -0.873897505132908 0.48489861545056906 -0.03429990169956964
vn -0.873897505132908 0.48489861545056906 -0.03429990169956964
vn -0.8739398732967026 0.48482213287619097 -0.034301564622103244
vn -0.8739398732967026 0.48482213287619097 -0.034301564622103244
vn -0.8739398732967026 0.48482213287619097 -0.034301564622103244
vn 0.23019955746887497 0.9353982408029026 0.2683995060427075
vn 0.23019955746887497 0.9353982408029026 0.2683995060427075
vn 0.23019955746887497 0.9353982408029026 0.2683995060427075
vn 0.23020573612458012 0.9354233472963324 0.2683066909122198
vn 0.23020573612458012 0.9354233472963324 0.2683066909122198
vn 0.23020573612458012 0.9354233472963324 0.2683066909122198
vn 0.41610264701433586 0.48400308171673945 -0.7698049129723468
vn 0.3240142239961502 0.5462239546369804 -0.7724339285847759
vn 0.36841326620484094 0.5279189796685365 -0.765227558436059
vn 0.31670314547075695 0.4994049317726856 -0.8064079809687204
vn 0.2573987011563715 0.514897418399638 -0.8176958830570207
vn 0.34968634822427097 0.47898129739709194 -0.8051685380150992
vn 0.9201154036486413 -0.24330408590650546 0.30690514128912455
vn 0.9314413783252048 -0.22420995544266456 0.28661272585850295
vn 0.9256913949572851 -0.2388977827823264 0.29329727357021923
vn 0.9531124018444804 -0.18510240763679037 0.2394031080360262
vn 0.9562719328503191 -0.18699451408364007 0.22489340173810785
vn 0.9495871744869742 -0.19709734039571813 0.2437967113370878
vn -0.3520950067095163 -0.42109400123110663 0.8358881195335908
vn -0.3195874992807702 -0.43758288972708936 0.8404671587406337
vn -0.3330936237538728 -0.44349153449292517 0.832084068257303
vn -0.29198724208019083 -0.4312811764487407 0.8536626952745412
vn -0.281415920747183 -0.4561257997265833 0.8442477920455581
vn -0.30079351641324076 -0.43289068685070997 0.8497816859180233
vn -0.9142879854997907 0.2997960609305554 -0.27239640493453154
vn -0.9257038364487239 0.2971012359815836 -0.2341009670256187
vn -0.9187858757708067 0.29869541423609547 -0.2580960363864567
vn -0.9455100933070958 0.26820286852433695 -0.18460196307115528
vn -0.9500167706773511 0.26100461818921816 -0.17130302015924193
vn -0.9424829891185978 0.2675951714315627 -0.20029637902015507
vn -0.16840208345981933 -0.8186101048384749 -0.5491067606055613
vn -0.16840208345981933 -0.8186101048384749 -0.5491067606055613
vn -0.16840208345981933 -0.8186101048384749 -0.5491067606055613
vn -0.16840208345981933 -0.8186101048384749 -0.5491067606055613
vn -0.16840208345981933 -0.8186101048384749 -0.5491067606055613
vn -0.16840208345981933 -0.8186101048384749 -0.5491067606055613
vn 0.474382201192764 0.62057668319975 -0.6243765750413008
vn 0.474382201192764 0.62057668319975 -0.6243765750413008
vn 0.474382201192764 0.62057668319975 -0.6243765750413008
vn 0.47433431106331975 0.620644883395208 -0.6243451690078451
vn 0.47433431106331975 0.620644883395208 -0.6243451690078451
vn 0.47433431106331975 0.620644883395208 -0.6243451690078451
vn 0.8782995691718926 -0.4527997778122369 0.1534999283571717
vn 0.8782995691718926 -0.4527997778122369 0.1534999283571717
vn 0.8782995691718926 -0.4527997778122369 0.1534999283571717
vn 0.8782598033702991 -0.45287925911004584 0.15349297851009228
vn 0.8782598033702991 -0.45287925911004584 0.15349297851009228
vn 0.8782598033702991 -0.45287925911004584 0.15349297851009228
vn -0.8880881156769963 0.42489429601161965 -0.17539765109622235
vn -0.8880881156769963 0.42489429601161965 -0.17539765109622235
vn -0.8880881156769963 0.42489429601161965 -0.17539765109622235
vn -0.8880881156769963 0.42489429601161965 -0.17539765109622235
vn -0.8880881156769963 0.42489429601161965 -0.17539765109622235
vn -0.8880881156769963 0.42489429601161965 -0.17539765109622235
vn 0.8960927078489935 -0.3983967734636412 0.1956984155112617
vn 0.8960927078489935 -0.3983967734636412 0.1956984155112617
vn 0.8960927078489935 -0.3983967734636412 0.1956984155112617
vn 0.8960927078489935 -0.3983967734636412 0.1956984155112617
vn 0.8960927078489935 -0.3983967734636412 0.1956984155112617
vn 0.8960927078489935 -0.3983967734636412 0.1956984155112617
vn -0.4595002100522293 -0.5969002399272033 0.6577002816912915
vn -0.4595002100522293 -0.5969002399272033 0.6577002816912915
vn -0.4595002100522293 -0.5969002399272033 0.6577002816912915
vn -0.4595002100522293 -0.5969002399272033 0.6577002816912915
vn -0.4595002100522293 -0.5969002399272033 0.6577002816912915
vn -0.4595002100522293 -0.5969002399272033 0.6577002816912915
vn 0.4304052091717788 0.6591079519168728 0.6167074376377689
vn 0.4304052091717788 0.6591079519168728 0.6167074376377689
vn 0.4304052091717788 0.6591079519168728 0.6167074376377689
vn 0.43040337961277675 0.6592051675682703 0.6166047987724298
vn 0.43040337961277675 0.6592051675682703 0.6166047987724298
vn 0.43040337961277675 0.6592051675682703 0.6166047987724298
vn -0.4295860012561522 -0.5497820627209701 0.7163766823641209
vn -0.4295860012561522 -0.5497820627209701 0.7163766823641209
vn -0.4295860012561522 -0.5497820627209701 0.7163766823641209
vn -0.4295860012561522 -0.5497820627209701 0.7163766823641209
vn -0.4295860012561522 -0.5497820627209701 0.7163766823641209
vn -0.4295860012561522 -0.5497820627209701 0.7163766823641209
vn 0.5298842749818409 0.7126788402886242 -0.4596863340712129
vn 0.5298842749818409 0.7126788402886242 -0.4596863340712129
vn 0.5298842749818409 0.7126788402886242 -0.4596863340712129
vn 0.5299086281273321 0.7127115945565 -0.45960747254689
vn 0.5299086281273321 0.7127115945565 -0.45960747254689
vn 0.5299086281273321 0.7127115945565 -0.45960747254689
vn -0.7848140659965772 0.619711126992597 -0.005000089547760977
vn -0.7848140659965772 0.619711126992597 -0.005000089547760977
vn -0.7848140659965772 0.619711126992597 -0.005000089547760977
vn -0.7848140659965772 0.619711126992597 -0.005000089547760977
vn -0.7848140659965772 0.619711126992597 -0.005000089547760977
vn -0.7848140659965772 0.619711126992597 -0.005000089547760977
vn -0.5787056149786212 0.0922008972002524 0.8103078462829324
vn -0.5556016757345869 0.10570032229708991 0.8247025038080158
vn -0.560115880096328 0.10270291078789334 0.8220233044017732
vn -0.5106141793733394 0.15390428007523588 0.8459235381507091
vn -0.4916710726560801 0.15569084013222131 0.856749624226438
vn -0.5141271486855541 0.15140799054966583 0.8442445708336979
vn -0.7388049016226659 -0.44850298953919365 -0.5030033655083519
vn -0.811194852426782 -0.39609748986208543 -0.4301972686120249
vn -0.7839832415865595 -0.4104912260682586 -0.46569005812064324
vn -0.8022833625291952 -0.43169105169482114 -0.41229145285279334
vn -0.8400382453967056 -0.39981821804557716 -0.3667167009964009
vn -0.7746072385222255 -0.44770416078225206 -0.4467041643495517
vn 0.5196761667839053 -0.01859914741169146 -0.854160847494396
vn 0.5065249085122636 -0.03170155874230295 -0.8616423435683459
vn 0.5108097920006912 -0.03150060411246016 -0.8591164463195666
vn 0.46440230758972234 -0.038100190328504174 -0.8848044259621856
vn 0.45370983845389334 -0.052201131995355136 -0.8896192580584942
vn 0.4668119037310684 -0.0384009807020656 -0.8835225018165046
vn 0.7239086212345264 0.5198061834145115 0.45360537892133335
vn 0.7610883226771094 0.49389242706847214 0.42049356186386283
vn 0.7603279857230038 0.485217859867924 0.4318159128512885
vn 0.7555967307029838 0.5292977013916078 0.38589833357054415
vn 0.789715423444623 0.49000959718661846 0.3691072264785501
vn 0.7544895141317717 0.5242927121583936 0.39479453522408214
vn 0.3404175149139879 -0.8958460596573086 0.2856146931379037
vn 0.3404175149139879 -0.8958460596573086 0.2856146931379037
vn 0.3404175149139879 -0.8958460596573086 0.2856146931379037
vn 0.3404175149139879 -0.8958460596573086 0.2856146931379037
vn 0.3404175149139879 -0.8958460596573086 0.2856146931379037
vn 0.3404175149139879 -0.8958460596573086 0.2856146931379037
vn -0.6097692850941147 0.1462926385041891 0.7789607710759863
vn -0.6097692850941147 0.1462926385041891 0.7789607710759863
vn -0.6097692850941147 0.1462926385041891 0.7789607710759863
vn -0.6097692850941147 0.1462926385041891 0.7789607710759863
vn -0.6097692850941147 0.1462926385041891 0.7789607710759863
vn -0.6097692850941147 0.1462926385041891 0.7789607710759863
vn -0.2700091984930835 -0.958632604609979 -0.09010306380923207
vn -0.2700091984930835 -0.958632604609979 -0.09010306380923207
vn -0.2700091984930835 -0.958632604609979 -0.09010306380923207
vn -0.2700116299842518 -0.9586412373036974 -0.09000387666141728
vn -0.2700116299842518 -0.9586412373036974 -0.09000387666141728
vn -0.2700116299842518 -0.9586412373036974 -0.09000387666141728
vn 0.49379701583747604 0.8311949564659926 0.2554984373641065
vn 0.49379701583747604 0.8311949564659926 0.2554984373641065
vn 0.49379701583747604 0.8311949564659926 0.2554984373641065
vn 0.49379701583747604 0.8311949564659926 0.2554984373641065
vn 0.49379701583747604 0.8311949564659926 0.2554984373641065
vn 0.49379701583747604 0.8311949564659926 0.2554984373641065
vn -0.5538916881361724 -0.7758883582729517 -0.30199545246603526
vn -0.5538916881361724 -0.7758883582729517 -0.30199545246603526
vn -0.5538916881361724 -0.7758883582729517 -0.30199545246603526
vn -0.5538916881361724 -0.7758883582729517 -0.30199545246603526
vn -0.5538916881361724 -0.7758883582729517 -0.30199545246603526
vn -0.5538916881361724 -0.7758883582729517 -0.30199545246603526
vn 0.5460823731539792 -0.06009805821658023 -0.8355730160369677
vn 0.5460823731539792 -0.06009805821658023 -0.8355730160369677
vn 0.5460823731539792 -0.06009805821658023 -0.8355730160369677
vn 0.5460823731539792 -0.06009805821658023 -0.8355730160369677
vn 0.5460823731539792 -0.06009805821658023 -0.8355730160369677
vn 0.5460823731539792 -0.06009805821658023 -0.8355730160369677
vn -0.5435792328378287 0.7138727265892567 -0.4414831229610686
vn -0.5435792328378287 0.7138727265892567 -0.4414831229610686
vn -0.5435792328378287 0.7138727265892567 -0.4414831229610686
vn -0.5435087659340827 0.7139115357772979 -0.44150712388013696
vn -0.5435087659340827 0.7139115357772979 -0.44150712388013696
vn -0.5435087659340827 0.7139115357772979 -0.44150712388013696
vn 0.6084008511383274 -0.14430020378296002 -0.7804010863154632
vn 0.6084008511383274 -0.14430020378296002 -0.7804010863154632
vn 0.6084008511383274 -0.14430020378296002 -0.7804010863154632
vn 0.6084096276838774 -0.14420228212220154 -0.7804123440671059
vn 0.6084096276838774 -0.14420228212220154 -0.7804123440671059
vn 0.6084096276838774 -0.14420228212220154 -0.7804123440671059
vn -0.7018849365734534 0.2961936482190524 0.6477861210044311
vn -0.7018849365734534 0.2961936482190524 0.6477861210044311
vn -0.7018849365734534 0.2961936482190524 0.6477861210044311
vn -0.7019057263760522 0.2961024040534341 0.6478053084023652
vn -0.7019057263760522 0.2961024040534341 0.6478053084023652
vn -0.7019057263760522 0.2961024040534341 0.6478053084023652
vn 0.17909961012137568 0.9834978254122666 0.025599942650594537
vn 0.17909961012137568 0.9834978254122666 0.025599942650594537
vn 0.17909961012137568 0.9834978254122666 0.025599942650594537
vn 0.17909961012137568 0.9834978254122666 0.025599942650594537
vn 0.17909961012137568 0.9834978254122666 0.025599942650594537
vn 0.17909961012137568 0.9834978254122666 0.025599942650594537
f 1/1/1 2/2/2 3/3/3
f 4/4/4 5/5/5 6/6/6
f 7/7/7 8/8/8 9/9/9
f 10/10/10 11/11/11 12/12/12
f 13/13/13 14/14/14 15/15/15
f 16/16/16 17/17/17 18/18/18
f 19/19/19 20/20/20 21/21/21
f 22/22/22 23/23/23 24/24/24
f 25/25/25 26/26/26 27/27/27
f 28/28/28 29/29/29 30/30/30
f 31/31/31 32/32/32 33/33/33
f 34/34/34 35/35/35 36/36/36
f 37/37/37 38/38/38 39/39/39
f 40/40/40 41/41/41 42/42/42
f 43/43/43 44/44/44 45/45/45
f 46/46/46 47/47/47 48/48/48
f 49/49/49 50/50/50 51/51/51
f 52/52/52 53/53/53 54/54/54
f 55/55/55 56/56/56 57/57/57
f 58/58/58 59/59/59 60/60/60
f 61/61/61 62/62/62 63/63/63
f 64/64/64 65/65/65 66/66/66
f 67/67/67 68/68/68 69/69/69
f 70/70/70 71/71/71 72/72/72
f 73/73/73 74/74/74 75/75/75
f 76/76/76 77/77/77 78/78/78
f 79/79/79 80/80/80 81/81/81
f 82/82/82 83/83/83 84/84/84
f 85/85/85 86/86/86 87/87/87
f 88/88/88 89/89/89 90/90/90
f 91/91/91 92/92/92 93/93/93
f 94/94/94 95/95/95 96/96/96
f 97/97/97 98/98/98 99/99/99
f 100/100/100 101/101/101 102/102/102
f 103/103/103 104/104/104 105/105/105
f 106/106/106 107/107/107 108/108/108
f 109/109/109 110/110/110 111/111/111
f 112/112/112 113/113/113 114/114/114
f 115/115/115 116/116/116 117/117/117
f 118/118/118 119/119/119 120/120/120
f 121/121/121 122/122/122 123/123/123
f 124/124/124 125/125/125 126/126/126
f 127/127/127 128/128/128 129/129/129
f 130/130/130 131/131/131 132/132/132
f 133/133/133 134/134/134 135/135/135
f 136/136/136 137/137/137 138/138/138
f 139/139/139 140/140/140 141/141/141
f 142/142/142 143/143/143 144/144/144
f 145/145/145 146/146/146 147/147/147
f 148/148/148 149/149/149 150/150/150
f 151/151/151 152/152/152 153/153/153
f 154/154/154 155/155/155 156/156/156
f 157/157/157 158/158/158 159/159/159
f 160/160/160 161/161/161 162/162/162
f 163/163/163 164/164/164 165/165/165
f 166/166/166 167/167/167 168/168/168
f 169/169/169 170/170/170 171/171/171
f 172/172/172 173/173/173 174/174/174
f 175/175/175 176/176/176 177/177/177
f 178/178/178 179/179/179 180/180/180
f 181/181/181 182/182/182 183/183/183
f 184/184/184 185/185/185 186/186/186
f 187/187/187 188/188/188 189/189/189
f 190/190/190 191/191/191 192/192/192
f 193/193/193 194/194/194 195/195/195
f 196/196/196 197/197/197 198/198/198
f 199/199/199 200/200/200 201/201/201
f 202/202/202 203/203/203 204/204/204
f 205/205/205 206/206/206 207/207/207
f 208/208/208 209/209/209 210/210/210
f 211/211/211 212/212/212 213/213/213
f 214/214/214 215/215/215 216/216/216
f 217/217/217 218/218/218 219/219/219
f 220/220/220 221/221/221 222/222/222
f 223/223/223 224/224/224 225/225/225
f 226/226/226 227/227/227 228/228/228
f 229/229/229 230/230/230 231/231/231
f 232/232/232 233/233/233 234/234/234
f 235/235/235 236/236/236 237/237/237
f 238/238/238 239/239/239 240/240/240
f 241/241/241 242/242/242 243/243/243
f 244/244/244 245/245/245 246/246/246
f 247/247/247 248/248/248 249/249/249
f 250/250/250 251/251/251 252/252/252
f 253/253/253 254/254/254 255/255/255
f 256/256/256 257/257/257 258/258/258
f 259/259/259 260/260/260 261/261/261
f 262/262/262 263/263/263 264/264/264
f 265/265/265 266/266/266 267/267/267
f 268/268/268 269/269/269 270/270/270
f 271/271/271 272/272/272 273/273/273
f 274/274/274 275/275/275 276/276/276
f 277/277/277 278/278/278 279/279/279
f 280/280/280 281/281/281 282/282/282
f 283/283/283 284/284/284 285/285/285
f 286/286/286 287/287/287 288/288/288
f 289/289/289 290/290/290 291/291/291
f 292/292/292 293/293/293 294/294/294
f 295/295/295 296/296/296 297/297/297
f 298/298/298 299/299/299 300/300/300
f 301/301/301 302/302/302 303/303/303
f 304/304/304 305/305/305 306/306/306
f 307/307/307 308/308/308 309/309/309
f 310/310/310 311/311/311 312/312/312
f 313/313/313 314/314/314 315/315/315
f 316/316/316 317/317/317 318/318/318
f 319/319/319 320/320/320 321/321/321
f 322/322/322 323/323/323 324/324/324
f 325/325/325 326/326/326 327/327/327
f 328/328/328 329/329/329 330/330/330
f 331/331/331 332/332/332 333/333/333
f 334/334/334 335/335/335 336/336/336
f 337/337/337 338/338/338 339/339/339
f 340/340/340 341/341/341 342/342/342
f 343/343/343 344/344/344 345/345/345
f 346/346/346 347/347/347 348/348/348
f 349/349/349 350/350/350 351/351/351
f 352/352/352 353/353/353 354/354/354
f 355/355/355 356/356/356 357/357/357
f 358/358/358 359/359/359 360/360/360
f 361/361/361 362/362/362 363/363/363
f 364/364/364 365/365/365 366/366/366
f 367/367/367 368/368/368 369/369/369
f 370/370/370 371/371/371 372/372/372
f 373/373/373 374/374/374 375/375/375
f 376/376/376 377/377/377 378/378/378
f 379/379/379 380/380/380 381/381/381
f 382/382/382 383/383/383 384/384/384
f 385/385/385 386/386/386 387/387/387
f 388/388/388 389/389/389 390/390/390
f 391/391/391 392/392/392 393/393/393
f 394/394/394 395/395/395 396/396/396
f 397/397/397 398/398/398 399/399/399
f 400/400/400 401/401/401 402/402/402
f 403/403/403 404/404/404 405/405/405
f 406/406/406 407/407/407 408/408/408
f 409/409/409 410/410/410 411/411/411
f 412/412/412 413/413/413 414/414/414
f 415/415/415 416/416/416 417/417/417
f 418/418/418 419/419/419 420/420/420
