o Lilypad_Cylinder.032
usemtl lilly_pad
v 16.469005584716797 2.0681750774383545 9.374958038330078
v 16.072816848754883 2.0681750774383545 9.32933521270752
v 16.338685989379883 2.063009023666382 9.571229934692383
v 16.072816848754883 2.0681750774383545 9.32933521270752
v 15.806117057800293 2.0681750774383545 9.622858047485352
v 16.028120040893555 2.0681750774383545 9.68032169342041
v 15.806117057800293 2.0681750774383545 9.622858047485352
v 15.626007080078125 2.0681750774383545 9.141240119934082
v 15.637818336486816 2.0681750774383545 9.411309242248535
v 15.626007080078125 2.0681750774383545 9.141240119934082
v 16.02839469909668 2.0681750774383545 8.821117401123047
v 15.77519416809082 2.0681750774383545 8.915806770324707
v 16.02839469909668 2.0681750774383545 8.821117401123047
v 16.457195281982422 2.0681750774383545 9.104887962341309
v 16.288896560668945 2.0681750774383545 8.893340110778809
v 16.457195281982422 2.0681750774383545 9.104887962341309
v 16.072816848754883 2.0681750774383545 9.32933521270752
v 16.469005584716797 2.0681750774383545 9.374958038330078
v 16.072816848754883 2.0681750774383545 9.32933521270752
v 15.626007080078125 2.0681750774383545 9.141240119934082
v 15.806117057800293 2.0681750774383545 9.622858047485352
v 15.626007080078125 2.0681750774383545 9.141240119934082
v 16.457195281982422 2.0681750774383545 9.104887962341309
v 16.02839469909668 2.0681750774383545 8.821117401123047
v 16.072816848754883 2.0681750774383545 9.32933521270752
v 16.457195281982422 2.0681750774383545 9.104887962341309
v 15.626007080078125 2.0681750774383545 9.141240119934082
v 16.072778701782227 2.03391695022583 9.329239845275879
v 16.468969345092773 2.03391695022583 9.374861717224121
v 16.338647842407227 2.028752088546753 9.571133613586426
v 16.468969345092773 2.03391695022583 9.374861717224121
v 16.28885841369629 2.03391695022583 8.893243789672852
v 16.457157135009766 2.03391695022583 9.104792594909668
v 16.28885841369629 2.03391695022583 8.893243789672852
v 15.77515697479248 2.03391695022583 8.915711402893066
v 16.028358459472656 2.03391695022583 8.821022033691406
v 15.77515697479248 2.03391695022583 8.915711402893066
v 15.637781143188477 2.03391695022583 9.411213874816895
v 15.625969886779785 2.03391695022583 9.141144752502441
v 15.637781143188477 2.03391695022583 9.411213874816895
v 16.0280818939209 2.03391695022583 9.680225372314453
v 15.806079864501953 2.03391695022583 9.622761726379395
v 16.072778701782227 2.03391695022583 9.329239845275879
v 16.28885841369629 2.03391695022583 8.893243789672852
v 16.468969345092773 2.03391695022583 9.374861717224121
v 15.637781143188477 2.03391695022583 9.411213874816895
v 16.072778701782227 2.03391695022583 9.329239845275879
v 16.0280818939209 2.03391695022583 9.680225372314453
v 16.28885841369629 2.03391695022583 8.893243789672852
v 15.637781143188477 2.03391695022583 9.411213874816895
v 15.77515697479248 2.03391695022583 8.915711402893066
v 16.28885841369629 2.03391695022583 8.893243789672852
v 16.072778701782227 2.03391695022583 9.329239845275879
v 15.637781143188477 2.03391695022583 9.411213874816895
v 16.288896560668945 2.0681750774383545 8.893340110778809
v 16.457157135009766 2.03391695022583 9.104792594909668
v 16.28885841369629 2.03391695022583 8.893243789672852
v 16.288896560668945 2.0681750774383545 8.893340110778809
v 16.457195281982422 2.0681750774383545 9.104887962341309
v 16.457157135009766 2.03391695022583 9.104792594909668
v 15.626007080078125 2.0681750774383545 9.141240119934082
v 15.77515697479248 2.03391695022583 8.915711402893066
v 15.625969886779785 2.03391695022583 9.141144752502441
v 15.626007080078125 2.0681750774383545 9.141240119934082
v 15.77519416809082 2.0681750774383545 8.915806770324707
v 15.77515697479248 2.03391695022583 8.915711402893066
v 16.072816848754883 2.0681750774383545 9.32933521270752
v 16.0280818939209 2.03391695022583 9.680225372314453
v 16.072778701782227 2.03391695022583 9.329239845275879
v 16.072816848754883 2.0681750774383545 9.32933521270752
v 16.028120040893555 2.0681750774383545 9.68032169342041
v 16.0280818939209 2.03391695022583 9.680225372314453
v 16.028120040893555 2.0681750774383545 9.68032169342041
v 15.806079864501953 2.03391695022583 9.622761726379395
v 16.0280818939209 2.03391695022583 9.680225372314453
v 16.028120040893555 2.0681750774383545 9.68032169342041
v 15.806117057800293 2.0681750774383545 9.622858047485352
v 15.806079864501953 2.03391695022583 9.622761726379395
v 16.457195281982422 2.0681750774383545 9.104887962341309
v 16.468969345092773 2.03391695022583 9.374861717224121
v 16.457157135009766 2.03391695022583 9.104792594909668
v 16.457195281982422 2.0681750774383545 9.104887962341309
v 16.469005584716797 2.0681750774383545 9.374958038330078
v 16.468969345092773 2.03391695022583 9.374861717224121
v 15.77519416809082 2.0681750774383545 8.915806770324707
v 16.028358459472656 2.03391695022583 8.821022033691406
v 15.77515697479248 2.03391695022583 8.915711402893066
v 15.77519416809082 2.0681750774383545 8.915806770324707
v 16.02839469909668 2.0681750774383545 8.821117401123047
v 16.028358459472656 2.03391695022583 8.821022033691406
v 15.806117057800293 2.0681750774383545 9.622858047485352
v 15.637781143188477 2.03391695022583 9.411213874816895
v 15.806079864501953 2.03391695022583 9.622761726379395
v 15.806117057800293 2.0681750774383545 9.622858047485352
v 15.637818336486816 2.0681750774383545 9.411309242248535
v 15.637781143188477 2.03391695022583 9.411213874816895
v 16.469005584716797 2.0681750774383545 9.374958038330078
v 16.338647842407227 2.028752088546753 9.571133613586426
v 16.468969345092773 2.03391695022583 9.374861717224121
v 16.469005584716797 2.0681750774383545 9.374958038330078
v 16.338685989379883 2.063009023666382 9.571229934692383
v 16.338647842407227 2.028752088546753 9.571133613586426
v 16.02839469909668 2.0681750774383545 8.821117401123047
v 16.28885841369629 2.03391695022583 8.893243789672852
v 16.028358459472656 2.03391695022583 8.821022033691406
v 16.02839469909668 2.0681750774383545 8.821117401123047
v 16.288896560668945 2.0681750774383545 8.893340110778809
v 16.28885841369629 2.03391695022583 8.893243789672852
v 15.637818336486816 2.0681750774383545 9.411309242248535
v 15.625969886779785 2.03391695022583 9.141144752502441
v 15.637781143188477 2.03391695022583 9.411213874816895
v 15.637818336486816 2.0681750774383545 9.411309242248535
v 15.626007080078125 2.0681750774383545 9.141240119934082
v 15.625969886779785 2.03391695022583 9.141144752502441
v 16.338685989379883 2.063009023666382 9.571229934692383
v 16.072778701782227 2.03391695022583 9.329239845275879
v 16.338647842407227 2.028752088546753 9.571133613586426
v 16.338685989379883 2.063009023666382 9.571229934692383
v 16.072816848754883 2.0681750774383545 9.32933521270752
v 16.072778701782227 2.03391695022583 9.329239845275879
vt 0.5217459797859192 0.3241640031337738
vt 0.7291679978370667 0.3182089924812317
vt 0.6089320182800293 0.4441640079021454
vt 0.7291679978370667 0.3182089924812317
vt 0.8910679817199707 0.4441640079021454
vt 0.75 0.49000000953674316
vt 0.8910679817199707 0.4441640079021454
vt 0.9782540202140808 0.1758359968662262
vt 0.9782540202140808 0.3241640031337738
vt 0.9782540202140808 0.1758359968662262
vt 0.75 0.009999999776482582
vt 0.8910679817199707 0.05583599954843521
vt 0.75 0.009999999776482582
vt 0.5217459797859192 0.1758359968662262
vt 0.6089320182800293 0.05583599954843521
vt 0.5217459797859192 0.1758359968662262
vt 0.7291679978370667 0.3182089924812317
vt 0.5217459797859192 0.3241640031337738
vt 0.7291679978370667 0.3182089924812317
vt 0.9782540202140808 0.1758359968662262
vt 0.8910679817199707 0.4441640079021454
vt 0.9782540202140808 0.1758359968662262
vt 0.5217459797859192 0.1758359968662262
vt 0.75 0.009999999776482582
vt 0.7291679978370667 0.3182089924812317
vt 0.5217459797859192 0.1758359968662262
vt 0.9782540202140808 0.1758359968662262
vt 0.7291679978370667 0.3182089924812317
vt 0.5217459797859192 0.3241640031337738
vt 0.6089320182800293 0.4441640079021454
vt 0.5217459797859192 0.3241640031337738
vt 0.6089320182800293 0.05583599954843521
vt 0.5217459797859192 0.1758359968662262
vt 0.6089320182800293 0.05583599954843521
vt 0.8910679817199707 0.05583599954843521
vt 0.75 0.009999999776482582
vt 0.8910679817199707 0.05583599954843521
vt 0.9782540202140808 0.3241640031337738
vt 0.9782540202140808 0.1758359968662262
vt 0.9782540202140808 0.3241640031337738
vt 0.75 0.49000000953674316
vt 0.8910679817199707 0.4441640079021454
vt 0.7291679978370667 0.3182089924812317
vt 0.6089320182800293 0.05583599954843521
vt 0.5217459797859192 0.3241640031337738
vt 0.9782540202140808 0.3241640031337738
vt 0.7291679978370667 0.3182089924812317
vt 0.75 0.49000000953674316
vt 0.6089320182800293 0.05583599954843521
vt 0.9782540202140808 0.3241640031337738
vt 0.8910679817199707 0.05583599954843521
vt 0.6089320182800293 0.05583599954843521
vt 0.7291679978370667 0.3182089924812317
vt 0.9782540202140808 0.3241640031337738
vt 0.6089320182800293 0.05583599954843521
vt 0.5217459797859192 0.1758359968662262
vt 0.6089320182800293 0.05583599954843521
vt 0.6089320182800293 0.05583599954843521
vt 0.5217459797859192 0.1758359968662262
vt 0.5217459797859192 0.1758359968662262
vt 0.9782540202140808 0.1758359968662262
vt 0.8910679817199707 0.05583599954843521
vt 0.9782540202140808 0.1758359968662262
vt 0.9782540202140808 0.1758359968662262
vt 0.8910679817199707 0.05583599954843521
vt 0.8910679817199707 0.05583599954843521
vt 0.7291679978370667 0.3182089924812317
vt 0.75 0.49000000953674316
vt 0.7291679978370667 0.3182089924812317
vt 0.7291679978370667 0.3182089924812317
vt 0.75 0.49000000953674316
vt 0.75 0.49000000953674316
vt 0.75 0.49000000953674316
vt 0.8910679817199707 0.4441640079021454
vt 0.75 0.49000000953674316
vt 0.75 0.49000000953674316
vt 0.8910679817199707 0.4441640079021454
vt 0.8910679817199707 0.4441640079021454
vt 0.5217459797859192 0.1758359968662262
vt 0.5217459797859192 0.3241640031337738
vt 0.5217459797859192 0.1758359968662262
vt 0.5217459797859192 0.1758359968662262
vt 0.5217459797859192 0.3241640031337738
vt 0.5217459797859192 0.3241640031337738
vt 0.8910679817199707 0.05583599954843521
vt 0.75 0.009999999776482582
vt 0.8910679817199707 0.05583599954843521
vt 0.8910679817199707 0.05583599954843521
vt 0.75 0.009999999776482582
vt 0.75 0.009999999776482582
vt 0.8910679817199707 0.4441640079021454
vt 0.9782540202140808 0.3241640031337738
vt 0.8910679817199707 0.4441640079021454
vt 0.8910679817199707 0.4441640079021454
vt 0.9782540202140808 0.3241640031337738
vt 0.9782540202140808 0.3241640031337738
vt 0.5217459797859192 0.3241640031337738
vt 0.6089320182800293 0.4441640079021454
vt 0.5217459797859192 0.3241640031337738
vt 0.5217459797859192 0.3241640031337738
vt 0.6089320182800293 0.4441640079021454
vt 0.6089320182800293 0.4441640079021454
vt 0.75 0.009999999776482582
vt 0.6089320182800293 0.05583599954843521
vt 0.75 0.009999999776482582
vt 0.75 0.009999999776482582
vt 0.6089320182800293 0.05583599954843521
vt 0.6089320182800293 0.05583599954843521
vt 0.9782540202140808 0.3241640031337738
vt 0.9782540202140808 0.1758359968662262
vt 0.9782540202140808 0.3241640031337738
vt 0.9782540202140808 0.3241640031337738
vt 0.9782540202140808 0.1758359968662262
vt 0.9782540202140808 0.1758359968662262
vt 0.6089320182800293 0.4441640079021454
vt 0.7291679978370667 0.3182089924812317
vt 0.6089320182800293 0.4441640079021454
vt 0.6089320182800293 0.4441640079021454
vt 0.7291679978370667 0.3182089924812317
vt 0.7291679978370667 0.3182089924812317
vn -0.055598646630488524 0.9849760615800071 0.16349602015705386
vn 0.007999649057304254 0.999556095463009 0.028698739305130977
vn -0.15029857639053756 0.9225912563333236 -0.3552966530552707
vn -0.004300139673157989 0.9999324283285888 0.010800350720363993
vn -0.03760011351986759 0.9992030176019774 -0.013400040238578782
vn 0.03859998559932067 0.9991995752628431 0.010499995537434857
vn -0.008399999772574336 0.9991999950328256 0.03909999910769529
vn 0.022899990333717337 0.9991995553244417 0.03279998600843532
vn -0.029500002199775284 0.999200054910182 -0.02700000255004805
vn 0.013099993136533681 0.9991994554468029 -0.0377999790295642
vn -0.03439999887983029 0.999199919987188 0.02039999937903064
vn 0.039700061960234755 0.9992015087160327 0.004500006661931156
vn 0.03670005155264558 0.9992014138935559 0.015800021808601548
vn -0.025500005861155434 0.9992002348077161 -0.030800007488407954
vn -0.03480000496101489 0.9992001148681371 0.01970000259429344
vn -0.033099960584594856 0.9991987509104772 0.02249997307199521
vn 0.011200366884584307 0.9999327733358913 -0.003000098405706956
vn -0.14840373234855944 0.9888248995968002 0.014200357826314484
vn -0.011000359290523797 0.9999326483323772 0.003700120873434209
vn 0.0394000422252322 0.9992010541324868 0.0067000069535114075
vn -0.02930001600380869 0.9992005145417701 0.027200014735992106
vn 0.024500006429836754 0.999200274822327 -0.03160000759373474
vn -0.03420002300186644 0.9992006144307076 -0.0207000132359442
vn 0.006500015659582393 0.9992023730810607 0.03940009423341342
vn -0.0030000950303548848 0.9999316483310744 -0.011300358211553152
vn -0.03989996875907218 0.9991991755938732 0.0029999975915374916
vn 0.03830004871569693 0.9992012539695279 -0.011400014653427798
vn 0.011200191221844938 -0.9998171320313958 -0.015500264936733498
vn -0.13190273813121087 -0.9808203514860755 -0.14350298179557217
vn 0.14229465126328605 -0.9226653392184624 0.35838652880198996
vn 0.11039430838792276 -0.9836492746444012 -0.14229266027134174
vn 0.009100015694477081 -0.9992016686776855 -0.03890006460263536
vn 0.029500002199775284 -0.999200054910182 0.02700000255004805
vn 0.026200012078415214 -0.9992004395957735 0.030200014548069625
vn -0.004899998311130066 -0.9991996302156144 0.039699987324055414
vn -0.007999995368064698 -0.9991993604696904 -0.03919997590653403
vn -0.02920002196083353 -0.9992007143818376 -0.02730002007897141
vn 0.009900018197581822 -0.9992018285411453 -0.03870007079733829
vn -0.01650001787051519 -0.9992010740671625 0.03640004111675519
vn 0.025500005861155434 -0.9992002348077161 0.030800007488407954
vn -0.03870003229074929 -0.9992008343348467 -0.010000008262041175
vn 0.03440006888391629 -0.9992019533615896 -0.020300040866107445
vn 0.012100295023004071 -0.9999243684521021 0.0022000536405461946
vn 0.026700058182401887 -0.9992021882557771 -0.029700065284823784
vn 0.04509819258243086 -0.9836605601864802 -0.1742930158079143
vn 0.0340000424259506 -0.9992011789796275 0.021000024779886203
vn -0.012200300037102816 -0.9999245934482571 0.0014000344075852699
vn -0.0329000296035018 -0.9992008292418848 -0.022700019700839298
vn 0.03760001199905689 -0.9992003197404311 0.013600004716576637
vn 0.030300002000556485 -0.9992000299241213 -0.026100001501947242
vn -0.03999997404863925 -0.9991993605266882 0.0007999994786444801
vn 0.03940009423341342 -0.9992023730810607 -0.006500015659582393
vn 0.006100147273307682 -0.9999241434533048 -0.010700258988389513
vn 0.03900008713135158 -0.9992021981917881 -0.008600019328204662
vn 0.7825630764551792 0.0008999575385523819 -0.6225706557856981
vn 0.7825630764551792 0.0008999575385523819 -0.6225706557856981
vn 0.7825630764551792 0.0008999575385523819 -0.6225706557856981
vn 0.7825630764551792 0.0008999575385523819 -0.6225706557856981
vn 0.7825630764551792 0.0008999575385523819 -0.6225706557856981
vn 0.7825630764551792 0.0008999575385523819 -0.6225706557856981
vn -0.8339045362011027 0.0025000136189561786 -0.5519030480393534
vn -0.8339045362011027 0.0025000136189561786 -0.5519030480393534
vn -0.8339045362011027 0.0025000136189561786 -0.5519030480393534
vn -0.8339047405096796 0.0024000138298458126 -0.551903183256901
vn -0.8339047405096796 0.0024000138298458126 -0.551903183256901
vn -0.8339047405096796 0.0024000138298458126 -0.551903183256901
vn 0.991991100730916 -0.0014999865809969188 0.12629887612691737
vn 0.991991100730916 -0.0014999865809969188 0.12629887612691737
vn 0.991991100730916 -0.0014999865809969188 0.12629887612691737
vn 0.9919912445671696 -0.0013999876165042174 0.12629889443994172
vn 0.9919912445671696 -0.0013999876165042174 0.12629889443994172
vn 0.9919912445671696 -0.0013999876165042174 0.12629889443994172
vn -0.25059703344937334 -0.0023999716060231356 0.9680885119464355
vn -0.25059703344937334 -0.0023999716060231356 0.9680885119464355
vn -0.25059703344937334 -0.0023999716060231356 0.9680885119464355
vn -0.25059697205468484 -0.002499969635842956 0.9680882747708719
vn -0.25059697205468484 -0.002499969635842956 0.9680882747708719
vn -0.25059697205468484 -0.002499969635842956 0.9680882747708719
vn 0.9990441138608275 -0.0010000441926303347 -0.043701927550701104
vn 0.9990441138608275 -0.0010000441926303347 -0.043701927550701104
vn 0.9990441138608275 -0.0010000441926303347 -0.043701927550701104
vn 0.9990441138608275 -0.0010000441926303347 -0.043701927550701104
vn 0.9990441138608275 -0.0010000441926303347 -0.043701927550701104
vn 0.9990441138608275 -0.0010000441926303347 -0.043701927550701104
vn -0.3503107485766821 0.0030000919577698668 -0.9366287305436929
vn -0.3503107485766821 0.0030000919577698668 -0.9366287305436929
vn -0.3503107485766821 0.0030000919577698668 -0.9366287305436929
vn -0.3503107485766821 0.0030000919577698668 -0.9366287305436929
vn -0.3503107485766821 0.0030000919577698668 -0.9366287305436929
vn -0.3503107485766821 0.0030000919577698668 -0.9366287305436929
vn -0.7825630764551792 -0.0008999575385523819 0.6225706557856981
vn -0.7825630764551792 -0.0008999575385523819 0.6225706557856981
vn -0.7825630764551792 -0.0008999575385523819 0.6225706557856981
vn -0.7825630764551792 -0.0008999575385523819 0.6225706557856981
vn -0.7825630764551792 -0.0008999575385523819 0.6225706557856981
vn -0.7825630764551792 -0.0008999575385523819 0.6225706557856981
vn 0.8331079339415794 -0.002400022909978872 0.553105243415414
vn 0.8331079339415794 -0.002400022909978872 0.553105243415414
vn 0.8331079339415794 -0.002400022909978872 0.553105243415414
vn 0.8331077298266775 -0.002500023077420503 0.5531051079023335
vn 0.8331077298266775 -0.002500023077420503 0.5531051079023335
vn 0.8331077298266775 -0.002500023077420503 0.5531051079023335
vn 0.2672098109295621 0.002400088297796899 -0.9636353856719617
vn 0.2672098109295621 0.002400088297796899 -0.9636353856719617
vn 0.2672098109295621 0.002400088297796899 -0.9636353856719617
vn 0.2672098109295621 0.002400088297796899 -0.9636353856719617
vn 0.2672098109295621 0.002400088297796899 -0.9636353856719617
vn 0.2672098109295621 0.002400088297796899 -0.9636353856719617
vn -0.9990442087784729 0.0009000398006684605 0.04370193170275406
vn -0.9990442087784729 0.0009000398006684605 0.04370193170275406
vn -0.9990442087784729 0.0009000398006684605 0.04370193170275406
vn -0.9990442087784729 0.0009000398006684605 0.04370193170275406
vn -0.9990442087784729 0.0009000398006684605 0.04370193170275406
vn -0.9990442087784729 0.0009000398006684605 0.04370193170275406
vn -0.672970687950959 -0.0013999390196795963 0.7396678263447413
vn -0.672970687950959 -0.0013999390196795963 0.7396678263447413
vn -0.672970687950959 -0.0013999390196795963 0.7396678263447413
vn -0.6730205645425295 -0.0013000397693950368 0.7396226264788368
vn -0.6730205645425295 -0.0013000397693950368 0.7396226264788368
vn -0.6730205645425295 -0.0013000397693950368 0.7396226264788368
f 1/1/1 2/2/2 3/3/3
f 4/4/4 5/5/5 6/6/6
f 7/7/7 8/8/8 9/9/9
f 10/10/10 11/11/11 12/12/12
f 13/13/13 14/14/14 15/15/15
f 16/16/16 17/17/17 18/18/18
f 19/19/19 20/20/20 21/21/21
f 22/22/22 23/23/23 24/24/24
f 25/25/25 26/26/26 27/27/27
f 28/28/28 29/29/29 30/30/30
f 31/31/31 32/32/32 33/33/33
f 34/34/34 35/35/35 36/36/36
f 37/37/37 38/38/38 39/39/39
f 40/40/40 41/41/41 42/42/42
f 43/43/43 44/44/44 45/45/45
f 46/46/46 47/47/47 48/48/48
f 49/49/49 50/50/50 51/51/51
f 52/52/52 53/53/53 54/54/54
f 55/55/55 56/56/56 57/57/57
f 58/58/58 59/59/59 60/60/60
f 61/61/61 62/62/62 63/63/63
f 64/64/64 65/65/65 66/66/66
f 67/67/67 68/68/68 69/69/69
f 70/70/70 71/71/71 72/72/72
f 73/73/73 74/74/74 75/75/75
f 76/76/76 77/77/77 78/78/78
f 79/79/79 80/80/80 81/81/81
f 82/82/82 83/83/83 84/84/84
f 85/85/85 86/86/86 87/87/87
f 88/88/88 89/89/89 90/90/90
f 91/91/91 92/92/92 93/93/93
f 94/94/94 95/95/95 96/96/96
f 97/97/97 98/98/98 99/99/99
f 100/100/100 101/101/101 102/102/102
f 103/103/103 104/104/104 105/105/105
f 106/106/106 107/107/107 108/108/108
f 109/109/109 110/110/110 111/111/111
f 112/112/112 113/113/113 114/114/114
f 115/115/115 116/116/116 117/117/117
f 118/118/118 119/119/119 120/120/120
