o Rock_04_Icosphere.091
usemtl Rock_Grey
v 19.61404037475586 1.4634300470352173 11.459443092346191
v 18.782331466674805 1.996399998664856 10.843246459960938
v 19.129924774169922 1.4772109985351562 10.685155868530273
v 20.073339462280273 2.30629301071167 11.969757080078125
v 19.264724731445312 2.08475399017334 11.76107120513916
v 19.61404037475586 1.4634300470352173 11.459443092346191
v 19.61404037475586 1.4634300470352173 11.459443092346191
v 19.129924774169922 1.4772109985351562 10.685155868530273
v 19.725786209106445 1.2649739980697632 10.319806098937988
v 20.206884384155273 1.4958549737930298 11.453312873840332
v 20.283720016479492 1.7782729864120483 11.688015937805176
v 19.61404037475586 1.4634300470352173 11.459443092346191
v 19.145559310913086 2.7616729736328125 10.509879112243652
v 19.921873092651367 2.442439079284668 9.535042762756348
v 19.29778289794922 1.9720840454101562 9.618102073669434
v 19.29778289794922 1.9720840454101562 9.618102073669434
v 19.725786209106445 1.2649739980697632 10.319806098937988
v 19.129924774169922 1.4772109985351562 10.685155868530273
v 19.725786209106445 1.2649739980697632 10.319806098937988
v 20.206884384155273 1.4958549737930298 11.453312873840332
v 19.61404037475586 1.4634300470352173 11.459443092346191
v 20.206884384155273 1.4958549737930298 11.453312873840332
v 19.725786209106445 1.2649739980697632 10.319806098937988
v 20.594322204589844 1.3881579637527466 10.256157875061035
v 19.29778289794922 1.9720840454101562 9.618102073669434
v 19.921873092651367 2.442439079284668 9.535042762756348
v 20.135732650756836 1.7174010276794434 9.788281440734863
v 19.01683235168457 2.4491260051727295 11.540608406066895
v 19.578845977783203 2.9464340209960938 11.647656440734863
v 19.145559310913086 2.7616729736328125 10.509879112243652
v 20.073339462280273 2.30629301071167 11.969757080078125
v 20.539676666259766 2.425410032272339 11.082685470581055
v 19.688995361328125 2.842766046524048 11.88592529296875
v 20.539676666259766 2.425410032272339 11.082685470581055
v 20.073339462280273 2.30629301071167 11.969757080078125
v 20.283720016479492 1.7782729864120483 11.688015937805176
v 19.264724731445312 2.08475399017334 11.76107120513916
v 19.688995361328125 2.842766046524048 11.88592529296875
v 19.01683235168457 2.4491260051727295 11.540608406066895
v 20.073339462280273 2.30629301071167 11.969757080078125
v 19.688995361328125 2.842766046524048 11.88592529296875
v 19.264724731445312 2.08475399017334 11.76107120513916
v 19.578845977783203 2.9464340209960938 11.647656440734863
v 19.01683235168457 2.4491260051727295 11.540608406066895
v 19.688995361328125 2.842766046524048 11.88592529296875
v 19.578845977783203 2.9464340209960938 11.647656440734863
v 19.921873092651367 2.442439079284668 9.535042762756348
v 19.145559310913086 2.7616729736328125 10.509879112243652
v 19.921873092651367 2.442439079284668 9.535042762756348
v 19.578845977783203 2.9464340209960938 11.647656440734863
v 20.636932373046875 2.5351219177246094 10.085535049438477
v 20.594322204589844 1.3881579637527466 10.256157875061035
v 20.135732650756836 1.7174010276794434 9.788281440734863
v 20.761032104492188 1.7568379640579224 10.148496627807617
v 20.636932373046875 2.5351219177246094 10.085535049438477
v 20.761032104492188 1.7568379640579224 10.148496627807617
v 19.921873092651367 2.442439079284668 9.535042762756348
v 20.761032104492188 1.7568379640579224 10.148496627807617
v 20.636932373046875 2.5351219177246094 10.085535049438477
v 20.539676666259766 2.425410032272339 11.082685470581055
v 19.578845977783203 2.9464340209960938 11.647656440734863
v 20.539676666259766 2.425410032272339 11.082685470581055
v 20.636932373046875 2.5351219177246094 10.085535049438477
v 20.539676666259766 2.425410032272339 11.082685470581055
v 20.283720016479492 1.7782729864120483 11.688015937805176
v 20.761032104492188 1.7568379640579224 10.148496627807617
v 19.264724731445312 2.08475399017334 11.76107120513916
v 18.782331466674805 1.996399998664856 10.843246459960938
v 19.61404037475586 1.4634300470352173 11.459443092346191
v 19.01683235168457 2.4491260051727295 11.540608406066895
v 18.782331466674805 1.996399998664856 10.843246459960938
v 19.264724731445312 2.08475399017334 11.76107120513916
v 19.61404037475586 1.4634300470352173 11.459443092346191
v 20.283720016479492 1.7782729864120483 11.688015937805176
v 20.073339462280273 2.30629301071167 11.969757080078125
v 19.29778289794922 1.9720840454101562 9.618102073669434
v 18.769569396972656 2.1343369483947754 10.70366382598877
v 19.145559310913086 2.7616729736328125 10.509879112243652
v 18.769569396972656 2.1343369483947754 10.70366382598877
v 19.129924774169922 1.4772109985351562 10.685155868530273
v 18.782331466674805 1.996399998664856 10.843246459960938
v 19.29778289794922 1.9720840454101562 9.618102073669434
v 19.129924774169922 1.4772109985351562 10.685155868530273
v 18.769569396972656 2.1343369483947754 10.70366382598877
v 20.135732650756836 1.7174010276794434 9.788281440734863
v 19.725786209106445 1.2649739980697632 10.319806098937988
v 19.29778289794922 1.9720840454101562 9.618102073669434
v 18.782331466674805 1.996399998664856 10.843246459960938
v 19.01683235168457 2.4491260051727295 11.540608406066895
v 18.769569396972656 2.1343369483947754 10.70366382598877
v 19.145559310913086 2.7616729736328125 10.509879112243652
v 18.769569396972656 2.1343369483947754 10.70366382598877
v 19.01683235168457 2.4491260051727295 11.540608406066895
v 19.578845977783203 2.9464340209960938 11.647656440734863
v 19.688995361328125 2.842766046524048 11.88592529296875
v 20.539676666259766 2.425410032272339 11.082685470581055
v 19.921873092651367 2.442439079284668 9.535042762756348
v 20.761032104492188 1.7568379640579224 10.148496627807617
v 20.135732650756836 1.7174010276794434 9.788281440734863
v 19.725786209106445 1.2649739980697632 10.319806098937988
v 20.135732650756836 1.7174010276794434 9.788281440734863
v 20.594322204589844 1.3881579637527466 10.256157875061035
v 20.594322204589844 1.3881579637527466 10.256157875061035
v 20.283720016479492 1.7782729864120483 11.688015937805176
v 20.206884384155273 1.4958549737930298 11.453312873840332
v 20.761032104492188 1.7568379640579224 10.148496627807617
v 20.283720016479492 1.7782729864120483 11.688015937805176
v 20.594322204589844 1.3881579637527466 10.256157875061035
vt 0.7486220002174377 0.1366180032491684
vt 0.638264000415802 0.3202820122241974
vt 0.8069499731063843 0.20915299654006958
vt 0.17382900416851044 0.23005899786949158
vt 0.11754799634218216 0.24365200102329254
vt 0.7486220002174377 0.1366180032491684
vt 0.7486220002174377 0.1366180032491684
vt 0.8069499731063843 0.20915299654006958
vt 0.68196702003479 0.1496109962463379
vt 0.32785800099372864 0.13490499556064606
vt 0.24576599895954132 0.17408600449562073
vt 0.7486220002174377 0.1366180032491684
vt 0.5260739922523499 0.3748660087585449
vt 0.5440469980239868 0.3289850056171417
vt 0.6789100170135498 0.28850799798965454
vt 0.6789100170135498 0.28850799798965454
vt 0.68196702003479 0.1496109962463379
vt 0.8069499731063843 0.20915299654006958
vt 0.68196702003479 0.1496109962463379
vt 0.32785800099372864 0.13490499556064606
vt 0.7486220002174377 0.1366180032491684
vt 0.32785800099372864 0.13490499556064606
vt 0.68196702003479 0.1496109962463379
vt 0.4715679883956909 0.163114994764328
vt 0.6789100170135498 0.28850799798965454
vt 0.5440469980239868 0.3289850056171417
vt 0.5766879916191101 0.20269200205802917
vt 0.15741699934005737 0.32631298899650574
vt 0.24289600551128387 0.36204299330711365
vt 0.2348109930753708 0.38499099016189575
vt 0.17382900416851044 0.23005899786949158
vt 0.3355799913406372 0.29157400131225586
vt 0.18778499960899353 0.29335901141166687
vt 0.3355799913406372 0.29157400131225586
vt 0.17382900416851044 0.23005899786949158
vt 0.24576599895954132 0.17408600449562073
vt 0.2170339971780777 0.2518630027770996
vt 0.17429900169372559 0.3185479938983917
vt 0.15741699934005737 0.32631298899650574
vt 0.17382900416851044 0.23005899786949158
vt 0.17429900169372559 0.3185479938983917
vt 0.2170339971780777 0.2518630027770996
vt 0.24289600551128387 0.36204299330711365
vt 0.15741699934005737 0.32631298899650574
vt 0.17429900169372559 0.3185479938983917
vt 0.24289600551128387 0.36204299330711365
vt 0.571619987487793 0.35457998514175415
vt 0.5886470079421997 0.3857559859752655
vt 0.571619987487793 0.35457998514175415
vt 0.24289600551128387 0.36204299330711365
vt 0.4456320106983185 0.3164600133895874
vt 0.4715679883956909 0.163114994764328
vt 0.5766879916191101 0.20269200205802917
vt 0.4270170032978058 0.2269819974899292
vt 0.4456320106983185 0.3164600133895874
vt 0.4270170032978058 0.2269819974899292
vt 0.5440469980239868 0.3289850056171417
vt 0.4270170032978058 0.2269819974899292
vt 0.4456320106983185 0.3164600133895874
vt 0.3355799913406372 0.29157400131225586
vt 0.3622550070285797 0.343394011259079
vt 0.3355799913406372 0.29157400131225586
vt 0.4456320106983185 0.3164600133895874
vt 0.3355799913406372 0.29157400131225586
vt 0.24576599895954132 0.17408600449562073
vt 0.4270170032978058 0.2269819974899292
vt 0.2170339971780777 0.2518630027770996
vt 0.638264000415802 0.3202820122241974
vt 0.7486220002174377 0.1366180032491684
vt 0.15741699934005737 0.32631298899650574
vt 0.638264000415802 0.3202820122241974
vt 0.2170339971780777 0.2518630027770996
vt 0.7486220002174377 0.1366180032491684
vt 0.24576599895954132 0.17408600449562073
vt 0.17382900416851044 0.23005899786949158
vt 0.6789100170135498 0.28850799798965454
vt 0.5267149806022644 0.3417069911956787
vt 0.5260739922523499 0.3748660087585449
vt 0.5267149806022644 0.3417069911956787
vt 0.8069499731063843 0.20915299654006958
vt 0.638264000415802 0.3202820122241974
vt 0.6789100170135498 0.28850799798965454
vt 0.8069499731063843 0.20915299654006958
vt 0.5267149806022644 0.3417069911956787
vt 0.5766879916191101 0.20269200205802917
vt 0.68196702003479 0.1496109962463379
vt 0.6789100170135498 0.28850799798965454
vt 0.638264000415802 0.3202820122241974
vt 0.15741699934005737 0.32631298899650574
vt 0.5267149806022644 0.3417069911956787
vt 0.2348109930753708 0.38499099016189575
vt 0.5267149806022644 0.3417069911956787
vt 0.15741699934005737 0.32631298899650574
vt 0.24289600551128387 0.36204299330711365
vt 0.18778499960899353 0.29335901141166687
vt 0.3355799913406372 0.29157400131225586
vt 0.5440469980239868 0.3289850056171417
vt 0.4270170032978058 0.2269819974899292
vt 0.5766879916191101 0.20269200205802917
vt 0.68196702003479 0.1496109962463379
vt 0.5766879916191101 0.20269200205802917
vt 0.4715679883956909 0.163114994764328
vt 0.4715679883956909 0.163114994764328
vt 0.24576599895954132 0.17408600449562073
vt 0.32785800099372864 0.13490499556064606
vt 0.4270170032978058 0.2269819974899292
vt 0.24576599895954132 0.17408600449562073
vt 0.4715679883956909 0.163114994764328
vn -0.6894790686457086 -0.5896821039224929 0.42058724447252155
vn -0.6894790686457086 -0.5896821039224929 0.42058724447252155
vn -0.6894790686457086 -0.5896821039224929 0.42058724447252155
vn -0.0947018791517374 -0.477309453484114 0.8736173302423813
vn -0.0947018791517374 -0.477309453484114 0.8736173302423813
vn -0.0947018791517374 -0.477309453484114 0.8736173302423813
vn -0.25389868331423715 -0.9567950541479208 0.1416992694736786
vn -0.25389868331423715 -0.9567950541479208 0.1416992694736786
vn -0.25389868331423715 -0.9567950541479208 0.1416992694736786
vn 0.04319794359180499 -0.645469260430644 0.7625636835757108
vn 0.04319794359180499 -0.645469260430644 0.7625636835757108
vn 0.04319794359180499 -0.645469260430644 0.7625636835757108
vn -0.526195866145999 0.5900953584693742 -0.6122951725791759
vn -0.526195866145999 0.5900953584693742 -0.6122951725791759
vn -0.526195866145999 0.5900953584693742 -0.6122951725791759
vn -0.5235066918897207 -0.7385094036244916 -0.42490540630224827
vn -0.5235066918897207 -0.7385094036244916 -0.42490540630224827
vn -0.5235066918897207 -0.7385094036244916 -0.42490540630224827
vn 0.05560060504615586 -0.9827107074189174 0.1766019202690404
vn 0.05560060504615586 -0.9827107074189174 0.1766019202690404
vn 0.05560060504615586 -0.9827107074189174 0.1766019202690404
vn 0.1489019961196627 -0.9794130939873286 0.13630182272349944
vn 0.1489019961196627 -0.9794130939873286 0.13630182272349944
vn 0.1489019961196627 -0.9794130939873286 0.13630182272349944
vn 0.10100320946591501 -0.30140957287767306 -0.9481300654737637
vn 0.10100320946591501 -0.30140957287767306 -0.9481300654737637
vn 0.10100320946591501 -0.30140957287767306 -0.9481300654737637
vn -0.6709220286172759 0.7287239224935387 0.13720450539873089
vn -0.6709220286172759 0.7287239224935387 0.13720450539873089
vn -0.6709220286172759 0.7287239224935387 0.13720450539873089
vn 0.6952292163316048 0.5671238000486775 0.44161853694935654
vn 0.6952292163316048 0.5671238000486775 0.44161853694935654
vn 0.6952292163316048 0.5671238000486775 0.44161853694935654
vn 0.8756082176510672 0.09640090704787589 0.47330446258435843
vn 0.8756082176510672 0.09640090704787589 0.47330446258435843
vn 0.8756082176510672 0.09640090704787589 0.47330446258435843
vn -0.5211715441816361 0.153391628405806 0.8395541851901783
vn -0.5211715441816361 0.153391628405806 0.8395541851901783
vn -0.5211715441816361 0.153391628405806 0.8395541851901783
vn -0.2439054023124568 -0.023200513478262037 0.9695214752119439
vn -0.2439054023124568 -0.023200513478262037 0.9695214752119439
vn -0.2439054023124568 -0.023200513478262037 0.9695214752119439
vn -0.6143925318714668 0.5789929308486893 0.5359934727287391
vn -0.6143925318714668 0.5789929308486893 0.5359934727287391
vn -0.6143925318714668 0.5789929308486893 0.5359934727287391
vn 0.1358053543879183 0.9684381555041923 -0.2090082407064608
vn 0.1358053543879183 0.9684381555041923 -0.2090082407064608
vn 0.1358053543879183 0.9684381555041923 -0.2090082407064608
vn 0.0468012096749194 0.973325164186826 -0.22460581366841958
vn 0.0468012096749194 0.973325164186826 -0.22460581366841958
vn 0.0468012096749194 0.973325164186826 -0.22460581366841958
vn 0.4696095688451646 -0.43650891465704966 -0.7674156763280141
vn 0.4696095688451646 -0.43650891465704966 -0.7674156763280141
vn 0.4696095688451646 -0.43650891465704966 -0.7674156763280141
vn 0.6070158369855956 0.03260085141233059 -0.7940207542223741
vn 0.6070158369855956 0.03260085141233059 -0.7940207542223741
vn 0.6070158369855956 0.03260085141233059 -0.7940207542223741
vn 0.9796484893817334 0.1654081835109055 0.11370562905903266
vn 0.9796484893817334 0.1654081835109055 0.11370562905903266
vn 0.9796484893817334 0.1654081835109055 0.11370562905903266
vn 0.5357329758045098 0.8320511961613327 0.14380885091725032
vn 0.5357329758045098 0.8320511961613327 0.14380885091725032
vn 0.5357329758045098 0.8320511961613327 0.14380885091725032
vn 0.9500866888852566 -0.09889861167314175 0.2958958401400306
vn 0.9500866888852566 -0.09889861167314175 0.2958958401400306
vn 0.9500866888852566 -0.09889861167314175 0.2958958401400306
vn -0.6892267124551636 -0.5910229405190793 0.41911623998412145
vn -0.6892267124551636 -0.5910229405190793 0.41911623998412145
vn -0.6892267124551636 -0.5910229405190793 0.41911623998412145
vn -0.8364861719011627 -0.28639525962516277 0.4671922939030289
vn -0.8364861719011627 -0.28639525962516277 0.4671922939030289
vn -0.8364861719011627 -0.28639525962516277 0.4671922939030289
vn -0.06620280966589452 -0.4901207747754849 0.8691368212921484
vn -0.06620280966589452 -0.4901207747754849 0.8691368212921484
vn -0.06620280966589452 -0.4901207747754849 0.8691368212921484
vn -0.8198950012308726 0.3518978760277477 -0.45159724512422267
vn -0.8198950012308726 0.3518978760277477 -0.45159724512422267
vn -0.8198950012308726 0.3518978760277477 -0.45159724512422267
vn -0.8221489187840082 -0.4407262270116117 -0.360321451160482
vn -0.8221489187840082 -0.4407262270116117 -0.360321451160482
vn -0.8221489187840082 -0.4407262270116117 -0.360321451160482
vn -0.8294915378559654 -0.4453954453731116 -0.3369965665496209
vn -0.8294915378559654 -0.4453954453731116 -0.3369965665496209
vn -0.8294915378559654 -0.4453954453731116 -0.3369965665496209
vn -0.0823004045598209 -0.7267035810818624 -0.682003334780767
vn -0.0823004045598209 -0.7267035810818624 -0.682003334780767
vn -0.0823004045598209 -0.7267035810818624 -0.682003334780767
vn -0.962441864388346 0.14390626379177796 0.2302100017683328
vn -0.962441864388346 0.14390626379177796 0.2302100017683328
vn -0.962441864388346 0.14390626379177796 0.2302100017683328
vn -0.84918867810841 0.525392971703336 0.05329928946269746
vn -0.84918867810841 0.525392971703336 0.05329928946269746
vn -0.84918867810841 0.525392971703336 0.05329928946269746
vn 0.5276005705890136 0.8407008952708926 0.12190013373605027
vn 0.5276005705890136 0.8407008952708926 0.12190013373605027
vn 0.5276005705890136 0.8407008952708926 0.12190013373605027
vn 0.500585695994201 -0.1500957097268398 -0.8525756499499605
vn 0.500585695994201 -0.1500957097268398 -0.8525756499499605
vn 0.500585695994201 -0.1500957097268398 -0.8525756499499605
vn 0.06610094556906268 -0.7844111913663009 -0.6167088031268697
vn 0.06610094556906268 -0.7844111913663009 -0.6167088031268697
vn 0.06610094556906268 -0.7844111913663009 -0.6167088031268697
vn 0.8210179637792099 -0.4801105223398286 0.3089067650447577
vn 0.8210179637792099 -0.4801105223398286 0.3089067650447577
vn 0.8210179637792099 -0.4801105223398286 0.3089067650447577
vn 0.9020299235760272 -0.3249107761393113 0.2842094377778068
vn 0.9020299235760272 -0.3249107761393113 0.2842094377778068
vn 0.9020299235760272 -0.3249107761393113 0.2842094377778068
f 1/1/1 2/2/2 3/3/3
f 4/4/4 5/5/5 6/6/6
f 7/7/7 8/8/8 9/9/9
f 10/10/10 11/11/11 12/12/12
f 13/13/13 14/14/14 15/15/15
f 16/16/16 17/17/17 18/18/18
f 19/19/19 20/20/20 21/21/21
f 22/22/22 23/23/23 24/24/24
f 25/25/25 26/26/26 27/27/27
f 28/28/28 29/29/29 30/30/30
f 31/31/31 32/32/32 33/33/33
f 34/34/34 35/35/35 36/36/36
f 37/37/37 38/38/38 39/39/39
f 40/40/40 41/41/41 42/42/42
f 43/43/43 44/44/44 45/45/45
f 46/46/46 47/47/47 48/48/48
f 49/49/49 50/50/50 51/51/51
f 52/52/52 53/53/53 54/54/54
f 55/55/55 56/56/56 57/57/57
f 58/58/58 59/59/59 60/60/60
f 61/61/61 62/62/62 63/63/63
f 64/64/64 65/65/65 66/66/66
f 67/67/67 68/68/68 69/69/69
f 70/70/70 71/71/71 72/72/72
f 73/73/73 74/74/74 75/75/75
f 76/76/76 77/77/77 78/78/78
f 79/79/79 80/80/80 81/81/81
f 82/82/82 83/83/83 84/84/84
f 85/85/85 86/86/86 87/87/87
f 88/88/88 89/89/89 90/90/90
f 91/91/91 92/92/92 93/93/93
f 94/94/94 95/95/95 96/96/96
f 97/97/97 98/98/98 99/99/99
f 100/100/100 101/101/101 102/102/102
f 103/103/103 104/104/104 105/105/105
f 106/106/106 107/107/107 108/108/108
