o Moss_02_Icosphere.150
usemtl Grass
v 19.69158363342285 2.4384241104125977 14.935162544250488
v 20.436017990112305 2.4005019664764404 14.13757610321045
v 20.248645782470703 2.5708000659942627 14.042035102844238
v 19.69158363342285 2.4384241104125977 14.935162544250488
v 20.248645782470703 2.5708000659942627 14.042035102844238
v 19.670276641845703 2.6002631187438965 14.661698341369629
v 19.50285530090332 2.339308977127075 12.84471607208252
v 18.739810943603516 2.4404311180114746 13.38125991821289
v 18.930824279785156 2.6018218994140625 13.454435348510742
v 19.50285530090332 2.339308977127075 12.84471607208252
v 18.930824279785156 2.6018218994140625 13.454435348510742
v 19.523651123046875 2.5232579708099365 13.037582397460938
v 18.319229125976562 2.448188066482544 13.680331230163574
v 18.446762084960938 2.4518790245056152 14.857412338256836
v 18.70314598083496 2.6107161045074463 14.60129165649414
v 18.319229125976562 2.448188066482544 13.680331230163574
v 18.70314598083496 2.6107161045074463 14.60129165649414
v 18.604063034057617 2.607848882675171 13.68679141998291
v 19.06884002685547 2.4572229385375977 14.886710166931152
v 19.69158363342285 2.4384241104125977 14.935162544250488
v 19.670276641845703 2.6002631187438965 14.661698341369629
v 19.06884002685547 2.4572229385375977 14.886710166931152
v 19.670276641845703 2.6002631187438965 14.661698341369629
v 19.186452865600586 2.6148691177368164 14.624053955078125
v 19.523651123046875 2.5232579708099365 13.037582397460938
v 18.930824279785156 2.6018218994140625 13.454435348510742
v 20.248645782470703 2.5708000659942627 14.042035102844238
v 19.523651123046875 2.5232579708099365 13.037582397460938
v 20.248645782470703 2.5708000659942627 14.042035102844238
v 20.295852661132812 2.562925100326538 13.991764068603516
v 18.768836975097656 2.608983039855957 13.56757926940918
v 18.604063034057617 2.607848882675171 13.68679141998291
v 18.70314598083496 2.6107161045074463 14.60129165649414
v 18.768836975097656 2.608983039855957 13.56757926940918
v 18.70314598083496 2.6107161045074463 14.60129165649414
v 19.186452865600586 2.6148691177368164 14.624053955078125
v 20.248645782470703 2.5708000659942627 14.042035102844238
v 18.930824279785156 2.6018218994140625 13.454435348510742
v 18.768836975097656 2.608983039855957 13.56757926940918
v 18.768836975097656 2.608983039855957 13.56757926940918
v 19.186452865600586 2.6148691177368164 14.624053955078125
v 19.670276641845703 2.6002631187438965 14.661698341369629
v 18.768836975097656 2.608983039855957 13.56757926940918
v 19.670276641845703 2.6002631187438965 14.661698341369629
v 20.248645782470703 2.5708000659942627 14.042035102844238
v 20.295852661132812 2.562925100326538 13.991764068603516
v 20.027931213378906 2.444365978240967 13.28237247467041
v 19.523651123046875 2.5232579708099365 13.037582397460938
v 18.446762084960938 2.4518790245056152 14.857412338256836
v 19.06884002685547 2.4572229385375977 14.886710166931152
v 19.186452865600586 2.6148691177368164 14.624053955078125
v 18.446762084960938 2.4518790245056152 14.857412338256836
v 19.186452865600586 2.6148691177368164 14.624053955078125
v 18.70314598083496 2.6107161045074463 14.60129165649414
v 20.436017990112305 2.4005019664764404 14.13757610321045
v 20.49677848815918 2.3903648853302 14.072870254516602
v 20.295852661132812 2.562925100326538 13.991764068603516
v 20.436017990112305 2.4005019664764404 14.13757610321045
v 20.295852661132812 2.562925100326538 13.991764068603516
v 20.248645782470703 2.5708000659942627 14.042035102844238
v 20.151931762695312 2.237765073776245 13.159791946411133
v 19.50285530090332 2.339308977127075 12.84471607208252
v 19.523651123046875 2.5232579708099365 13.037582397460938
v 20.151931762695312 2.237765073776245 13.159791946411133
v 19.523651123046875 2.5232579708099365 13.037582397460938
v 20.027931213378906 2.444365978240967 13.28237247467041
v 18.739810943603516 2.4404311180114746 13.38125991821289
v 18.531312942504883 2.449647903442383 13.52688980102539
v 18.768836975097656 2.608983039855957 13.56757926940918
v 18.739810943603516 2.4404311180114746 13.38125991821289
v 18.768836975097656 2.608983039855957 13.56757926940918
v 18.930824279785156 2.6018218994140625 13.454435348510742
v 18.531312942504883 2.449647903442383 13.52688980102539
v 18.319229125976562 2.448188066482544 13.680331230163574
v 18.604063034057617 2.607848882675171 13.68679141998291
v 18.531312942504883 2.449647903442383 13.52688980102539
v 18.604063034057617 2.607848882675171 13.68679141998291
v 18.768836975097656 2.608983039855957 13.56757926940918
v 20.49677848815918 2.3903648853302 14.072870254516602
v 20.151931762695312 2.237765073776245 13.159791946411133
v 20.027931213378906 2.444365978240967 13.28237247467041
v 20.49677848815918 2.3903648853302 14.072870254516602
v 20.027931213378906 2.444365978240967 13.28237247467041
v 20.295852661132812 2.562925100326538 13.991764068603516
v 18.739810943603516 2.4404311180114746 13.38125991821289
v 19.50285530090332 2.339308977127075 12.84471607208252
v 20.151931762695312 2.237765073776245 13.159791946411133
v 20.151931762695312 2.237765073776245 13.159791946411133
v 20.49677848815918 2.3903648853302 14.072870254516602
v 20.436017990112305 2.4005019664764404 14.13757610321045
v 20.436017990112305 2.4005019664764404 14.13757610321045
v 19.69158363342285 2.4384241104125977 14.935162544250488
v 19.06884002685547 2.4572229385375977 14.886710166931152
v 19.06884002685547 2.4572229385375977 14.886710166931152
v 18.446762084960938 2.4518790245056152 14.857412338256836
v 18.319229125976562 2.448188066482544 13.680331230163574
v 18.319229125976562 2.448188066482544 13.680331230163574
v 18.531312942504883 2.449647903442383 13.52688980102539
v 18.739810943603516 2.4404311180114746 13.38125991821289
v 18.739810943603516 2.4404311180114746 13.38125991821289
v 20.151931762695312 2.237765073776245 13.159791946411133
v 20.436017990112305 2.4005019664764404 14.13757610321045
v 20.436017990112305 2.4005019664764404 14.13757610321045
v 19.06884002685547 2.4572229385375977 14.886710166931152
v 18.319229125976562 2.448188066482544 13.680331230163574
v 20.436017990112305 2.4005019664764404 14.13757610321045
v 18.319229125976562 2.448188066482544 13.680331230163574
v 18.739810943603516 2.4404311180114746 13.38125991821289
vt 0.1615999937057495 0.3175640106201172
vt 0.16129499673843384 0.31435298919677734
vt 0.16129499673843384 0.31435298919677734
vt 0.1615999937057495 0.3175640106201172
vt 0.16129499673843384 0.31435298919677734
vt 0.1615999937057495 0.3175640106201172
vt 0.1552709937095642 0.26366499066352844
vt 0.2741110026836395 0.24924999475479126
vt 0.2741110026836395 0.24924999475479126
vt 0.1552709937095642 0.26366499066352844
vt 0.2741110026836395 0.24924999475479126
vt 0.1552709937095642 0.26366499066352844
vt 0.26375699043273926 0.24608999490737915
vt 0.18525999784469604 0.2816289961338043
vt 0.18525999784469604 0.2816289961338043
vt 0.26375699043273926 0.24608999490737915
vt 0.18525999784469604 0.2816289961338043
vt 0.26375699043273926 0.24608999490737915
vt 0.19303399324417114 0.3001120090484619
vt 0.1615999937057495 0.3175640106201172
vt 0.1615999937057495 0.3175640106201172
vt 0.19303399324417114 0.3001120090484619
vt 0.1615999937057495 0.3175640106201172
vt 0.19303399324417114 0.3001120090484619
vt 0.1552709937095642 0.26366499066352844
vt 0.2741110026836395 0.24924999475479126
vt 0.16129499673843384 0.31435298919677734
vt 0.1552709937095642 0.26366499066352844
vt 0.16129499673843384 0.31435298919677734
vt 0.15012499690055847 0.31512799859046936
vt 0.2775839865207672 0.24796099960803986
vt 0.26375699043273926 0.24608999490737915
vt 0.18525999784469604 0.2816289961338043
vt 0.2775839865207672 0.24796099960803986
vt 0.18525999784469604 0.2816289961338043
vt 0.19303399324417114 0.3001120090484619
vt 0.16129499673843384 0.31435298919677734
vt 0.2741110026836395 0.24924999475479126
vt 0.2775839865207672 0.24796099960803986
vt 0.2775839865207672 0.24796099960803986
vt 0.19303399324417114 0.3001120090484619
vt 0.1615999937057495 0.3175640106201172
vt 0.2775839865207672 0.24796099960803986
vt 0.1615999937057495 0.3175640106201172
vt 0.16129499673843384 0.31435298919677734
vt 0.15012499690055847 0.31512799859046936
vt 0.24007900059223175 0.29149699211120605
vt 0.1552709937095642 0.26366499066352844
vt 0.18525999784469604 0.2816289961338043
vt 0.19303399324417114 0.3001120090484619
vt 0.19303399324417114 0.3001120090484619
vt 0.18525999784469604 0.2816289961338043
vt 0.19303399324417114 0.3001120090484619
vt 0.18525999784469604 0.2816289961338043
vt 0.16129499673843384 0.31435298919677734
vt 0.15012499690055847 0.31512799859046936
vt 0.15012499690055847 0.31512799859046936
vt 0.16129499673843384 0.31435298919677734
vt 0.15012499690055847 0.31512799859046936
vt 0.16129499673843384 0.31435298919677734
vt 0.24007900059223175 0.29149699211120605
vt 0.1552709937095642 0.26366499066352844
vt 0.1552709937095642 0.26366499066352844
vt 0.24007900059223175 0.29149699211120605
vt 0.1552709937095642 0.26366499066352844
vt 0.24007900059223175 0.29149699211120605
vt 0.2741110026836395 0.24924999475479126
vt 0.2775839865207672 0.24796099960803986
vt 0.2775839865207672 0.24796099960803986
vt 0.2741110026836395 0.24924999475479126
vt 0.2775839865207672 0.24796099960803986
vt 0.2741110026836395 0.24924999475479126
vt 0.2775839865207672 0.24796099960803986
vt 0.26375699043273926 0.24608999490737915
vt 0.26375699043273926 0.24608999490737915
vt 0.2775839865207672 0.24796099960803986
vt 0.26375699043273926 0.24608999490737915
vt 0.2775839865207672 0.24796099960803986
vt 0.15012499690055847 0.31512799859046936
vt 0.24007900059223175 0.29149699211120605
vt 0.24007900059223175 0.29149699211120605
vt 0.15012499690055847 0.31512799859046936
vt 0.24007900059223175 0.29149699211120605
vt 0.15012499690055847 0.31512799859046936
vt 0.2741110026836395 0.24924999475479126
vt 0.1552709937095642 0.26366499066352844
vt 0.24007900059223175 0.29149699211120605
vt 0.24007900059223175 0.29149699211120605
vt 0.15012499690055847 0.31512799859046936
vt 0.16129499673843384 0.31435298919677734
vt 0.16129499673843384 0.31435298919677734
vt 0.1615999937057495 0.3175640106201172
vt 0.19303399324417114 0.3001120090484619
vt 0.19303399324417114 0.3001120090484619
vt 0.18525999784469604 0.2816289961338043
vt 0.26375699043273926 0.24608999490737915
vt 0.26375699043273926 0.24608999490737915
vt 0.2775839865207672 0.24796099960803986
vt 0.2741110026836395 0.24924999475479126
vt 0.2741110026836395 0.24924999475479126
vt 0.24007900059223175 0.29149699211120605
vt 0.16129499673843384 0.31435298919677734
vt 0.16129499673843384 0.31435298919677734
vt 0.19303399324417114 0.3001120090484619
vt 0.26375699043273926 0.24608999490737915
vt 0.16129499673843384 0.31435298919677734
vt 0.26375699043273926 0.24608999490737915
vt 0.2741110026836395 0.24924999475479126
vn 0.48572147583346936 0.7683339503971423 0.4168184119988921
vn 0.48572147583346936 0.7683339503971423 0.4168184119988921
vn 0.48572147583346936 0.7683339503971423 0.4168184119988921
vn 0.48572147583346936 0.7683339503971423 0.4168184119988921
vn 0.48572147583346936 0.7683339503971423 0.4168184119988921
vn 0.48572147583346936 0.7683339503971423 0.4168184119988921
vn -0.34850487766691185 0.6967097013639707 -0.6270087258305883
vn -0.34850487766691185 0.6967097013639707 -0.6270087258305883
vn -0.34850487766691185 0.6967097013639707 -0.6270087258305883
vn -0.34848059342122467 0.6967611648012988 -0.6269650350964786
vn -0.34848059342122467 0.6967611648012988 -0.6269650350964786
vn -0.34848059342122467 0.6967611648012988 -0.6269650350964786
vn -0.48920850367184987 0.8707151440606136 0.05030087314008049
vn -0.48920850367184987 0.8707151440606136 0.05030087314008049
vn -0.48920850367184987 0.8707151440606136 0.05030087314008049
vn -0.48920850367184987 0.8707151440606136 0.05030087314008049
vn -0.48920850367184987 0.8707151440606136 0.05030087314008049
vn -0.48920850367184987 0.8707151440606136 0.05030087314008049
vn -0.013700769296810737 0.860048305275716 0.5100286281308574
vn -0.013700769296810737 0.860048305275716 0.5100286281308574
vn -0.013700769296810737 0.860048305275716 0.5100286281308574
vn -0.013700769296810737 0.860048305275716 0.5100286281308574
vn -0.013700769296810737 0.860048305275716 0.5100286281308574
vn -0.013700769296810737 0.860048305275716 0.5100286281308574
vn 0.06540018282701332 0.9934028012898007 -0.09420026791771936
vn 0.06540018282701332 0.9934028012898007 -0.09420026791771936
vn 0.06540018282701332 0.9934028012898007 -0.09420026791771936
vn 0.06540018282701332 0.9934028012898007 -0.09420026791771936
vn 0.06540018282701332 0.9934028012898007 -0.09420026791771936
vn 0.06540018282701332 0.9934028012898007 -0.09420026791771936
vn -0.00849967284832672 0.9999614572245326 -0.002199915193973502
vn -0.00849967284832672 0.9999614572245326 -0.002199915193973502
vn -0.00849967284832672 0.9999614572245326 -0.002199915193973502
vn -0.00849967284832672 0.9999614572245326 -0.002199915193973502
vn -0.00849967284832672 0.9999614572245326 -0.002199915193973502
vn -0.00849967284832672 0.9999614572245326 -0.002199915193973502
vn 0.03160121425981981 0.9993384503527419 -0.01800069176130074
vn 0.03160121425981981 0.9993384503527419 -0.01800069176130074
vn 0.03160121425981981 0.9993384503527419 -0.01800069176130074
vn 0.03160121425981981 0.9993384503527419 -0.01800069176130074
vn 0.03160121425981981 0.9993384503527419 -0.01800069176130074
vn 0.03160121425981981 0.9993384503527419 -0.01800069176130074
vn 0.03160121425981981 0.9993384503527419 -0.01800069176130074
vn 0.03160121425981981 0.9993384503527419 -0.01800069176130074
vn 0.03160121425981981 0.9993384503527419 -0.01800069176130074
vn 0.26991437464754414 0.9279494556490842 -0.25701369247414335
vn 0.26991437464754414 0.9279494556490842 -0.25701369247414335
vn 0.26991437464754414 0.9279494556490842 -0.25701369247414335
vn -0.031199501969871635 0.8630862384516523 0.5040919916763306
vn -0.031199501969871635 0.8630862384516523 0.5040919916763306
vn -0.031199501969871635 0.8630862384516523 0.5040919916763306
vn -0.031199501969871635 0.8630862384516523 0.5040919916763306
vn -0.031199501969871635 0.8630862384516523 0.5040919916763306
vn -0.031199501969871635 0.8630862384516523 0.5040919916763306
vn 0.5176021155281423 0.7740031526582739 0.3647014802216249
vn 0.5176021155281423 0.7740031526582739 0.3647014802216249
vn 0.5176021155281423 0.7740031526582739 0.3647014802216249
vn 0.5175288885896286 0.7740432212767949 0.36472036009883835
vn 0.5175288885896286 0.7740432212767949 0.36472036009883835
vn 0.5175288885896286 0.7740432212767949 0.36472036009883835
vn 0.41538167126463515 0.6354719760054012 -0.650871289034314
vn 0.41538167126463515 0.6354719760054012 -0.650871289034314
vn 0.41538167126463515 0.6354719760054012 -0.650871289034314
vn 0.41538167126463515 0.6354719760054012 -0.650871289034314
vn 0.41538167126463515 0.6354719760054012 -0.650871289034314
vn 0.41538167126463515 0.6354719760054012 -0.650871289034314
vn -0.3788926905948031 0.714886241577075 -0.5876886851196256
vn -0.3788926905948031 0.714886241577075 -0.5876886851196256
vn -0.3788926905948031 0.714886241577075 -0.5876886851196256
vn -0.3788926905948031 0.714886241577075 -0.5876886851196256
vn -0.3788926905948031 0.714886241577075 -0.5876886851196256
vn -0.3788926905948031 0.714886241577075 -0.5876886851196256
vn -0.40018374583356786 0.7359700915232154 -0.5460778277442919
vn -0.40018374583356786 0.7359700915232154 -0.5460778277442919
vn -0.40018374583356786 0.7359700915232154 -0.5460778277442919
vn -0.40018374583356786 0.7359700915232154 -0.5460778277442919
vn -0.40018374583356786 0.7359700915232154 -0.5460778277442919
vn -0.40018374583356786 0.7359700915232154 -0.5460778277442919
vn 0.6870112541910277 0.628610320217223 -0.3645059696785107
vn 0.6870112541910277 0.628610320217223 -0.3645059696785107
vn 0.6870112541910277 0.628610320217223 -0.3645059696785107
vn 0.6870112541910277 0.628610320217223 -0.3645059696785107
vn 0.6870112541910277 0.628610320217223 -0.3645059696785107
vn 0.6870112541910277 0.628610320217223 -0.3645059696785107
vn -0.09350293752213967 -0.9949312110450895 -0.03700116164503769
vn 0.019700119063933742 -0.9888059622454143 0.1479008936307933
vn 0.0014000306653305635 -0.9989219116118551 -0.04640101740106212
vn -0.08530056749678928 -0.9953066338764639 0.04570030356822822
vn -0.16800296369321913 -0.9848173672816202 -0.04370076991075941
vn 0.06570280743490836 -0.9972425931057082 0.0345014723015465
vn -0.14670196073027483 -0.984413166298065 0.09700130275883459
vn -0.06759885780659863 -0.9947832083496133 0.0763987094713845
vn -0.04959949732239391 -0.9963898719032787 -0.0688992963239373
vn -0.028501426727418636 -0.9961498733420882 0.08290415258021319
vn -0.0925035749673337 -0.9922383510273909 0.08310320913603324
vn -0.04220127057902967 -0.9957300021351931 0.08210247017820962
vn -0.47002354165511595 -0.42692138329816354 -0.772538673965753
vn -0.08800303770314938 -0.9937343347334615 0.06890237533541853
vn -0.5868802029575396 -0.36728761679722294 -0.721575660567853
vn -0.05600091232338114 -0.977115902940341 0.20520333827701479
vn -0.06600072706594336 -0.9964109805565124 0.05300058351731833
vn -0.18200179675407144 -0.9805096825085763 0.07400073300461837
vn -0.16760158310798232 -0.9855092523660542 0.026100245987323002
vn -0.11650273061722388 -0.992823287155213 0.02700063408603803
vn -0.0348993310325444 -0.9922809973301707 0.1189977269989746
vn -0.15269253691272144 -0.9868516930430996 -0.052997406626412974
vn 0.04160160899644738 -0.9969385772147739 0.06620256331811611
vn -0.03169939310054169 -0.9982808981236798 0.04929905595887555
f 1/1/1 2/2/2 3/3/3
f 4/4/4 5/5/5 6/6/6
f 7/7/7 8/8/8 9/9/9
f 10/10/10 11/11/11 12/12/12
f 13/13/13 14/14/14 15/15/15
f 16/16/16 17/17/17 18/18/18
f 19/19/19 20/20/20 21/21/21
f 22/22/22 23/23/23 24/24/24
f 25/25/25 26/26/26 27/27/27
f 28/28/28 29/29/29 30/30/30
f 31/31/31 32/32/32 33/33/33
f 34/34/34 35/35/35 36/36/36
f 37/37/37 38/38/38 39/39/39
f 40/40/40 41/41/41 42/42/42
f 43/43/43 44/44/44 45/45/45
f 46/46/46 47/47/47 48/48/48
f 49/49/49 50/50/50 51/51/51
f 52/52/52 53/53/53 54/54/54
f 55/55/55 56/56/56 57/57/57
f 58/58/58 59/59/59 60/60/60
f 61/61/61 62/62/62 63/63/63
f 64/64/64 65/65/65 66/66/66
f 67/67/67 68/68/68 69/69/69
f 70/70/70 71/71/71 72/72/72
f 73/73/73 74/74/74 75/75/75
f 76/76/76 77/77/77 78/78/78
f 79/79/79 80/80/80 81/81/81
f 82/82/82 83/83/83 84/84/84
f 85/85/85 86/86/86 87/87/87
f 88/88/88 89/89/89 90/90/90
f 91/91/91 92/92/92 93/93/93
f 94/94/94 95/95/95 96/96/96
f 97/97/97 98/98/98 99/99/99
f 100/100/100 101/101/101 102/102/102
f 103/103/103 104/104/104 105/105/105
f 106/106/106 107/107/107 108/108/108
