o Waterfall_Base_Plane.009
usemtl water
v 17.773189544677734 5.247228145599365 -17.31161880493164
v 15.862466812133789 5.532299995422363 -18.298166275024414
v 15.832115173339844 5.242822170257568 -17.376956939697266
v 17.773189544677734 5.247228145599365 -17.31161880493164
v 17.80354118347168 5.53670597076416 -18.232826232910156
v 15.862466812133789 5.532299995422363 -18.298166275024414
v 17.778308868408203 4.848235130310059 -17.43682861328125
v 15.867587089538574 5.133306980133057 -18.423376083374023
v 17.80866050720215 5.1377129554748535 -18.3580379486084
v 17.778308868408203 4.848235130310059 -17.43682861328125
v 15.837235450744629 4.843829154968262 -17.502166748046875
v 15.867587089538574 5.133306980133057 -18.423376083374023
v 17.80354118347168 5.53670597076416 -18.232826232910156
v 15.867587089538574 5.133306980133057 -18.423376083374023
v 15.862466812133789 5.532299995422363 -18.298166275024414
v 17.80354118347168 5.53670597076416 -18.232826232910156
v 17.80866050720215 5.1377129554748535 -18.3580379486084
v 15.867587089538574 5.133306980133057 -18.423376083374023
v 17.778308868408203 4.848235130310059 -17.43682861328125
v 15.808940887451172 4.564807891845703 -17.125825881958008
v 15.837235450744629 4.843829154968262 -17.502166748046875
v 17.778308868408203 4.848235130310059 -17.43682861328125
v 17.744312286376953 4.403162002563477 -16.981801986694336
v 15.808940887451172 4.564807891845703 -17.125825881958008
v 15.862466812133789 5.532299995422363 -18.298166275024414
v 15.837235450744629 4.843829154968262 -17.502166748046875
v 15.832115173339844 5.242822170257568 -17.376956939697266
v 15.862466812133789 5.532299995422363 -18.298166275024414
v 15.867587089538574 5.133306980133057 -18.423376083374023
v 15.837235450744629 4.843829154968262 -17.502166748046875
v 17.773189544677734 5.247228145599365 -17.31161880493164
v 17.80866050720215 5.1377129554748535 -18.3580379486084
v 17.80354118347168 5.53670597076416 -18.232826232910156
v 17.773189544677734 5.247228145599365 -17.31161880493164
v 17.778308868408203 4.848235130310059 -17.43682861328125
v 17.80866050720215 5.1377129554748535 -18.3580379486084
v 15.808940887451172 4.564807891845703 -17.125825881958008
v 15.774833679199219 4.157894134521484 -16.41847801208496
v 15.803702354431152 4.862236022949219 -16.83194923400879
v 15.808940887451172 4.564807891845703 -17.125825881958008
v 15.78320598602295 3.9329309463500977 -16.770891189575195
v 15.774833679199219 4.157894134521484 -16.41847801208496
v 15.832115173339844 5.242822170257568 -17.376956939697266
v 17.73907470703125 4.700591087341309 -16.687923431396484
v 17.773189544677734 5.247228145599365 -17.31161880493164
v 15.832115173339844 5.242822170257568 -17.376956939697266
v 15.803702354431152 4.862236022949219 -16.83194923400879
v 17.73907470703125 4.700591087341309 -16.687923431396484
v 15.837235450744629 4.843829154968262 -17.502166748046875
v 15.803702354431152 4.862236022949219 -16.83194923400879
v 15.832115173339844 5.242822170257568 -17.376956939697266
v 15.837235450744629 4.843829154968262 -17.502166748046875
v 15.808940887451172 4.564807891845703 -17.125825881958008
v 15.803702354431152 4.862236022949219 -16.83194923400879
v 17.773189544677734 5.247228145599365 -17.31161880493164
v 17.744312286376953 4.403162002563477 -16.981801986694336
v 17.778308868408203 4.848235130310059 -17.43682861328125
v 17.773189544677734 5.247228145599365 -17.31161880493164
v 17.73907470703125 4.700591087341309 -16.687923431396484
v 17.744312286376953 4.403162002563477 -16.981801986694336
v 17.715879440307617 4.09054708480835 -16.363271713256836
v 17.693218231201172 3.065753936767578 -16.625455856323242
v 17.724252700805664 3.8655829429626465 -16.71568489074707
v 17.715879440307617 4.09054708480835 -16.363271713256836
v 17.684656143188477 3.2793819904327393 -16.266063690185547
v 17.693218231201172 3.065753936767578 -16.625455856323242
v 17.744312286376953 4.403162002563477 -16.981801986694336
v 15.78320598602295 3.9329309463500977 -16.770891189575195
v 15.808940887451172 4.564807891845703 -17.125825881958008
v 17.744312286376953 4.403162002563477 -16.981801986694336
v 17.724252700805664 3.8655829429626465 -16.71568489074707
v 15.78320598602295 3.9329309463500977 -16.770891189575195
v 17.73907470703125 4.700591087341309 -16.687923431396484
v 17.724252700805664 3.8655829429626465 -16.71568489074707
v 17.744312286376953 4.403162002563477 -16.981801986694336
v 17.73907470703125 4.700591087341309 -16.687923431396484
v 17.715879440307617 4.09054708480835 -16.363271713256836
v 17.724252700805664 3.8655829429626465 -16.71568489074707
v 15.803702354431152 4.862236022949219 -16.83194923400879
v 17.715879440307617 4.09054708480835 -16.363271713256836
v 17.73907470703125 4.700591087341309 -16.687923431396484
v 15.803702354431152 4.862236022949219 -16.83194923400879
v 15.774833679199219 4.157894134521484 -16.41847801208496
v 17.715879440307617 4.09054708480835 -16.363271713256836
v 17.684656143188477 3.2793819904327393 -16.266063690185547
v 17.71875 1.9911409616470337 -16.57545280456543
v 17.693218231201172 3.065753936767578 -16.625455856323242
v 17.684656143188477 3.2793819904327393 -16.266063690185547
v 17.710186004638672 2.2047688961029053 -16.2160587310791
v 17.71875 1.9911409616470337 -16.57545280456543
v 15.774833679199219 4.157894134521484 -16.41847801208496
v 17.684656143188477 3.2793819904327393 -16.266063690185547
v 17.715879440307617 4.09054708480835 -16.363271713256836
v 15.774833679199219 4.157894134521484 -16.41847801208496
v 15.743810653686523 3.3552870750427246 -16.324024200439453
v 17.684656143188477 3.2793819904327393 -16.266063690185547
v 15.78320598602295 3.9329309463500977 -16.770891189575195
v 15.743810653686523 3.3552870750427246 -16.324024200439453
v 15.774833679199219 4.157894134521484 -16.41847801208496
v 15.78320598602295 3.9329309463500977 -16.770891189575195
v 15.752374649047852 3.1416590213775635 -16.68341827392578
v 15.743810653686523 3.3552870750427246 -16.324024200439453
v 17.724252700805664 3.8655829429626465 -16.71568489074707
v 15.752374649047852 3.1416590213775635 -16.68341827392578
v 15.78320598602295 3.9329309463500977 -16.770891189575195
v 17.724252700805664 3.8655829429626465 -16.71568489074707
v 17.693218231201172 3.065753936767578 -16.625455856323242
v 15.752374649047852 3.1416590213775635 -16.68341827392578
v 15.777905464172363 2.0670459270477295 -16.633413314819336
v 15.731833457946777 1.6196999549865723 -16.276233673095703
v 15.769341468811035 2.2806739807128906 -16.274019241333008
v 15.777905464172363 2.0670459270477295 -16.633413314819336
v 15.740395545959473 1.4060720205307007 -16.63562774658203
v 15.731833457946777 1.6196999549865723 -16.276233673095703
v 15.743810653686523 3.3552870750427246 -16.324024200439453
v 17.710186004638672 2.2047688961029053 -16.2160587310791
v 17.684656143188477 3.2793819904327393 -16.266063690185547
v 15.743810653686523 3.3552870750427246 -16.324024200439453
v 15.769341468811035 2.2806739807128906 -16.274019241333008
v 17.710186004638672 2.2047688961029053 -16.2160587310791
v 15.752374649047852 3.1416590213775635 -16.68341827392578
v 15.769341468811035 2.2806739807128906 -16.274019241333008
v 15.743810653686523 3.3552870750427246 -16.324024200439453
v 15.752374649047852 3.1416590213775635 -16.68341827392578
v 15.777905464172363 2.0670459270477295 -16.633413314819336
v 15.769341468811035 2.2806739807128906 -16.274019241333008
v 17.693218231201172 3.065753936767578 -16.625455856323242
v 15.777905464172363 2.0670459270477295 -16.633413314819336
v 15.752374649047852 3.1416590213775635 -16.68341827392578
v 17.693218231201172 3.065753936767578 -16.625455856323242
v 17.71875 1.9911409616470337 -16.57545280456543
v 15.777905464172363 2.0670459270477295 -16.633413314819336
v 15.731833457946777 1.6196999549865723 -16.276233673095703
v 17.681241989135742 1.3301680088043213 -16.577665328979492
v 17.672679901123047 1.5437959432601929 -16.218273162841797
v 15.731833457946777 1.6196999549865723 -16.276233673095703
v 15.740395545959473 1.4060720205307007 -16.63562774658203
v 17.681241989135742 1.3301680088043213 -16.577665328979492
v 17.71875 1.9911409616470337 -16.57545280456543
v 15.740395545959473 1.4060720205307007 -16.63562774658203
v 15.777905464172363 2.0670459270477295 -16.633413314819336
v 17.71875 1.9911409616470337 -16.57545280456543
v 17.681241989135742 1.3301680088043213 -16.577665328979492
v 15.740395545959473 1.4060720205307007 -16.63562774658203
v 17.710186004638672 2.2047688961029053 -16.2160587310791
v 17.681241989135742 1.3301680088043213 -16.577665328979492
v 17.71875 1.9911409616470337 -16.57545280456543
v 17.710186004638672 2.2047688961029053 -16.2160587310791
v 17.672679901123047 1.5437959432601929 -16.218273162841797
v 17.681241989135742 1.3301680088043213 -16.577665328979492
v 15.769341468811035 2.2806739807128906 -16.274019241333008
v 17.672679901123047 1.5437959432601929 -16.218273162841797
v 17.710186004638672 2.2047688961029053 -16.2160587310791
v 15.769341468811035 2.2806739807128906 -16.274019241333008
v 15.731833457946777 1.6196999549865723 -16.276233673095703
v 17.672679901123047 1.5437959432601929 -16.218273162841797
vt 0 0
vt 1 1
vt 0 1
vt 0 0
vt 1 0
vt 1 1
vt 0 0
vt 1 1
vt 1 0
vt 0 0
vt 0 1
vt 1 1
vt 1 0
vt 1 1
vt 1 1
vt 1 0
vt 1 0
vt 1 1
vt 0 0
vt 0 1
vt 0 1
vt 0 0
vt 0 0
vt 0 1
vt 1 1
vt 0 1
vt 0 1
vt 1 1
vt 1 1
vt 0 1
vt 0 0
vt 1 0
vt 1 0
vt 0 0
vt 0 0
vt 1 0
vt 0 1
vt 0 1
vt 0 1
vt 0 1
vt 0 1
vt 0 1
vt 0 1
vt 0 0
vt 0 0
vt 0 1
vt 0 1
vt 0 0
vt 0 1
vt 0 1
vt 0 1
vt 0 1
vt 0 1
vt 0 1
vt 0 0
vt 0 0
vt 0 0
vt 0 0
vt 0 0
vt 0 0
vt 0 0
vt 0 0
vt 0 0
vt 0 0
vt 0 0
vt 0 0
vt 0 0
vt 0 1
vt 0 1
vt 0 0
vt 0 0
vt 0 1
vt 0 0
vt 0 0
vt 0 0
vt 0 0
vt 0 0
vt 0 0
vt 0 1
vt 0 0
vt 0 0
vt 0 1
vt 0 1
vt 0 0
vt 0 0
vt 0 0
vt 0 0
vt 0 0
vt 0 0
vt 0 0
vt 0 1
vt 0 0
vt 0 0
vt 0 1
vt 0 1
vt 0 0
vt 0 1
vt 0 1
vt 0 1
vt 0 1
vt 0 1
vt 0 1
vt 0 0
vt 0 1
vt 0 1
vt 0 0
vt 0 0
vt 0 1
vt 0 1
vt 0 1
vt 0 1
vt 0 1
vt 0 1
vt 0 1
vt 0 1
vt 0 0
vt 0 0
vt 0 1
vt 0 1
vt 0 0
vt 0 1
vt 0 1
vt 0 1
vt 0 1
vt 0 1
vt 0 1
vt 0 0
vt 0 1
vt 0 1
vt 0 0
vt 0 0
vt 0 1
vt 0 1
vt 0 0
vt 0 0
vt 0 1
vt 0 1
vt 0 0
vt 0 0
vt 0 1
vt 0 1
vt 0 0
vt 0 0
vt 0 1
vt 0 0
vt 0 0
vt 0 0
vt 0 0
vt 0 0
vt 0 0
vt 0 1
vt 0 0
vt 0 0
vt 0 1
vt 0 1
vt 0 0
vn -0.01219941399060398 0.9540542023733926 0.29938562629484294
vn -0.01219941399060398 0.9540542023733926 0.29938562629484294
vn -0.01219941399060398 0.9540542023733926 0.29938562629484294
vn -0.01219941399060398 0.9540542023733926 0.29938562629484294
vn -0.01219941399060398 0.9540542023733926 0.29938562629484294
vn -0.01219941399060398 0.9540542023733926 0.29938562629484294
vn 0.01219941399060398 -0.9540542023733926 -0.29938562629484294
vn 0.01219941399060398 -0.9540542023733926 -0.29938562629484294
vn 0.01219941399060398 -0.9540542023733926 -0.29938562629484294
vn 0.01219941399060398 -0.9540542023733926 -0.29938562629484294
vn 0.01219941399060398 -0.9540542023733926 -0.29938562629484294
vn 0.01219941399060398 -0.9540542023733926 -0.29938562629484294
vn 0.031401438270270386 0.2996137395817517 -0.9535436837022184
vn 0.031401438270270386 0.2996137395817517 -0.9535436837022184
vn 0.031401438270270386 0.2996137395817517 -0.9535436837022184
vn 0.031401438270270386 0.2996137395817517 -0.9535436837022184
vn 0.031401438270270386 0.2996137395817517 -0.9535436837022184
vn 0.031401438270270386 0.2996137395817517 -0.9535436837022184
vn -0.027498551541474344 -0.7964580788679525 -0.6040681735276996
vn 0.09139986163481512 -0.7999988229672859 -0.5929991134429242
vn -0.05609818570641444 -0.795174277535952 -0.603780474929113
vn -0.058399748364325946 -0.7144969145091442 -0.6971969797323395
vn 0.04890243210624862 -0.721835917871857 -0.6903343101745613
vn 0.05799672830778033 -0.7294588667077004 -0.6815615462209635
vn -0.9994326770479722 -0.0023000752081561862 -0.03360109674937105
vn -0.9994326770479722 -0.0023000752081561862 -0.03360109674937105
vn -0.9994326770479722 -0.0023000752081561862 -0.03360109674937105
vn -0.9994326770479722 -0.0023000752081561862 -0.03360109674937105
vn -0.9994326770479722 -0.0023000752081561862 -0.03360109674937105
vn -0.9994326770479722 -0.0023000752081561862 -0.03360109674937105
vn 0.9994326770479722 0.0023000752081561862 0.03360109674937105
vn 0.9994326770479722 0.0023000752081561862 0.03360109674937105
vn 0.9994326770479722 0.0023000752081561862 0.03360109674937105
vn 0.9994326770479722 0.0023000752081561862 0.03360109674937105
vn 0.9994326770479722 0.0023000752081561862 0.03360109674937105
vn 0.9994326770479722 0.0023000752081561862 0.03360109674937105
vn -0.9991252482753774 0.01910048133225769 -0.03720093912176716
vn -0.9991252482753774 0.01910048133225769 -0.03720093912176716
vn -0.9991252482753774 0.01910048133225769 -0.03720093912176716
vn -0.9991277861515911 0.020100557794958427 -0.0366010179660608
vn -0.9991277861515911 0.020100557794958427 -0.0366010179660608
vn -0.9991277861515911 0.020100557794958427 -0.0366010179660608
vn 0.02819976996673653 0.7551938540492092 0.654894660063834
vn -0.06300040107996155 0.7603048087465404 0.6465040968630057
vn 0.0249008465776627 0.7550256481072781 0.6552222665171722
vn 0.0750003228566973 0.8069034658582921 0.5859025075533191
vn -0.03540080557573863 0.8175186108203532 0.5748131034753373
vn -0.01589949597877384 0.8192739766302657 0.5731817837685105
vn -0.99874489461188 0.0029001302610541795 -0.05000224726123309
vn -0.9986841311788994 0.009999840654445605 -0.050299197988955206
vn -0.9967743183187628 0.03399912568198672 -0.07269812785090389
vn -0.9981767228026391 0.03259924031746596 -0.05079881480612849
vn -0.9988308192909887 -0.019800611250514296 -0.044101363114966076
vn -0.9977424097579611 0.038101620925401126 -0.05530235305331726
vn 0.9963049912975103 -0.01230006143699104 0.08500042825959418
vn 0.9986424782100287 -0.004400187115419611 0.05190220677274962
vn 0.9998496588359607 -0.01499924472068222 0.008699562254629426
vn 0.9983478270262657 -0.014100675546754517 0.05570266798869183
vn 0.9965980265149601 -0.031399937509413146 0.07619985217106354
vn 0.999610825837573 -0.009300100817847698 0.026300285038436733
vn 0.9984126997792262 -0.03360042710985182 0.045200577624542417
vn 0.9984126997792262 -0.03360042710985182 0.045200577624542417
vn 0.9984126997792262 -0.03360042710985182 0.045200577624542417
vn 0.9985016275991238 -0.033200053947711486 0.043500070112242106
vn 0.9985016275991238 -0.033200053947711486 0.043500070112242106
vn 0.9985016275991238 -0.033200053947711486 0.043500070112242106
vn 0.0013000519154938385 -0.48441934734160497 -0.8748349591701
vn 0.04290032290161894 -0.48850367855674964 -0.8715065796260293
vn 0.0016999517878671972 -0.48668618907646344 -0.8735752191575423
vn -0.013400390741448697 -0.44601302873953713 -0.8949261465185613
vn 0.03760145239800788 -0.4474172921172368 -0.8935344970912088
vn 0.028599392031165873 -0.4477904936925503 -0.893681010503205
vn 0.9987153104519471 -0.02460037575765531 0.044300679243700604
vn 0.9994769023292376 -0.015099651829840367 0.02859933958974422
vn 0.9994734093135562 -0.016399564158421587 0.02799925660709857
vn 0.9987907710885685 -0.019799817343406013 0.044999586903335095
vn 0.9987598855857218 -0.02329906422015184 0.04399823350159845
vn 0.9994648044374222 -0.011299602717421458 0.03069891967632656
vn -0.009299598063585945 0.47047965611207415 0.8823618365843574
vn -0.044901741231704706 0.47611846000840913 0.8782340494842943
vn -0.00320003859961103 0.47140569081821276 0.8819106725837741
vn 0.008999756781424008 0.5013864655031217 0.8651766389519322
vn -0.026700144194162594 0.5050027348440626 0.8627046656301496
vn -0.02670070377748731 0.5053133168154251 0.8625227673903924
vn 0.9996629681823197 0.024199103192179716 0.009399651568498164
vn 0.9996629681823197 0.024199103192179716 0.009399651568498164
vn 0.9996629681823197 0.024199103192179716 0.009399651568498164
vn 0.9996629681823197 0.024199103192179716 0.009399651568498164
vn 0.9996629681823197 0.024199103192179716 0.009399651568498164
vn 0.9996629681823197 0.024199103192179716 0.009399651568498164
vn -0.024099842366796576 0.11989921864129124 0.9924935138161374
vn -0.024099842366796576 0.11989921864129124 0.9924935138161374
vn -0.024099842366796576 0.11989921864129124 0.9924935138161374
vn -0.02500056175216663 0.1178026425504649 0.9927222719976638
vn -0.02500056175216663 0.1178026425504649 0.9927222719976638
vn -0.02500056175216663 0.1178026425504649 0.9927222719976638
vn -0.9984317254678579 0.03330106022875328 -0.045001432942931935
vn -0.9984317254678579 0.03330106022875328 -0.045001432942931935
vn -0.9984317254678579 0.03330106022875328 -0.045001432942931935
vn -0.9984529489287117 0.033998400065216865 -0.04399792686667021
vn -0.9984529489287117 0.033998400065216865 -0.04399792686667021
vn -0.9984529489287117 0.033998400065216865 -0.04399792686667021
vn 0.02859922808701741 -0.11739683002356191 -0.9926731931775159
vn 0.016499911974803116 -0.1099994131653541 -0.9937946880558889
vn 0.03200007470806515 -0.1128002600862932 -0.9931022588551205
vn 0.03309955794782058 -0.11349847805678281 -0.9929866639298098
vn 0.017599184066936377 -0.1110948531476535 -0.993653965082553
vn 0.021300351837679418 -0.10620176031942737 -0.99411643237432
vn -0.9967338745185822 0.056701926355956465 -0.05750195592063725
vn -0.9967338745185822 0.056701926355956465 -0.05750195592063725
vn -0.9967338745185822 0.056701926355956465 -0.05750195592063725
vn -0.9967282176216705 0.056801609072983206 -0.05750162957210513
vn -0.9967282176216705 0.056801609072983206 -0.05750162957210513
vn -0.9967282176216705 0.056801609072983206 -0.05750162957210513
vn -0.02799883036574463 0.045798085828039584 0.9985582611108067
vn -0.02799883036574463 0.045798085828039584 0.9985582611108067
vn -0.02799883036574463 0.045798085828039584 0.9985582611108067
vn -0.02799883036574463 0.045798085828039584 0.9985582611108067
vn -0.02799883036574463 0.045798085828039584 0.9985582611108067
vn -0.02799883036574463 0.045798085828039584 0.9985582611108067
vn -0.9996629681823197 -0.024199103192179716 -0.009399651568498164
vn -0.9996629681823197 -0.024199103192179716 -0.009399651568498164
vn -0.9996629681823197 -0.024199103192179716 -0.009399651568498164
vn -0.9996629681823197 -0.024199103192179716 -0.009399651568498164
vn -0.9996629681823197 -0.024199103192179716 -0.009399651568498164
vn -0.9996629681823197 -0.024199103192179716 -0.009399651568498164
vn 0.02799883036574463 -0.045798085828039584 -0.9985582611108067
vn 0.02799883036574463 -0.045798085828039584 -0.9985582611108067
vn 0.02799883036574463 -0.045798085828039584 -0.9985582611108067
vn 0.02799883036574463 -0.045798085828039584 -0.9985582611108067
vn 0.02799883036574463 -0.045798085828039584 -0.9985582611108067
vn 0.02799883036574463 -0.045798085828039584 -0.9985582611108067
vn -0.048799401271255226 -0.8590894604230075 0.5094937854632507
vn -0.048799401271255226 -0.8590894604230075 0.5094937854632507
vn -0.048799401271255226 -0.8590894604230075 0.5094937854632507
vn -0.048799401271255226 -0.8590894604230075 0.5094937854632507
vn -0.048799401271255226 -0.8590894604230075 0.5094937854632507
vn -0.048799401271255226 -0.8590894604230075 0.5094937854632507
vn 0.029898548760757183 0.0016999175390720379 -0.9995514929518945
vn 0.029898548760757183 0.0016999175390720379 -0.9995514929518945
vn 0.029898548760757183 0.0016999175390720379 -0.9995514929518945
vn 0.029898553693543314 0.001599922592048006 -0.9995516578620305
vn 0.029898553693543314 0.001599922592048006 -0.9995516578620305
vn 0.029898553693543314 0.001599922592048006 -0.9995516578620305
vn 0.9967282176216705 -0.056801609072983206 0.05750162957210513
vn 0.9967282176216705 -0.056801609072983206 0.05750162957210513
vn 0.9967282176216705 -0.056801609072983206 0.05750162957210513
vn 0.9967282176216705 -0.056801609072983206 0.05750162957210513
vn 0.9967282176216705 -0.056801609072983206 0.05750162957210513
vn 0.9967282176216705 -0.056801609072983206 0.05750162957210513
vn -0.029898548760757183 -0.0016999175390720379 0.9995514929518945
vn -0.029898548760757183 -0.0016999175390720379 0.9995514929518945
vn -0.029898548760757183 -0.0016999175390720379 0.9995514929518945
vn -0.029898548760757183 -0.0016999175390720379 0.9995514929518945
vn -0.029898548760757183 -0.0016999175390720379 0.9995514929518945
vn -0.029898548760757183 -0.0016999175390720379 0.9995514929518945
f 1/1/1 2/2/2 3/3/3
f 4/4/4 5/5/5 6/6/6
f 7/7/7 8/8/8 9/9/9
f 10/10/10 11/11/11 12/12/12
f 13/13/13 14/14/14 15/15/15
f 16/16/16 17/17/17 18/18/18
f 19/19/19 20/20/20 21/21/21
f 22/22/22 23/23/23 24/24/24
f 25/25/25 26/26/26 27/27/27
f 28/28/28 29/29/29 30/30/30
f 31/31/31 32/32/32 33/33/33
f 34/34/34 35/35/35 36/36/36
f 37/37/37 38/38/38 39/39/39
f 40/40/40 41/41/41 42/42/42
f 43/43/43 44/44/44 45/45/45
f 46/46/46 47/47/47 48/48/48
f 49/49/49 50/50/50 51/51/51
f 52/52/52 53/53/53 54/54/54
f 55/55/55 56/56/56 57/57/57
f 58/58/58 59/59/59 60/60/60
f 61/61/61 62/62/62 63/63/63
f 64/64/64 65/65/65 66/66/66
f 67/67/67 68/68/68 69/69/69
f 70/70/70 71/71/71 72/72/72
f 73/73/73 74/74/74 75/75/75
f 76/76/76 77/77/77 78/78/78
f 79/79/79 80/80/80 81/81/81
f 82/82/82 83/83/83 84/84/84
f 85/85/85 86/86/86 87/87/87
f 88/88/88 89/89/89 90/90/90
f 91/91/91 92/92/92 93/93/93
f 94/94/94 95/95/95 96/96/96
f 97/97/97 98/98/98 99/99/99
f 100/100/100 101/101/101 102/102/102
f 103/103/103 104/104/104 105/105/105
f 106/106/106 107/107/107 108/108/108
f 109/109/109 110/110/110 111/111/111
f 112/112/112 113/113/113 114/114/114
f 115/115/115 116/116/116 117/117/117
f 118/118/118 119/119/119 120/120/120
f 121/121/121 122/122/122 123/123/123
f 124/124/124 125/125/125 126/126/126
f 127/127/127 128/128/128 129/129/129
f 130/130/130 131/131/131 132/132/132
f 133/133/133 134/134/134 135/135/135
f 136/136/136 137/137/137 138/138/138
f 139/139/139 140/140/140 141/141/141
f 142/142/142 143/143/143 144/144/144
f 145/145/145 146/146/146 147/147/147
f 148/148/148 149/149/149 150/150/150
f 151/151/151 152/152/152 153/153/153
f 154/154/154 155/155/155 156/156/156
