# Blender 5.0.1
# www.blender.org
mtllib water.mtl
o Water_Plane.020
v 6.110752 0.738179 -3.763360
v 5.252420 0.751695 -4.772393
v 3.521307 0.802099 -4.539399
v 4.637848 0.729544 -3.733214
v 6.110752 0.738179 -3.763360
v 4.173847 0.789865 -4.137458
v 3.521307 0.802099 -4.539399
v 2.841438 0.759182 -4.974483
v 0.658556 0.735862 -5.023168
v 4.637848 0.729544 -3.733214
v 4.173847 0.789865 -4.137458
v 1.924536 0.738556 -4.117631
v 2.738844 0.740612 -3.129715
v 3.815634 0.709039 -3.368470
v 1.198351 0.699272 -3.325223
v 5.905914 0.767920 -1.364854
v 6.144815 0.607263 -2.506932
v 4.671217 0.736173 -2.426209
v 4.503382 0.819701 -1.230145
v 5.905914 0.767920 -1.364854
v 3.771217 0.787099 -2.245653
v 5.905914 0.767920 -1.364854
v 4.671217 0.736173 -2.426209
v 3.771217 0.787099 -2.245653
v 3.815634 0.709039 -3.368470
v 2.738844 0.740612 -3.129715
v 3.554127 0.759368 -2.946383
v 3.554127 0.759368 -2.946383
v 2.738844 0.740612 -3.129715
v 1.874557 0.658692 -2.712977
v 3.771217 0.787099 -2.245653
v 1.874557 0.658692 -2.712977
v 1.165577 0.532687 -1.929225
v 3.182610 0.702585 -0.687743
v 3.074083 0.732451 -1.476810
v 0.846054 0.467735 -0.964170
v 3.182610 0.702585 -0.687743
v 4.153879 0.810512 -0.961118
v 3.074083 0.732451 -1.476810
v 4.113691 0.763860 0.601058
v 5.886654 0.747337 -0.405044
v 3.182610 0.702585 -0.687743
v 4.671217 0.736173 -2.426209
v 3.815634 0.709039 -3.368470
v 3.554127 0.759368 -2.946383
v 4.671217 0.736173 -2.426209
v 3.554127 0.759368 -2.946383
v 3.771217 0.787099 -2.245653
v 5.886654 0.747337 -0.405044
v 5.905914 0.767920 -1.364854
v 4.503382 0.819701 -1.230145
v 4.503382 0.819701 -1.230145
v 3.074083 0.732451 -1.476810
v 4.153879 0.810512 -0.961118
v 5.644793 0.781935 1.264234
v 5.812635 0.780485 0.376529
v 4.113691 0.763860 0.601058
v 5.644793 0.781935 1.264234
v 4.113691 0.763860 0.601058
v 3.873234 0.789082 1.705133
v 5.808586 0.848068 3.368847
v 4.032875 0.624443 2.952931
v 4.223299 0.689434 4.149620
v 2.487438 0.692587 1.286666
v 4.113691 0.763860 0.601058
v 1.640703 0.509082 0.663415
v 3.873234 0.789082 1.705133
v 2.178944 0.683457 1.721731
v 2.819660 0.734093 2.252046
v 3.873234 0.789082 1.705133
v 4.113691 0.763860 0.601058
v 2.487438 0.692587 1.286666
v 5.808586 0.848068 3.368847
v 5.707869 0.796889 2.295551
v 4.032875 0.624443 2.952931
v 4.032875 0.624443 2.952931
v 2.819660 0.734093 2.252046
v 2.402132 0.534339 2.917901
v 5.789495 0.954391 4.874996
v 3.433525 0.721118 4.934894
v 5.612087 0.863112 5.494836
v 5.964344 0.956265 4.395802
v 4.223299 0.689434 4.149620
v 5.789495 0.954391 4.874996
v 2.182035 0.485618 3.845602
v 0.655537 0.630458 4.333151
v 2.110012 0.641914 4.536390
v 2.772467 0.698982 5.470019
v 0.834040 0.741505 5.487767
v 4.646948 0.822258 6.571900
v 4.223299 0.689434 4.149620
v 2.110012 0.641914 4.536390
v 3.433525 0.721118 4.934894
v 2.772467 0.698982 5.470019
v 1.840616 0.691769 4.987107
v 0.834040 0.741505 5.487767
v 4.646948 0.822258 6.571900
v 5.612087 0.863112 5.494836
v 2.772467 0.698982 5.470019
v -2.258835 0.656123 -4.654260
v -1.297112 0.700376 -4.017907
v -1.838392 0.586042 -5.086709
v 0.658556 0.735862 -5.023168
v -0.801977 0.650750 -5.052455
v -0.475000 0.675515 -4.640829
v 1.198351 0.699272 -3.325223
v -1.297112 0.700376 -4.017907
v -1.218714 0.616376 -2.483313
v -2.814892 0.747569 -4.786038
v -2.694344 0.728460 -4.358340
v -2.258835 0.656123 -4.654260
v -2.814892 0.747569 -4.786038
v -3.273108 0.912174 -4.883805
v -3.411534 0.907216 -4.620231
v -4.088635 1.033887 -4.556000
v -3.598441 0.975035 -4.791820
v -3.760746 1.015760 -4.817225
v -3.411534 0.907216 -4.620231
v -3.273108 0.912174 -4.883805
v -3.598441 0.975035 -4.791820
v -2.411600 0.684572 -5.090844
v -2.919235 0.834913 -5.079482
v -2.814892 0.747569 -4.786038
v -2.919235 0.834913 -5.079482
v -3.348248 0.931792 -4.960178
v -3.273108 0.912174 -4.883805
v -3.348248 0.931792 -4.960178
v -3.760746 1.015760 -4.817225
v -3.598441 0.975035 -4.791820
v -2.760216 0.749651 -3.425383
v -2.676775 0.734974 -3.967824
v -3.140633 0.750925 -3.850370
v -3.140633 0.750925 -3.850370
v -2.676775 0.734974 -3.967824
v -3.426832 0.838598 -4.187768
v -3.140633 0.750925 -3.850370
v -3.595017 0.812483 -3.780437
v -2.760216 0.749651 -3.425383
v -4.218719 0.915024 -3.922028
v -3.595017 0.812483 -3.780437
v -3.426832 0.838598 -4.187768
v -3.595017 0.812483 -3.780437
v -4.218719 0.915024 -3.922028
v -4.310679 0.807893 -3.097220
v -2.258835 0.656123 -4.654260
v -1.838392 0.586042 -5.086709
v -2.342421 0.660887 -4.904342
v -1.838392 0.586042 -5.086709
v -2.411600 0.684572 -5.090844
v -2.342421 0.660887 -4.904342
v -1.297112 0.700376 -4.017907
v -2.676775 0.734974 -3.967824
v -2.760216 0.749651 -3.425383
v -2.694344 0.728460 -4.358340
v -3.411534 0.907216 -4.620231
v -3.426832 0.838598 -4.187768
v -3.426832 0.838598 -4.187768
v -3.411534 0.907216 -4.620231
v -4.088635 1.033887 -4.556000
v -1.297112 0.700376 -4.017907
v -2.694344 0.728460 -4.358340
v -2.676775 0.734974 -3.967824
v 0.846054 0.467735 -0.964170
v -1.199259 0.483237 -0.901415
v -0.290018 0.509692 -0.096375
v 1.243422 0.481987 0.034132
v -0.290018 0.509692 -0.096375
v 0.287004 0.554589 0.422699
v -0.290018 0.509692 -0.096375
v -2.109602 0.514107 -0.299759
v -1.388586 0.595918 0.404903
v -4.370888 0.736391 -2.052697
v -3.107929 0.730160 -2.552451
v -4.310679 0.807893 -3.097220
v -2.735437 0.617861 -1.763926
v -3.107929 0.730160 -2.552451
v -4.370888 0.736391 -2.052697
v -2.109602 0.514107 -0.299759
v -2.234182 0.523832 -1.088301
v -3.227303 0.620561 -0.986319
v -2.582312 0.610330 0.210387
v -3.328029 0.640304 -0.149770
v -3.259911 0.666670 0.305107
v -3.227303 0.620561 -0.986319
v -4.370888 0.736391 -2.052697
v -4.385898 0.737338 -0.815446
v -3.328029 0.640304 -0.149770
v -4.385898 0.737338 -0.815446
v -4.373983 0.748658 0.335363
v -2.109602 0.514107 -0.299759
v -3.227303 0.620561 -0.986319
v -3.328029 0.640304 -0.149770
v -1.218714 0.616376 -2.483313
v -3.107929 0.730160 -2.552451
v -2.735437 0.617861 -1.763926
v -1.199259 0.483237 -0.901415
v -2.234182 0.523832 -1.088301
v -2.109602 0.514107 -0.299759
v -1.199259 0.483237 -0.901415
v -0.621462 0.513749 -1.583323
v -1.710941 0.531286 -1.576610
v -1.710941 0.531286 -1.576610
v -2.735437 0.617861 -1.763926
v -2.234182 0.523832 -1.088301
v -1.218714 0.616376 -2.483313
v -2.760216 0.749651 -3.425383
v -3.107929 0.730160 -2.552451
v 0.953247 0.550191 1.343889
v 1.640703 0.509082 0.663415
v -0.189285 0.692092 0.941134
v 1.000540 0.550437 2.120318
v 2.178944 0.683457 1.721731
v 0.953247 0.550191 1.343889
v 1.000540 0.550437 2.120318
v 0.953247 0.550191 1.343889
v -0.988138 0.703432 1.646377
v -0.988138 0.703432 1.646377
v -0.189285 0.692092 0.941134
v -1.702644 0.672399 0.967062
v 0.564480 0.414099 3.182504
v 1.000540 0.550437 2.120318
v -0.528641 0.622667 2.660115
v -0.920662 0.581499 3.499404
v -0.528641 0.622667 2.660115
v -1.982061 0.633636 2.534848
v -2.807491 0.682906 2.390811
v -2.494638 0.705311 1.550897
v -3.514888 0.697241 2.082235
v -3.457883 0.695661 1.215433
v -2.764727 0.670420 0.704879
v -4.373983 0.748658 0.335363
v -3.514888 0.697241 2.082235
v -4.293682 0.739053 1.335847
v -4.228541 0.706593 2.256096
v -2.530457 0.757643 3.243102
v -3.220384 0.747173 2.996863
v -3.056309 0.809456 3.988074
v -3.056309 0.809456 3.988074
v -3.220384 0.747173 2.996863
v -4.341929 0.762728 3.398606
v -1.702644 0.672399 0.967062
v -2.764727 0.670420 0.704879
v -2.494638 0.705311 1.550897
v -1.982061 0.633636 2.534848
v -0.988138 0.703432 1.646377
v -2.494638 0.705311 1.550897
v -0.988138 0.703432 1.646377
v -1.702644 0.672399 0.967062
v -2.494638 0.705311 1.550897
v -0.528641 0.622667 2.660115
v -0.988138 0.703432 1.646377
v -1.982061 0.633636 2.534848
v -3.514888 0.697241 2.082235
v -4.228541 0.706593 2.256096
v -4.341929 0.762728 3.398606
v -1.353262 0.767338 4.471260
v -0.920662 0.581499 3.499404
v -1.850758 0.705269 3.557794
v 0.834040 0.741505 5.487767
v 0.655537 0.630458 4.333151
v -1.353262 0.767338 4.471260
v -1.473442 0.797688 6.404946
v -1.112545 0.779975 5.559991
v -2.815779 0.784736 5.336735
v -0.443411 0.819387 6.287898
v 0.834040 0.741505 5.487767
v -1.112545 0.779975 5.559991
v -2.815779 0.784736 5.336735
v -3.056309 0.809456 3.988074
v -4.378574 0.834128 4.774580
v -2.815779 0.784736 5.336735
v -4.242002 0.869048 6.239936
v -3.565930 0.714230 6.391651
v -1.353262 0.767338 4.471260
v -1.850758 0.705269 3.557794
v -2.250393 0.750008 3.842388
v -1.112545 0.779975 5.559991
v -1.353262 0.767338 4.471260
v -2.815779 0.784736 5.336735
v -1.353262 0.767338 4.471260
v -3.056309 0.809456 3.988074
v -2.815779 0.784736 5.336735
v -1.473442 0.797688 6.404946
v -2.815779 0.784736 5.336735
v -3.565930 0.714230 6.391651
v 0.655537 0.630458 4.333151
v 0.564480 0.414099 3.182504
v -0.920662 0.581499 3.499404
v 1.165577 0.532687 -1.929225
v 1.874557 0.658692 -2.712977
v -1.218714 0.616376 -2.483313
v 1.640703 0.509082 0.663415
v 1.243422 0.481987 0.034132
v 0.287004 0.554589 0.422699
v 1.165577 0.532687 -1.929225
v -0.621462 0.513749 -1.583323
v 0.846054 0.467735 -0.964170
v 2.487438 0.692587 1.286666
v 0.953247 0.550191 1.343889
v 2.178944 0.683457 1.721731
v 2.182035 0.485618 3.845602
v 0.564480 0.414099 3.182504
v 0.655537 0.630458 4.333151
v 2.402132 0.534339 2.917901
v 1.000540 0.550437 2.120318
v 0.564480 0.414099 3.182504
v 4.113691 0.763860 0.601058
v 3.182610 0.702585 -0.687743
v 1.640703 0.509082 0.663415
v 1.640703 0.509082 0.663415
v 0.287004 0.554589 0.422699
v -0.189285 0.692092 0.941134
v 0.287004 0.554589 0.422699
v -1.388586 0.595918 0.404903
v -0.189285 0.692092 0.941134
v -2.582312 0.610330 0.210387
v -3.259911 0.666670 0.305107
v -2.764727 0.670420 0.704879
v -1.388586 0.595918 0.404903
v -2.582312 0.610330 0.210387
v -2.764727 0.670420 0.704879
v 5.252420 0.751695 -4.772393
v 2.841438 0.759182 -4.974483
v 3.521307 0.802099 -4.539399
v 6.144815 0.607263 -2.506932
v 4.637848 0.729544 -3.733214
v 3.815634 0.709039 -3.368470
v 6.110752 0.738179 -3.763360
v 4.637848 0.729544 -3.733214
v 6.144815 0.607263 -2.506932
v 3.521307 0.802099 -4.539399
v 0.658556 0.735862 -5.023168
v 1.924536 0.738556 -4.117631
v 3.815634 0.709039 -3.368470
v 1.924536 0.738556 -4.117631
v 1.198351 0.699272 -3.325223
v 2.738844 0.740612 -3.129715
v 1.198351 0.699272 -3.325223
v 1.874557 0.658692 -2.712977
v 4.637848 0.729544 -3.733214
v 1.924536 0.738556 -4.117631
v 3.815634 0.709039 -3.368470
v 6.110752 0.738179 -3.763360
v 3.521307 0.802099 -4.539399
v 4.173847 0.789865 -4.137458
v 4.173847 0.789865 -4.137458
v 3.521307 0.802099 -4.539399
v 1.924536 0.738556 -4.117631
v 3.771217 0.787099 -2.245653
v 3.074083 0.732451 -1.476810
v 4.503382 0.819701 -1.230145
v 3.771217 0.787099 -2.245653
v 1.165577 0.532687 -1.929225
v 3.074083 0.732451 -1.476810
v 3.554127 0.759368 -2.946383
v 1.874557 0.658692 -2.712977
v 3.771217 0.787099 -2.245653
v 4.153879 0.810512 -0.961118
v 3.182610 0.702585 -0.687743
v 5.886654 0.747337 -0.405044
v 3.182610 0.702585 -0.687743
v 0.846054 0.467735 -0.964170
v 1.243422 0.481987 0.034132
v 3.182610 0.702585 -0.687743
v 1.243422 0.481987 0.034132
v 1.640703 0.509082 0.663415
v 4.503382 0.819701 -1.230145
v 4.153879 0.810512 -0.961118
v 5.886654 0.747337 -0.405044
v 3.074083 0.732451 -1.476810
v 1.165577 0.532687 -1.929225
v 0.846054 0.467735 -0.964170
v 6.144815 0.607263 -2.506932
v 3.815634 0.709039 -3.368470
v 4.671217 0.736173 -2.426209
v 5.707869 0.796889 2.295551
v 3.873234 0.789082 1.705133
v 4.032875 0.624443 2.952931
v 5.644793 0.781935 1.264234
v 3.873234 0.789082 1.705133
v 5.707869 0.796889 2.295551
v 4.032875 0.624443 2.952931
v 2.182035 0.485618 3.845602
v 4.223299 0.689434 4.149620
v 3.873234 0.789082 1.705133
v 2.487438 0.692587 1.286666
v 2.178944 0.683457 1.721731
v 3.873234 0.789082 1.705133
v 2.819660 0.734093 2.252046
v 4.032875 0.624443 2.952931
v 4.032875 0.624443 2.952931
v 2.402132 0.534339 2.917901
v 2.182035 0.485618 3.845602
v 5.789495 0.954391 4.874996
v 4.223299 0.689434 4.149620
v 3.433525 0.721118 4.934894
v 0.655537 0.630458 4.333151
v 1.840616 0.691769 4.987107
v 2.110012 0.641914 4.536390
v 3.433525 0.721118 4.934894
v 1.840616 0.691769 4.987107
v 2.772467 0.698982 5.470019
v 2.110012 0.641914 4.536390
v 1.840616 0.691769 4.987107
v 3.433525 0.721118 4.934894
v 0.834040 0.741505 5.487767
v 1.119709 0.550080 6.376904
v 4.646948 0.822258 6.571900
v 3.433525 0.721118 4.934894
v 2.772467 0.698982 5.470019
v 5.612087 0.863112 5.494836
v 5.462870 1.322719 6.336721
v 5.612087 0.863112 5.494836
v 4.646948 0.822258 6.571900
v 5.808586 0.848068 3.368847
v 4.223299 0.689434 4.149620
v 5.964344 0.956265 4.395802
v 2.182035 0.485618 3.845602
v 2.110012 0.641914 4.536390
v 4.223299 0.689434 4.149620
v -0.475000 0.675515 -4.640829
v -1.838392 0.586042 -5.086709
v -1.297112 0.700376 -4.017907
v -0.475000 0.675515 -4.640829
v -0.801977 0.650750 -5.052455
v -1.838392 0.586042 -5.086709
v 1.924536 0.738556 -4.117631
v -1.297112 0.700376 -4.017907
v 1.198351 0.699272 -3.325223
v -1.297112 0.700376 -4.017907
v -2.760216 0.749651 -3.425383
v -1.218714 0.616376 -2.483313
v -2.814892 0.747569 -4.786038
v -2.258835 0.656123 -4.654260
v -2.342421 0.660887 -4.904342
v -2.814892 0.747569 -4.786038
v -3.411534 0.907216 -4.620231
v -2.694344 0.728460 -4.358340
v -3.411534 0.907216 -4.620231
v -3.598441 0.975035 -4.791820
v -4.088635 1.033887 -4.556000
v -2.411600 0.684572 -5.090844
v -2.814892 0.747569 -4.786038
v -2.342421 0.660887 -4.904342
v -2.919235 0.834913 -5.079482
v -3.273108 0.912174 -4.883805
v -2.814892 0.747569 -4.786038
v -3.348248 0.931792 -4.960178
v -3.598441 0.975035 -4.791820
v -3.273108 0.912174 -4.883805
v -3.140633 0.750925 -3.850370
v -3.426832 0.838598 -4.187768
v -3.595017 0.812483 -3.780437
v -4.218719 0.915024 -3.922028
v -3.426832 0.838598 -4.187768
v -4.088635 1.033887 -4.556000
v -3.595017 0.812483 -3.780437
v -4.310679 0.807893 -3.097220
v -2.760216 0.749651 -3.425383
v -2.760216 0.749651 -3.425383
v -4.310679 0.807893 -3.097220
v -3.107929 0.730160 -2.552451
v -1.297112 0.700376 -4.017907
v -2.258835 0.656123 -4.654260
v -2.694344 0.728460 -4.358340
v -0.475000 0.675515 -4.640829
v -1.297112 0.700376 -4.017907
v 1.924536 0.738556 -4.117631
v -2.694344 0.728460 -4.358340
v -3.426832 0.838598 -4.187768
v -2.676775 0.734974 -3.967824
v -0.621462 0.513749 -1.583323
v -1.218714 0.616376 -2.483313
v -1.710941 0.531286 -1.576610
v 0.846054 0.467735 -0.964170
v -0.290018 0.509692 -0.096375
v 1.243422 0.481987 0.034132
v -1.199259 0.483237 -0.901415
v -2.109602 0.514107 -0.299759
v -0.290018 0.509692 -0.096375
v -0.290018 0.509692 -0.096375
v -1.388586 0.595918 0.404903
v 0.287004 0.554589 0.422699
v -3.328029 0.640304 -0.149770
v -4.373983 0.748658 0.335363
v -3.259911 0.666670 0.305107
v -2.109602 0.514107 -0.299759
v -3.328029 0.640304 -0.149770
v -2.582312 0.610330 0.210387
v -3.227303 0.620561 -0.986319
v -4.385898 0.737338 -0.815446
v -3.328029 0.640304 -0.149770
v -1.218714 0.616376 -2.483313
v -2.735437 0.617861 -1.763926
v -1.710941 0.531286 -1.576610
v -2.109602 0.514107 -0.299759
v -2.582312 0.610330 0.210387
v -1.388586 0.595918 0.404903
v -0.621462 0.513749 -1.583323
v -1.199259 0.483237 -0.901415
v 0.846054 0.467735 -0.964170
v -2.735437 0.617861 -1.763926
v -3.227303 0.620561 -0.986319
v -2.234182 0.523832 -1.088301
v -2.735437 0.617861 -1.763926
v -4.370888 0.736391 -2.052697
v -3.227303 0.620561 -0.986319
v -1.710941 0.531286 -1.576610
v -2.234182 0.523832 -1.088301
v -1.199259 0.483237 -0.901415
v 0.953247 0.550191 1.343889
v -0.189285 0.692092 0.941134
v -0.988138 0.703432 1.646377
v -0.920662 0.581499 3.499404
v -1.982061 0.633636 2.534848
v -1.850758 0.705269 3.557794
v 0.564480 0.414099 3.182504
v -0.528641 0.622667 2.660115
v -0.920662 0.581499 3.499404
v -2.764727 0.670420 0.704879
v -3.457883 0.695661 1.215433
v -2.494638 0.705311 1.550897
v -3.457883 0.695661 1.215433
v -4.373983 0.748658 0.335363
v -4.293682 0.739053 1.335847
v -2.494638 0.705311 1.550897
v -3.457883 0.695661 1.215433
v -3.514888 0.697241 2.082235
v -3.457883 0.695661 1.215433
v -4.293682 0.739053 1.335847
v -3.514888 0.697241 2.082235
v -2.807491 0.682906 2.390811
v -3.220384 0.747173 2.996863
v -2.530457 0.757643 3.243102
v -1.982061 0.633636 2.534848
v -2.494638 0.705311 1.550897
v -2.807491 0.682906 2.390811
v -1.982061 0.633636 2.534848
v -2.807491 0.682906 2.390811
v -2.530457 0.757643 3.243102
v -1.982061 0.633636 2.534848
v -2.530457 0.757643 3.243102
v -1.850758 0.705269 3.557794
v 1.000540 0.550437 2.120318
v -0.988138 0.703432 1.646377
v -0.528641 0.622667 2.660115
v -2.807491 0.682906 2.390811
v -3.514888 0.697241 2.082235
v -3.220384 0.747173 2.996863
v -3.514888 0.697241 2.082235
v -4.341929 0.762728 3.398606
v -3.220384 0.747173 2.996863
v 0.655537 0.630458 4.333151
v -0.920662 0.581499 3.499404
v -1.353262 0.767338 4.471260
v 0.834040 0.741505 5.487767
v -1.353262 0.767338 4.471260
v -1.112545 0.779975 5.559991
v 1.840616 0.691769 4.987107
v 0.655537 0.630458 4.333151
v 0.834040 0.741505 5.487767
v 1.119709 0.550080 6.376904
v 0.834040 0.741505 5.487767
v -0.443411 0.819387 6.287898
v -0.443411 0.819387 6.287898
v -1.112545 0.779975 5.559991
v -1.473442 0.797688 6.404946
v -1.353262 0.767338 4.471260
v -2.250393 0.750008 3.842388
v -3.056309 0.809456 3.988074
v -2.815779 0.784736 5.336735
v -4.378574 0.834128 4.774580
v -4.242002 0.869048 6.239936
v -2.250393 0.750008 3.842388
v -2.530457 0.757643 3.243102
v -3.056309 0.809456 3.988074
v -3.056309 0.809456 3.988074
v -4.341929 0.762728 3.398606
v -4.378574 0.834128 4.774580
v -1.850758 0.705269 3.557794
v -2.530457 0.757643 3.243102
v -2.250393 0.750008 3.842388
v 0.658556 0.735862 -5.023168
v -0.475000 0.675515 -4.640829
v 1.924536 0.738556 -4.117631
v 1.165577 0.532687 -1.929225
v -1.218714 0.616376 -2.483313
v -0.621462 0.513749 -1.583323
v 1.874557 0.658692 -2.712977
v 1.198351 0.699272 -3.325223
v -1.218714 0.616376 -2.483313
v 2.487438 0.692587 1.286666
v 1.640703 0.509082 0.663415
v 0.953247 0.550191 1.343889
v 2.178944 0.683457 1.721731
v 1.000540 0.550437 2.120318
v 2.819660 0.734093 2.252046
v 2.819660 0.734093 2.252046
v 1.000540 0.550437 2.120318
v 2.402132 0.534339 2.917901
v 2.402132 0.534339 2.917901
v 0.564480 0.414099 3.182504
v 2.182035 0.485618 3.845602
v 5.886654 0.747337 -0.405044
v 4.113691 0.763860 0.601058
v 5.812635 0.780485 0.376529
v -1.388586 0.595918 0.404903
v -1.702644 0.672399 0.967062
v -0.189285 0.692092 0.941134
v -3.259911 0.666670 0.305107
v -4.373983 0.748658 0.335363
v -2.764727 0.670420 0.704879
v -1.388586 0.595918 0.404903
v -2.764727 0.670420 0.704879
v -1.702644 0.672399 0.967062
vn 0.0277 0.9996 -0.0102
vn -0.0027 0.9886 0.1506
vn -0.0088 0.9964 -0.0846
vn -0.0210 0.9850 0.1710
vn -0.0063 0.9873 -0.1590
vn 0.0798 0.9893 -0.1225
vn 0.0316 0.9980 -0.0548
vn 0.0409 0.9962 -0.0773
vn 0.0033 0.9932 -0.1164
vn -0.0456 0.9939 0.1009
vn -0.0871 0.9929 0.0808
vn -0.1060 0.9930 0.0522
vn -0.0961 0.9941 0.0508
vn -0.0125 0.9992 -0.0385
vn 0.0589 0.9949 -0.0821
vn 0.0457 0.9975 -0.0536
vn 0.0390 0.9990 0.0222
vn -0.0546 0.9978 -0.0368
vn -0.0103 0.9999 -0.0036
vn -0.0017 0.9997 -0.0232
vn -0.1167 0.9925 -0.0353
vn -0.1050 0.9836 -0.1469
vn -0.0624 0.9979 -0.0199
vn -0.0587 0.9976 -0.0356
vn -0.1165 0.9925 -0.0364
vn -0.0588 0.9657 0.2528
vn -0.0949 0.9884 0.1184
vn -0.1446 0.9883 -0.0489
vn 0.0228 0.9756 -0.2184
vn 0.0204 0.9892 -0.1453
vn -0.0365 0.9964 -0.0769
vn 0.0214 0.9982 -0.0562
vn -0.0576 0.9982 -0.0137
vn 0.0369 0.9915 -0.1248
vn -0.0579 0.9982 -0.0141
vn -0.0149 0.9984 0.0554
vn 0.1627 0.9867 -0.0018
vn 0.2996 0.9379 0.1750
vn 0.2096 0.9578 0.1966
vn 0.2250 0.9648 0.1363
vn 0.2830 0.9421 0.1798
vn 0.2272 0.9735 0.0265
vn 0.2289 0.9692 0.0912
vn 0.0286 0.9993 -0.0226
vn 0.0808 0.9792 0.1860
vn 0.1180 0.9877 -0.1027
vn 0.1348 0.9837 0.1187
vn 0.1291 0.9814 0.1419
vn 0.1373 0.9902 -0.0270
vn 0.1686 0.9837 0.0624
vn 0.0242 0.9994 -0.0233
vn 0.1832 0.9699 0.1604
vn 0.1962 0.9674 0.1604
vn 0.0244 0.9995 -0.0178
vn 0.0063 0.9992 -0.0400
vn 0.0279 0.9928 -0.1169
vn 0.0172 0.9910 -0.1327
vn 0.0327 0.9970 0.0701
vn 0.0512 0.9918 0.1171
vn 0.0966 0.9953 -0.0030
vn 0.0731 0.9950 -0.0686
vn 0.1004 0.9950 0.0005
vn 0.0981 0.9951 -0.0108
vn 0.1016 0.9948 -0.0112
vn 0.0555 0.9918 0.1150
vn 0.0381 0.9993 0.0063
vn 0.0164 0.9981 0.0586
vn 0.0679 0.9938 0.0879
vn 0.0584 0.9973 0.0455
vn 0.1066 0.9932 0.0476
vn -0.1100 0.9939 0.0064
vn 0.0779 0.9969 -0.0051
vn -0.0135 0.9994 -0.0314
vn 0.1060 0.9798 0.1693
vn 0.0032 0.9987 0.0505
vn 0.0074 0.9995 0.0294
vn 0.0457 0.9989 0.0126
vn 0.0213 0.9992 0.0337
vn 0.0077 0.9979 -0.0640
vn -0.0081 0.9981 -0.0614
vn 0.0090 0.9990 -0.0441
vn -0.0035 0.9972 0.0745
vn 0.0044 0.9987 -0.0503
vn 0.0007 0.9969 0.0791
vn 0.0012 0.9988 -0.0490
vn 0.1225 0.9834 -0.1335
vn 0.0604 0.9927 -0.1048
vn 0.0052 0.9998 -0.0187
vn 0.0171 0.9974 -0.0697
vn 0.0267 0.9996 0.0136
vn 0.1781 0.9653 0.1912
vn 0.0456 0.9947 -0.0924
vn 0.0044 0.9999 -0.0126
vn 0.0206 0.9997 0.0147
vn -0.0401 0.9985 0.0382
vn 0.0699 0.9794 -0.1897
vn -0.0018 0.9876 0.1571
vn 0.0463 0.9963 -0.0721
vn 0.0026 0.9977 0.0680
vn -0.0940 0.9945 -0.0458
vn 0.0333 0.9817 -0.1872
vn -0.0496 0.9930 0.1071
vn -0.1018 0.9945 0.0263
vn 0.0679 0.9780 -0.1970
vn 0.0265 0.9720 -0.2335
vn 0.0693 0.9931 -0.0951
vn 0.0299 0.9935 -0.1097
vn 0.0130 0.9929 -0.1182
vn 0.0124 0.9964 0.0841
vn -0.0037 0.9946 0.1037
vn -0.0296 0.9988 0.0384
vn -0.0030 0.9989 0.0468
vn -0.0407 0.9930 0.1108
vn -0.0035 0.9988 0.0482
vn 0.0303 0.9994 -0.0188
vn -0.0222 0.9975 0.0664
vn -0.0633 0.9979 0.0136
vn -0.0995 0.9948 -0.0195
vn -0.0626 0.9978 -0.0201
vn -0.0409 0.9705 0.2378
vn -0.1031 0.9943 0.0268
vn -0.1045 0.9943 0.0232
vn 0.0180 0.9982 0.0574
vn -0.1111 0.9934 0.0301
vn 0.0811 0.9914 -0.1022
vn -0.0482 0.9894 0.1367
vn 0.0004 0.9999 -0.0145
vn -0.0935 0.9948 -0.0392
vn -0.0624 0.9978 -0.0233
vn 0.0152 0.9915 0.1289
vn -0.0560 0.9977 0.0391
vn -0.1011 0.9848 -0.1414
vn 0.0070 0.9944 -0.1058
vn -0.0178 0.9997 0.0194
vn -0.0223 0.9921 -0.1231
vn -0.0877 0.9677 0.2365
vn -0.0574 0.9979 -0.0297
vn -0.5558 0.6843 -0.4721
vn -0.1395 0.9868 -0.0828
vn -0.0633 0.9719 -0.2265
vn -0.0366 0.9955 -0.0880
vn -0.0620 0.9980 -0.0108
vn -0.0106 0.9992 0.0398
vn 0.0546 0.9972 0.0518
vn 0.1710 0.9845 -0.0384
vn 0.2512 0.9675 -0.0276
vn 0.1966 0.9660 0.1676
vn 0.1930 0.9798 0.0528
vn 0.3002 0.9381 0.1725
vn 0.2034 0.9778 0.0511
vn 0.1522 0.9803 0.1257
vn 0.1648 0.9628 0.2143
vn 0.0499 0.9970 0.0590
vn 0.0461 0.9981 0.0406
vn 0.0578 0.9861 -0.1560
vn -0.0136 0.9982 -0.0578
vn 0.1434 0.9894 -0.0230
vn 0.0166 0.9946 0.1024
vn 0.0199 0.9996 -0.0222
vn 0.0070 0.9991 -0.0407
vn 0.0257 0.9931 -0.1145
vn 0.0714 0.9951 -0.0684
vn 0.0898 0.9906 -0.1036
vn 0.0986 0.9951 -0.0116
vn 0.0607 0.9902 0.1259
vn 0.0367 0.9877 -0.1523
vn 0.0092 0.9986 0.0525
vn 0.1030 0.9928 0.0617
vn 0.0656 0.9971 0.0380
vn 0.0305 0.9984 0.0479
vn 0.0921 0.9918 0.0883
vn 0.1262 0.9883 -0.0854
vn 0.1347 0.9846 0.1112
vn 0.0049 0.9991 -0.0428
vn 0.0526 0.9986 0.0054
vn -0.0092 1.0000 -0.0024
vn 0.0521 0.9986 0.0016
vn 0.0182 0.9955 -0.0932
vn 0.0516 0.9976 0.0458
vn 0.0787 0.9905 -0.1125
vn 0.1152 0.9898 -0.0841
vn 0.0647 0.9966 0.0501
vn 0.0511 0.9962 -0.0708
vn -0.0051 0.9986 -0.0529
vn 0.0559 0.9850 -0.1635
vn 0.0192 0.9997 -0.0158
vn 0.0015 0.9954 -0.0960
vn 0.1588 0.9745 0.1588
vn -0.0246 0.9992 -0.0315
vn 0.0543 0.9930 -0.1048
vn 0.0415 0.9988 -0.0277
vn 0.0700 0.9973 -0.0200
vn -0.0124 0.9986 -0.0521
vn 0.0904 0.9955 -0.0296
vn -0.0368 0.9981 0.0485
vn 0.0101 0.9942 0.1067
vn -0.0081 0.9972 0.0750
vn -0.0971 0.9827 -0.1575
vn -0.1025 0.9943 0.0289
vn -0.1137 0.9690 0.2194
vn -0.0598 0.9975 0.0382
vn -0.0156 0.9989 -0.0438
vn -0.0153 0.9896 -0.1432
vn 0.0704 0.9928 -0.0966
vn 0.0277 0.9924 -0.1196
s 1
usemtl water
f 1//1 2//1 3//1
f 4//2 5//2 6//2
f 7//3 8//3 9//3
f 10//4 11//4 12//4
f 13//5 14//5 15//5
f 16//6 17//6 18//6
f 19//7 20//7 21//7
f 22//8 23//8 24//8
f 25//9 26//9 27//9
f 28//10 29//10 30//10
f 31//11 32//11 33//11
f 34//12 35//12 36//12
f 37//13 38//13 39//13
f 40//14 41//14 42//14
f 43//15 44//15 45//15
f 46//16 47//16 48//16
f 49//17 50//17 51//17
f 52//18 53//18 54//18
f 55//19 56//19 57//19
f 58//20 59//20 60//20
f 61//21 62//21 63//21
f 64//22 65//22 66//22
f 67//23 68//23 69//23
f 70//24 71//24 72//24
f 73//25 74//25 75//25
f 76//26 77//26 78//26
f 79//27 80//27 81//27
f 82//28 83//28 84//28
f 85//29 86//29 87//29
f 88//30 89//30 90//30
f 91//31 92//31 93//31
f 94//32 95//32 96//32
f 97//33 98//33 99//33
f 100//34 101//34 102//34
f 103//35 104//35 105//35
f 106//36 107//36 108//36
f 109//37 110//37 111//37
f 112//38 113//38 114//38
f 115//39 116//39 117//39
f 118//40 119//40 120//40
f 121//41 122//41 123//41
f 124//42 125//42 126//42
f 127//43 128//43 129//43
f 130//44 131//44 132//44
f 133//45 134//45 135//45
f 136//46 137//46 138//46
f 139//47 140//47 141//47
f 142//48 143//48 144//48
f 145//49 146//49 147//49
f 148//50 149//50 150//50
f 151//51 152//51 153//51
f 154//52 155//52 156//52
f 157//53 158//53 159//53
f 160//54 161//54 162//54
f 163//55 164//55 165//55
f 166//56 167//56 168//56
f 169//57 170//57 171//57
f 172//58 173//58 174//58
f 175//59 176//59 177//59
f 178//60 179//60 180//60
f 181//61 182//61 183//61
f 184//62 185//62 186//62
f 187//63 188//63 189//63
f 190//64 191//64 192//64
f 193//65 194//65 195//65
f 196//66 197//66 198//66
f 199//67 200//67 201//67
f 202//68 203//68 204//68
f 205//69 206//69 207//69
f 208//70 209//70 210//70
f 211//71 212//71 213//71
f 214//72 215//72 216//72
f 217//73 218//73 219//73
f 220//74 221//74 222//74
f 223//75 224//75 225//75
f 226//76 227//76 228//76
f 229//77 230//77 231//77
f 232//78 233//78 234//78
f 235//79 236//79 237//79
f 238//80 239//80 240//80
f 241//81 242//81 243//81
f 244//82 245//82 246//82
f 247//83 248//83 249//83
f 250//84 251//84 252//84
f 253//85 254//85 255//85
f 256//86 257//86 258//86
f 259//87 260//87 261//87
f 262//88 263//88 264//88
f 265//89 266//89 267//89
f 268//90 269//90 270//90
f 271//91 272//91 273//91
f 274//92 275//92 276//92
f 277//93 278//93 279//93
f 280//94 281//94 282//94
f 283//95 284//95 285//95
f 286//96 287//96 288//96
f 289//97 290//97 291//97
f 292//98 293//98 294//98
f 295//99 296//99 297//99
f 298//100 299//100 300//100
f 301//101 302//101 303//101
f 304//102 305//102 306//102
f 307//103 308//103 309//103
f 310//104 311//104 312//104
f 313//105 314//105 315//105
f 316//106 317//106 318//106
f 319//107 320//107 321//107
f 322//108 323//108 324//108
f 325//109 326//109 327//109
f 328//110 329//110 330//110
f 331//111 332//111 333//111
f 334//112 335//112 336//112
f 337//113 338//113 339//113
f 340//114 341//114 342//114
f 343//115 344//115 345//115
f 346//116 347//116 348//116
f 349//117 350//117 351//117
f 352//118 353//118 354//118
f 355//119 356//119 357//119
f 358//120 359//120 360//120
f 361//121 362//121 363//121
f 364//122 365//122 366//122
f 367//123 368//123 369//123
f 370//124 371//124 372//124
f 373//125 374//125 375//125
f 376//126 377//126 378//126
f 379//127 380//127 381//127
f 382//128 383//128 384//128
f 385//129 386//129 387//129
f 388//130 389//130 390//130
f 391//131 392//131 393//131
f 394//132 395//132 396//132
f 397//133 398//133 399//133
f 400//134 401//134 402//134
f 403//135 404//135 405//135
f 406//136 407//136 408//136
f 409//137 410//137 411//137
f 412//138 413//138 414//138
f 415//139 416//139 417//139
f 418//140 419//140 420//140
f 421//141 422//141 423//141
f 424//142 425//142 426//142
f 427//143 428//143 429//143
f 430//144 431//144 432//144
f 433//145 434//145 435//145
f 436//146 437//146 438//146
f 439//147 440//147 441//147
f 442//148 443//148 444//148
f 445//149 446//149 447//149
f 448//150 449//150 450//150
f 451//151 452//151 453//151
f 454//152 455//152 456//152
f 457//153 458//153 459//153
f 460//154 461//154 462//154
f 463//155 464//155 465//155
f 466//156 467//156 468//156
f 469//157 470//157 471//157
f 472//158 473//158 474//158
f 475//159 476//159 477//159
f 478//160 479//160 480//160
f 481//161 482//161 483//161
f 484//162 485//162 486//162
f 487//163 488//163 489//163
f 490//164 491//164 492//164
f 493//165 494//165 495//165
f 496//166 497//166 498//166
f 499//167 500//167 501//167
f 502//168 503//168 504//168
f 505//169 506//169 507//169
f 508//170 509//170 510//170
f 511//171 512//171 513//171
f 514//172 515//172 516//172
f 517//173 518//173 519//173
f 520//174 521//174 522//174
f 523//175 524//175 525//175
f 526//176 527//176 528//176
f 529//177 530//177 531//177
f 532//178 533//178 534//178
f 535//179 536//179 537//179
f 538//180 539//180 540//180
f 541//181 542//181 543//181
f 544//182 545//182 546//182
f 547//183 548//183 549//183
f 550//184 551//184 552//184
f 553//185 554//185 555//185
f 556//186 557//186 558//186
f 559//187 560//187 561//187
f 562//188 563//188 564//188
f 565//189 566//189 567//189
f 568//190 569//190 570//190
f 571//191 572//191 573//191
f 574//192 575//192 576//192
f 577//193 578//193 579//193
f 580//194 581//194 582//194
f 583//195 584//195 585//195
f 586//196 587//196 588//196
f 589//197 590//197 591//197
f 592//198 593//198 594//198
f 595//199 596//199 597//199
f 598//200 599//200 600//200
f 601//201 602//201 603//201
f 604//202 605//202 606//202
f 607//203 608//203 609//203
f 610//204 611//204 612//204
f 613//205 614//205 615//205
