# Blender 5.0.1
# www.blender.org
mtllib barrel.mtl
o barrel_Cylinder.043
v 0.135536 0.326904 -0.433850
v 0.225177 0.178745 -0.316313
v 0.263282 0.326904 -0.368760
v 0.011052 1.022404 -0.311103
v -0.023192 1.022404 -0.311103
v -0.006070 1.003548 -0.301514
v 0.312215 0.178745 -0.229276
v 0.364662 0.326904 -0.267381
v 0.368097 0.178745 -0.119603
v 0.191803 1.022404 -0.241247
v 0.164099 1.022404 -0.261375
v 0.172315 1.003548 -0.243553
v 0.429751 0.326904 -0.139635
v 0.387352 0.178745 0.001972
v 0.452180 0.326904 0.001972
v 0.296973 1.022404 -0.078490
v 0.286391 1.022404 -0.111057
v 0.282562 1.003548 -0.091810
v 0.368097 0.178744 0.123546
v 0.429752 0.326904 0.143579
v 0.312215 0.178744 0.233219
v 0.286391 1.022404 0.115001
v 0.296973 1.022404 0.082434
v 0.282562 1.003548 0.095754
v 0.364662 0.326904 0.271324
v 0.225178 0.178744 0.320257
v 0.263283 0.326904 0.372704
v 0.164099 1.022404 0.265319
v 0.191803 1.022404 0.245191
v 0.172315 1.003548 0.247497
v 0.115504 0.178744 0.376139
v 0.135537 0.326904 0.437793
v -0.006070 0.178744 0.395394
v -0.023192 1.022404 0.315047
v 0.011052 1.022404 0.315047
v -0.006070 1.003548 0.305458
v -0.006070 0.326904 0.460222
v -0.127644 0.178744 0.376139
v -0.147677 0.326904 0.437794
v -0.203943 1.022404 0.245191
v -0.176239 1.022404 0.265319
v -0.184455 1.003548 0.247497
v -0.237318 0.178744 0.320257
v -0.275422 0.326904 0.372704
v -0.324355 0.178745 0.233220
v -0.309113 1.022404 0.082434
v -0.298531 1.022404 0.115001
v -0.294702 1.003548 0.095754
v -0.376802 0.326904 0.271324
v -0.380237 0.178745 0.123546
v -0.441891 0.326904 0.143579
v -0.298531 1.022404 -0.111057
v -0.309113 1.022404 -0.078490
v -0.294702 1.003548 -0.091810
v -0.399492 0.178745 0.001972
v -0.464320 0.326904 0.001972
v -0.380237 0.178745 -0.119602
v -0.176239 1.022404 -0.261375
v -0.203943 1.022404 -0.241247
v -0.184454 1.003548 -0.243553
v -0.441891 0.326904 -0.139635
v -0.324355 0.178745 -0.229276
v -0.376802 0.326904 -0.267380
v -0.237318 0.178745 -0.316313
v -0.275422 0.326904 -0.368760
v -0.127644 0.178745 -0.372195
v 0.011027 0.626266 -0.482210
v -0.023167 0.626266 -0.482210
v -0.006070 0.622350 -0.466165
v -0.023176 0.817380 -0.433523
v 0.011036 0.817380 -0.433523
v -0.006070 0.806256 -0.419315
v 0.263746 0.817380 -0.340296
v 0.236069 0.817380 -0.360405
v 0.241556 0.806256 -0.338856
v 0.292357 0.626266 -0.379690
v 0.264693 0.626266 -0.399789
v 0.269094 0.622350 -0.376759
v -0.147677 0.326904 -0.433850
v -0.006070 0.178745 -0.391450
v -0.006070 0.326904 -0.456278
v 0.413396 0.817380 -0.116335
v 0.402824 0.817380 -0.148872
v 0.394598 0.806256 -0.128213
v 0.459698 0.626266 -0.131388
v 0.449132 0.626266 -0.163909
v 0.439155 0.622350 -0.142690
v 0.402824 0.817380 0.152816
v 0.413396 0.817380 0.120279
v 0.394598 0.806256 0.132157
v 0.449132 0.626266 0.167853
v 0.459698 0.626266 0.135332
v 0.439155 0.622350 0.146634
v 0.236069 0.817380 0.364349
v 0.263746 0.817380 0.344240
v 0.241556 0.806256 0.342800
v 0.264693 0.626266 0.403733
v 0.292357 0.626266 0.383634
v 0.269094 0.622350 0.380703
v -0.006070 0.088090 0.001972
v -0.023176 0.817380 0.437467
v 0.011036 0.817380 0.437467
v -0.006070 0.806256 0.423259
v -0.023167 0.626266 0.486154
v 0.011027 0.626266 0.486154
v -0.006070 0.622350 0.470109
v 0.144744 0.088090 -0.205606
v 0.237952 0.088090 -0.077316
v 0.237952 0.088090 0.081259
v 0.144744 0.088090 0.209549
v -0.006070 0.088090 0.258552
v -0.156884 0.088090 0.209549
v -0.275886 0.817380 0.344240
v -0.248209 0.817380 0.364349
v -0.253696 0.806256 0.342800
v -0.304497 0.626266 0.383634
v -0.276833 0.626266 0.403733
v -0.281234 0.622350 0.380703
v -0.250092 0.088090 0.081259
v -0.250092 0.088090 -0.077316
v -0.156884 0.088090 -0.205606
v -0.006070 0.088090 -0.254608
v 0.137700 0.038820 -0.195910
v 0.226554 0.038820 -0.073612
v -0.425536 0.817380 0.120279
v -0.414964 0.817380 0.152816
v -0.406738 0.806256 0.132157
v -0.471838 0.626266 0.135332
v -0.461272 0.626266 0.167853
v -0.451295 0.622350 0.146634
v 0.226554 0.038820 0.077556
v 0.137700 0.038820 0.199854
v -0.006070 0.038820 0.246567
v -0.149840 0.038820 0.199854
v -0.238694 0.038820 0.077556
v -0.238694 0.038820 -0.073612
v -0.414964 0.817380 -0.148872
v -0.425536 0.817380 -0.116335
v -0.406738 0.806256 -0.128213
v -0.461272 0.626266 -0.163909
v -0.471838 0.626266 -0.131388
v -0.451295 0.622350 -0.142690
v -0.149840 0.038820 -0.195910
v -0.006070 0.038820 -0.242624
v 0.269094 0.422458 -0.376759
v 0.292357 0.418542 -0.379690
v 0.264693 0.418542 -0.399790
v 0.241556 0.238552 -0.338856
v -0.248208 0.817380 -0.360405
v -0.275886 0.817380 -0.340296
v -0.253696 0.806256 -0.338856
v -0.276833 0.626266 -0.399790
v -0.304497 0.626266 -0.379690
v -0.281234 0.622350 -0.376759
v 0.263746 0.227428 -0.340296
v 0.236068 0.227428 -0.360405
v 0.439155 0.422458 -0.142691
v 0.459698 0.418541 -0.131388
v 0.449131 0.418541 -0.163909
v 0.394598 0.238552 -0.128213
v -0.006070 1.005987 -0.242624
v 0.137700 1.005987 -0.195910
v 0.226554 1.005987 -0.073612
v 0.226554 1.005987 0.077556
v 0.137700 1.005987 0.199854
v -0.006070 1.005987 0.246568
v -0.149840 1.005987 0.199854
v -0.238694 1.005987 0.077556
v -0.238694 1.005987 -0.073612
v -0.149840 1.005987 -0.195910
v -0.006070 0.956718 -0.254608
v 0.144744 0.956718 -0.205605
v 0.237952 0.956718 -0.077316
v 0.237952 0.956718 0.081260
v 0.144744 0.956718 0.209549
v -0.006070 0.956718 0.258552
v -0.156884 0.956718 0.209549
v -0.250092 0.956718 0.081260
v -0.250092 0.956718 -0.077316
v -0.156884 0.956718 -0.205606
v -0.006070 0.956718 0.001972
v 0.115941 0.910837 -0.064939
v 0.115941 1.002600 -0.083554
v 0.131968 0.910837 -0.059732
v 0.142910 1.002600 -0.074791
v 0.141874 0.910837 -0.046098
v 0.159577 1.002600 -0.051850
v 0.141874 0.910837 -0.029246
v 0.159577 1.002600 -0.023494
v 0.131968 0.910837 -0.015612
v 0.142910 1.002600 -0.000553
v 0.115941 0.910837 -0.010404
v 0.115941 1.002600 0.008210
v 0.099914 0.910837 -0.015612
v 0.088972 1.002600 -0.000553
v 0.090008 0.910837 -0.029246
v 0.072305 1.002600 -0.023494
v 0.090008 0.910837 -0.046098
v 0.072305 1.002600 -0.051850
v 0.099914 0.910837 -0.059732
v 0.088972 1.002600 -0.074791
v -0.006070 0.747997 -0.456278
v -0.006070 0.896157 -0.391450
v 0.135537 0.747997 -0.433850
v 0.115504 0.896157 -0.372195
v 0.263282 0.747997 -0.368760
v 0.225178 0.896157 -0.316313
v 0.364662 0.747997 -0.267380
v 0.312215 0.896157 -0.229276
v 0.429752 0.747997 -0.139635
v 0.368097 0.896157 -0.119602
v 0.452180 0.747997 0.001972
v 0.387352 0.896157 0.001972
v 0.429751 0.747997 0.143579
v 0.368097 0.896157 0.123546
v 0.364662 0.747997 0.271324
v 0.312215 0.896157 0.233220
v 0.263282 0.747997 0.372704
v 0.225178 0.896157 0.320257
v 0.135537 0.747997 0.437794
v 0.115504 0.896157 0.376139
v -0.006070 0.747997 0.460222
v -0.006070 0.896157 0.395394
v -0.147677 0.747997 0.437793
v -0.127644 0.896157 0.376139
v -0.275423 0.747997 0.372704
v -0.237318 0.896157 0.320257
v -0.376802 0.747997 0.271324
v -0.324355 0.896157 0.233219
v -0.441892 0.747997 0.143579
v -0.380237 0.896157 0.123546
v -0.464320 0.747997 0.001972
v -0.399492 0.896157 0.001972
v -0.441891 0.747997 -0.139635
v -0.380236 0.896157 -0.119603
v -0.376802 0.747997 -0.267381
v -0.324355 0.896157 -0.229276
v -0.275422 0.747997 -0.368760
v -0.237317 0.896157 -0.316313
v -0.147676 0.747997 -0.433850
v -0.127644 0.896157 -0.372195
v 0.413396 0.227428 -0.116335
v 0.402824 0.227428 -0.148872
v 0.439155 0.422458 0.146634
v 0.449132 0.418541 0.167853
v 0.459698 0.418541 0.135332
v 0.394598 0.238552 0.132157
v 0.402824 0.227428 0.152816
v 0.413396 0.227428 0.120279
v 0.269094 0.422458 0.380703
v 0.264693 0.418541 0.403733
v 0.292357 0.418541 0.383634
v 0.241556 0.238552 0.342800
v 0.236069 0.227428 0.364349
v 0.263746 0.227428 0.344240
v -0.006070 0.422458 0.470109
v -0.023167 0.418541 0.486154
v 0.011027 0.418541 0.486154
v -0.006070 0.238552 0.423259
v -0.023176 0.227428 0.437467
v 0.011036 0.227428 0.437467
v -0.281234 0.422458 0.380703
v -0.304497 0.418541 0.383634
v -0.276833 0.418541 0.403733
v -0.253696 0.238552 0.342800
v -0.275886 0.227428 0.344240
v -0.248209 0.227428 0.364349
v -0.451295 0.422458 0.146634
v -0.471838 0.418541 0.135332
v -0.461272 0.418541 0.167853
v -0.406738 0.238552 0.132157
v -0.425536 0.227428 0.120279
v -0.414964 0.227428 0.152816
v -0.451295 0.422458 -0.142690
v -0.461272 0.418542 -0.163909
v -0.471838 0.418542 -0.131388
v -0.406738 0.238552 -0.128213
v -0.414964 0.227428 -0.148872
v -0.425536 0.227428 -0.116335
v -0.281234 0.422458 -0.376759
v -0.276833 0.418542 -0.399789
v -0.006070 0.766889 -0.468755
v -0.006070 0.878573 -0.439331
v 0.130300 0.878573 -0.417732
v 0.139393 0.766889 -0.445716
v 0.253321 0.878573 -0.355049
v 0.270616 0.766889 -0.378854
v 0.350951 0.878573 -0.257419
v 0.374756 0.766889 -0.274714
v 0.413634 0.878573 -0.134398
v 0.441618 0.766889 -0.143491
v 0.435233 0.878573 0.001972
v 0.464657 0.766889 0.001972
v 0.413634 0.878573 0.138342
v 0.441618 0.766889 0.147435
v 0.350951 0.878573 0.261363
v 0.374756 0.766889 0.278658
v 0.253321 0.878573 0.358993
v 0.270616 0.766889 0.382798
v 0.130300 0.878573 0.421676
v 0.139393 0.766889 0.449660
v -0.006070 0.878573 0.443275
v -0.006070 0.766889 0.472699
v -0.142440 0.878573 0.421676
v -0.151533 0.766889 0.449660
v -0.265461 0.878573 0.358993
v -0.282757 0.766889 0.382798
v -0.363091 0.878573 0.261363
v -0.386896 0.766889 0.278658
v -0.425774 0.878573 0.138342
v -0.453758 0.766889 0.147434
v -0.447373 0.878573 0.001972
v -0.476797 0.766889 0.001972
v -0.425774 0.878573 -0.134398
v -0.453758 0.766889 -0.143491
v -0.363091 0.878573 -0.257420
v -0.386896 0.766889 -0.274715
v -0.265461 0.878573 -0.355050
v -0.282756 0.766889 -0.378854
v -0.142439 0.878573 -0.417732
v -0.151532 0.766889 -0.445716
v -0.304497 0.418542 -0.379690
v -0.253696 0.238552 -0.338856
v -0.248209 0.227428 -0.360405
v -0.275886 0.227428 -0.340296
v -0.006070 0.238552 -0.419315
v -0.023176 0.227428 -0.433523
v 0.011036 0.227428 -0.433523
v -0.006070 0.422458 -0.466165
v 0.011027 0.418542 -0.482210
v -0.023167 0.418542 -0.482210
v 0.172314 0.041260 -0.243554
v 0.191803 0.022404 -0.241247
v 0.164099 0.022404 -0.261375
v 0.282562 0.041260 -0.091811
v 0.296973 0.022404 -0.078490
v 0.286391 0.022404 -0.111058
v 0.282562 0.041260 0.095754
v 0.286391 0.022404 0.115001
v 0.296973 0.022404 0.082434
v 0.172315 0.041260 0.247497
v 0.164099 0.022404 0.265319
v 0.191803 0.022404 0.245191
v -0.006070 0.041260 0.305458
v -0.023192 0.022404 0.315047
v 0.011052 0.022404 0.315047
v -0.184455 0.041260 0.247497
v -0.203943 0.022404 0.245191
v -0.176239 0.022404 0.265319
v -0.294702 0.041260 0.095754
v -0.309113 0.022404 0.082434
v -0.298531 0.022404 0.115001
v -0.294702 0.041260 -0.091810
v -0.298531 0.022404 -0.111057
v -0.309113 0.022404 -0.078490
v -0.184455 0.041260 -0.243553
v -0.176239 0.022404 -0.261375
v -0.203943 0.022404 -0.241247
v -0.006070 0.041260 -0.301514
v 0.011052 0.022404 -0.311103
v -0.023192 0.022404 -0.311103
v 0.115504 0.178745 -0.372195
v -0.006070 0.308012 -0.468755
v -0.006070 0.196329 -0.439331
v -0.142440 0.196329 -0.417732
v -0.151533 0.308012 -0.445716
v -0.265461 0.196329 -0.355049
v -0.282756 0.308012 -0.378854
v -0.363091 0.196329 -0.257419
v -0.386896 0.308012 -0.274714
v -0.425774 0.196329 -0.134398
v -0.453758 0.308012 -0.143491
v -0.447373 0.196329 0.001972
v -0.476797 0.308012 0.001972
v -0.425774 0.196329 0.138342
v -0.453758 0.308012 0.147435
v -0.363091 0.196329 0.261363
v -0.386896 0.308012 0.278658
v -0.265461 0.196329 0.358993
v -0.282756 0.308012 0.382798
v -0.142440 0.196329 0.421676
v -0.151532 0.308012 0.449660
v -0.006070 0.196329 0.443275
v -0.006070 0.308012 0.472699
v 0.130300 0.196329 0.421676
v 0.139393 0.308012 0.449660
v 0.253321 0.196329 0.358993
v 0.270617 0.308012 0.382798
v 0.350952 0.196329 0.261363
v 0.374756 0.308012 0.278658
v 0.413634 0.196329 0.138342
v 0.441618 0.308012 0.147434
v 0.435233 0.196329 0.001972
v 0.464657 0.308012 0.001972
v 0.413634 0.196329 -0.134399
v 0.441618 0.308012 -0.143491
v 0.350951 0.196329 -0.257420
v 0.374756 0.308012 -0.274715
v 0.253321 0.196329 -0.355050
v 0.270616 0.308012 -0.378854
v 0.130299 0.196329 -0.417732
v 0.139392 0.308012 -0.445716
vn 0.7035 0.4938 -0.5111
vn 0.7554 0.3581 -0.5488
vn -0.2885 0.3581 -0.8880
vn -0.2687 0.4938 -0.8270
vn 0.1837 0.9739 -0.1335
vn -0.7470 -0.6643 0.0275
vn 0.9337 0.3581 -0.0000
vn 0.8696 0.4938 -0.0000
vn 0.2047 -0.6643 -0.7189
vn -0.2047 -0.6643 0.7189
vn -0.7554 0.3581 -0.5488
vn -0.8036 0.1156 -0.5838
vn -0.7035 0.4938 -0.5111
vn 0.1837 -0.9739 0.1334
vn 0.7470 -0.6643 0.0275
vn -0.9337 0.3581 -0.0000
vn -0.9933 0.1156 -0.0000
vn -0.8696 0.4938 -0.0000
vn 0.0702 -0.9739 0.2159
vn 0.7882 0.2254 0.5727
vn -0.7554 0.3581 0.5488
vn -0.8036 0.1156 0.5838
vn -0.7035 0.4938 0.5111
vn 0.5881 -0.6643 0.4613
vn -0.3011 0.2254 -0.9266
vn -0.2885 0.3581 0.8880
vn -0.3069 0.1156 0.9447
vn -0.2687 0.4938 0.8270
vn 0.2570 -0.6643 -0.7019
vn -0.5881 -0.6643 -0.4613
vn -0.0000 -1.0000 -0.0000
vn 0.2885 0.3581 0.8880
vn 0.3069 0.1156 0.9447
vn 0.2687 0.4938 0.8270
vn -0.7882 0.2254 -0.5727
vn 0.7554 0.3581 0.5488
vn 0.8036 0.1156 0.5838
vn 0.7035 0.4938 0.5111
vn 0.3069 0.1156 -0.9447
vn 0.2885 0.3581 -0.8880
vn 0.9933 0.1156 -0.0000
vn 0.8036 0.1156 -0.5838
vn -0.3069 0.1156 -0.9447
vn -0.7109 0.2571 -0.6547
vn -0.7228 0.3543 -0.5933
vn -0.7144 0.2791 -0.6417
vn -0.2360 0.3543 -0.9049
vn -0.2008 0.2791 -0.9390
vn -0.1903 0.2571 -0.9475
vn 0.6926 0.0939 -0.7152
vn 0.7144 0.2791 -0.6417
vn 0.7109 0.2571 -0.6547
vn 0.6921 0.0849 -0.7168
vn -0.6921 0.0849 -0.7168
vn -0.6926 0.0939 -0.7152
vn 0.9335 0.3543 -0.0551
vn 0.9599 0.2571 -0.1118
vn 0.9551 0.2791 -0.0993
vn 0.3409 0.3543 -0.8708
vn 0.3895 0.2791 -0.8777
vn 0.4030 0.2571 -0.8784
vn -0.1399 0.0939 -0.9857
vn -0.1385 0.0849 -0.9867
vn 0.9812 0.0849 -0.1731
vn 0.9807 0.0939 -0.1715
vn 0.7876 0.3543 0.5041
vn 0.8423 0.2571 0.4738
vn 0.8311 0.2791 0.4811
vn 0.7876 0.3543 -0.5041
vn 0.8311 0.2791 -0.4811
vn 0.8423 0.2571 -0.4738
vn 0.4662 0.0939 -0.8797
vn 0.4679 0.0849 -0.8797
vn 0.8956 0.0849 0.4367
vn 0.8942 0.0939 0.4377
vn 0.3409 0.3543 0.8708
vn 0.4030 0.2571 0.8784
vn 0.3895 0.2791 0.8777
vn 0.9335 0.3543 0.0551
vn 0.9551 0.2791 0.0993
vn 0.9599 0.2571 0.1118
vn 0.8942 0.0939 -0.4377
vn 0.8956 0.0849 -0.4367
vn 0.4679 0.0849 0.8797
vn 0.4662 0.0939 0.8797
vn 0.3011 0.2254 -0.9266
vn 0.9743 0.2254 -0.0000
vn -0.2360 0.3543 0.9049
vn -0.1903 0.2571 0.9475
vn -0.2008 0.2791 0.9390
vn 0.7228 0.3543 0.5933
vn 0.7144 0.2791 0.6417
vn 0.7109 0.2571 0.6547
vn 0.9807 0.0939 0.1715
vn 0.9812 0.0849 0.1731
vn -0.1385 0.0849 0.9867
vn -0.1399 0.0939 0.9857
vn 0.3011 0.2254 0.9266
vn -0.7882 0.2254 0.5727
vn -0.7228 0.3543 0.5933
vn -0.7109 0.2571 0.6547
vn -0.7144 0.2791 0.6417
vn 0.2360 0.3543 0.9049
vn 0.2008 0.2791 0.9390
vn 0.1903 0.2571 0.9475
vn 0.6926 0.0939 0.7152
vn 0.6921 0.0849 0.7168
vn -0.6921 0.0849 0.7168
vn -0.6926 0.0939 0.7152
vn 0.6205 -0.6643 -0.4168
vn -0.1837 -0.9739 0.1334
vn -0.9335 0.3543 0.0551
vn -0.9599 0.2571 0.1118
vn -0.9551 0.2791 0.0993
vn -0.3409 0.3543 0.8708
vn -0.3895 0.2791 0.8777
vn -0.4030 0.2571 0.8784
vn 0.1399 0.0939 0.9857
vn 0.1385 0.0849 0.9867
vn -0.9812 0.0849 0.1731
vn -0.9807 0.0939 0.1715
vn 0.2047 -0.6643 0.7189
vn -0.2047 -0.6643 -0.7189
vn -0.2570 -0.6643 0.7019
vn -0.6205 -0.6643 0.4168
vn -0.7876 0.3543 -0.5041
vn -0.8423 0.2571 -0.4738
vn -0.8311 0.2791 -0.4811
vn -0.7876 0.3543 0.5041
vn -0.8311 0.2791 0.4811
vn -0.8423 0.2571 0.4738
vn -0.4662 0.0939 0.8797
vn -0.4679 0.0849 0.8797
vn -0.8956 0.0849 -0.4367
vn -0.8942 0.0939 -0.4377
vn -0.0702 -0.9739 0.2159
vn -0.2270 -0.9739 -0.0000
vn -0.3011 0.2254 0.9266
vn -0.9743 0.2254 -0.0000
vn 0.7470 -0.6643 -0.0275
vn -0.2570 -0.6643 -0.7019
vn -0.5881 -0.6643 0.4613
vn -0.6205 -0.6643 -0.4168
vn -0.3409 0.3543 -0.8708
vn -0.4030 0.2571 -0.8784
vn -0.3895 0.2791 -0.8777
vn -0.9335 0.3543 -0.0551
vn -0.9551 0.2791 -0.0993
vn -0.9599 0.2571 -0.1118
vn -0.8942 0.0939 0.4377
vn -0.8956 0.0849 0.4367
vn -0.4679 0.0849 -0.8797
vn -0.4662 0.0939 -0.8797
vn 0.7882 0.2254 -0.5727
vn -0.7144 -0.2791 -0.6417
vn -0.7228 -0.3543 -0.5933
vn -0.7109 -0.2571 -0.6547
vn 0.5881 -0.6643 -0.4613
vn -0.7470 -0.6643 -0.0275
vn 0.2570 -0.6643 0.7019
vn 0.2270 -0.9739 -0.0000
vn 0.2360 0.3543 -0.9049
vn 0.1903 0.2571 -0.9475
vn 0.2007 0.2791 -0.9390
vn 0.2687 0.4938 -0.8270
vn -0.9807 0.0939 -0.1715
vn -0.9812 0.0849 -0.1731
vn 0.1385 0.0849 -0.9867
vn 0.1399 0.0939 -0.9857
vn -0.4662 -0.0939 -0.8797
vn -0.4679 -0.0849 -0.8797
vn 0.1837 -0.9739 -0.1334
vn 0.6205 -0.6643 0.4168
vn 0.0702 -0.9739 -0.2159
vn -0.0702 -0.9739 -0.2159
vn -0.6205 0.6643 0.4168
vn 0.0702 0.9739 -0.2159
vn -0.0702 0.9739 -0.2159
vn -0.1837 0.9739 -0.1335
vn 0.7470 0.6643 -0.0275
vn -0.2270 0.9739 -0.0000
vn 0.5881 0.6643 -0.4613
vn -0.2570 0.6643 0.7019
vn -0.5881 0.6643 -0.4613
vn -0.2047 0.6643 -0.7189
vn 0.2570 0.6643 -0.7019
vn 0.6205 0.6643 -0.4168
vn 0.7470 0.6643 0.0275
vn 0.5881 0.6643 0.4613
vn -0.7470 0.6643 -0.0275
vn -0.1837 0.9739 0.1335
vn 0.2047 0.6643 -0.7189
vn 0.6205 0.6643 0.4168
vn 0.2047 0.6643 0.7189
vn 0.2570 0.6643 0.7019
vn -0.2047 0.6643 0.7189
vn -0.0702 0.9739 0.2159
vn -0.5881 0.6643 0.4613
vn -0.7470 0.6643 0.0275
vn -0.6205 0.6643 -0.4168
vn 0.0702 0.9739 0.2159
vn 0.1837 0.9739 0.1335
vn 0.2270 0.9739 -0.0000
vn -0.2570 0.6643 -0.7019
vn -0.7882 -0.2254 0.5727
vn -0.3011 -0.2254 0.9266
vn 0.3011 -0.2254 0.9266
vn 0.7882 -0.2254 0.5727
vn 0.9743 -0.2254 -0.0000
vn 0.7882 -0.2254 -0.5727
vn 0.3011 -0.2254 -0.9266
vn -0.3011 -0.2254 -0.9266
vn -0.7882 -0.2254 -0.5727
vn -0.9743 -0.2254 -0.0000
vn 0.7228 0.3543 -0.5933
vn -0.0000 1.0000 -0.0000
vn -0.2885 -0.3581 -0.8880
vn -0.2687 -0.4938 -0.8270
vn 0.8311 -0.2791 0.4811
vn 0.8942 -0.0939 0.4377
vn 0.8956 -0.0849 0.4367
vn 0.8423 -0.2571 0.4738
vn 0.3409 -0.3543 -0.8708
vn 0.4030 -0.2571 -0.8784
vn 0.3896 -0.2791 -0.8777
vn 0.3895 -0.2791 0.8777
vn 0.4662 -0.0939 0.8797
vn 0.4679 -0.0849 0.8797
vn 0.4029 -0.2571 0.8784
vn 0.7876 -0.3543 -0.5041
vn 0.8423 -0.2571 -0.4738
vn 0.8311 -0.2791 -0.4811
vn -0.2008 -0.2791 0.9390
vn -0.1399 -0.0939 0.9857
vn -0.1385 -0.0849 0.9867
vn -0.1903 -0.2571 0.9475
vn 0.9335 -0.3543 0.0551
vn 0.9599 -0.2571 0.1118
vn 0.9551 -0.2791 0.0993
vn -0.7144 -0.2791 0.6417
vn -0.6926 -0.0939 0.7152
vn -0.6921 -0.0849 0.7168
vn -0.7109 -0.2571 0.6547
vn 0.7228 -0.3543 0.5933
vn 0.7109 -0.2571 0.6547
vn 0.7144 -0.2791 0.6417
vn -0.9551 -0.2791 0.0993
vn -0.9807 -0.0939 0.1715
vn -0.9812 -0.0849 0.1731
vn -0.9599 -0.2571 0.1118
vn 0.2360 -0.3543 0.9049
vn 0.1903 -0.2571 0.9475
vn 0.2008 -0.2791 0.9390
vn -0.8311 -0.2791 -0.4811
vn -0.8942 -0.0939 -0.4377
vn -0.8956 -0.0849 -0.4367
vn -0.8423 -0.2571 -0.4738
vn -0.3409 -0.3543 0.8708
vn -0.4029 -0.2571 0.8784
vn -0.3895 -0.2791 0.8777
vn -0.3895 -0.2791 -0.8777
vn -0.4030 -0.2571 -0.8784
vn -0.7876 -0.3543 0.5041
vn -0.8423 -0.2571 0.4738
vn -0.8311 -0.2791 0.4811
vn 0.2008 -0.2791 -0.9390
vn 0.1399 -0.0939 -0.9857
vn 0.1385 -0.0849 -0.9867
vn 0.1903 -0.2571 -0.9475
vn -0.9335 -0.3543 -0.0551
vn -0.9599 -0.2571 -0.1118
vn -0.9551 -0.2791 -0.0993
vn -0.6926 -0.0939 -0.7152
vn -0.6921 -0.0849 -0.7168
vn 0.9551 -0.2791 -0.0993
vn 0.9807 -0.0939 -0.1715
vn 0.9812 -0.0849 -0.1731
vn 0.9599 -0.2571 -0.1118
vn 0.7109 -0.2571 -0.6547
vn 0.7228 -0.3543 -0.5933
vn 0.7144 -0.2791 -0.6417
vn -0.2360 -0.3543 -0.9049
vn -0.1903 -0.2571 -0.9475
vn -0.2007 -0.2791 -0.9390
vn -0.1385 -0.0849 -0.9867
vn -0.1399 -0.0939 -0.9857
vn -0.7554 -0.3581 -0.5488
vn -0.8036 -0.1156 -0.5838
vn 0.2360 -0.3543 -0.9049
vn -0.7035 -0.4938 -0.5111
vn 0.6921 -0.0849 -0.7168
vn 0.6926 -0.0939 -0.7152
vn 0.2885 -0.3581 -0.8880
vn 0.2687 -0.4938 -0.8270
vn -0.3409 -0.3543 -0.8708
vn -0.1837 -0.9739 -0.1334
vn -0.9812 -0.0849 -0.1731
vn -0.9807 -0.0939 -0.1715
vn -0.9337 -0.3581 -0.0000
vn -0.8696 -0.4938 -0.0000
vn -0.7876 -0.3543 -0.5041
vn 0.7554 -0.3581 -0.5488
vn 0.8036 -0.1156 -0.5838
vn -0.8956 -0.0849 0.4367
vn -0.8942 -0.0939 0.4377
vn 0.7035 -0.4938 -0.5111
vn -0.9335 -0.3543 0.0551
vn 0.9337 -0.3581 -0.0000
vn 0.9933 -0.1156 -0.0000
vn -0.4679 -0.0849 0.8797
vn -0.4662 -0.0939 0.8797
vn 0.8696 -0.4938 -0.0000
vn -0.7228 -0.3543 0.5933
vn 0.7554 -0.3581 0.5488
vn 0.8036 -0.1156 0.5838
vn 0.1385 -0.0849 0.9867
vn 0.1399 -0.0939 0.9857
vn 0.7035 -0.4938 0.5111
vn -0.2360 -0.3543 0.9049
vn 0.2885 -0.3581 0.8880
vn 0.3069 -0.1156 0.9447
vn 0.6921 -0.0849 0.7168
vn 0.6926 -0.0939 0.7152
vn 0.2687 -0.4938 0.8270
vn 0.3409 -0.3543 0.8708
vn -0.2885 -0.3581 0.8880
vn -0.3069 -0.1156 0.9447
vn 0.9812 -0.0849 0.1731
vn 0.9807 -0.0939 0.1715
vn -0.2687 -0.4938 0.8270
vn 0.7876 -0.3543 0.5041
vn -0.7554 -0.3581 0.5488
vn -0.8036 -0.1156 0.5838
vn 0.8956 -0.0849 -0.4367
vn 0.8942 -0.0939 -0.4377
vn -0.7035 -0.4938 0.5111
vn 0.9335 -0.3543 -0.0551
vn -0.3069 -0.1156 -0.9447
vn 0.4679 -0.0849 -0.8797
vn 0.4662 -0.0939 -0.8797
vn -0.9933 -0.1156 -0.0000
vn 0.3069 -0.1156 -0.9447
vn 0.3034 -0.1894 -0.9338
vn 0.7944 -0.1894 -0.5771
vn 0.9819 -0.1894 -0.0000
vn 0.7944 -0.1894 0.5771
vn 0.3034 -0.1894 0.9338
vn -0.3034 -0.1894 0.9338
vn -0.7944 -0.1894 0.5771
vn -0.9819 -0.1894 -0.0000
vn -0.7944 -0.1894 -0.5771
vn -0.3034 -0.1894 -0.9338
vn 0.3447 -0.9387 -0.0000
vn 0.1919 -0.9814 -0.0000
vn 0.1825 -0.9814 -0.0593
vn 0.3279 -0.9387 -0.1065
vn 0.2026 -0.9387 0.2789
vn 0.1128 -0.9814 0.1553
vn 0.1553 -0.9814 0.1128
vn 0.2789 -0.9387 0.2026
vn -0.1065 -0.9387 0.3279
vn -0.0593 -0.9814 0.1825
vn -0.0000 -0.9814 0.1919
vn -0.0000 -0.9387 0.3448
vn -0.3279 -0.9387 0.1065
vn -0.1825 -0.9814 0.0593
vn -0.1553 -0.9814 0.1128
vn -0.2789 -0.9387 0.2026
vn -0.2789 -0.9387 -0.2026
vn -0.1553 -0.9814 -0.1128
vn -0.1825 -0.9814 -0.0593
vn -0.3279 -0.9387 -0.1065
vn -0.0000 -0.9387 -0.3447
vn -0.0000 -0.9814 -0.1919
vn -0.0593 -0.9814 -0.1825
vn -0.1065 -0.9387 -0.3279
vn 0.6751 0.5511 -0.4905
vn 0.4905 0.5511 -0.6751
vn 0.0593 -0.9814 -0.1825
vn 0.1128 -0.9814 -0.1553
vn 0.1553 -0.9814 -0.1128
vn 0.1825 -0.9814 0.0593
vn 0.0593 -0.9814 0.1825
vn -0.1128 -0.9814 0.1553
vn -0.1919 -0.9814 -0.0000
vn -0.1128 -0.9814 -0.1553
vn 0.7823 -0.2548 -0.5684
vn 0.5684 -0.2548 -0.7823
vn 0.2988 -0.2548 -0.9197
vn -0.0000 -0.2548 -0.9670
vn 0.2026 -0.9387 -0.2789
vn 0.1065 -0.9387 -0.3279
vn 0.2789 -0.9387 -0.2026
vn 0.3279 -0.9387 0.1065
vn 0.1065 -0.9387 0.3279
vn -0.2026 -0.9387 0.2789
vn -0.3447 -0.9387 -0.0000
vn -0.2026 -0.9387 -0.2789
vn 0.7936 0.5511 -0.2579
vn 0.2579 0.5511 -0.7936
vn -0.0000 0.5511 -0.8344
vn -0.0000 0.9387 -0.3447
vn -0.0000 0.9814 -0.1919
vn 0.0593 0.9814 -0.1825
vn 0.1065 0.9387 -0.3279
vn 0.1128 0.9814 -0.1553
vn 0.2026 0.9387 -0.2789
vn 0.1553 0.9814 -0.1128
vn 0.2789 0.9387 -0.2026
vn 0.1825 0.9814 -0.0593
vn 0.3279 0.9387 -0.1065
vn 0.1919 0.9814 -0.0000
vn 0.3447 0.9387 -0.0000
vn 0.1825 0.9814 0.0593
vn 0.3279 0.9387 0.1065
vn 0.1553 0.9814 0.1128
vn 0.2789 0.9387 0.2026
vn 0.1128 0.9814 0.1553
vn 0.2026 0.9387 0.2789
vn 0.0593 0.9814 0.1825
vn 0.1065 0.9387 0.3279
vn -0.0000 0.9814 0.1919
vn -0.0000 0.9387 0.3447
vn -0.0593 0.9814 0.1825
vn -0.1065 0.9387 0.3279
vn -0.1128 0.9814 0.1553
vn -0.2026 0.9387 0.2789
vn -0.1553 0.9814 0.1128
vn -0.2789 0.9387 0.2026
vn -0.1825 0.9814 0.0593
vn -0.3279 0.9387 0.1065
vn -0.1919 0.9814 -0.0000
vn -0.3447 0.9387 -0.0000
vn -0.1825 0.9814 -0.0593
vn -0.3279 0.9387 -0.1065
vn -0.1553 0.9814 -0.1128
vn -0.2789 0.9387 -0.2026
vn -0.1128 0.9814 -0.1553
vn -0.2026 0.9387 -0.2789
vn -0.0593 0.9814 -0.1825
vn -0.1065 0.9387 -0.3279
vn -0.2579 -0.5511 -0.7936
vn -0.0000 -0.5511 -0.8344
vn -0.2988 0.2548 -0.9197
vn -0.0000 0.2548 -0.9670
vn -0.4905 -0.5511 -0.6751
vn -0.5684 0.2548 -0.7823
vn -0.6751 -0.5511 -0.4905
vn -0.7823 0.2548 -0.5684
vn -0.7936 -0.5511 -0.2579
vn -0.9197 0.2548 -0.2988
vn -0.8344 -0.5511 -0.0000
vn -0.9670 0.2548 -0.0000
vn -0.7936 -0.5511 0.2579
vn -0.9197 0.2548 0.2988
vn -0.6751 -0.5511 0.4905
vn -0.7823 0.2548 0.5684
vn -0.4905 -0.5511 0.6751
vn -0.5684 0.2548 0.7823
vn -0.2579 -0.5511 0.7936
vn -0.2988 0.2548 0.9197
vn -0.0000 -0.5511 0.8344
vn -0.0000 0.2548 0.9670
vn 0.2579 -0.5511 0.7936
vn 0.2988 0.2548 0.9197
vn 0.4905 -0.5511 0.6751
vn 0.5684 0.2548 0.7823
vn 0.6751 -0.5511 0.4905
vn 0.7823 0.2548 0.5684
vn 0.7936 -0.5511 0.2579
vn 0.9197 0.2548 0.2988
vn 0.8344 -0.5511 -0.0000
vn 0.9670 0.2548 -0.0000
vn 0.7936 -0.5511 -0.2579
vn 0.9197 0.2548 -0.2988
vn 0.6751 -0.5511 -0.4905
vn 0.7823 0.2548 -0.5684
vn 0.4905 -0.5511 -0.6751
vn 0.5684 0.2548 -0.7823
vn 0.2579 -0.5511 -0.7936
vn 0.2988 0.2548 -0.9197
vn 0.9197 -0.2548 -0.2988
vn 0.8344 0.5511 -0.0000
vn 0.9670 -0.2548 -0.0000
vn 0.7936 0.5511 0.2579
vn 0.9197 -0.2548 0.2988
vn 0.6751 0.5511 0.4905
vn 0.7823 -0.2548 0.5684
vn 0.4905 0.5511 0.6751
vn 0.5684 -0.2548 0.7823
vn 0.2579 0.5511 0.7936
vn 0.2988 -0.2548 0.9197
vn -0.0000 0.5511 0.8344
vn -0.0000 -0.2548 0.9670
vn -0.2579 0.5511 0.7936
vn -0.2988 -0.2548 0.9197
vn -0.4905 0.5511 0.6751
vn -0.5684 -0.2548 0.7823
vn -0.6751 0.5511 0.4905
vn -0.7823 -0.2548 0.5684
vn -0.7936 0.5511 0.2579
vn -0.9197 -0.2548 0.2988
vn -0.8344 0.5511 -0.0000
vn -0.9670 -0.2548 -0.0000
vn -0.7936 0.5511 -0.2579
vn -0.9197 -0.2548 -0.2988
vn -0.6751 0.5511 -0.4905
vn -0.7823 -0.2548 -0.5684
vn -0.4905 0.5511 -0.6751
vn -0.5684 -0.2548 -0.7823
vn -0.2579 0.5511 -0.7936
vn -0.2988 -0.2548 -0.9197
vt 0.890858 1.000000
vt 0.809142 1.000000
vt 0.806598 0.923077
vt 0.893402 0.923077
vt 0.093402 0.923077
vt 0.090858 1.000000
vt 0.009142 1.000000
vt 0.006598 0.923077
vt 0.309142 1.000000
vt 0.390858 1.000000
vt 0.490858 1.000000
vt 0.416667 0.670818
vt 0.793402 0.923077
vt 0.790858 1.000000
vt 0.709142 1.000000
vt 0.706598 0.923077
vt 0.691973 0.774469
vt 0.290858 1.000000
vt 0.208027 0.725532
vt 0.193402 0.923077
vt 0.106598 0.923077
vt 0.105939 0.846154
vt 0.194060 0.846154
vt 0.190858 1.000000
vt 0.109142 1.000000
vt 0.509142 1.000000
vt 0.293402 0.923077
vt 0.206598 0.923077
vt 0.205939 0.846154
vt 0.294060 0.846154
vt 0.209142 1.000000
vt 0.909142 1.000000
vt 0.990858 1.000000
vt 0.393402 0.923077
vt 0.306598 0.923077
vt 0.305939 0.846154
vt 0.394060 0.846154
vt 0.529875 0.685941
vt 0.609142 1.000000
vt 0.409142 1.000000
vt 0.493402 0.923077
vt 0.406598 0.923077
vt 0.405939 0.846154
vt 0.494060 0.846154
vt 0.103458 0.814059
vt 0.593402 0.923077
vt 0.506598 0.923077
vt 0.505939 0.846154
vt 0.594060 0.846154
vt 0.590858 1.000000
vt 0.690858 1.000000
vt 0.693402 0.923077
vt 0.606598 0.923077
vt 0.605939 0.846154
vt 0.694061 0.846154
vt 0.994061 0.846154
vt 0.993402 0.923077
vt 0.906598 0.923077
vt 0.905939 0.846154
vt 0.705939 0.846154
vt 0.794060 0.846154
vt 0.805939 0.846154
vt 0.894060 0.846154
vt 0.005939 0.846154
vt 0.094060 0.846154
vt 1.000000 0.923531
vt 1.000000 1.000000
vt 0.900000 0.923304
vt 0.729875 0.814059
vt -0.000000 0.923077
vt -0.000000 0.846467
vt 1.000000 0.846467
vt 1.000000 0.923077
vt 0.800000 0.923304
vt 0.900000 0.846310
vt 0.700000 0.923304
vt 0.625306 0.725531
vt 0.800000 0.846310
vt 0.600000 0.923304
vt 0.700000 0.846310
vt 0.500000 0.923304
vt 0.600000 0.846310
vt 0.400000 0.923304
vt 0.303458 0.685941
vt 0.500000 0.846310
vt 0.300000 0.923304
vt 0.400000 0.846310
vt 0.141360 0.774469
vt 0.200000 0.923304
vt 0.300000 0.846310
vt 0.100000 0.923304
vt 0.200000 0.846310
vt -0.000000 1.000000
vt -0.000000 0.923531
vt 0.100000 0.846310
vt -0.000000 0.846154
vt 1.000000 0.846154
vt 1.000000 0.500000
vt 0.900000 1.000000
vt 0.900000 0.500000
vt 0.800000 1.000000
vt 0.800000 0.500000
vt 0.700000 1.000000
vt 0.700000 0.500000
vt 0.600000 1.000000
vt 0.600000 0.500000
vt 0.500000 1.000000
vt 0.500000 0.500000
vt 0.400000 1.000000
vt 0.400000 0.500000
vt 0.300000 1.000000
vt 0.300000 0.500000
vt 0.200000 1.000000
vt 0.200000 0.500000
vt 0.391068 0.444164
vt 0.250000 0.490000
vt 0.108932 0.444164
vt 0.021746 0.324164
vt 0.021746 0.175836
vt 0.108932 0.055836
vt 0.250000 0.010000
vt 0.391068 0.055836
vt 0.478254 0.175836
vt 0.478254 0.324164
vt 0.100000 1.000000
vt 0.100000 0.500000
vt -0.000000 0.500000
vt 0.750000 0.490000
vt 0.891068 0.444164
vt 0.978254 0.324164
vt 0.978254 0.175836
vt 0.891068 0.055836
vt 0.750000 0.010000
vt 0.608932 0.055836
vt 0.521746 0.175836
vt 0.521746 0.324164
vt 0.608932 0.444164
vt 0.250000 0.833333
vt 0.250000 1.000000
vt 0.200000 0.833333
vt 0.400000 0.833333
vt 0.350000 1.000000
vt 0.350000 0.833333
vt 0.550000 0.833333
vt 0.550000 1.000000
vt 0.500000 0.833333
vt 0.700000 0.833333
vt 0.650000 1.000000
vt 0.650000 0.833333
vt 0.850000 0.833333
vt 0.850000 1.000000
vt 0.800000 0.833333
vt 1.000000 0.833333
vt 0.950000 1.000000
vt 0.950000 0.833333
vt 0.150000 0.500000
vt 0.150000 0.666667
vt 0.100000 0.666667
vt 0.324164 0.478254
vt 0.175836 0.478254
vt 0.055836 0.391069
vt 0.021747 0.324164
vt 0.010000 0.250000
vt 0.055836 0.108932
vt 0.108931 0.055836
vt 0.175836 0.021746
vt 0.324164 0.021746
vt 0.444164 0.108932
vt 0.490000 0.250000
vt 0.444164 0.391068
vt 0.824164 0.478254
vt 0.944164 0.391068
vt 0.990000 0.250000
vt 0.944164 0.108932
vt 0.824164 0.021746
vt 0.675836 0.021746
vt 0.608931 0.055836
vt 0.555836 0.108932
vt 0.510000 0.250000
vt 0.521747 0.324164
vt 0.555836 0.391069
vt 0.675836 0.478254
vt 0.150000 0.833333
vt 0.100000 0.833333
vt 0.050000 0.666667
vt 0.050000 0.833333
vt -0.000000 0.833333
vt -0.000000 0.666667
vt 0.050000 1.000000
vt 0.150000 1.000000
vt 0.300000 0.833333
vt 0.450000 1.000000
vt 0.450000 0.833333
vt 0.600000 0.833333
vt 0.750000 1.000000
vt 0.750000 0.833333
vt 0.900000 0.833333
vt 0.200000 0.666667
vt 0.050000 0.500000
vt 0.250000 0.500000
vt 0.250000 0.666667
vt 0.300000 0.666667
vt 0.350000 0.500000
vt 0.350000 0.666667
vt 0.400000 0.666667
vt 0.450000 0.500000
vt 0.450000 0.666667
vt 0.500000 0.666667
vt 0.550000 0.500000
vt 0.550000 0.666667
vt 0.600000 0.666667
vt 0.650000 0.500000
vt 0.650000 0.666667
vt 0.700000 0.666667
vt 0.750000 0.500000
vt 0.750000 0.666667
vt 0.800000 0.666667
vt 0.850000 0.500000
vt 0.850000 0.666667
vt 0.900000 0.666667
vt 0.950000 0.500000
vt 0.950000 0.666667
vt 1.000000 0.666667
s 1
usemtl BrownDark
f 10/1/1 17/2/1 83/3/2 73/4/2
f 149/5/3 58/6/4 5/7/4 70/8/3
f 47/9/5 40/10/5 167/10/5 168/9/5
f 346/11/6 344/12/6 133/11/6
f 82/13/7 16/14/8 23/15/8 89/16/7
f 355/14/9 353/17/9 136/14/9
f 340/18/10 338/19/10 131/18/10
f 137/20/11 150/21/11 153/22/12 140/23/12
f 137/20/11 52/24/13 59/25/13 150/21/11
f 354/2/14 358/1/14 143/1/14 136/2/14
f 344/12/15 345/26/15 133/12/15
f 125/27/16 138/28/16 141/29/17 128/30/17
f 125/27/16 46/18/18 53/31/18 138/28/16
f 357/32/19 361/33/19 144/33/19 143/32/19
f 136/2/20 143/1/20 121/1/20 120/2/20
f 113/34/21 126/35/21 129/36/22 116/37/22
f 113/34/21 40/10/23 47/9/23 126/35/21
f 347/38/24 348/39/24 134/38/24
f 132/40/25 133/11/25 111/11/25 110/40/25
f 101/41/26 114/42/26 117/43/27 104/44/27
f 101/41/26 34/11/28 41/40/28 114/42/26
f 338/19/29 339/9/29 131/19/29
f 332/45/30 333/25/30 123/45/30
f 119/15/31 120/14/31 100/15/31
f 94/46/32 102/47/32 105/48/33 97/49/33
f 94/46/32 28/50/34 35/26/34 102/47/32
f 131/9/35 132/10/35 110/10/35 109/9/35
f 112/39/31 119/51/31 100/39/31
f 88/52/36 95/53/36 98/54/37 91/55/37
f 88/52/36 22/51/38 29/39/38 95/53/36
f 111/26/31 112/50/31 100/26/31
f 67/56/39 71/57/40 74/58/40 77/59/39
f 82/13/7 89/16/7 92/60/41 85/61/41
f 120/2/31 121/1/31 100/2/31
f 73/4/2 83/3/2 86/62/42 76/63/42
f 149/5/3 70/8/3 68/64/43 152/65/43
f 72/66/44 6/67/45 4/33/45 71/57/46
f 10/1/47 73/4/48 75/68/49 12/69/47
f 68/64/50 70/8/51 72/70/52 69/71/53
f 69/72/54 72/73/44 71/57/46 67/56/55
f 12/69/56 75/68/57 74/58/58 11/32/56
f 16/14/59 82/13/60 84/74/61 18/17/59
f 73/4/48 76/63/62 78/75/63 75/68/49
f 75/68/57 78/75/64 77/59/65 74/58/58
f 110/40/31 111/11/31 100/40/31
f 18/17/66 84/74/67 83/3/68 17/2/66
f 22/51/69 88/52/70 90/76/71 24/77/69
f 82/13/60 85/61/72 87/78/73 84/74/61
f 84/74/67 87/78/74 86/62/75 83/3/68
f 109/9/31 110/10/31 100/9/31
f 121/32/31 122/33/31 100/32/31
f 24/77/76 90/76/77 89/16/78 23/15/76
f 28/50/79 94/46/80 96/79/81 30/38/79
f 88/52/70 91/55/82 93/80/83 90/76/71
f 90/76/77 93/80/84 92/60/85 89/16/78
f 133/26/86 134/50/86 112/50/86 111/26/86
f 135/15/87 136/14/87 120/14/87 119/15/87
f 30/38/88 96/79/89 95/53/90 29/39/88
f 34/11/91 101/41/92 103/81/93 36/12/91
f 94/46/80 97/49/94 99/82/95 96/79/81
f 96/79/89 99/82/96 98/54/97 95/53/90
f 143/32/98 144/33/98 122/33/98 121/32/98
f 123/25/99 124/24/99 108/24/99 107/25/99
f 36/12/100 103/81/101 102/47/102 35/26/100
f 40/10/103 113/34/104 115/83/105 42/84/103
f 101/41/92 104/44/106 106/85/107 103/81/93
f 103/81/101 106/85/108 105/48/109 102/47/102
f 341/84/110 342/40/110 132/84/110
f 333/25/111 337/24/111 124/24/111 123/25/111
f 42/84/112 115/83/113 114/42/114 41/40/112
f 46/18/115 125/27/116 127/86/117 48/19/115
f 113/34/104 116/37/118 118/87/119 115/83/105
f 115/83/113 118/87/120 117/43/121 114/42/114
f 350/77/122 351/15/122 135/77/122
f 335/88/123 336/31/123 124/88/123
f 353/17/124 354/2/124 136/17/124
f 356/69/125 357/32/125 143/69/125
f 48/19/126 127/86/127 126/35/128 47/9/126
f 52/24/129 137/20/130 139/89/131 54/88/129
f 125/27/116 128/30/132 130/90/133 127/86/117
f 127/86/127 130/90/134 129/36/135 126/35/128
f 360/7/136 334/6/136 123/6/136 144/7/136
f 336/31/137 340/18/137 131/18/137 124/31/137
f 144/7/138 123/6/138 107/6/138 122/7/138
f 124/31/139 131/18/139 109/18/139 108/31/139
f 361/33/140 359/67/140 144/33/140
f 352/51/141 350/77/141 135/51/141
f 343/10/142 341/84/142 132/10/142
f 349/50/143 347/38/143 134/50/143
f 54/88/144 139/89/145 138/28/146 53/31/144
f 58/6/147 149/5/148 151/91/149 60/45/147
f 137/20/130 140/23/150 142/92/151 139/89/131
f 139/89/145 142/92/152 141/29/153 138/28/146
f 134/39/154 135/51/154 119/51/154 112/39/154
f 328/8/155 360/7/156 359/93/156 326/94/157
f 107/25/31 108/24/31 100/25/31
f 108/31/31 109/18/31 100/31/31
f 358/1/158 356/69/158 143/1/158
f 359/93/159 360/7/159 144/93/159
f 337/24/160 335/88/160 124/24/160
f 351/15/161 355/14/161 136/14/161 135/15/161
f 60/45/162 151/91/163 150/21/164 59/25/162
f 71/57/40 4/33/165 11/32/165 74/58/40
f 149/5/148 152/65/166 154/95/167 151/91/149
f 151/91/163 154/95/168 153/22/169 150/21/164
f 122/7/31 107/6/31 100/7/31
f 276/61/170 141/29/153 142/92/152 274/78/171
f 348/39/172 352/51/172 135/51/172 134/39/172
f 334/6/173 332/45/173 123/6/173
f 345/26/174 349/50/174 134/50/174 133/26/174
f 342/40/175 346/11/175 133/11/175 132/40/175
f 58/6/176 60/45/176 170/6/176
f 41/40/177 34/11/177 166/11/177 167/40/177
f 35/26/178 28/50/178 165/50/178 166/26/178
f 29/39/179 22/51/179 164/51/179 165/39/179
f 6/93/180 5/7/180 161/93/180
f 23/15/181 16/14/181 163/14/181 164/15/181
f 60/45/182 59/25/182 170/45/182
f 52/24/183 54/88/183 169/24/183
f 10/1/184 12/69/184 162/1/184
f 16/14/185 18/17/185 163/14/185
f 22/51/186 24/77/186 164/51/186
f 28/50/187 30/38/187 165/50/187
f 34/11/188 36/12/188 166/11/188
f 40/10/189 42/84/189 167/10/189
f 4/33/190 6/67/190 161/33/190
f 17/2/191 10/1/191 162/1/191 163/2/191
f 54/88/192 53/31/192 169/88/192
f 12/69/193 11/32/193 162/69/193
f 46/18/194 48/19/194 168/18/194
f 18/17/195 17/2/195 163/17/195
f 24/77/196 23/15/196 164/77/196
f 11/32/197 4/33/197 161/33/197 162/32/197
f 30/38/198 29/39/198 165/38/198
f 36/12/199 35/26/199 166/12/199
f 42/84/200 41/40/200 167/84/200
f 5/7/201 58/6/201 170/6/201 161/7/201
f 59/25/202 52/24/202 169/24/202 170/25/202
f 53/31/203 46/18/203 168/18/203 169/31/203
f 48/19/204 47/9/204 168/19/204
f 163/2/205 162/1/205 172/1/205 173/2/205
f 162/32/206 161/33/206 171/33/206 172/32/206
f 161/7/207 170/6/207 180/6/207 171/7/207
f 170/25/208 169/24/208 179/24/208 180/25/208
f 169/31/209 168/18/209 178/18/209 179/31/209
f 168/9/210 167/10/210 177/10/210 178/9/210
f 167/40/211 166/11/211 176/11/211 177/40/211
f 166/26/212 165/50/212 175/50/212 176/26/212
f 165/39/213 164/51/213 174/51/213 175/39/213
f 164/15/214 163/14/214 173/14/214 174/15/214
f 70/8/51 5/7/215 6/93/215 72/94/52
f 176/26/216 175/50/216 181/26/216
f 174/15/216 173/14/216 181/15/216
f 178/9/216 177/10/216 181/9/216
f 180/25/216 179/24/216 181/25/216
f 172/32/216 171/33/216 181/32/216
f 179/31/216 178/18/216 181/31/216
f 173/2/216 172/1/216 181/2/216
f 175/39/216 174/51/216 181/39/216
f 177/40/216 176/11/216 181/40/216
f 171/7/216 180/6/216 181/7/216
f 327/57/217 361/33/218 357/32/218 324/58/217
f 243/20/219 159/23/220 157/92/221 160/89/222
f 335/88/223 160/89/224 242/28/225 336/31/223
f 249/27/226 246/30/227 244/90/228 247/86/229
f 338/19/230 247/86/231 248/35/232 339/9/230
f 255/34/233 252/37/234 250/87/235 253/83/236
f 341/84/237 253/83/238 254/42/239 342/40/237
f 261/41/240 258/44/241 256/85/242 259/81/243
f 344/12/244 259/81/245 260/47/246 345/26/244
f 267/46/247 264/49/248 262/82/249 265/79/250
f 347/38/251 265/79/252 266/53/253 348/39/251
f 273/52/254 270/55/255 268/80/256 271/76/257
f 350/77/258 271/76/259 272/16/260 351/15/258
f 279/13/261 276/61/170 274/78/171 277/74/262
f 353/17/263 277/74/264 278/3/265 354/2/263
f 325/4/266 322/63/267 280/75/268 323/68/269
f 356/69/270 323/68/271 324/58/272 357/32/270
f 330/64/273 328/8/155 326/70/157 329/71/274
f 156/5/275 147/65/276 145/95/277 148/91/278
f 326/66/279 359/67/280 361/33/280 327/57/281
f 332/45/282 148/91/283 155/21/284 333/25/282
f 148/91/283 145/95/285 146/22/286 155/21/284
f 325/4/287 278/3/287 275/62/288 322/63/288
f 358/1/289 325/4/266 323/68/269 356/69/289
f 358/1/290 354/2/290 278/3/287 325/4/287
f 329/72/291 326/73/279 327/57/281 331/56/292
f 156/5/293 334/6/294 360/7/294 328/8/293
f 355/14/295 279/13/261 277/74/262 353/17/295
f 339/9/296 343/10/296 132/10/296 131/9/296
f 323/68/271 280/75/297 281/59/298 324/58/272
f 279/13/299 355/14/300 351/15/300 272/16/299
f 352/51/301 273/52/254 271/76/257 350/77/301
f 243/20/302 155/21/302 146/22/303 159/23/303
f 277/74/264 274/78/304 275/62/305 278/3/265
f 243/20/302 337/24/306 333/25/306 155/21/302
f 349/50/307 267/46/247 265/79/250 347/38/307
f 249/27/308 242/28/308 158/29/309 246/30/309
f 271/76/259 268/80/310 269/60/311 272/16/260
f 249/27/308 340/18/312 336/31/312 242/28/308
f 346/11/313 261/41/240 259/81/243 344/12/313
f 255/34/314 248/35/314 245/36/315 252/37/315
f 265/79/252 262/82/316 263/54/317 266/53/253
f 255/34/314 343/10/318 339/9/318 248/35/314
f 343/10/319 255/34/233 253/83/236 341/84/319
f 261/41/320 254/42/320 251/43/321 258/44/321
f 259/81/245 256/85/322 257/48/323 260/47/246
f 261/41/320 346/11/324 342/40/324 254/42/320
f 340/18/325 249/27/226 247/86/229 338/19/325
f 267/46/326 260/47/326 257/48/327 264/49/327
f 253/83/238 250/87/328 251/43/329 254/42/239
f 267/46/326 349/50/330 345/26/330 260/47/326
f 337/24/331 243/20/219 160/89/222 335/88/331
f 273/52/332 266/53/332 263/54/333 270/55/333
f 247/86/231 244/90/334 245/36/335 248/35/232
f 273/52/332 352/51/336 348/39/336 266/53/332
f 334/6/337 156/5/275 148/91/278 332/45/337
f 331/56/338 327/57/217 324/58/217 281/59/338
f 160/89/224 157/92/339 158/29/340 242/28/225
f 279/13/299 272/16/299 269/60/341 276/61/341
f 85/61/72 158/29/340 157/92/339 87/78/73
f 156/5/293 328/8/293 330/64/342 147/65/342
f 76/63/62 146/22/286 145/95/285 78/75/63
f 67/56/55 330/64/273 329/96/274 69/97/54
f 274/78/304 142/92/151 140/23/150 275/62/305
f 147/65/342 330/64/342 67/56/39 77/59/39
f 322/63/288 275/62/288 140/23/12 153/22/12
f 78/75/64 145/95/277 147/65/276 77/59/65
f 331/56/292 68/64/50 69/96/53 329/97/291
f 87/78/74 157/92/221 159/23/220 86/62/75
f 128/30/132 269/60/311 268/80/310 130/90/133
f 130/90/134 268/80/256 270/55/255 129/36/135
f 91/55/82 245/36/335 244/90/334 93/80/83
f 93/80/84 244/90/228 246/30/227 92/60/85
f 116/37/118 263/54/317 262/82/316 118/87/119
f 118/87/120 262/82/249 264/49/248 117/43/121
f 104/44/106 257/48/323 256/85/322 106/85/107
f 106/85/108 256/85/242 258/44/241 105/48/109
f 97/49/94 251/43/329 250/87/328 99/82/95
f 99/82/96 250/87/235 252/37/234 98/54/97
f 152/65/43 68/64/43 331/56/338 281/59/338
f 128/30/17 141/29/17 276/61/341 269/60/341
f 116/37/22 129/36/22 270/55/333 263/54/333
f 104/44/27 117/43/27 264/49/327 257/48/327
f 97/49/33 105/48/33 258/44/321 251/43/321
f 91/55/37 98/54/37 252/37/315 245/36/315
f 85/61/41 92/60/41 246/30/309 158/29/309
f 76/63/42 86/62/42 159/23/303 146/22/303
f 280/75/297 154/95/167 152/65/166 281/59/298
f 322/63/267 153/22/169 154/95/168 280/75/268
usemtl Beige
f 182/98/343 183/67/343 185/99/343 184/100/343
f 184/100/344 185/99/344 187/101/344 186/102/344
f 186/102/345 187/101/345 189/103/345 188/104/345
f 188/104/346 189/103/346 191/105/346 190/106/346
f 190/106/347 191/105/347 193/107/347 192/108/347
f 192/108/348 193/107/348 195/109/348 194/110/348
f 194/110/349 195/109/349 197/111/349 196/112/349
f 196/112/350 197/111/350 199/113/350 198/114/350
f 185/115/216 183/116/216 201/117/216 199/118/216 197/119/216 195/120/216 193/121/216 191/122/216 189/123/216 187/124/216
f 198/114/351 199/113/351 201/125/351 200/126/351
f 200/126/352 201/125/352 183/93/352 182/127/352
f 182/128/31 184/129/31 186/130/31 188/131/31 190/132/31 192/133/31 194/134/31 196/135/31 198/136/31 200/137/31
usemtl Metal
f 393/138/353 14/139/354 9/113/355 395/140/356
f 387/141/357 26/109/358 21/142/359 389/143/360
f 381/144/361 38/145/362 33/107/363 383/146/364
f 375/147/365 50/103/366 45/148/367 377/149/368
f 369/150/369 62/151/370 57/101/371 371/152/372
f 364/153/373 80/67/374 66/154/375 365/155/376
f 8/156/377 398/157/377 400/158/378 3/126/378
f 66/159/375 80/116/374 362/160/379 2/117/380 7/161/381 9/162/355 14/163/354 19/119/382 21/164/359 26/165/358 31/166/383 33/121/363 38/167/362 43/122/384 45/168/367 50/123/366 55/169/385 57/124/371 62/170/370 64/115/386
f 81/128/216 79/171/216 65/129/216 63/172/216 61/130/216 56/173/216 51/131/216 49/174/216 44/132/216 39/175/216 37/133/216 32/176/216 27/177/216 25/178/216 20/135/216 15/179/216 13/180/216 8/181/216 3/137/216 1/182/216
f 398/157/387 397/183/387 399/184/388 400/158/388
f 402/185/389 401/186/389 364/187/390 363/188/390
f 399/184/391 2/125/380 362/189/379 401/186/392
f 401/186/392 362/189/379 80/93/374 364/187/373
f 395/140/356 9/113/355 7/190/381 397/183/393
f 397/183/393 7/190/381 2/125/380 399/184/391
f 389/143/360 21/142/359 19/111/382 391/191/394
f 391/191/394 19/111/382 14/139/354 393/138/353
f 383/146/364 33/107/363 31/192/383 385/193/395
f 385/193/395 31/192/383 26/109/358 387/141/357
f 377/149/368 45/148/367 43/105/384 379/194/396
f 379/194/396 43/105/384 38/145/362 381/144/361
f 371/152/372 57/101/371 55/195/385 373/196/397
f 373/196/397 55/195/385 50/103/366 375/147/365
f 365/155/376 66/154/375 64/99/386 367/197/398
f 367/197/398 64/99/386 62/151/370 369/150/369
f 13/114/399 396/198/399 398/157/377 8/156/377
f 400/158/388 399/184/388 401/186/389 402/185/389
f 3/126/378 400/158/378 402/185/400 1/199/400
f 1/199/400 402/185/400 363/188/401 81/127/401
f 283/153/402 203/67/403 205/154/404 284/155/405
f 284/155/405 205/154/404 207/99/406 286/197/407
f 286/197/407 207/99/406 209/151/408 288/150/409
f 288/150/409 209/151/408 211/101/410 290/152/411
f 290/152/411 211/101/410 213/195/412 292/196/413
f 292/196/413 213/195/412 215/103/414 294/147/415
f 294/147/415 215/103/414 217/148/416 296/149/417
f 296/149/417 217/148/416 219/105/418 298/194/419
f 298/194/419 219/105/418 221/145/420 300/144/421
f 300/144/421 221/145/420 223/107/422 302/146/423
f 302/146/423 223/107/422 225/192/424 304/193/425
f 304/193/425 225/192/424 227/109/426 306/141/427
f 306/141/427 227/109/426 229/142/428 308/143/429
f 308/143/429 229/142/428 231/111/430 310/191/431
f 310/191/431 231/111/430 233/139/432 312/138/433
f 312/138/433 233/139/432 235/113/434 314/140/435
f 314/140/435 235/113/434 237/190/436 316/183/437
f 316/183/437 237/190/436 239/125/438 318/184/439
f 205/159/404 203/116/403 241/160/440 239/117/438 237/161/436 235/162/434 233/163/432 231/119/430 229/164/428 227/165/426 225/166/424 223/121/422 221/167/420 219/122/418 217/168/416 215/123/414 213/169/412 211/124/410 209/170/408 207/115/406
f 318/184/439 239/125/438 241/189/440 320/186/441
f 320/186/441 241/189/440 203/93/403 283/187/402
f 202/128/31 204/171/31 206/129/31 208/172/31 210/130/31 212/173/31 214/131/31 216/174/31 218/132/31 220/175/31 222/133/31 224/176/31 226/177/31 228/178/31 230/135/31 232/179/31 234/180/31 236/181/31 238/137/31 240/182/31
f 240/199/442 321/185/442 282/188/443 202/127/443
f 321/185/444 320/186/444 283/187/445 282/188/445
f 238/126/446 319/158/446 321/185/442 240/199/442
f 319/158/447 318/184/447 320/186/444 321/185/444
f 236/156/448 317/157/448 319/158/446 238/126/446
f 317/157/449 316/183/449 318/184/447 319/158/447
f 234/114/450 315/198/450 317/157/448 236/156/448
f 315/198/451 314/140/451 316/183/449 317/157/449
f 232/200/452 313/201/452 315/198/450 234/114/450
f 313/201/453 312/138/453 314/140/451 315/198/451
f 230/112/454 311/202/454 313/201/452 232/200/452
f 311/202/455 310/191/455 312/138/453 313/201/453
f 228/203/456 309/204/456 311/202/454 230/112/454
f 309/204/457 308/143/457 310/191/455 311/202/455
f 226/110/458 307/205/458 309/204/456 228/203/456
f 307/205/459 306/141/459 308/143/457 309/204/457
f 224/206/460 305/207/460 307/205/458 226/110/458
f 305/207/461 304/193/461 306/141/459 307/205/459
f 222/108/462 303/208/462 305/207/460 224/206/460
f 303/208/463 302/146/463 304/193/461 305/207/461
f 220/209/464 301/210/464 303/208/462 222/108/462
f 301/210/465 300/144/465 302/146/463 303/208/463
f 218/106/466 299/211/466 301/210/464 220/209/464
f 299/211/467 298/194/467 300/144/465 301/210/465
f 216/212/468 297/213/468 299/211/466 218/106/466
f 297/213/469 296/149/469 298/194/467 299/211/467
f 214/104/470 295/214/470 297/213/468 216/212/468
f 295/214/471 294/147/471 296/149/469 297/213/469
f 212/215/472 293/216/472 295/214/470 214/104/470
f 293/216/473 292/196/473 294/147/471 295/214/471
f 210/102/474 291/217/474 293/216/472 212/215/472
f 291/217/475 290/152/475 292/196/473 293/216/473
f 208/218/476 289/219/476 291/217/474 210/102/474
f 289/219/477 288/150/477 290/152/475 291/217/475
f 206/100/478 287/220/478 289/219/476 208/218/476
f 287/220/479 286/197/479 288/150/477 289/219/477
f 204/221/480 285/222/480 287/220/478 206/100/478
f 285/222/481 284/155/481 286/197/479 287/220/479
f 202/98/443 282/223/443 285/222/480 204/221/480
f 282/223/445 283/153/445 284/155/481 285/222/481
f 396/198/482 395/140/482 397/183/387 398/157/387
f 15/200/483 394/201/483 396/198/399 13/114/399
f 394/201/484 393/138/484 395/140/482 396/198/482
f 20/112/485 392/202/485 394/201/483 15/200/483
f 392/202/486 391/191/486 393/138/484 394/201/484
f 25/203/487 390/204/487 392/202/485 20/112/485
f 390/204/488 389/143/488 391/191/486 392/202/486
f 27/110/489 388/205/489 390/204/487 25/203/487
f 388/205/490 387/141/490 389/143/488 390/204/488
f 32/206/491 386/207/491 388/205/489 27/110/489
f 386/207/492 385/193/492 387/141/490 388/205/490
f 37/108/493 384/208/493 386/207/491 32/206/491
f 384/208/494 383/146/494 385/193/492 386/207/492
f 39/209/495 382/210/495 384/208/493 37/108/493
f 382/210/496 381/144/496 383/146/494 384/208/494
f 44/106/497 380/211/497 382/210/495 39/209/495
f 380/211/498 379/194/498 381/144/496 382/210/496
f 49/212/499 378/213/499 380/211/497 44/106/497
f 378/213/500 377/149/500 379/194/498 380/211/498
f 51/104/501 376/214/501 378/213/499 49/212/499
f 376/214/502 375/147/502 377/149/500 378/213/500
f 56/215/503 374/216/503 376/214/501 51/104/501
f 374/216/504 373/196/504 375/147/502 376/214/502
f 61/102/505 372/217/505 374/216/503 56/215/503
f 372/217/506 371/152/506 373/196/504 374/216/504
f 63/218/507 370/219/507 372/217/505 61/102/505
f 370/219/508 369/150/508 371/152/506 372/217/506
f 65/100/509 368/220/509 370/219/507 63/218/507
f 368/220/510 367/197/510 369/150/508 370/219/508
f 79/221/511 366/222/511 368/220/509 65/100/509
f 366/222/512 365/155/512 367/197/510 368/220/510
f 81/98/401 363/223/401 366/222/511 79/221/511
f 363/223/390 364/153/390 365/155/512 366/222/512
