# Blender 5.0.1
# www.blender.org
mtllib barsCube.mtl
o Cube.008
v 1.000000 -1.000000 -1.000000
v -1.000000 -1.000000 -1.000000
v 1.000000 -1.000000 1.000000
v -1.000000 -1.000000 1.000000
v 1.000000 -0.800000 -1.000000
v -1.000000 -0.800000 -1.000000
v 1.000000 -0.800000 1.000000
v -1.000000 -0.800000 1.000000
vn 1.0000 -0.0000 -0.0000
vn -0.0000 -0.0000 1.0000
vn -0.0000 1.0000 -0.0000
vn -1.0000 -0.0000 -0.0000
vn -0.0000 -1.0000 -0.0000
vn -0.0000 -0.0000 -1.0000
vt 0.625000 0.500000
vt 0.875000 0.500000
vt 0.875000 0.750000
vt 0.625000 0.750000
vt 0.375000 0.750000
vt 0.625000 1.000000
vt 0.375000 1.000000
vt 0.375000 0.000000
vt 0.625000 0.000000
vt 0.625000 0.250000
vt 0.375000 0.250000
vt 0.125000 0.500000
vt 0.375000 0.500000
vt 0.125000 0.750000
s 0
usemtl Material.009
f 1/1/1 5/2/1 7/3/1 3/4/1
f 4/5/2 3/4/2 7/6/2 8/7/2
f 8/8/3 7/9/3 5/10/3 6/11/3
f 6/12/4 2/13/4 4/5/4 8/14/4
f 2/13/5 1/1/5 3/4/5 4/5/5
f 6/11/6 5/10/6 1/1/6 2/13/6
o Cube.009
v 1.000000 0.800000 -1.000000
v -1.000000 0.800000 -1.000000
v 1.000000 0.800000 1.000000
v -1.000000 0.800000 1.000000
v 1.000000 1.000000 -1.000000
v -1.000000 1.000000 -1.000000
v 1.000000 1.000000 1.000000
v -1.000000 1.000000 1.000000
vn 1.0000 -0.0000 -0.0000
vn -0.0000 -0.0000 1.0000
vn -0.0000 1.0000 -0.0000
vn -1.0000 -0.0000 -0.0000
vn -0.0000 -1.0000 -0.0000
vn -0.0000 -0.0000 -1.0000
vt 0.625000 0.500000
vt 0.875000 0.500000
vt 0.875000 0.750000
vt 0.625000 0.750000
vt 0.375000 0.750000
vt 0.625000 1.000000
vt 0.375000 1.000000
vt 0.375000 0.000000
vt 0.625000 0.000000
vt 0.625000 0.250000
vt 0.375000 0.250000
vt 0.125000 0.500000
vt 0.375000 0.500000
vt 0.125000 0.750000
s 0
usemtl Material.010
f 9/15/7 13/16/7 15/17/7 11/18/7
f 12/19/8 11/18/8 15/20/8 16/21/8
f 16/22/9 15/23/9 13/24/9 14/25/9
f 14/26/10 10/27/10 12/19/10 16/28/10
f 10/27/11 9/15/11 11/18/11 12/19/11
f 14/25/12 13/24/12 9/15/12 10/27/12
o Cube.001
v 0.010000 1.000000 -1.000000
v 0.010000 -1.000000 -1.000000
v 0.010000 1.000000 1.000000
v 0.010000 -1.000000 1.000000
v -0.010000 1.000000 -1.000000
v -0.010000 -1.000000 -1.000000
v -0.010000 1.000000 1.000000
v -0.010000 -1.000000 1.000000
vn -0.0000 1.0000 -0.0000
vn -0.0000 -0.0000 1.0000
vn -1.0000 -0.0000 -0.0000
vn -0.0000 -1.0000 -0.0000
vn 1.0000 -0.0000 -0.0000
vn -0.0000 -0.0000 -1.0000
vt 0.625000 0.500000
vt 0.875000 0.500000
vt 0.875000 0.750000
vt 0.625000 0.750000
vt 0.375000 0.750000
vt 0.625000 1.000000
vt 0.375000 1.000000
vt 0.375000 0.000000
vt 0.625000 0.000000
vt 0.625000 0.250000
vt 0.375000 0.250000
vt 0.125000 0.500000
vt 0.375000 0.500000
vt 0.125000 0.750000
s 0
usemtl Material.025
f 17/29/13 21/30/13 23/31/13 19/32/13
f 20/33/14 19/32/14 23/34/14 24/35/14
f 24/36/15 23/37/15 21/38/15 22/39/15
f 22/40/16 18/41/16 20/33/16 24/42/16
f 18/41/17 17/29/17 19/32/17 20/33/17
f 22/39/18 21/38/18 17/29/18 18/41/18
o Cube.003
v -0.310000 -1.000000 -1.000000
v -0.310000 1.000000 -1.000000
v -0.310000 -1.000000 1.000000
v -0.310000 1.000000 1.000000
v -0.290000 -1.000000 -1.000000
v -0.290000 1.000000 -1.000000
v -0.290000 -1.000000 1.000000
v -0.290000 1.000000 1.000000
v -0.160000 -1.000000 -1.000000
v -0.160000 1.000000 -1.000000
v -0.160000 -1.000000 1.000000
v -0.160000 1.000000 1.000000
v -0.140000 -1.000000 -1.000000
v -0.140000 1.000000 -1.000000
v -0.140000 -1.000000 1.000000
v -0.140000 1.000000 1.000000
v -0.460000 -1.000000 -1.000000
v -0.460000 1.000000 -1.000000
v -0.460000 -1.000000 1.000000
v -0.460000 1.000000 1.000000
v -0.440000 -1.000000 -1.000000
v -0.440000 1.000000 -1.000000
v -0.440000 -1.000000 1.000000
v -0.440000 1.000000 1.000000
v -0.610000 -1.000000 -1.000000
v -0.610000 1.000000 -1.000000
v -0.610000 -1.000000 1.000000
v -0.610000 1.000000 1.000000
v -0.590000 -1.000000 -1.000000
v -0.590000 1.000000 -1.000000
v -0.590000 -1.000000 1.000000
v -0.590000 1.000000 1.000000
v -0.760000 -1.000000 -1.000000
v -0.760000 1.000000 -1.000000
v -0.760000 -1.000000 1.000000
v -0.760000 1.000000 1.000000
v -0.740000 -1.000000 -1.000000
v -0.740000 1.000000 -1.000000
v -0.740000 -1.000000 1.000000
v -0.740000 1.000000 1.000000
v -0.910000 -1.000000 -1.000000
v -0.910000 1.000000 -1.000000
v -0.910000 -1.000000 1.000000
v -0.910000 1.000000 1.000000
v -0.890000 -1.000000 -1.000000
v -0.890000 1.000000 -1.000000
v -0.890000 -1.000000 1.000000
v -0.890000 1.000000 1.000000
vn -0.0000 -1.0000 -0.0000
vn -0.0000 -0.0000 1.0000
vn 1.0000 -0.0000 -0.0000
vn -0.0000 1.0000 -0.0000
vn -1.0000 -0.0000 -0.0000
vn -0.0000 -0.0000 -1.0000
vt 0.625000 0.500000
vt 0.875000 0.500000
vt 0.875000 0.750000
vt 0.625000 0.750000
vt 0.375000 0.750000
vt 0.625000 1.000000
vt 0.375000 1.000000
vt 0.375000 0.000000
vt 0.625000 0.000000
vt 0.625000 0.250000
vt 0.375000 0.250000
vt 0.125000 0.500000
vt 0.375000 0.500000
vt 0.125000 0.750000
s 0
usemtl Material.039
f 25/43/19 29/44/19 31/45/19 27/46/19
f 28/47/20 27/46/20 31/48/20 32/49/20
f 32/50/21 31/51/21 29/52/21 30/53/21
f 30/54/22 26/55/22 28/47/22 32/56/22
f 26/55/23 25/43/23 27/46/23 28/47/23
f 30/53/24 29/52/24 25/43/24 26/55/24
usemtl Material.038
f 33/43/19 37/44/19 39/45/19 35/46/19
f 36/47/20 35/46/20 39/48/20 40/49/20
f 40/50/21 39/51/21 37/52/21 38/53/21
f 38/54/22 34/55/22 36/47/22 40/56/22
f 34/55/23 33/43/23 35/46/23 36/47/23
f 38/53/24 37/52/24 33/43/24 34/55/24
usemtl Material.040
f 41/43/19 45/44/19 47/45/19 43/46/19
f 44/47/20 43/46/20 47/48/20 48/49/20
f 48/50/21 47/51/21 45/52/21 46/53/21
f 46/54/22 42/55/22 44/47/22 48/56/22
f 42/55/23 41/43/23 43/46/23 44/47/23
f 46/53/24 45/52/24 41/43/24 42/55/24
usemtl Material.041
f 49/43/19 53/44/19 55/45/19 51/46/19
f 52/47/20 51/46/20 55/48/20 56/49/20
f 56/50/21 55/51/21 53/52/21 54/53/21
f 54/54/22 50/55/22 52/47/22 56/56/22
f 50/55/23 49/43/23 51/46/23 52/47/23
f 54/53/24 53/52/24 49/43/24 50/55/24
usemtl Material.042
f 57/43/19 61/44/19 63/45/19 59/46/19
f 60/47/20 59/46/20 63/48/20 64/49/20
f 64/50/21 63/51/21 61/52/21 62/53/21
f 62/54/22 58/55/22 60/47/22 64/56/22
f 58/55/23 57/43/23 59/46/23 60/47/23
f 62/53/24 61/52/24 57/43/24 58/55/24
usemtl Material.043
f 65/43/19 69/44/19 71/45/19 67/46/19
f 68/47/20 67/46/20 71/48/20 72/49/20
f 72/50/21 71/51/21 69/52/21 70/53/21
f 70/54/22 66/55/22 68/47/22 72/56/22
f 66/55/23 65/43/23 67/46/23 68/47/23
f 70/53/24 69/52/24 65/43/24 66/55/24
o Cube.002
v 0.310000 1.000000 -1.000000
v 0.310000 -1.000000 -1.000000
v 0.310000 1.000000 1.000000
v 0.310000 -1.000000 1.000000
v 0.290000 1.000000 -1.000000
v 0.290000 -1.000000 -1.000000
v 0.290000 1.000000 1.000000
v 0.290000 -1.000000 1.000000
v 0.160000 1.000000 -1.000000
v 0.160000 -1.000000 -1.000000
v 0.160000 1.000000 1.000000
v 0.160000 -1.000000 1.000000
v 0.140000 1.000000 -1.000000
v 0.140000 -1.000000 -1.000000
v 0.140000 1.000000 1.000000
v 0.140000 -1.000000 1.000000
v 0.460000 1.000000 -1.000000
v 0.460000 -1.000000 -1.000000
v 0.460000 1.000000 1.000000
v 0.460000 -1.000000 1.000000
v 0.440000 1.000000 -1.000000
v 0.440000 -1.000000 -1.000000
v 0.440000 1.000000 1.000000
v 0.440000 -1.000000 1.000000
v 0.610000 1.000000 -1.000000
v 0.610000 -1.000000 -1.000000
v 0.610000 1.000000 1.000000
v 0.610000 -1.000000 1.000000
v 0.590000 1.000000 -1.000000
v 0.590000 -1.000000 -1.000000
v 0.590000 1.000000 1.000000
v 0.590000 -1.000000 1.000000
v 0.760000 1.000000 -1.000000
v 0.760000 -1.000000 -1.000000
v 0.760000 1.000000 1.000000
v 0.760000 -1.000000 1.000000
v 0.740000 1.000000 -1.000000
v 0.740000 -1.000000 -1.000000
v 0.740000 1.000000 1.000000
v 0.740000 -1.000000 1.000000
v 0.910000 1.000000 -1.000000
v 0.910000 -1.000000 -1.000000
v 0.910000 1.000000 1.000000
v 0.910000 -1.000000 1.000000
v 0.890000 1.000000 -1.000000
v 0.890000 -1.000000 -1.000000
v 0.890000 1.000000 1.000000
v 0.890000 -1.000000 1.000000
vn -0.0000 1.0000 -0.0000
vn -0.0000 -0.0000 1.0000
vn -1.0000 -0.0000 -0.0000
vn -0.0000 -1.0000 -0.0000
vn 1.0000 -0.0000 -0.0000
vn -0.0000 -0.0000 -1.0000
vt 0.625000 0.500000
vt 0.875000 0.500000
vt 0.875000 0.750000
vt 0.625000 0.750000
vt 0.375000 0.750000
vt 0.625000 1.000000
vt 0.375000 1.000000
vt 0.375000 0.000000
vt 0.625000 0.000000
vt 0.625000 0.250000
vt 0.375000 0.250000
vt 0.125000 0.500000
vt 0.375000 0.500000
vt 0.125000 0.750000
s 0
usemtl Material.048
f 73/57/25 77/58/25 79/59/25 75/60/25
f 76/61/26 75/60/26 79/62/26 80/63/26
f 80/64/27 79/65/27 77/66/27 78/67/27
f 78/68/28 74/69/28 76/61/28 80/70/28
f 74/69/29 73/57/29 75/60/29 76/61/29
f 78/67/30 77/66/30 73/57/30 74/69/30
usemtl Material.049
f 81/57/25 85/58/25 87/59/25 83/60/25
f 84/61/26 83/60/26 87/62/26 88/63/26
f 88/64/27 87/65/27 85/66/27 86/67/27
f 86/68/28 82/69/28 84/61/28 88/70/28
f 82/69/29 81/57/29 83/60/29 84/61/29
f 86/67/30 85/66/30 81/57/30 82/69/30
usemtl Material.047
f 89/57/25 93/58/25 95/59/25 91/60/25
f 92/61/26 91/60/26 95/62/26 96/63/26
f 96/64/27 95/65/27 93/66/27 94/67/27
f 94/68/28 90/69/28 92/61/28 96/70/28
f 90/69/29 89/57/29 91/60/29 92/61/29
f 94/67/30 93/66/30 89/57/30 90/69/30
usemtl Material.046
f 97/57/25 101/58/25 103/59/25 99/60/25
f 100/61/26 99/60/26 103/62/26 104/63/26
f 104/64/27 103/65/27 101/66/27 102/67/27
f 102/68/28 98/69/28 100/61/28 104/70/28
f 98/69/29 97/57/29 99/60/29 100/61/29
f 102/67/30 101/66/30 97/57/30 98/69/30
usemtl Material.045
f 105/57/25 109/58/25 111/59/25 107/60/25
f 108/61/26 107/60/26 111/62/26 112/63/26
f 112/64/27 111/65/27 109/66/27 110/67/27
f 110/68/28 106/69/28 108/61/28 112/70/28
f 106/69/29 105/57/29 107/60/29 108/61/29
f 110/67/30 109/66/30 105/57/30 106/69/30
usemtl Material.044
f 113/57/25 117/58/25 119/59/25 115/60/25
f 116/61/26 115/60/26 119/62/26 120/63/26
f 120/64/27 119/65/27 117/66/27 118/67/27
f 118/68/28 114/69/28 116/61/28 120/70/28
f 114/69/29 113/57/29 115/60/29 116/61/29
f 118/67/30 117/66/30 113/57/30 114/69/30
