# Blender 5.0.1
# www.blender.org
mtllib dresser.mtl
o dresser
v -10.544930 19.739550 11.261333
v 10.544930 19.739550 11.261333
v -10.544930 26.217922 11.261333
v 10.544930 26.217922 11.261333
v -10.544930 19.739550 11.754034
v 10.544930 19.739550 11.754034
v 10.544930 26.217922 11.754034
v -10.544930 26.217922 11.754034
v -10.080716 20.203764 11.986143
v 10.080717 20.203764 11.986143
v 10.080717 25.753710 11.986143
v -10.080716 25.753710 11.986143
v -10.544930 12.785518 11.261333
v 10.544930 12.785518 11.261333
v -10.544930 19.263891 11.261333
v 10.544930 19.263891 11.261333
v -10.544930 12.785518 11.754034
v 10.544930 12.785518 11.754034
v 10.544930 19.263891 11.754034
v -10.544930 19.263891 11.754034
v -10.080716 13.249732 11.986143
v 10.080717 13.249732 11.986143
v 10.080717 18.799677 11.986143
v -10.080716 18.799677 11.986143
v -25.329956 19.739550 11.261333
v -10.823266 19.739550 11.261333
v -25.329956 26.217922 11.261333
v -10.823266 26.217922 11.261333
v -25.329956 19.739550 11.754034
v -10.823266 19.739550 11.754034
v -10.823266 26.217922 11.754034
v -25.329956 26.217922 11.754034
v -24.865742 20.203764 11.986143
v -11.287481 20.203764 11.986143
v -11.287481 25.753710 11.986143
v -24.865742 25.753710 11.986143
v -25.329956 12.785518 11.261333
v -10.823266 12.785518 11.261333
v -25.329956 19.263891 11.261333
v -10.823266 19.263891 11.261333
v -25.329956 12.785518 11.754034
v -10.823266 12.785518 11.754034
v -10.823266 19.263891 11.754034
v -25.329956 19.263891 11.754034
v -24.865742 13.249732 11.986143
v -11.287481 13.249732 11.986143
v -11.287481 18.799677 11.986143
v -24.865742 18.799677 11.986143
v 10.749447 19.739550 11.261333
v 25.256136 19.739550 11.261333
v 10.749447 26.217922 11.261333
v 25.256136 26.217922 11.261333
v 10.749447 19.739550 11.754034
v 25.256136 19.739550 11.754034
v 25.256136 26.217922 11.754034
v 10.749447 26.217922 11.754034
v 11.213661 20.203764 11.986143
v 24.791924 20.203764 11.986143
v 24.791924 25.753710 11.986143
v 11.213661 25.753710 11.986143
v 10.749447 12.785518 11.261333
v 25.256136 12.785518 11.261333
v 10.749447 19.263891 11.261333
v 25.256136 19.263891 11.261333
v 10.749447 12.785518 11.754034
v 25.256136 12.785518 11.754034
v 25.256136 19.263891 11.754034
v 10.749447 19.263891 11.754034
v 11.213661 13.249732 11.986143
v 24.791924 13.249732 11.986143
v 24.791924 18.799677 11.986143
v 11.213661 18.799677 11.986143
v 0.141558 5.548059 11.261335
v 25.219316 5.548059 11.261335
v 0.141558 12.322175 11.261335
v 25.219316 12.322175 11.261335
v 0.141558 5.548059 11.754036
v 25.219316 5.548059 11.754036
v 25.219316 12.322175 11.754036
v 0.141558 12.322175 11.754036
v 0.605772 6.012273 11.986145
v 24.755100 6.012273 11.986145
v 24.755100 11.857962 11.986145
v 0.605772 11.857962 11.986145
v -25.327946 5.548059 11.261335
v -0.141560 5.548059 11.261335
v -25.327946 12.322175 11.261335
v -0.141560 12.322175 11.261335
v -25.327946 5.548059 11.754036
v -0.141560 5.548059 11.754036
v -0.141560 12.322175 11.754036
v -25.327946 12.322175 11.754036
v -24.863733 6.012273 11.986145
v -0.605774 6.012273 11.986145
v -0.605774 11.857962 11.986145
v -24.863733 11.857962 11.986145
v 26.177950 4.684572 11.261335
v 26.177950 4.684570 -12.405454
v 26.896624 4.473197 11.980015
v 26.896624 4.473195 -13.124128
v 26.896624 2.739923 11.980015
v 26.896624 2.739921 -13.124128
v 27.403923 3.897370 12.487314
v 27.403923 3.367562 12.487314
v 27.403923 3.897368 -12.785929
v 27.403923 3.367560 -12.785929
v 26.177950 27.082890 11.261333
v 26.177950 27.082888 -12.405456
v 26.896624 27.294266 11.980013
v 26.896624 27.294264 -13.124130
v 26.896624 29.027538 11.980013
v 26.896624 29.027536 -13.124130
v 27.403923 27.870092 12.487312
v 27.403923 28.399899 12.487312
v 27.403923 27.870090 -12.785931
v 27.403923 28.399897 -12.785931
v -26.177950 4.684572 11.261335
v -26.177950 4.684570 -12.405454
v -26.896624 4.473197 11.980015
v -26.896624 4.473195 -13.124128
v -26.896624 2.739923 11.980015
v -26.896624 2.739921 -13.124128
v -27.403923 3.897370 12.487314
v -27.403923 3.367562 12.487314
v -27.403923 3.897368 -12.785929
v -27.403923 3.367560 -12.785929
v -26.177950 27.082890 11.261333
v -26.177950 27.082888 -12.405456
v -26.896624 27.294266 11.980013
v -26.896624 27.294264 -13.124130
v -26.896624 29.027538 11.980013
v -26.896624 29.027536 -13.124130
v -27.403923 27.870092 12.487312
v -27.403923 28.399899 12.487312
v -27.403923 27.870090 -12.785931
v -27.403923 28.399897 -12.785931
v 26.782076 4.448758 -13.009582
v 25.573818 4.448758 -13.009582
v 26.782076 27.311945 -13.009583
v 25.573818 27.311945 -13.009583
v 26.782076 27.311945 -11.801327
v 26.782076 4.448758 -11.801325
v 25.573818 4.448758 -12.405454
v 25.573818 27.311945 -12.405456
v 26.177950 27.311945 -11.801327
v 26.177950 4.448758 -11.801325
v 26.782076 4.448760 11.865465
v 26.782076 4.448760 10.657206
v 26.782076 27.311947 11.865463
v 26.782076 27.311947 10.657204
v 25.573818 27.311947 11.865463
v 25.573818 4.448760 11.865465
v 26.177950 4.448760 10.657206
v 26.177950 27.311947 10.657204
v 25.573818 27.311947 11.261333
v 25.573818 4.448760 11.261335
v -26.782076 4.448760 11.865465
v -25.573818 4.448760 11.865465
v -26.782076 27.311947 11.865463
v -25.573818 27.311947 11.865463
v -26.782076 27.311947 10.657204
v -26.782076 4.448760 10.657206
v -25.573818 4.448760 11.261335
v -25.573818 27.311947 11.261333
v -26.177950 27.311947 10.657204
v -26.177950 4.448760 10.657206
v -26.782076 4.448758 -13.009582
v -26.782076 4.448758 -11.801325
v -26.782076 27.311945 -13.009583
v -26.782076 27.311945 -11.801327
v -25.573818 27.311945 -13.009583
v -25.573818 4.448758 -13.009582
v -26.177950 4.448758 -11.801325
v -26.177950 27.311945 -11.801327
v -25.573818 27.311945 -12.405456
v -25.573818 4.448758 -12.405454
v -17.492119 23.220839 12.398523
v -17.629261 23.426086 12.398523
v -17.834507 23.563227 12.398523
v -18.076611 23.611383 12.398523
v -18.318716 23.563227 12.398523
v -18.523962 23.426086 12.398523
v -18.661102 23.220839 12.398523
v -18.709263 22.978737 12.398523
v -18.661102 22.736629 12.398523
v -18.523962 22.531385 12.398523
v -18.318716 22.394243 12.398523
v -18.076611 22.346085 12.398523
v -17.834507 22.394243 12.398523
v -17.629261 22.531385 12.398523
v -17.492119 22.736629 12.398523
v -17.443960 22.978737 12.398523
v -18.076611 22.978737 12.972902
v -17.744677 23.116226 11.986143
v -18.076611 23.338018 11.986143
v -18.408546 23.116228 11.986143
v -18.330662 22.724684 11.986143
v -18.076611 22.619452 11.986143
v -17.822559 22.724684 11.986143
v -17.613842 23.170420 12.938274
v -17.492119 23.220839 12.714457
v -17.629261 23.426086 12.714457
v -18.076611 23.479631 12.938274
v -17.834507 23.563227 12.714457
v -18.076611 23.611383 12.714457
v -18.318716 23.563227 12.714457
v -18.539379 23.170420 12.938274
v -18.523962 23.426086 12.714457
v -18.661102 23.220839 12.714457
v -18.709263 22.978737 12.714457
v -18.430799 22.624546 12.938274
v -18.661102 22.736629 12.714457
v -18.523962 22.531385 12.714457
v -18.318716 22.394243 12.714457
v -18.076611 22.477839 12.938274
v -18.076611 22.346085 12.714457
v -17.722424 22.624546 12.938274
v -17.834507 22.394243 12.714457
v -17.629261 22.531385 12.714457
v -17.492119 22.736629 12.714457
v -17.443960 22.978737 12.714457
v -17.492119 16.266809 12.398523
v -17.629261 16.472055 12.398523
v -17.834507 16.609196 12.398523
v -18.076611 16.657352 12.398523
v -18.318716 16.609196 12.398523
v -18.523962 16.472055 12.398523
v -18.661102 16.266809 12.398523
v -18.709263 16.024704 12.398523
v -18.661102 15.782599 12.398523
v -18.523962 15.577353 12.398523
v -18.318716 15.440211 12.398523
v -18.076611 15.392052 12.398523
v -17.834507 15.440211 12.398523
v -17.629261 15.577353 12.398523
v -17.492119 15.782599 12.398523
v -17.443960 16.024704 12.398523
v -18.076611 16.024704 12.972902
v -17.744677 16.162195 11.986143
v -18.076611 16.383987 11.986143
v -18.408546 16.162195 11.986143
v -18.330662 15.770652 11.986143
v -18.076611 15.665421 11.986143
v -17.822559 15.770652 11.986143
v -17.613842 16.216389 12.938274
v -17.492119 16.266809 12.714457
v -17.629261 16.472055 12.714457
v -18.076611 16.525600 12.938274
v -17.834507 16.609196 12.714457
v -18.076611 16.657352 12.714457
v -18.318716 16.609196 12.714457
v -18.539379 16.216389 12.938274
v -18.523962 16.472055 12.714457
v -18.661102 16.266809 12.714457
v -18.709263 16.024704 12.714457
v -18.430799 15.670516 12.938274
v -18.661102 15.782599 12.714457
v -18.523962 15.577353 12.714457
v -18.318716 15.440211 12.714457
v -18.076611 15.523808 12.938274
v -18.076611 15.392052 12.714457
v -17.722424 15.670516 12.938274
v -17.834507 15.440211 12.714457
v -17.629261 15.577353 12.714457
v -17.492119 15.782599 12.714457
v -17.443960 16.024704 12.714457
v -12.150262 9.177222 12.398525
v -12.287403 9.382469 12.398525
v -12.492650 9.519609 12.398525
v -12.734755 9.567768 12.398525
v -12.976859 9.519609 12.398525
v -13.182105 9.382469 12.398525
v -13.319245 9.177222 12.398525
v -13.367405 8.935118 12.398525
v -13.319245 8.693013 12.398525
v -13.182105 8.487767 12.398525
v -12.976859 8.350626 12.398525
v -12.734755 8.302466 12.398525
v -12.492650 8.350626 12.398525
v -12.287403 8.487767 12.398525
v -12.150262 8.693013 12.398525
v -12.102102 8.935118 12.398525
v -12.734755 8.935118 12.972904
v -12.402820 9.072609 11.986145
v -12.734755 9.294401 11.986145
v -13.066689 9.072611 11.986145
v -12.988805 8.681067 11.986145
v -12.734755 8.575834 11.986145
v -12.480702 8.681067 11.986145
v -12.271985 9.126802 12.938276
v -12.150262 9.177222 12.714458
v -12.287403 9.382469 12.714458
v -12.734755 9.436014 12.938276
v -12.492650 9.519609 12.714458
v -12.734755 9.567768 12.714458
v -12.976859 9.519609 12.714458
v -13.197522 9.126802 12.938276
v -13.182105 9.382469 12.714458
v -13.319245 9.177222 12.714458
v -13.367405 8.935118 12.714458
v -13.088942 8.580930 12.938276
v -13.319245 8.693013 12.714458
v -13.182105 8.487767 12.714458
v -12.976859 8.350626 12.714458
v -12.734755 8.434221 12.938276
v -12.734755 8.302466 12.714458
v -12.380567 8.580930 12.938276
v -12.492650 8.350626 12.714458
v -12.287403 8.487767 12.714458
v -12.150262 8.693013 12.714458
v -12.102102 8.935118 12.714458
v 18.587282 23.220839 12.398523
v 18.450140 23.426086 12.398523
v 18.244894 23.563227 12.398523
v 18.002790 23.611383 12.398523
v 17.760685 23.563227 12.398523
v 17.555439 23.426086 12.398523
v 17.418297 23.220839 12.398523
v 17.370138 22.978737 12.398523
v 17.418297 22.736629 12.398523
v 17.555439 22.531385 12.398523
v 17.760685 22.394243 12.398523
v 18.002790 22.346085 12.398523
v 18.244894 22.394243 12.398523
v 18.450140 22.531385 12.398523
v 18.587282 22.736629 12.398523
v 18.635441 22.978737 12.398523
v 18.002790 22.978737 12.972902
v 18.334724 23.116226 11.986143
v 18.002790 23.338018 11.986143
v 17.670855 23.116228 11.986143
v 17.748739 22.724684 11.986143
v 18.002790 22.619452 11.986143
v 18.256840 22.724684 11.986143
v 18.465557 23.170420 12.938274
v 18.587282 23.220839 12.714457
v 18.450140 23.426086 12.714457
v 18.002790 23.479631 12.938274
v 18.244894 23.563227 12.714457
v 18.002790 23.611383 12.714457
v 17.760685 23.563227 12.714457
v 17.540022 23.170420 12.938274
v 17.555439 23.426086 12.714457
v 17.418297 23.220839 12.714457
v 17.370138 22.978737 12.714457
v 17.648602 22.624546 12.938274
v 17.418297 22.736629 12.714457
v 17.555439 22.531385 12.714457
v 17.760685 22.394243 12.714457
v 18.002790 22.477839 12.938274
v 18.002790 22.346085 12.714457
v 18.356977 22.624546 12.938274
v 18.244894 22.394243 12.714457
v 18.450140 22.531385 12.714457
v 18.587282 22.736629 12.714457
v 18.635441 22.978737 12.714457
v 0.584492 16.266809 12.398523
v 0.447351 16.472055 12.398523
v 0.242104 16.609196 12.398523
v 0.000000 16.657352 12.398523
v -0.242104 16.609196 12.398523
v -0.447351 16.472055 12.398523
v -0.584492 16.266809 12.398523
v -0.632651 16.024704 12.398523
v -0.584492 15.782599 12.398523
v -0.447351 15.577353 12.398523
v -0.242104 15.440211 12.398523
v 0.000000 15.392052 12.398523
v 0.242104 15.440211 12.398523
v 0.447351 15.577353 12.398523
v 0.584492 15.782599 12.398523
v 0.632651 16.024704 12.398523
v 0.000000 16.024704 12.972902
v 0.331934 16.162195 11.986143
v 0.000000 16.383987 11.986143
v -0.331934 16.162195 11.986143
v -0.254051 15.770652 11.986143
v 0.000000 15.665421 11.986143
v 0.254051 15.770652 11.986143
v 0.462768 16.216389 12.938274
v 0.584492 16.266809 12.714457
v 0.447351 16.472055 12.714457
v 0.000000 16.525600 12.938274
v 0.242104 16.609196 12.714457
v 0.000000 16.657352 12.714457
v -0.242104 16.609196 12.714457
v -0.462768 16.216389 12.938274
v -0.447351 16.472055 12.714457
v -0.584492 16.266809 12.714457
v -0.632651 16.024704 12.714457
v -0.354187 15.670516 12.938274
v -0.584492 15.782599 12.714457
v -0.447351 15.577353 12.714457
v -0.242104 15.440211 12.714457
v 0.000000 15.523808 12.938274
v 0.000000 15.392052 12.714457
v 0.354187 15.670516 12.938274
v 0.242104 15.440211 12.714457
v 0.447351 15.577353 12.714457
v 0.584492 15.782599 12.714457
v 0.632651 16.024704 12.714457
v 0.584492 23.220839 12.398523
v 0.447351 23.426086 12.398523
v 0.242104 23.563227 12.398523
v 0.000000 23.611383 12.398523
v -0.242104 23.563227 12.398523
v -0.447351 23.426086 12.398523
v -0.584492 23.220839 12.398523
v -0.632651 22.978737 12.398523
v -0.584492 22.736629 12.398523
v -0.447351 22.531385 12.398523
v -0.242104 22.394243 12.398523
v 0.000000 22.346085 12.398523
v 0.242104 22.394243 12.398523
v 0.447351 22.531385 12.398523
v 0.584492 22.736629 12.398523
v 0.632651 22.978737 12.398523
v 0.000000 22.978737 12.972902
v 0.331934 23.116226 11.986143
v 0.000000 23.338018 11.986143
v -0.331934 23.116228 11.986143
v -0.254051 22.724684 11.986143
v 0.000000 22.619452 11.986143
v 0.254051 22.724684 11.986143
v 0.462768 23.170420 12.938274
v 0.584492 23.220839 12.714457
v 0.447351 23.426086 12.714457
v 0.000000 23.479631 12.938274
v 0.242104 23.563227 12.714457
v 0.000000 23.611383 12.714457
v -0.242104 23.563227 12.714457
v -0.462768 23.170420 12.938274
v -0.447351 23.426086 12.714457
v -0.584492 23.220839 12.714457
v -0.632651 22.978737 12.714457
v -0.354187 22.624546 12.938274
v -0.584492 22.736629 12.714457
v -0.447351 22.531385 12.714457
v -0.242104 22.394243 12.714457
v 0.000000 22.477839 12.938274
v 0.000000 22.346085 12.714457
v 0.354187 22.624546 12.938274
v 0.242104 22.394243 12.714457
v 0.447351 22.531385 12.714457
v 0.584492 22.736629 12.714457
v 0.632651 22.978737 12.714457
v 13.264929 9.177222 12.398525
v 13.127788 9.382469 12.398525
v 12.922541 9.519609 12.398525
v 12.680436 9.567768 12.398525
v 12.438333 9.519609 12.398525
v 12.233085 9.382469 12.398525
v 12.095944 9.177222 12.398525
v 12.047786 8.935118 12.398525
v 12.095944 8.693013 12.398525
v 12.233085 8.487767 12.398525
v 12.438333 8.350626 12.398525
v 12.680436 8.302466 12.398525
v 12.922541 8.350626 12.398525
v 13.127788 8.487767 12.398525
v 13.264929 8.693013 12.398525
v 13.313087 8.935118 12.398525
v 12.680436 8.935118 12.972904
v 13.012371 9.072609 11.986145
v 12.680436 9.294401 11.986145
v 12.348502 9.072611 11.986145
v 12.426386 8.681067 11.986145
v 12.680436 8.575834 11.986145
v 12.934487 8.681067 11.986145
v 13.143205 9.126802 12.938276
v 13.264929 9.177222 12.714458
v 13.127788 9.382469 12.714458
v 12.680436 9.436014 12.938276
v 12.922541 9.519609 12.714458
v 12.680436 9.567768 12.714458
v 12.438333 9.519609 12.714458
v 12.217669 9.126802 12.938276
v 12.233085 9.382469 12.714458
v 12.095944 9.177222 12.714458
v 12.047786 8.935118 12.714458
v 12.326249 8.580930 12.938276
v 12.095944 8.693013 12.714458
v 12.233085 8.487767 12.714458
v 12.438333 8.350626 12.714458
v 12.680436 8.434221 12.938276
v 12.680436 8.302466 12.714458
v 13.034624 8.580930 12.938276
v 12.922541 8.350626 12.714458
v 13.127788 8.487767 12.714458
v 13.264929 8.693013 12.714458
v 13.313087 8.935118 12.714458
v 18.587282 16.266809 12.398523
v 18.450140 16.472055 12.398523
v 18.244894 16.609196 12.398523
v 18.002790 16.657352 12.398523
v 17.760685 16.609196 12.398523
v 17.555439 16.472055 12.398523
v 17.418297 16.266809 12.398523
v 17.370138 16.024704 12.398523
v 17.418297 15.782599 12.398523
v 17.555439 15.577353 12.398523
v 17.760685 15.440211 12.398523
v 18.002790 15.392052 12.398523
v 18.244894 15.440211 12.398523
v 18.450140 15.577353 12.398523
v 18.587282 15.782599 12.398523
v 18.635441 16.024704 12.398523
v 18.002790 16.024704 12.972902
v 18.334724 16.162195 11.986143
v 18.002790 16.383987 11.986143
v 17.670855 16.162195 11.986143
v 17.748739 15.770652 11.986143
v 18.002790 15.665421 11.986143
v 18.256840 15.770652 11.986143
v 18.465557 16.216389 12.938274
v 18.587282 16.266809 12.714457
v 18.450140 16.472055 12.714457
v 18.002790 16.525600 12.938274
v 18.244894 16.609196 12.714457
v 18.002790 16.657352 12.714457
v 17.760685 16.609196 12.714457
v 17.540022 16.216389 12.938274
v 17.555439 16.472055 12.714457
v 17.418297 16.266809 12.714457
v 17.370138 16.024704 12.714457
v 17.648602 15.670516 12.938274
v 17.418297 15.782599 12.714457
v 17.555439 15.577353 12.714457
v 17.760685 15.440211 12.714457
v 18.002790 15.523808 12.938274
v 18.002790 15.392052 12.714457
v 18.356977 15.670516 12.938274
v 18.244894 15.440211 12.714457
v 18.450140 15.577353 12.714457
v 18.587282 15.782599 12.714457
v 18.635441 16.024704 12.714457
v -26.896624 1.648468 -13.009521
v -26.896624 1.648468 -4.642641
v -26.896624 2.739921 -13.009521
v -26.896624 2.739922 -4.642641
v -18.529743 2.739921 -13.009521
v -18.529743 1.648468 -13.009521
v -26.896624 1.648468 -8.826080
v -22.713186 1.648468 -13.009521
v -27.329632 0.516312 -13.442528
v -27.329634 0.516312 -8.826080
v -22.713186 0.516312 -13.442532
v -25.882023 1.648466 -11.994920
v -25.882023 1.648466 -8.826080
v -25.882023 2.739921 -11.994920
v -18.529743 1.648469 -11.994920
v -22.713186 1.648466 -11.994920
v -18.529743 2.739921 -11.994920
v -25.882023 1.648470 -4.642641
v -25.882023 2.739922 -4.642641
v -26.551973 0.516304 -12.664869
v -26.551973 0.516307 -8.826080
v -22.713186 0.516307 -12.664868
v -27.196363 2.412463 -13.305210
v -27.196363 1.975926 -13.305210
v -18.529743 1.975926 -13.305210
v -18.529743 2.412463 -13.305210
v -27.196363 1.975927 -4.642641
v -27.196363 2.412463 -4.642641
v 26.896624 1.648468 -13.009521
v 18.529743 1.648468 -13.009521
v 26.896624 2.739921 -13.009521
v 18.529743 2.739921 -13.009521
v 26.896624 2.739922 -4.642641
v 26.896624 1.648468 -4.642641
v 22.713181 1.648468 -13.009521
v 26.896624 1.648468 -8.826082
v 27.329632 0.516312 -13.442528
v 22.713181 0.516312 -13.442532
v 27.329634 0.516312 -8.826082
v 25.882023 1.648466 -11.994920
v 22.713181 1.648466 -11.994920
v 25.882023 2.739921 -11.994920
v 25.882023 1.648470 -4.642641
v 25.882023 1.648466 -8.826082
v 25.882023 2.739922 -4.642641
v 18.529743 1.648469 -11.994920
v 18.529743 2.739921 -11.994920
v 26.551973 0.516304 -12.664871
v 22.713181 0.516307 -12.664869
v 26.551971 0.516307 -8.826082
v 27.192312 2.412463 -13.309261
v 27.192312 1.975926 -13.309261
v 27.192312 1.975927 -4.642641
v 27.192312 2.412463 -4.642641
v 18.529743 1.975926 -13.309261
v 18.529743 2.412463 -13.309261
v 26.896624 1.648469 11.980015
v 26.896624 1.648469 3.613134
v 26.896624 2.739923 11.980015
v 26.896624 2.739922 3.613134
v 18.529743 2.739923 11.980015
v 18.529743 1.648469 11.980015
v 26.896624 1.648469 7.796572
v 22.713186 1.648469 11.980015
v 27.329632 0.516314 12.413023
v 27.329634 0.516313 7.796572
v 22.713186 0.516314 12.413025
v 25.882023 1.648468 10.965414
v 25.882023 1.648468 7.796572
v 25.882023 2.739923 10.965414
v 18.529743 1.648471 10.965414
v 22.713186 1.648468 10.965414
v 18.529743 2.739923 10.965414
v 25.882023 1.648470 3.613134
v 25.882023 2.739922 3.613134
v 26.551973 0.516306 11.635365
v 26.551973 0.516308 7.796572
v 22.713186 0.516309 11.635363
v 27.196363 2.412465 12.275703
v 27.196363 1.975928 12.275703
v 18.529743 1.975928 12.275703
v 18.529743 2.412465 12.275703
v 27.196363 1.975927 3.613134
v 27.196363 2.412464 3.613134
v -26.896624 1.648469 11.980015
v -18.529743 1.648469 11.980015
v -26.896624 2.739923 11.980015
v -18.529743 2.739923 11.980015
v -26.896624 2.739922 3.613134
v -26.896624 1.648469 3.613134
v -22.713181 1.648469 11.980015
v -26.896624 1.648469 7.796577
v -27.329632 0.516314 12.413023
v -22.713181 0.516314 12.413025
v -27.329634 0.516313 7.796577
v -25.882023 1.648468 10.965414
v -22.713181 1.648468 10.965414
v -25.882023 2.739923 10.965414
v -25.882023 1.648470 3.613134
v -25.882023 1.648468 7.796577
v -25.882023 2.739922 3.613134
v -18.529743 1.648471 10.965414
v -18.529743 2.739923 10.965414
v -26.551973 0.516306 11.635365
v -22.713181 0.516309 11.635365
v -26.551971 0.516308 7.796577
v -27.192312 2.412465 12.279755
v -27.192312 1.975928 12.279755
v -27.192312 1.975927 3.613134
v -27.192312 2.412464 3.613134
v -18.529743 1.975928 12.279755
v -18.529743 2.412465 12.279755
vn -0.0000 -0.0000 1.0000
vn -0.0000 -1.0000 -0.0000
vn 1.0000 -0.0000 -0.0000
vn -0.0000 1.0000 -0.0000
vn -1.0000 -0.0000 -0.0000
vn 0.1047 0.3590 0.9274
vn -0.1047 0.3590 0.9274
vn -0.1047 -0.3590 0.9274
vn 0.1047 -0.3590 0.9274
vn 0.1401 0.3271 0.9345
vn -0.1401 0.3271 0.9345
vn -0.1401 -0.3271 0.9345
vn 0.1401 -0.3271 0.9345
vn 0.0944 0.3681 0.9250
vn -0.0944 0.3681 0.9250
vn -0.0944 -0.3681 0.9250
vn 0.0944 -0.3681 0.9250
vn 0.0941 0.3684 0.9249
vn -0.0940 0.3684 0.9249
vn -0.0941 0.3684 0.9249
vn 0.0940 0.3684 0.9249
vn -0.0941 -0.3684 0.9249
vn -0.0940 -0.3684 0.9249
vn 0.0941 -0.3684 0.9249
vn 0.0940 -0.3684 0.9249
vn 0.2822 0.9594 -0.0000
vn 0.7503 0.6610 -0.0000
vn 0.7777 -0.6286 -0.0000
vn 0.5547 -0.0000 -0.8320
vn 0.2822 -0.9594 -0.0000
vn 0.7503 -0.6610 -0.0000
vn 0.7777 0.6286 -0.0000
vn -0.0000 0.9594 0.2822
vn -0.0000 0.9594 -0.2822
vn -0.2822 0.9594 -0.0000
vn -0.0000 -0.0000 -1.0000
vn -0.0000 0.6610 0.7503
vn -0.0000 -0.6286 0.7777
vn -0.7503 0.6610 -0.0000
vn -0.7777 -0.6286 -0.0000
vn -0.5547 -0.0000 -0.8320
vn -0.0000 -0.9594 0.2822
vn -0.0000 -0.9594 -0.2822
vn -0.2822 -0.9594 -0.0000
vn -0.0000 -0.6610 0.7503
vn -0.0000 0.6286 0.7777
vn -0.7503 -0.6610 -0.0000
vn -0.7777 0.6286 -0.0000
vn 0.4942 0.6229 -0.6064
vn 0.7700 0.3190 -0.5525
vn 0.6861 0.2842 -0.6697
vn 0.3864 0.6950 -0.6064
vn -0.0000 0.7426 -0.6698
vn -0.0000 0.8335 -0.5525
vn -0.3864 0.6950 -0.6064
vn -0.4942 0.6229 -0.6064
vn -0.6860 0.2842 -0.6698
vn -0.7701 0.3190 -0.5525
vn -0.7899 -0.0910 -0.6064
vn -0.7646 -0.2182 -0.6064
vn -0.6045 -0.4732 -0.6408
vn -0.5894 -0.5894 -0.5525
vn -0.2988 -0.7672 -0.5676
vn -0.0000 -0.8086 -0.5884
vn 0.2988 -0.7669 -0.5680
vn 0.6041 -0.4731 -0.6413
vn 0.5894 -0.5894 -0.5525
vn 0.7646 -0.2182 -0.6064
vn 0.7899 -0.0910 -0.6064
vn 0.9239 -0.0649 0.3772
vn 0.9141 0.3786 0.1452
vn 0.4235 0.1754 0.8887
vn 0.6074 0.6992 0.3772
vn -0.0000 0.4584 0.8887
vn -0.0000 0.0070 1.0000
vn 0.4135 0.8287 0.3772
vn -0.0000 0.9894 0.1452
vn -0.4135 0.8287 0.3772
vn -0.4235 0.1754 0.8887
vn -0.6074 0.6992 0.3772
vn -0.9141 0.3786 0.1452
vn -0.9239 -0.0649 0.3772
vn -0.3730 -0.2871 0.8823
vn -0.8784 -0.2936 0.3772
vn -0.6996 -0.6996 0.1452
vn -0.3548 -0.8959 0.2674
vn -0.0000 -0.5494 0.8356
vn -0.0000 -0.9505 0.3108
vn 0.3730 -0.2871 0.8823
vn 0.3548 -0.8959 0.2675
vn 0.6996 -0.6996 0.1452
vn 0.8784 -0.2936 0.3772
vn 0.9239 0.3827 -0.0000
vn 0.7071 0.7071 -0.0000
vn 0.3827 0.9239 -0.0000
vn -0.3827 0.9239 -0.0000
vn -0.7071 0.7071 -0.0000
vn -0.9239 0.3827 -0.0000
vn -0.9239 -0.3827 -0.0000
vn -0.7071 -0.7071 -0.0000
vn -0.3827 -0.9239 -0.0000
vn 0.3827 -0.9239 -0.0000
vn 0.7071 -0.7071 -0.0000
vn 0.9239 -0.3827 -0.0000
vn -0.0000 0.7426 -0.6697
vn -0.7700 0.3190 -0.5525
vn -0.6045 -0.4732 -0.6409
vn 0.9141 0.3787 0.1452
vn -0.0000 0.9894 0.1451
vn -0.3548 -0.8959 0.2675
vn -0.0000 -0.9505 0.3107
vn 0.7701 0.3190 -0.5525
vn 0.6860 0.2842 -0.6698
vn -0.2989 -0.7672 -0.5675
vn 0.3548 -0.8959 0.2674
vn -0.9141 0.3787 0.1452
vn -0.6861 0.2842 -0.6697
vn -0.6996 -0.6997 0.1452
vn 0.3730 -0.2872 0.8823
vn 0.8606 -0.5093 -0.0000
vn -0.0000 -0.5093 0.8606
vn -0.9340 0.3572 -0.0000
vn -0.0000 0.3572 -0.9340
vn -0.7376 -0.6752 -0.0000
vn -0.0000 -0.6702 -0.7422
vn -0.0000 0.6702 -0.7422
vn -0.7376 0.6752 -0.0000
vn -0.8606 -0.5093 -0.0000
vn 0.9340 0.3572 -0.0000
vn -0.0000 -0.6752 -0.7376
vn 0.7422 -0.6702 -0.0000
vn 0.7422 0.6702 -0.0000
vn -0.0000 0.6752 -0.7376
vn -0.0000 -0.5093 -0.8606
vn -0.0000 0.3572 0.9340
vn 0.7376 -0.6752 -0.0000
vn -0.0000 -0.6702 0.7422
vn -0.0000 0.6702 0.7422
vn 0.7376 0.6752 -0.0000
vn -0.0000 -0.6752 0.7376
vn -0.7422 -0.6702 -0.0000
vn -0.7422 0.6702 -0.0000
vn -0.0000 0.6752 0.7376
vt 0.861119 0.448393
vt 0.861119 0.242098
vt 0.917908 0.242098
vt 0.917908 0.448394
vt 0.856369 0.453143
vt 0.851327 0.453143
vt 0.851328 0.237348
vt 0.856369 0.237348
vt 0.856369 0.232307
vt 0.922657 0.232306
vt 0.922657 0.237348
vt 0.927699 0.237348
vt 0.927698 0.453144
vt 0.922658 0.453143
vt 0.922658 0.458185
vt 0.856369 0.458185
vt 0.861173 0.677894
vt 0.861173 0.471599
vt 0.917961 0.471599
vt 0.917961 0.677894
vt 0.856423 0.682644
vt 0.851381 0.682644
vt 0.851381 0.466849
vt 0.856423 0.466849
vt 0.856423 0.461807
vt 0.922711 0.461807
vt 0.922711 0.466849
vt 0.927752 0.466849
vt 0.927752 0.682644
vt 0.922711 0.682644
vt 0.922711 0.687686
vt 0.856423 0.687686
vt 0.777229 0.815931
vt 0.777229 0.676996
vt 0.834018 0.676996
vt 0.834018 0.815931
vt 0.772480 0.820681
vt 0.767438 0.820681
vt 0.767438 0.672246
vt 0.772480 0.672246
vt 0.772480 0.667205
vt 0.838767 0.667205
vt 0.838767 0.672246
vt 0.843809 0.672246
vt 0.843809 0.820681
vt 0.838767 0.820681
vt 0.838768 0.825723
vt 0.772480 0.825723
vt 0.692436 0.816035
vt 0.692437 0.677099
vt 0.749225 0.677099
vt 0.749225 0.816035
vt 0.687687 0.820785
vt 0.682645 0.820785
vt 0.682645 0.672349
vt 0.687686 0.672349
vt 0.687686 0.667308
vt 0.753974 0.667308
vt 0.753974 0.672349
vt 0.759016 0.672350
vt 0.759016 0.820785
vt 0.753975 0.820785
vt 0.753974 0.825826
vt 0.687687 0.825826
vt 0.693727 0.654406
vt 0.693727 0.515471
vt 0.750515 0.515471
vt 0.750515 0.654406
vt 0.688978 0.659157
vt 0.683936 0.659157
vt 0.683936 0.510721
vt 0.688978 0.510721
vt 0.688978 0.505680
vt 0.755265 0.505680
vt 0.755265 0.510721
vt 0.760307 0.510721
vt 0.760307 0.659156
vt 0.755265 0.659157
vt 0.755265 0.664198
vt 0.688978 0.664198
vt 0.780103 0.653979
vt 0.780103 0.515044
vt 0.836891 0.515044
vt 0.836891 0.653979
vt 0.775353 0.658729
vt 0.770312 0.658729
vt 0.770312 0.510294
vt 0.775353 0.510294
vt 0.775353 0.505252
vt 0.841641 0.505252
vt 0.841641 0.510294
vt 0.846683 0.510294
vt 0.846683 0.658729
vt 0.841641 0.658729
vt 0.841641 0.663770
vt 0.775353 0.663770
vt 0.777651 0.490070
vt 0.777651 0.242969
vt 0.837465 0.242969
vt 0.837465 0.490070
vt 0.772901 0.494820
vt 0.767860 0.494820
vt 0.767860 0.238219
vt 0.772901 0.238219
vt 0.772901 0.233178
vt 0.842215 0.233178
vt 0.842215 0.238219
vt 0.847256 0.238219
vt 0.847256 0.494820
vt 0.842215 0.494820
vt 0.842215 0.499861
vt 0.772901 0.499861
vt 0.691996 0.491141
vt 0.691996 0.242929
vt 0.751810 0.242929
vt 0.751810 0.491141
vt 0.687246 0.495891
vt 0.682205 0.495891
vt 0.682204 0.238179
vt 0.687246 0.238179
vt 0.687246 0.233138
vt 0.756560 0.233138
vt 0.756560 0.238179
vt 0.761602 0.238179
vt 0.761602 0.495891
vt 0.756560 0.495891
vt 0.756560 0.500932
vt 0.687246 0.500932
vt 0.730023 0.195867
vt 0.930216 0.195864
vt 0.936296 0.201943
vt 0.723943 0.201946
vt 0.726806 0.206820
vt 0.940587 0.206810
vt 0.940588 0.211290
vt 0.726806 0.211303
vt 0.936297 0.216599
vt 0.723945 0.216613
vt 0.016309 0.489669
vt 0.016315 0.504330
vt 0.013453 0.499461
vt 0.013450 0.494980
vt 0.730018 0.006404
vt 0.930212 0.006399
vt 0.506524 0.235478
vt 0.500448 0.241557
vt 0.500446 0.029206
vt 0.506528 0.035285
vt 0.495581 0.238697
vt 0.491100 0.238697
vt 0.491091 0.024915
vt 0.495573 0.024915
vt 0.485784 0.029207
vt 0.485792 0.241558
vt 0.488650 0.246870
vt 0.488644 0.251352
vt 0.485781 0.256219
vt 0.468955 0.925358
vt 0.013928 0.925358
vt 0.013928 0.713007
vt 0.468955 0.713007
vt 0.468966 0.294262
vt 0.026096 0.294262
vt 0.020017 0.288183
vt 0.475044 0.288183
vt 0.471343 0.504330
vt 0.465263 0.510410
vt 0.022394 0.510409
vt 0.515651 0.028745
vt 0.509572 0.022668
vt 0.721923 0.022663
vt 0.715844 0.028744
vt 0.479336 0.283890
vt 0.015725 0.283892
vt 0.015725 0.279412
vt 0.479336 0.279408
vt 0.471337 0.489669
vt 0.512432 0.017797
vt 0.512432 0.013312
vt 0.726214 0.013314
vt 0.726214 0.017792
vt 0.020017 0.275120
vt 0.475044 0.275118
vt 0.721923 0.008006
vt 0.509572 0.008002
vt 0.474199 0.494975
vt 0.474203 0.499457
vt 0.715845 0.218208
vt 0.515651 0.218208
vt 0.465263 0.699873
vt 0.022394 0.699872
vt 0.468965 0.483726
vt 0.026096 0.483726
vt 0.030767 0.241555
vt 0.030759 0.029203
vt 0.485787 0.016142
vt 0.030759 0.016139
vt 0.036838 0.010061
vt 0.479708 0.010062
vt 0.479706 0.262298
vt 0.036837 0.262296
vt 0.030749 0.256217
vt 0.010019 0.235475
vt 0.010016 0.035282
vt 0.016096 0.029203
vt 0.016098 0.241555
vt 0.490078 0.024916
vt 0.026468 0.024912
vt 0.026468 0.020430
vt 0.490078 0.020434
vt 0.020968 0.238694
vt 0.020967 0.024912
vt 0.025450 0.024912
vt 0.025448 0.238694
vt 0.027891 0.251338
vt 0.027902 0.246857
vt 0.967658 0.006886
vt 0.982797 0.006886
vt 0.982798 0.293364
vt 0.967658 0.293364
vt 0.944949 0.293364
vt 0.944948 0.006886
vt 0.952518 0.006886
vt 0.952519 0.293364
vt 0.990367 0.006886
vt 0.990367 0.293364
vt 0.966490 0.587113
vt 0.951351 0.587113
vt 0.951351 0.300636
vt 0.966490 0.300636
vt 0.989200 0.300636
vt 0.989200 0.587113
vt 0.981630 0.587113
vt 0.981630 0.300636
vt 0.943781 0.587113
vt 0.943781 0.300636
vt 0.965529 0.599507
vt 0.980668 0.599507
vt 0.980668 0.885984
vt 0.965529 0.885984
vt 0.942820 0.885984
vt 0.942819 0.599507
vt 0.950389 0.599507
vt 0.950389 0.885984
vt 0.988238 0.599507
vt 0.988238 0.885984
vt 0.911902 0.697925
vt 0.927041 0.697925
vt 0.927041 0.984402
vt 0.911902 0.984402
vt 0.889193 0.984402
vt 0.889193 0.697925
vt 0.896762 0.697925
vt 0.896762 0.984402
vt 0.934611 0.697925
vt 0.934611 0.984402
vt 0.541714 0.663397
vt 0.546860 0.657558
vt 0.560874 0.665610
vt 0.530203 0.671306
vt 0.522674 0.689458
vt 0.522451 0.673698
vt 0.515087 0.671177
vt 0.503374 0.663568
vt 0.484295 0.665723
vt 0.498197 0.657323
vt 0.497772 0.649578
vt 0.499947 0.636723
vt 0.491134 0.619895
vt 0.503718 0.629575
vt 0.512523 0.624277
vt 0.522577 0.621788
vt 0.522467 0.605383
vt 0.532610 0.624283
vt 0.554016 0.619810
vt 0.541664 0.629529
vt 0.544848 0.636797
vt 0.547721 0.649469
vt 0.541233 0.647161
vt 0.537902 0.653707
vt 0.537859 0.653335
vt 0.535701 0.660819
vt 0.522511 0.663841
vt 0.522578 0.645463
vt 0.530147 0.664864
vt 0.522517 0.663870
vt 0.515191 0.664674
vt 0.507380 0.653249
vt 0.509304 0.661051
vt 0.507303 0.653622
vt 0.503762 0.647169
vt 0.511331 0.636021
vt 0.504947 0.639463
vt 0.510816 0.634072
vt 0.514942 0.627748
vt 0.522578 0.631409
vt 0.522578 0.628221
vt 0.533815 0.636005
vt 0.530217 0.627749
vt 0.534337 0.634073
vt 0.540347 0.639438
vt 0.639034 0.662461
vt 0.644180 0.656623
vt 0.658194 0.664674
vt 0.627523 0.670370
vt 0.619994 0.688522
vt 0.619771 0.672763
vt 0.612407 0.670241
vt 0.600694 0.662633
vt 0.581616 0.664787
vt 0.595518 0.656387
vt 0.595092 0.648642
vt 0.597268 0.635787
vt 0.588454 0.618959
vt 0.601039 0.628640
vt 0.609843 0.623341
vt 0.619898 0.620852
vt 0.619787 0.604447
vt 0.629930 0.623347
vt 0.651336 0.618874
vt 0.638984 0.628593
vt 0.642168 0.635861
vt 0.645041 0.648533
vt 0.638553 0.646225
vt 0.635222 0.652772
vt 0.635179 0.652399
vt 0.633021 0.659883
vt 0.619831 0.662905
vt 0.619898 0.644527
vt 0.627468 0.663929
vt 0.619837 0.662934
vt 0.612512 0.663738
vt 0.604700 0.652313
vt 0.606625 0.660115
vt 0.604623 0.652687
vt 0.601082 0.646233
vt 0.608652 0.635085
vt 0.602267 0.638528
vt 0.608136 0.633136
vt 0.612262 0.626812
vt 0.619898 0.630473
vt 0.619898 0.627285
vt 0.631135 0.635069
vt 0.627538 0.626813
vt 0.631657 0.633137
vt 0.637668 0.638503
vt 0.537971 0.756974
vt 0.543117 0.751136
vt 0.557131 0.759187
vt 0.526460 0.764883
vt 0.518930 0.783035
vt 0.518708 0.767276
vt 0.511343 0.764754
vt 0.499631 0.757146
vt 0.480552 0.759300
vt 0.494454 0.750900
vt 0.494029 0.743155
vt 0.496204 0.730300
vt 0.487391 0.713472
vt 0.499975 0.723153
vt 0.508780 0.717854
vt 0.518834 0.715365
vt 0.518724 0.698960
vt 0.528867 0.717860
vt 0.550273 0.713387
vt 0.537921 0.723106
vt 0.541105 0.730374
vt 0.543978 0.743046
vt 0.537490 0.740738
vt 0.534159 0.747284
vt 0.534116 0.746912
vt 0.531958 0.754396
vt 0.518768 0.757418
vt 0.518834 0.739040
vt 0.526404 0.758441
vt 0.518774 0.757447
vt 0.511448 0.758251
vt 0.503636 0.746826
vt 0.505561 0.754628
vt 0.503560 0.747199
vt 0.500019 0.740746
vt 0.507588 0.729598
vt 0.501204 0.733041
vt 0.507073 0.727649
vt 0.511199 0.721325
vt 0.518835 0.724986
vt 0.518834 0.721798
vt 0.530071 0.729582
vt 0.526474 0.721326
vt 0.530594 0.727650
vt 0.536604 0.733015
vt 0.631548 0.752295
vt 0.636694 0.746457
vt 0.650708 0.754508
vt 0.620037 0.760204
vt 0.612508 0.778356
vt 0.612285 0.762597
vt 0.604921 0.760075
vt 0.593208 0.752467
vt 0.574129 0.754621
vt 0.588031 0.746221
vt 0.587606 0.738476
vt 0.589782 0.725621
vt 0.580968 0.708793
vt 0.593552 0.718474
vt 0.602357 0.713175
vt 0.612411 0.710686
vt 0.612301 0.694281
vt 0.622444 0.713181
vt 0.643850 0.708708
vt 0.631498 0.718427
vt 0.634682 0.725695
vt 0.637555 0.738367
vt 0.631067 0.736059
vt 0.627736 0.742606
vt 0.627693 0.742233
vt 0.625535 0.749717
vt 0.612345 0.752739
vt 0.612412 0.734361
vt 0.619981 0.753763
vt 0.612351 0.752768
vt 0.605025 0.753572
vt 0.597214 0.742147
vt 0.599138 0.749949
vt 0.597137 0.742521
vt 0.593596 0.736067
vt 0.601165 0.724919
vt 0.594781 0.728362
vt 0.600650 0.722970
vt 0.604776 0.716646
vt 0.612412 0.720307
vt 0.612412 0.717119
vt 0.623649 0.724903
vt 0.620052 0.716647
vt 0.624171 0.722971
vt 0.630181 0.728337
vt 0.533292 0.848679
vt 0.538438 0.842841
vt 0.552452 0.850892
vt 0.521781 0.856589
vt 0.514252 0.874741
vt 0.514029 0.858981
vt 0.506665 0.856460
vt 0.494952 0.848851
vt 0.475873 0.851005
vt 0.489775 0.842606
vt 0.489350 0.834860
vt 0.491526 0.822006
vt 0.482712 0.805177
vt 0.495296 0.814858
vt 0.504101 0.809560
vt 0.514155 0.807070
vt 0.514045 0.790665
vt 0.524188 0.809565
vt 0.545594 0.805092
vt 0.533242 0.814812
vt 0.536426 0.822079
vt 0.539299 0.834752
vt 0.532811 0.832444
vt 0.529480 0.838990
vt 0.529437 0.838618
vt 0.527279 0.846101
vt 0.514089 0.849124
vt 0.514156 0.830745
vt 0.521725 0.850147
vt 0.514095 0.849152
vt 0.506770 0.849956
vt 0.498958 0.838531
vt 0.500882 0.846333
vt 0.498881 0.838905
vt 0.495340 0.832452
vt 0.502909 0.821303
vt 0.496525 0.824746
vt 0.502394 0.819354
vt 0.506520 0.813030
vt 0.514156 0.816691
vt 0.514156 0.813504
vt 0.525393 0.821287
vt 0.521796 0.813031
vt 0.525915 0.819356
vt 0.531925 0.824721
vt 0.635291 0.842129
vt 0.640437 0.836291
vt 0.654451 0.844342
vt 0.623780 0.850038
vt 0.616251 0.868190
vt 0.616028 0.852431
vt 0.608664 0.849909
vt 0.596951 0.842301
vt 0.577872 0.844455
vt 0.591775 0.836055
vt 0.591349 0.828310
vt 0.593525 0.815455
vt 0.584711 0.798627
vt 0.597296 0.808308
vt 0.606100 0.803009
vt 0.616154 0.800520
vt 0.616044 0.784115
vt 0.626187 0.803015
vt 0.647593 0.798542
vt 0.635241 0.808261
vt 0.638425 0.815529
vt 0.641298 0.828201
vt 0.634810 0.825893
vt 0.631479 0.832440
vt 0.631436 0.832067
vt 0.629278 0.839551
vt 0.616088 0.842573
vt 0.616155 0.824195
vt 0.623724 0.843597
vt 0.616094 0.842602
vt 0.608769 0.843406
vt 0.600957 0.831981
vt 0.602881 0.839783
vt 0.600880 0.832355
vt 0.597339 0.825901
vt 0.604909 0.814753
vt 0.598524 0.818196
vt 0.604393 0.812804
vt 0.608519 0.806480
vt 0.616155 0.810141
vt 0.616155 0.806953
vt 0.627392 0.814737
vt 0.623795 0.806481
vt 0.627914 0.812805
vt 0.633924 0.818171
vt 0.846775 0.894532
vt 0.851921 0.888694
vt 0.865935 0.896745
vt 0.835264 0.902441
vt 0.827735 0.920593
vt 0.827512 0.904834
vt 0.820148 0.902313
vt 0.808436 0.894704
vt 0.789357 0.896858
vt 0.803259 0.888459
vt 0.802834 0.880713
vt 0.805009 0.867859
vt 0.796195 0.851030
vt 0.808780 0.860711
vt 0.817584 0.855412
vt 0.827639 0.852923
vt 0.827528 0.836518
vt 0.837671 0.855418
vt 0.859077 0.850945
vt 0.846725 0.860664
vt 0.849909 0.867932
vt 0.852782 0.880605
vt 0.846294 0.878296
vt 0.842963 0.884843
vt 0.842920 0.884470
vt 0.840762 0.891954
vt 0.827572 0.894976
vt 0.827639 0.876598
vt 0.835209 0.896000
vt 0.827578 0.895005
vt 0.820253 0.895809
vt 0.812441 0.884384
vt 0.814366 0.892186
vt 0.812365 0.884758
vt 0.808823 0.878305
vt 0.816393 0.867156
vt 0.810009 0.870599
vt 0.815877 0.865207
vt 0.820003 0.858883
vt 0.827639 0.862544
vt 0.827639 0.859356
vt 0.838876 0.867140
vt 0.835279 0.858884
vt 0.839398 0.865209
vt 0.845409 0.870574
vt 0.756941 0.900147
vt 0.762087 0.894308
vt 0.776101 0.902360
vt 0.745430 0.908056
vt 0.737901 0.926208
vt 0.737678 0.910448
vt 0.730314 0.907927
vt 0.718602 0.900319
vt 0.699523 0.902473
vt 0.713425 0.894073
vt 0.713000 0.886328
vt 0.715175 0.873473
vt 0.706361 0.856645
vt 0.718946 0.866325
vt 0.727750 0.861027
vt 0.737805 0.858538
vt 0.737694 0.842133
vt 0.747837 0.861033
vt 0.769243 0.856560
vt 0.756891 0.866279
vt 0.760075 0.873547
vt 0.762948 0.886219
vt 0.756460 0.883911
vt 0.753129 0.890457
vt 0.753086 0.890085
vt 0.750929 0.897569
vt 0.737738 0.900591
vt 0.737805 0.882213
vt 0.745375 0.901614
vt 0.737744 0.900620
vt 0.730419 0.901424
vt 0.722607 0.889999
vt 0.724532 0.897801
vt 0.722531 0.890372
vt 0.718989 0.883919
vt 0.726559 0.872771
vt 0.720175 0.876213
vt 0.726043 0.870822
vt 0.730169 0.864498
vt 0.737805 0.868159
vt 0.737805 0.864971
vt 0.749042 0.872755
vt 0.745445 0.864499
vt 0.749564 0.870823
vt 0.755575 0.876188
vt 0.549104 0.240123
vt 0.549104 0.248068
vt 0.503582 0.248068
vt 0.511526 0.240123
vt 0.511741 0.486116
vt 0.503797 0.472691
vt 0.549318 0.472691
vt 0.549319 0.486116
vt 0.602953 0.348540
vt 0.553344 0.348541
vt 0.548209 0.335115
vt 0.602953 0.335115
vt 0.558035 0.468844
vt 0.607643 0.468844
vt 0.607643 0.482270
vt 0.552900 0.482270
vt 0.610487 0.483582
vt 0.610487 0.471551
vt 0.660095 0.471551
vt 0.660095 0.483582
vt 0.660308 0.242679
vt 0.660308 0.254710
vt 0.610699 0.254709
vt 0.610699 0.242678
vt 0.494360 0.257290
vt 0.549104 0.257290
vt 0.673733 0.237544
vt 0.673733 0.246766
vt 0.673521 0.479495
vt 0.673521 0.488717
vt 0.549319 0.463469
vt 0.494575 0.463469
vt 0.549838 0.357272
vt 0.549838 0.352095
vt 0.652561 0.352095
vt 0.652561 0.357271
vt 0.657252 0.464961
vt 0.554480 0.464961
vt 0.554480 0.459785
vt 0.657252 0.459785
vt 0.614465 0.489999
vt 0.614465 0.495176
vt 0.598927 0.499059
vt 0.598927 0.486116
vt 0.511741 0.499059
vt 0.511526 0.227181
vt 0.598712 0.227181
vt 0.598712 0.240123
vt 0.614298 0.231064
vt 0.614298 0.236241
vt 0.657252 0.468844
vt 0.652561 0.348540
vt 0.610958 0.486116
vt 0.610744 0.240124
vt 0.558035 0.455901
vt 0.657252 0.455901
vt 0.610958 0.499059
vt 0.610744 0.227181
vt 0.652561 0.361154
vt 0.553344 0.361155
vt 0.546171 0.332620
vt 0.546171 0.340564
vt 0.500650 0.340564
vt 0.508594 0.332620
vt 0.506919 0.392609
vt 0.498974 0.379184
vt 0.544496 0.379184
vt 0.544496 0.392609
vt 0.607410 0.256230
vt 0.557801 0.256230
vt 0.552666 0.242805
vt 0.607410 0.242805
vt 0.557636 0.283577
vt 0.607245 0.283577
vt 0.607245 0.297002
vt 0.552501 0.297002
vt 0.609961 0.574976
vt 0.609961 0.562945
vt 0.659570 0.562945
vt 0.659570 0.574976
vt 0.653511 0.335133
vt 0.653511 0.347164
vt 0.603902 0.347163
vt 0.603902 0.335132
vt 0.491428 0.349786
vt 0.546171 0.349786
vt 0.666937 0.329998
vt 0.666937 0.339220
vt 0.672995 0.570889
vt 0.672995 0.580111
vt 0.544496 0.369962
vt 0.489752 0.369962
vt 0.554295 0.264962
vt 0.554295 0.259785
vt 0.657019 0.259785
vt 0.657019 0.264961
vt 0.656853 0.279694
vt 0.554081 0.279694
vt 0.554082 0.274517
vt 0.656853 0.274517
vt 0.609643 0.396492
vt 0.609643 0.401669
vt 0.594105 0.405552
vt 0.594105 0.392609
vt 0.506918 0.405552
vt 0.508594 0.319677
vt 0.595780 0.319677
vt 0.595780 0.332620
vt 0.611366 0.323560
vt 0.611366 0.328737
vt 0.656853 0.283577
vt 0.657019 0.256230
vt 0.606136 0.392609
vt 0.607811 0.332620
vt 0.557636 0.270634
vt 0.656853 0.270634
vt 0.606136 0.405552
vt 0.607812 0.319677
vt 0.657019 0.268844
vt 0.557801 0.268845
vt 0.550918 0.426255
vt 0.550918 0.434200
vt 0.505396 0.434200
vt 0.513341 0.426255
vt 0.512947 0.299489
vt 0.505002 0.286064
vt 0.550524 0.286064
vt 0.550524 0.299489
vt 0.606749 0.534049
vt 0.557141 0.534049
vt 0.552006 0.520623
vt 0.606749 0.520623
vt 0.553524 0.375673
vt 0.603133 0.375673
vt 0.603133 0.389098
vt 0.548389 0.389098
vt 0.606459 0.390683
vt 0.606459 0.378651
vt 0.656067 0.378651
vt 0.656067 0.390683
vt 0.658687 0.428489
vt 0.658687 0.440520
vt 0.609079 0.440519
vt 0.609079 0.428488
vt 0.496174 0.443421
vt 0.550918 0.443422
vt 0.672113 0.423354
vt 0.672113 0.432576
vt 0.669493 0.386596
vt 0.669493 0.395818
vt 0.550524 0.276842
vt 0.495781 0.276842
vt 0.553634 0.542780
vt 0.553634 0.537603
vt 0.656358 0.537603
vt 0.656358 0.542779
vt 0.652742 0.371790
vt 0.549970 0.371789
vt 0.549970 0.366613
vt 0.652742 0.366613
vt 0.615671 0.303372
vt 0.615671 0.308549
vt 0.600133 0.312432
vt 0.600133 0.299489
vt 0.512947 0.312432
vt 0.513341 0.413312
vt 0.600527 0.413312
vt 0.600527 0.426255
vt 0.616113 0.417196
vt 0.616113 0.422373
vt 0.652742 0.375673
vt 0.656358 0.534048
vt 0.612164 0.299489
vt 0.612558 0.426256
vt 0.553524 0.362730
vt 0.652742 0.362730
vt 0.612164 0.312432
vt 0.612558 0.413313
vt 0.656358 0.546663
vt 0.557141 0.546663
vt 0.549562 0.519265
vt 0.549562 0.527210
vt 0.504040 0.527209
vt 0.511985 0.519265
vt 0.512344 0.577262
vt 0.504399 0.563836
vt 0.549921 0.563836
vt 0.549921 0.577262
vt 0.607556 0.441844
vt 0.557947 0.441844
vt 0.552812 0.428419
vt 0.607556 0.428419
vt 0.557458 0.560359
vt 0.607067 0.560359
vt 0.607067 0.573784
vt 0.552323 0.573784
vt 0.609589 0.297533
vt 0.609589 0.285502
vt 0.659198 0.285502
vt 0.659198 0.297533
vt 0.657283 0.520533
vt 0.657283 0.532564
vt 0.607674 0.532563
vt 0.607675 0.520532
vt 0.494818 0.536431
vt 0.549562 0.536431
vt 0.670709 0.515398
vt 0.670709 0.524620
vt 0.672624 0.293446
vt 0.672624 0.302668
vt 0.549921 0.554614
vt 0.495178 0.554614
vt 0.554440 0.450575
vt 0.554440 0.445399
vt 0.657164 0.445399
vt 0.657164 0.450575
vt 0.656675 0.556476
vt 0.553904 0.556476
vt 0.553904 0.551299
vt 0.656675 0.551299
vt 0.615068 0.581145
vt 0.615068 0.586321
vt 0.599530 0.590204
vt 0.599530 0.577262
vt 0.512344 0.590204
vt 0.511985 0.506322
vt 0.599171 0.506322
vt 0.599170 0.519265
vt 0.614757 0.510206
vt 0.614756 0.515382
vt 0.656675 0.560359
vt 0.657164 0.441844
vt 0.611561 0.577262
vt 0.611202 0.519265
vt 0.557458 0.547416
vt 0.656676 0.547416
vt 0.611561 0.590204
vt 0.611202 0.506322
vt 0.657164 0.454458
vt 0.557947 0.454459
s 1
usemtl blinn2SG
f 9/1/1 10/2/1 11/3/1 12/4/1
f 5/5/2 1/6/2 2/7/2 6/8/2
f 6/8/3 2/9/3 4/10/3 7/11/3
f 4/12/4 3/13/4 8/14/4 7/11/4
f 3/15/5 1/16/5 5/5/5 8/14/5
f 7/11/6 8/14/7 12/4/7 11/3/6
f 12/4/7 8/14/7 5/5/8 9/1/8
f 10/2/9 9/1/8 5/5/8 6/8/9
f 7/11/6 11/3/6 10/2/9 6/8/9
f 21/17/1 22/18/1 23/19/1 24/20/1
f 17/21/2 13/22/2 14/23/2 18/24/2
f 18/24/3 14/25/3 16/26/3 19/27/3
f 16/28/4 15/29/4 20/30/4 19/27/4
f 15/31/5 13/32/5 17/21/5 20/30/5
f 19/27/6 20/30/7 24/20/7 23/19/6
f 24/20/7 20/30/7 17/21/8 21/17/8
f 22/18/9 21/17/8 17/21/8 18/24/9
f 19/27/6 23/19/6 22/18/9 18/24/9
f 33/33/1 34/34/1 35/35/1 36/36/1
f 29/37/2 25/38/2 26/39/2 30/40/2
f 30/40/3 26/41/3 28/42/3 31/43/3
f 28/44/4 27/45/4 32/46/4 31/43/4
f 27/47/5 25/48/5 29/37/5 32/46/5
f 31/43/10 32/46/11 36/36/11 35/35/10
f 36/36/11 32/46/11 29/37/12 33/33/12
f 34/34/13 33/33/12 29/37/12 30/40/13
f 31/43/10 35/35/10 34/34/13 30/40/13
f 45/49/1 46/50/1 47/51/1 48/52/1
f 41/53/2 37/54/2 38/55/2 42/56/2
f 42/56/3 38/57/3 40/58/3 43/59/3
f 40/60/4 39/61/4 44/62/4 43/59/4
f 39/63/5 37/64/5 41/53/5 44/62/5
f 43/59/10 44/62/11 48/52/11 47/51/10
f 48/52/11 44/62/11 41/53/12 45/49/12
f 46/50/13 45/49/12 41/53/12 42/56/13
f 43/59/10 47/51/10 46/50/13 42/56/13
f 57/65/1 58/66/1 59/67/1 60/68/1
f 53/69/2 49/70/2 50/71/2 54/72/2
f 54/72/3 50/73/3 52/74/3 55/75/3
f 52/76/4 51/77/4 56/78/4 55/75/4
f 51/79/5 49/80/5 53/69/5 56/78/5
f 55/75/10 56/78/11 60/68/11 59/67/10
f 60/68/11 56/78/11 53/69/12 57/65/12
f 58/66/13 57/65/12 53/69/12 54/72/13
f 55/75/10 59/67/10 58/66/13 54/72/13
f 69/81/1 70/82/1 71/83/1 72/84/1
f 65/85/2 61/86/2 62/87/2 66/88/2
f 66/88/3 62/89/3 64/90/3 67/91/3
f 64/92/4 63/93/4 68/94/4 67/91/4
f 63/95/5 61/96/5 65/85/5 68/94/5
f 67/91/10 68/94/11 72/84/11 71/83/10
f 72/84/11 68/94/11 65/85/12 69/81/12
f 70/82/13 69/81/12 65/85/12 66/88/13
f 67/91/10 71/83/10 70/82/13 66/88/13
f 81/97/1 82/98/1 83/99/1 84/100/1
f 77/101/2 73/102/2 74/103/2 78/104/2
f 78/104/3 74/105/3 76/106/3 79/107/3
f 76/108/4 75/109/4 80/110/4 79/107/4
f 75/111/5 73/112/5 77/101/5 80/110/5
f 79/107/14 80/110/15 84/100/15 83/99/14
f 84/100/15 80/110/15 77/101/16 81/97/16
f 82/98/17 81/97/16 77/101/16 78/104/17
f 79/107/14 83/99/14 82/98/17 78/104/17
f 93/113/1 94/114/1 95/115/1 96/116/1
f 89/117/2 85/118/2 86/119/2 90/120/2
f 90/120/3 86/121/3 88/122/3 91/123/3
f 88/124/4 87/125/4 92/126/4 91/123/4
f 87/127/5 85/128/5 89/117/5 92/126/5
f 91/123/18 92/126/19 96/116/20 95/115/21
f 96/116/20 92/126/19 89/117/22 93/113/23
f 94/114/24 93/113/23 89/117/22 90/120/25
f 91/123/18 95/115/21 94/114/24 90/120/25
f 98/129/26 97/130/26 99/131/26 100/132/26
f 105/133/3 103/134/3 104/135/3 106/136/3
f 100/132/27 99/131/27 103/134/27 105/133/27
f 101/137/28 102/138/28 106/136/28 104/135/28
f 102/139/29 100/140/29 105/141/29 106/142/29
f 98/129/3 108/143/3 107/144/3 97/130/3
f 108/145/30 110/146/30 109/147/30 107/148/30
f 115/149/3 116/150/3 114/151/3 113/152/3
f 110/146/31 115/149/31 113/152/31 109/147/31
f 111/153/32 114/151/32 116/150/32 112/154/32
f 112/154/29 116/155/29 115/156/29 110/157/29
f 101/158/2 121/159/2 122/160/2 102/161/2
f 97/162/33 117/163/33 119/164/33 99/165/33
f 100/140/34 120/166/34 118/167/34 98/168/34
f 118/169/35 120/170/35 119/171/35 117/172/35
f 103/173/1 123/174/1 124/175/1 104/176/1
f 102/139/36 122/177/36 120/166/36 100/140/36
f 125/178/5 126/179/5 124/180/5 123/181/5
f 99/165/37 119/164/37 123/174/37 103/173/37
f 104/176/38 124/175/38 121/182/38 101/183/38
f 120/170/39 125/178/39 123/181/39 119/171/39
f 121/184/40 124/180/40 126/179/40 122/185/40
f 122/177/41 126/186/41 125/187/41 120/166/41
f 118/169/5 117/172/5 127/188/5 128/189/5
f 98/168/36 118/167/36 128/190/36 108/191/36
f 107/192/1 127/193/1 117/163/1 97/162/1
f 112/154/4 132/194/4 131/195/4 111/153/4
f 109/196/42 129/197/42 127/198/42 107/199/42
f 108/200/43 128/201/43 130/202/43 110/157/43
f 128/203/44 127/204/44 129/205/44 130/206/44
f 114/207/1 134/208/1 133/209/1 113/210/1
f 110/157/36 130/202/36 132/194/36 112/154/36
f 135/211/5 133/212/5 134/213/5 136/214/5
f 113/210/45 133/209/45 129/197/45 109/196/45
f 111/153/46 131/195/46 134/208/46 114/207/46
f 130/206/47 129/205/47 133/212/47 135/211/47
f 131/195/48 132/194/48 136/214/48 134/213/48
f 132/194/41 130/202/41 135/215/41 136/216/41
f 137/217/36 138/218/36 140/219/36 139/220/36
f 145/221/1 146/222/1 142/223/1 141/224/1
f 138/218/5 143/225/5 144/226/5 140/219/5
f 142/223/3 137/217/3 139/220/3 141/224/3
f 147/227/3 148/228/3 150/229/3 149/230/3
f 155/231/5 156/232/5 152/233/5 151/234/5
f 148/228/36 153/235/36 154/236/36 150/229/36
f 152/233/1 147/227/1 149/230/1 151/234/1
f 157/237/1 158/238/1 160/239/1 159/240/1
f 165/241/36 166/242/36 162/243/36 161/244/36
f 158/238/3 163/245/3 164/246/3 160/239/3
f 162/243/5 157/237/5 159/240/5 161/244/5
f 167/247/5 168/248/5 170/249/5 169/250/5
f 175/251/3 176/252/3 172/253/3 171/254/3
f 168/248/1 173/255/1 174/256/1 170/249/1
f 172/253/36 167/247/36 169/250/36 171/254/36
f 178/257/49 177/258/50 194/259/51
f 179/260/52 178/257/49 194/259/51 195/261/53
f 180/262/54 179/260/52 195/261/53
f 181/263/55 180/262/54 195/261/53
f 182/264/56 181/263/55 195/261/53 196/265/57
f 183/266/58 182/264/56 196/265/57
f 184/267/59 183/266/58 196/265/57
f 185/268/60 184/267/59 196/265/57 197/269/61
f 186/270/62 185/268/60 197/269/61
f 187/271/63 186/270/62 197/269/61
f 188/272/64 187/271/63 197/269/61 198/273/64
f 189/274/65 188/272/64 198/273/64 199/275/66
f 190/276/67 189/274/65 199/275/66
f 191/277/68 190/276/67 199/275/66
f 192/278/69 191/277/68 199/275/66 194/259/51
f 177/258/50 192/278/69 194/259/51
f 221/279/70 201/280/71 200/281/72
f 200/281/72 201/280/71 202/282/73
f 200/281/72 203/283/74 193/284/75
f 203/283/74 200/281/72 202/282/73 204/285/76
f 203/283/74 204/285/76 205/286/77
f 203/283/74 205/286/77 206/287/78
f 203/283/74 207/288/79 193/284/75
f 207/288/79 203/283/74 206/287/78 208/289/80
f 207/288/79 208/289/80 209/290/81
f 207/288/79 209/290/81 210/291/82
f 207/288/79 211/292/83 193/284/75
f 211/292/83 207/288/79 210/291/82 212/293/84
f 211/292/83 212/293/84 213/294/85
f 211/292/83 213/294/85 214/295/86
f 211/292/83 215/296/87 193/284/75
f 215/296/87 211/292/83 214/295/86 216/297/88
f 215/296/87 217/298/89 193/284/75
f 217/298/89 215/296/87 216/297/88 218/299/90
f 217/298/89 218/299/90 219/300/91
f 217/298/89 219/300/91 220/301/92
f 217/298/89 200/281/72 193/284/75
f 221/279/70 200/281/72 217/298/89 220/301/92
f 177/258/93 178/257/94 202/282/73 201/280/71
f 178/257/94 179/260/95 204/285/76 202/282/73
f 179/260/95 180/262/4 205/286/77 204/285/76
f 180/262/4 181/263/96 206/287/78 205/286/77
f 181/263/96 182/264/97 208/289/80 206/287/78
f 182/264/97 183/266/98 209/290/81 208/289/80
f 183/266/98 184/267/5 210/291/82 209/290/81
f 184/267/5 185/268/99 212/293/84 210/291/82
f 185/268/99 186/270/100 213/294/85 212/293/84
f 186/270/100 187/271/101 214/295/86 213/294/85
f 187/271/101 188/272/2 216/297/88 214/295/86
f 188/272/2 189/274/102 218/299/90 216/297/88
f 189/274/102 190/276/103 219/300/91 218/299/90
f 190/276/103 191/277/104 220/301/92 219/300/91
f 191/277/104 192/278/3 221/279/70 220/301/92
f 192/278/3 177/258/93 201/280/71 221/279/70
f 223/302/49 222/303/50 239/304/51
f 224/305/52 223/302/49 239/304/51 240/306/105
f 225/307/54 224/305/52 240/306/105
f 226/308/55 225/307/54 240/306/105
f 227/309/56 226/308/55 240/306/105 241/310/57
f 228/311/106 227/309/56 241/310/57
f 229/312/59 228/311/106 241/310/57
f 230/313/60 229/312/59 241/310/57 242/314/107
f 231/315/62 230/313/60 242/314/107
f 232/316/63 231/315/62 242/314/107
f 233/317/64 232/316/63 242/314/107 243/318/64
f 234/319/65 233/317/64 243/318/64 244/320/66
f 235/321/67 234/319/65 244/320/66
f 236/322/68 235/321/67 244/320/66
f 237/323/69 236/322/68 244/320/66 239/304/51
f 222/303/50 237/323/69 239/304/51
f 266/324/70 246/325/108 245/326/72
f 245/326/72 246/325/108 247/327/73
f 245/326/72 248/328/74 238/329/75
f 248/328/74 245/326/72 247/327/73 249/330/76
f 248/328/74 249/330/76 250/331/109
f 248/328/74 250/331/109 251/332/78
f 248/328/74 252/333/79 238/329/75
f 252/333/79 248/328/74 251/332/78 253/334/80
f 252/333/79 253/334/80 254/335/81
f 252/333/79 254/335/81 255/336/82
f 252/333/79 256/337/83 238/329/75
f 256/337/83 252/333/79 255/336/82 257/338/84
f 256/337/83 257/338/84 258/339/85
f 256/337/83 258/339/85 259/340/110
f 256/337/83 260/341/87 238/329/75
f 260/341/87 256/337/83 259/340/110 261/342/111
f 260/341/87 262/343/89 238/329/75
f 262/343/89 260/341/87 261/342/111 263/344/90
f 262/343/89 263/344/90 264/345/91
f 262/343/89 264/345/91 265/346/92
f 262/343/89 245/326/72 238/329/75
f 266/324/70 245/326/72 262/343/89 265/346/92
f 222/303/93 223/302/94 247/327/73 246/325/108
f 223/302/94 224/305/95 249/330/76 247/327/73
f 224/305/95 225/307/4 250/331/109 249/330/76
f 225/307/4 226/308/96 251/332/78 250/331/109
f 226/308/96 227/309/97 253/334/80 251/332/78
f 227/309/97 228/311/98 254/335/81 253/334/80
f 228/311/98 229/312/5 255/336/82 254/335/81
f 229/312/5 230/313/99 257/338/84 255/336/82
f 230/313/99 231/315/100 258/339/85 257/338/84
f 231/315/100 232/316/101 259/340/110 258/339/85
f 232/316/101 233/317/2 261/342/111 259/340/110
f 233/317/2 234/319/102 263/344/90 261/342/111
f 234/319/102 235/321/103 264/345/91 263/344/90
f 235/321/103 236/322/104 265/346/92 264/345/91
f 236/322/104 237/323/3 266/324/70 265/346/92
f 237/323/3 222/303/93 246/325/108 266/324/70
f 268/347/49 267/348/112 284/349/113
f 269/350/52 268/347/49 284/349/113 285/351/53
f 270/352/54 269/350/52 285/351/53
f 271/353/55 270/352/54 285/351/53
f 272/354/56 271/353/55 285/351/53 286/355/57
f 273/356/58 272/354/56 286/355/57
f 274/357/59 273/356/58 286/355/57
f 275/358/60 274/357/59 286/355/57 287/359/107
f 276/360/62 275/358/60 287/359/107
f 277/361/114 276/360/62 287/359/107
f 278/362/64 277/361/114 287/359/107 288/363/64
f 279/364/65 278/362/64 288/363/64 289/365/66
f 280/366/67 279/364/65 289/365/66
f 281/367/68 280/366/67 289/365/66
f 282/368/69 281/367/68 289/365/66 284/349/113
f 267/348/112 282/368/69 284/349/113
f 311/369/70 291/370/71 290/371/72
f 290/371/72 291/370/71 292/372/73
f 290/371/72 293/373/74 283/374/75
f 293/373/74 290/371/72 292/372/73 294/375/76
f 293/373/74 294/375/76 295/376/77
f 293/373/74 295/376/77 296/377/78
f 293/373/74 297/378/79 283/374/75
f 297/378/79 293/373/74 296/377/78 298/379/80
f 297/378/79 298/379/80 299/380/81
f 297/378/79 299/380/81 300/381/82
f 297/378/79 301/382/83 283/374/75
f 301/382/83 297/378/79 300/381/82 302/383/84
f 301/382/83 302/383/84 303/384/85
f 301/382/83 303/384/85 304/385/86
f 301/382/83 305/386/87 283/374/75
f 305/386/87 301/382/83 304/385/86 306/387/111
f 305/386/87 307/388/89 283/374/75
f 307/388/89 305/386/87 306/387/111 308/389/115
f 307/388/89 308/389/115 309/390/91
f 307/388/89 309/390/91 310/391/92
f 307/388/89 290/371/72 283/374/75
f 311/369/70 290/371/72 307/388/89 310/391/92
f 267/348/93 268/347/94 292/372/73 291/370/71
f 268/347/94 269/350/95 294/375/76 292/372/73
f 269/350/95 270/352/4 295/376/77 294/375/76
f 270/352/4 271/353/96 296/377/78 295/376/77
f 271/353/96 272/354/97 298/379/80 296/377/78
f 272/354/97 273/356/98 299/380/81 298/379/80
f 273/356/98 274/357/5 300/381/82 299/380/81
f 274/357/5 275/358/99 302/383/84 300/381/82
f 275/358/99 276/360/100 303/384/85 302/383/84
f 276/360/100 277/361/101 304/385/86 303/384/85
f 277/361/101 278/362/2 306/387/111 304/385/86
f 278/362/2 279/364/102 308/389/115 306/387/111
f 279/364/102 280/366/103 309/390/91 308/389/115
f 280/366/103 281/367/104 310/391/92 309/390/91
f 281/367/104 282/368/3 311/369/70 310/391/92
f 282/368/3 267/348/93 291/370/71 311/369/70
f 313/392/49 312/393/50 329/394/51
f 314/395/52 313/392/49 329/394/51 330/396/53
f 315/397/54 314/395/52 330/396/53
f 316/398/55 315/397/54 330/396/53
f 317/399/56 316/398/55 330/396/53 331/400/57
f 318/401/58 317/399/56 331/400/57
f 319/402/59 318/401/58 331/400/57
f 320/403/60 319/402/59 331/400/57 332/404/61
f 321/405/62 320/403/60 332/404/61
f 322/406/63 321/405/62 332/404/61
f 323/407/64 322/406/63 332/404/61 333/408/64
f 324/409/65 323/407/64 333/408/64 334/410/66
f 325/411/67 324/409/65 334/410/66
f 326/412/68 325/411/67 334/410/66
f 327/413/69 326/412/68 334/410/66 329/394/51
f 312/393/50 327/413/69 329/394/51
f 356/414/70 336/415/71 335/416/72
f 335/416/72 336/415/71 337/417/73
f 335/416/72 338/418/74 328/419/75
f 338/418/74 335/416/72 337/417/73 339/420/76
f 338/418/74 339/420/76 340/421/77
f 338/418/74 340/421/77 341/422/78
f 338/418/74 342/423/79 328/419/75
f 342/423/79 338/418/74 341/422/78 343/424/80
f 342/423/79 343/424/80 344/425/116
f 342/423/79 344/425/116 345/426/82
f 342/423/79 346/427/83 328/419/75
f 346/427/83 342/423/79 345/426/82 347/428/84
f 346/427/83 347/428/84 348/429/85
f 346/427/83 348/429/85 349/430/86
f 346/427/83 350/431/87 328/419/75
f 350/431/87 346/427/83 349/430/86 351/432/88
f 350/431/87 352/433/89 328/419/75
f 352/433/89 350/431/87 351/432/88 353/434/115
f 352/433/89 353/434/115 354/435/91
f 352/433/89 354/435/91 355/436/92
f 352/433/89 335/416/72 328/419/75
f 356/414/70 335/416/72 352/433/89 355/436/92
f 312/393/93 313/392/94 337/417/73 336/415/71
f 313/392/94 314/395/95 339/420/76 337/417/73
f 314/395/95 315/397/4 340/421/77 339/420/76
f 315/397/4 316/398/96 341/422/78 340/421/77
f 316/398/96 317/399/97 343/424/80 341/422/78
f 317/399/97 318/401/98 344/425/116 343/424/80
f 318/401/98 319/402/5 345/426/82 344/425/116
f 319/402/5 320/403/99 347/428/84 345/426/82
f 320/403/99 321/405/100 348/429/85 347/428/84
f 321/405/100 322/406/101 349/430/86 348/429/85
f 322/406/101 323/407/2 351/432/88 349/430/86
f 323/407/2 324/409/102 353/434/115 351/432/88
f 324/409/102 325/411/103 354/435/91 353/434/115
f 325/411/103 326/412/104 355/436/92 354/435/91
f 326/412/104 327/413/3 356/414/70 355/436/92
f 327/413/3 312/393/93 336/415/71 356/414/70
f 358/437/49 357/438/50 374/439/113
f 359/440/52 358/437/49 374/439/113 375/441/53
f 360/442/54 359/440/52 375/441/53
f 361/443/55 360/442/54 375/441/53
f 362/444/56 361/443/55 375/441/53 376/445/117
f 363/446/106 362/444/56 376/445/117
f 364/447/59 363/446/106 376/445/117
f 365/448/60 364/447/59 376/445/117 377/449/107
f 366/450/62 365/448/60 377/449/107
f 367/451/63 366/450/62 377/449/107
f 368/452/64 367/451/63 377/449/107 378/453/64
f 369/454/65 368/452/64 378/453/64 379/455/66
f 370/456/67 369/454/65 379/455/66
f 371/457/68 370/456/67 379/455/66
f 372/458/69 371/457/68 379/455/66 374/439/113
f 357/438/50 372/458/69 374/439/113
f 401/459/70 381/460/71 380/461/72
f 380/461/72 381/460/71 382/462/73
f 380/461/72 383/463/74 373/464/75
f 383/463/74 380/461/72 382/462/73 384/465/76
f 383/463/74 384/465/76 385/466/109
f 383/463/74 385/466/109 386/467/78
f 383/463/74 387/468/79 373/464/75
f 387/468/79 383/463/74 386/467/78 388/469/80
f 387/468/79 388/469/80 389/470/81
f 387/468/79 389/470/81 390/471/82
f 387/468/79 391/472/83 373/464/75
f 391/472/83 387/468/79 390/471/82 392/473/84
f 391/472/83 392/473/84 393/474/118
f 391/472/83 393/474/118 394/475/86
f 391/472/83 395/476/87 373/464/75
f 395/476/87 391/472/83 394/475/86 396/477/88
f 395/476/87 397/478/119 373/464/75
f 397/478/119 395/476/87 396/477/88 398/479/90
f 397/478/119 398/479/90 399/480/91
f 397/478/119 399/480/91 400/481/92
f 397/478/119 380/461/72 373/464/75
f 401/459/70 380/461/72 397/478/119 400/481/92
f 357/438/93 358/437/94 382/462/73 381/460/71
f 358/437/94 359/440/95 384/465/76 382/462/73
f 359/440/95 360/442/4 385/466/109 384/465/76
f 360/442/4 361/443/96 386/467/78 385/466/109
f 361/443/96 362/444/97 388/469/80 386/467/78
f 362/444/97 363/446/98 389/470/81 388/469/80
f 363/446/98 364/447/5 390/471/82 389/470/81
f 364/447/5 365/448/99 392/473/84 390/471/82
f 365/448/99 366/450/100 393/474/118 392/473/84
f 366/450/100 367/451/101 394/475/86 393/474/118
f 367/451/101 368/452/2 396/477/88 394/475/86
f 368/452/2 369/454/102 398/479/90 396/477/88
f 369/454/102 370/456/103 399/480/91 398/479/90
f 370/456/103 371/457/104 400/481/92 399/480/91
f 371/457/104 372/458/3 401/459/70 400/481/92
f 372/458/3 357/438/93 381/460/71 401/459/70
f 403/482/49 402/483/112 419/484/113
f 404/485/52 403/482/49 419/484/113 420/486/105
f 405/487/54 404/485/52 420/486/105
f 406/488/55 405/487/54 420/486/105
f 407/489/56 406/488/55 420/486/105 421/490/57
f 408/491/58 407/489/56 421/490/57
f 409/492/59 408/491/58 421/490/57
f 410/493/60 409/492/59 421/490/57 422/494/107
f 411/495/62 410/493/60 422/494/107
f 412/496/63 411/495/62 422/494/107
f 413/497/64 412/496/63 422/494/107 423/498/64
f 414/499/65 413/497/64 423/498/64 424/500/66
f 415/501/67 414/499/65 424/500/66
f 416/502/68 415/501/67 424/500/66
f 417/503/69 416/502/68 424/500/66 419/484/113
f 402/483/112 417/503/69 419/484/113
f 446/504/70 426/505/71 425/506/72
f 425/506/72 426/505/71 427/507/73
f 425/506/72 428/508/74 418/509/75
f 428/508/74 425/506/72 427/507/73 429/510/76
f 428/508/74 429/510/76 430/511/77
f 428/508/74 430/511/77 431/512/78
f 428/508/74 432/513/79 418/509/75
f 432/513/79 428/508/74 431/512/78 433/514/80
f 432/513/79 433/514/80 434/515/81
f 432/513/79 434/515/81 435/516/82
f 432/513/79 436/517/83 418/509/75
f 436/517/83 432/513/79 435/516/82 437/518/84
f 436/517/83 437/518/84 438/519/85
f 436/517/83 438/519/85 439/520/86
f 436/517/83 440/521/87 418/509/75
f 440/521/87 436/517/83 439/520/86 441/522/88
f 440/521/87 442/523/89 418/509/75
f 442/523/89 440/521/87 441/522/88 443/524/115
f 442/523/89 443/524/115 444/525/91
f 442/523/89 444/525/91 445/526/92
f 442/523/89 425/506/72 418/509/75
f 446/504/70 425/506/72 442/523/89 445/526/92
f 402/483/93 403/482/94 427/507/73 426/505/71
f 403/482/94 404/485/95 429/510/76 427/507/73
f 404/485/95 405/487/4 430/511/77 429/510/76
f 405/487/4 406/488/96 431/512/78 430/511/77
f 406/488/96 407/489/97 433/514/80 431/512/78
f 407/489/97 408/491/98 434/515/81 433/514/80
f 408/491/98 409/492/5 435/516/82 434/515/81
f 409/492/5 410/493/99 437/518/84 435/516/82
f 410/493/99 411/495/100 438/519/85 437/518/84
f 411/495/100 412/496/101 439/520/86 438/519/85
f 412/496/101 413/497/2 441/522/88 439/520/86
f 413/497/2 414/499/102 443/524/115 441/522/88
f 414/499/102 415/501/103 444/525/91 443/524/115
f 415/501/103 416/502/104 445/526/92 444/525/91
f 416/502/104 417/503/3 446/504/70 445/526/92
f 417/503/3 402/483/93 426/505/71 446/504/70
f 448/527/49 447/528/112 464/529/113
f 449/530/52 448/527/49 464/529/113 465/531/53
f 450/532/54 449/530/52 465/531/53
f 451/533/55 450/532/54 465/531/53
f 452/534/56 451/533/55 465/531/53 466/535/57
f 453/536/58 452/534/56 466/535/57
f 454/537/59 453/536/58 466/535/57
f 455/538/60 454/537/59 466/535/57 467/539/107
f 456/540/62 455/538/60 467/539/107
f 457/541/63 456/540/62 467/539/107
f 458/542/64 457/541/63 467/539/107 468/543/64
f 459/544/65 458/542/64 468/543/64 469/545/66
f 460/546/67 459/544/65 469/545/66
f 461/547/68 460/546/67 469/545/66
f 462/548/69 461/547/68 469/545/66 464/529/113
f 447/528/112 462/548/69 464/529/113
f 491/549/70 471/550/71 470/551/72
f 470/551/72 471/550/71 472/552/73
f 470/551/72 473/553/74 463/554/75
f 473/553/74 470/551/72 472/552/73 474/555/76
f 473/553/74 474/555/76 475/556/77
f 473/553/74 475/556/77 476/557/78
f 473/553/74 477/558/79 463/554/75
f 477/558/79 473/553/74 476/557/78 478/559/80
f 477/558/79 478/559/80 479/560/81
f 477/558/79 479/560/81 480/561/82
f 477/558/79 481/562/83 463/554/75
f 481/562/83 477/558/79 480/561/82 482/563/84
f 481/562/83 482/563/84 483/564/85
f 481/562/83 483/564/85 484/565/86
f 481/562/83 485/566/87 463/554/75
f 485/566/87 481/562/83 484/565/86 486/567/111
f 485/566/87 487/568/89 463/554/75
f 487/568/89 485/566/87 486/567/111 488/569/115
f 487/568/89 488/569/115 489/570/91
f 487/568/89 489/570/91 490/571/92
f 487/568/89 470/551/72 463/554/75
f 491/549/70 470/551/72 487/568/89 490/571/92
f 447/528/93 448/527/94 472/552/73 471/550/71
f 448/527/94 449/530/95 474/555/76 472/552/73
f 449/530/95 450/532/4 475/556/77 474/555/76
f 450/532/4 451/533/96 476/557/78 475/556/77
f 451/533/96 452/534/97 478/559/80 476/557/78
f 452/534/97 453/536/98 479/560/81 478/559/80
f 453/536/98 454/537/5 480/561/82 479/560/81
f 454/537/5 455/538/99 482/563/84 480/561/82
f 455/538/99 456/540/100 483/564/85 482/563/84
f 456/540/100 457/541/101 484/565/86 483/564/85
f 457/541/101 458/542/2 486/567/111 484/565/86
f 458/542/2 459/544/102 488/569/115 486/567/111
f 459/544/102 460/546/103 489/570/91 488/569/115
f 460/546/103 461/547/104 490/571/92 489/570/91
f 461/547/104 462/548/3 491/549/70 490/571/92
f 462/548/3 447/528/93 471/550/71 491/549/70
f 493/572/49 492/573/50 509/574/51
f 494/575/52 493/572/49 509/574/51 510/576/105
f 495/577/54 494/575/52 510/576/105
f 496/578/55 495/577/54 510/576/105
f 497/579/56 496/578/55 510/576/105 511/580/57
f 498/581/106 497/579/56 511/580/57
f 499/582/59 498/581/106 511/580/57
f 500/583/60 499/582/59 511/580/57 512/584/107
f 501/585/62 500/583/60 512/584/107
f 502/586/63 501/585/62 512/584/107
f 503/587/64 502/586/63 512/584/107 513/588/64
f 504/589/65 503/587/64 513/588/64 514/590/66
f 505/591/67 504/589/65 514/590/66
f 506/592/68 505/591/67 514/590/66
f 507/593/69 506/592/68 514/590/66 509/574/51
f 492/573/50 507/593/69 509/574/51
f 536/594/70 516/595/71 515/596/72
f 515/596/72 516/595/71 517/597/73
f 515/596/72 518/598/74 508/599/75
f 518/598/74 515/596/72 517/597/73 519/600/76
f 518/598/74 519/600/76 520/601/109
f 518/598/74 520/601/109 521/602/78
f 518/598/74 522/603/79 508/599/75
f 522/603/79 518/598/74 521/602/78 523/604/80
f 522/603/79 523/604/80 524/605/81
f 522/603/79 524/605/81 525/606/82
f 522/603/79 526/607/83 508/599/75
f 526/607/83 522/603/79 525/606/82 527/608/84
f 526/607/83 527/608/84 528/609/85
f 526/607/83 528/609/85 529/610/110
f 526/607/83 530/611/87 508/599/75
f 530/611/87 526/607/83 529/610/110 531/612/111
f 530/611/87 532/613/89 508/599/75
f 532/613/89 530/611/87 531/612/111 533/614/90
f 532/613/89 533/614/90 534/615/91
f 532/613/89 534/615/91 535/616/92
f 532/613/89 515/596/72 508/599/75
f 536/594/70 515/596/72 532/613/89 535/616/92
f 492/573/93 493/572/94 517/597/73 516/595/71
f 493/572/94 494/575/95 519/600/76 517/597/73
f 494/575/95 495/577/4 520/601/109 519/600/76
f 495/577/4 496/578/96 521/602/78 520/601/109
f 496/578/96 497/579/97 523/604/80 521/602/78
f 497/579/97 498/581/98 524/605/81 523/604/80
f 498/581/98 499/582/5 525/606/82 524/605/81
f 499/582/5 500/583/99 527/608/84 525/606/82
f 500/583/99 501/585/100 528/609/85 527/608/84
f 501/585/100 502/586/101 529/610/110 528/609/85
f 502/586/101 503/587/2 531/612/111 529/610/110
f 503/587/2 504/589/102 533/614/90 531/612/111
f 504/589/102 505/591/103 534/615/91 533/614/90
f 505/591/103 506/592/104 535/616/92 534/615/91
f 506/592/104 507/593/3 536/594/70 535/616/92
f 507/593/3 492/573/93 516/595/71 536/594/70
f 549/617/120 557/618/120 556/619/120 548/620/120
f 548/621/121 556/622/121 558/623/121 552/624/121
f 543/625/122 537/626/122 545/627/122 546/628/122
f 537/629/123 544/630/123 547/631/123 545/632/123
f 542/633/2 551/634/2 552/635/2 544/636/2
f 543/637/2 549/638/2 554/639/2 538/640/2
f 545/641/2 556/619/2 557/618/2 546/642/2
f 546/643/1 557/644/1 549/638/1 543/637/1
f 544/636/3 552/635/3 558/645/3 547/646/3
f 547/647/2 558/623/2 556/622/2 545/648/2
f 559/649/5 560/650/5 563/651/5 564/652/5
f 561/653/36 560/654/36 559/655/36 562/656/36
f 561/657/3 562/658/3 553/659/3 551/660/3
f 551/660/1 553/659/1 550/661/1 552/624/1
f 550/661/1 548/621/1 552/624/1
f 550/662/3 549/617/3 548/620/3
f 550/662/3 555/663/3 554/664/3 549/617/3
f 554/664/1 555/663/1 564/665/1 563/666/1
f 537/626/124 543/625/124 563/651/124 560/650/124
f 542/667/125 544/630/125 561/653/125
f 543/625/124 538/668/124 563/651/124
f 544/630/125 537/629/125 560/654/125 561/653/125
f 561/657/3 551/660/3 542/669/3
f 538/670/1 554/664/1 563/666/1
f 562/656/126 559/655/126 539/671/126 541/672/126
f 541/673/3 553/659/3 562/658/3
f 564/665/1 555/663/1 540/674/1
f 559/649/127 564/652/127 540/675/127 539/676/127
f 577/677/121 585/678/121 584/679/121 576/680/121
f 576/681/128 584/682/128 586/683/128 580/684/128
f 571/685/123 565/686/123 573/687/123 574/688/123
f 565/689/129 572/690/129 575/691/129 573/692/129
f 570/693/2 579/694/2 580/695/2 572/696/2
f 571/697/2 577/698/2 582/699/2 566/700/2
f 573/701/2 584/679/2 585/678/2 574/702/2
f 574/703/5 585/704/5 577/698/5 571/697/5
f 572/696/1 580/695/1 586/705/1 575/706/1
f 575/707/2 586/683/2 584/682/2 573/708/2
f 587/709/36 588/710/36 591/711/36 592/712/36
f 589/713/3 588/714/3 587/715/3 590/716/3
f 589/717/1 590/718/1 581/719/1 579/720/1
f 579/720/5 581/719/5 578/721/5 580/684/5
f 578/721/5 576/681/5 580/684/5
f 578/722/1 577/677/1 576/680/1
f 578/722/1 583/723/1 582/724/1 577/677/1
f 582/724/5 583/723/5 592/725/5 591/726/5
f 565/686/130 571/685/130 591/711/130 588/710/130
f 570/727/131 572/690/131 589/713/131
f 571/685/130 566/728/130 591/711/130
f 572/690/131 565/689/131 588/714/131 589/713/131
f 589/717/1 579/720/1 570/729/1
f 566/730/5 582/724/5 591/726/5
f 590/716/132 587/715/132 567/731/132 569/732/132
f 569/733/1 581/719/1 590/718/1
f 592/725/5 583/723/5 568/734/5
f 587/709/133 592/712/133 568/735/133 567/736/133
f 605/737/128 613/738/128 612/739/128 604/740/128
f 604/741/134 612/742/134 614/743/134 608/744/134
f 599/745/129 593/746/129 601/747/129 602/748/129
f 593/749/135 600/750/135 603/751/135 601/752/135
f 598/753/2 607/754/2 608/755/2 600/756/2
f 599/757/2 605/758/2 610/759/2 594/760/2
f 601/761/2 612/739/2 613/738/2 602/762/2
f 602/763/36 613/764/36 605/758/36 599/757/36
f 600/756/5 608/755/5 614/765/5 603/766/5
f 603/767/2 614/743/2 612/742/2 601/768/2
f 615/769/3 616/770/3 619/771/3 620/772/3
f 617/773/1 616/774/1 615/775/1 618/776/1
f 617/777/5 618/778/5 609/779/5 607/780/5
f 607/780/36 609/779/36 606/781/36 608/744/36
f 606/781/36 604/741/36 608/744/36
f 606/782/5 605/737/5 604/740/5
f 606/782/5 611/783/5 610/784/5 605/737/5
f 610/784/36 611/783/36 620/785/36 619/786/36
f 593/746/136 599/745/136 619/771/136 616/770/136
f 598/787/137 600/750/137 617/773/137
f 599/745/136 594/788/136 619/771/136
f 600/750/137 593/749/137 616/774/137 617/773/137
f 617/777/5 607/780/5 598/789/5
f 594/790/36 610/784/36 619/786/36
f 618/776/138 615/775/138 595/791/138 597/792/138
f 597/793/5 609/779/5 618/778/5
f 620/785/36 611/783/36 596/794/36
f 615/769/139 620/772/139 596/795/139 595/796/139
f 633/797/134 641/798/134 640/799/134 632/800/134
f 632/801/120 640/802/120 642/803/120 636/804/120
f 627/805/135 621/806/135 629/807/135 630/808/135
f 621/809/122 628/810/122 631/811/122 629/812/122
f 626/813/2 635/814/2 636/815/2 628/816/2
f 627/817/2 633/818/2 638/819/2 622/820/2
f 629/821/2 640/799/2 641/798/2 630/822/2
f 630/823/3 641/824/3 633/818/3 627/817/3
f 628/816/36 636/815/36 642/825/36 631/826/36
f 631/827/2 642/803/2 640/802/2 629/828/2
f 643/829/1 644/830/1 647/831/1 648/832/1
f 645/833/5 644/834/5 643/835/5 646/836/5
f 645/837/36 646/838/36 637/839/36 635/840/36
f 635/840/3 637/839/3 634/841/3 636/804/3
f 634/841/3 632/801/3 636/804/3
f 634/842/36 633/797/36 632/800/36
f 634/842/36 639/843/36 638/844/36 633/797/36
f 638/844/3 639/843/3 648/845/3 647/846/3
f 621/806/140 627/805/140 647/831/140 644/830/140
f 626/847/141 628/810/141 645/833/141
f 627/805/140 622/848/140 647/831/140
f 628/810/141 621/809/141 644/834/141 645/833/141
f 645/837/36 635/840/36 626/849/36
f 622/850/3 638/844/3 647/846/3
f 646/836/142 643/835/142 623/851/142 625/852/142
f 625/853/36 637/839/36 646/838/36
f 648/845/3 639/843/3 624/854/3
f 643/829/143 648/832/143 624/855/143 623/856/143
