# Blender 5.0.1
# www.blender.org
mtllib frog.mtl
o frog
v -1.789927 1.218666 0.543482
v -2.323856 1.196236 0.002428
v -1.716766 0.565400 0.589596
v -2.460219 0.788983 1.106489
v -1.565276 0.964253 0.765872
v -2.237392 0.391848 0.510064
v -1.248350 1.104274 2.506850
v -3.807396 -0.422505 2.214012
v -2.205717 0.662042 2.348881
v -2.432359 0.234259 2.149883
v -2.295533 0.600988 2.961482
v -1.835811 0.371933 3.066850
v -1.168926 0.525214 2.913735
v -1.356853 0.895951 3.058001
v -1.712570 0.621965 2.462676
v 0.817134 1.989852 1.061147
v -0.278383 0.928065 0.865602
v 1.566613 0.250879 0.014879
v 5.343426 1.374807 -0.113658
v 4.985973 1.695701 0.290373
v 3.697196 2.339455 0.372309
v 2.875376 2.404334 0.710758
v 1.417077 0.831948 1.105606
v 3.967659 1.840066 0.988759
v 2.685619 2.075630 1.361107
v 4.604054 1.414263 0.947942
v 3.727351 1.009801 1.146389
v 1.893883 1.083016 1.362056
v 2.685054 1.051697 1.187914
v 3.091302 0.466200 0.307008
v 5.210694 1.085226 0.350702
v 4.453437 1.104167 0.890414
v 3.126650 2.717248 1.015690
v 3.528055 1.573436 1.305729
v -3.374820 -0.337489 3.602967
v -3.679463 -0.342959 2.330180
v -3.946460 -0.031455 2.291067
v -4.003508 -0.291151 2.477619
v -3.713947 -0.053339 2.402537
v -2.506727 -0.483577 4.189876
v -2.595640 -0.358526 4.017503
v -3.110857 -0.478317 5.225899
v -3.134879 -0.432047 3.489341
v -2.571234 -0.587608 4.130486
v -1.866412 -0.673807 5.343030
v -2.030513 -0.570180 5.280818
v -1.849890 -0.580228 4.484025
v -3.231159 -0.556348 4.838019
v -2.325493 -0.581951 5.670640
v -1.727863 -0.536152 5.226892
v -1.778054 -0.434004 4.491631
v -3.055430 -0.566300 5.592118
v -2.515628 -0.551684 5.287934
v -3.582545 -0.621424 4.937317
v -1.539831 -0.543911 4.838804
v -1.736509 -0.503078 5.517044
v -3.295854 -0.557957 3.491603
v -2.709901 -0.533440 4.341204
v -3.338296 -0.564660 5.473426
v -1.497720 -0.684068 4.591976
v -3.544380 -0.587304 5.238297
v -2.642320 -0.513191 4.755692
v -2.405722 -0.491697 4.734501
v -2.297856 -0.531823 4.567110
v -1.639189 -0.513111 4.451106
v -2.641142 -0.527615 5.519777
v -3.161926 -0.614404 5.242875
v -2.601788 -0.411895 5.135177
v -3.526640 -0.476775 4.847964
v -3.783849 -0.548589 5.125177
v -3.012277 -0.562465 4.789327
v -3.398689 -0.443952 4.415856
v -3.294179 -0.537346 4.625051
v -3.197503 -0.598587 4.406400
v -2.782644 -0.627454 4.647062
v -2.860603 -0.558238 4.775423
v -2.968796 -0.471718 4.426762
v -2.962687 -0.546604 4.431363
v -2.719575 -0.462242 4.339081
v -2.172907 -0.493171 4.369287
v 0.407890 0.955234 2.520105
v 0.552159 0.620161 2.316584
v 1.791922 0.466260 0.692494
v 0.583700 1.168287 1.913315
v 0.736861 1.242712 2.329046
v 2.103580 -0.155014 3.076942
v 2.818857 -0.238583 3.602280
v 2.657332 -0.159396 3.225124
v 2.817361 -0.473994 2.943132
v 2.873927 -0.380118 2.783144
v 1.873710 -0.405413 3.015356
v 3.563979 -0.651950 3.873970
v 4.095574 -0.507749 3.280286
v 3.891842 -0.425444 2.706320
v 2.737178 -0.276157 2.813550
v 2.289152 -0.364096 2.691264
v 2.578723 -0.286096 3.593449
v 3.392999 -0.675893 2.243539
v 3.355850 -0.547610 4.078334
v 3.312212 -0.494598 2.124406
v 3.098434 -0.439104 2.421614
v 3.671179 -0.493419 2.928693
v 2.653149 -0.351114 3.483147
v 3.639830 -0.569024 2.676904
v 3.949128 -0.583278 3.556929
v 3.500420 -0.469006 3.788172
v 3.000252 -0.318050 3.146527
v 2.860756 -0.312911 3.050348
v 2.665087 -0.505056 2.552505
v 3.921830 -0.391300 3.454357
v 3.614415 -0.548165 3.364974
v 3.853466 -0.655053 2.773653
v 3.439664 -0.454663 2.386721
v 2.894586 -0.456884 2.657285
v 2.764483 -0.291852 3.398277
v 0.956140 0.743789 2.048071
v 3.805074 2.487643 1.436760
v 3.441418 2.723578 1.214727
v 3.042185 2.400210 1.466272
v 3.424731 2.089363 1.688735
v 3.123906 1.801025 1.479859
v 3.873856 1.899576 1.402554
v 3.888781 2.549770 0.945227
v -0.472031 1.248897 -0.878192
v 0.634997 1.891416 -1.050756
v -0.541663 0.376900 0.247017
v 0.731385 2.229050 0.011114
v -1.554871 0.874297 -0.732286
v -0.222689 0.516196 -0.589414
v -2.702653 0.612325 -0.121104
v -1.790797 1.202976 -0.704350
v -2.040395 0.373108 -0.416893
v -2.783068 0.418696 -2.820446
v -2.519783 0.388245 -2.167727
v -3.776743 -0.006125 -2.340703
v -3.904168 -0.390228 -2.146982
v -1.098524 0.707411 -2.646897
v -1.365793 1.122245 -2.448641
v -2.437657 0.804913 -1.177692
v -1.680112 0.633185 -2.499133
v -1.433788 0.928720 -2.927385
v -1.401179 0.464780 -2.638613
v -1.209626 0.633045 -3.112453
v 3.705537 2.333698 -0.368557
v 2.834678 2.390188 -0.765888
v 2.767578 1.019074 -1.180573
v 3.377044 0.501961 -0.184548
v 2.735692 2.125821 -1.358793
v 4.559069 1.421925 -0.995819
v 3.199914 1.732577 -1.452708
v 5.117571 1.100726 -0.481337
v 3.856168 1.031057 -1.125573
v 4.958487 1.675325 -0.302628
v 3.392123 2.802790 -0.872419
v 3.949604 1.806193 -1.018935
v 3.595748 2.733632 -1.122411
v 3.018903 2.128131 -1.509504
v -3.973314 -0.150752 -2.587416
v -3.703739 -0.377003 -2.300626
v -2.971931 -0.443134 -4.393906
v -2.419391 -0.401366 -4.097332
v -2.501825 -0.484490 -4.189241
v -3.464788 -0.489494 -4.633659
v -2.495961 -0.410000 -5.228572
v -2.308240 -0.508734 -4.555623
v -2.507784 -0.604137 -4.038618
v -2.721911 -0.583647 -4.242313
v -2.134092 -0.527268 -4.372015
v -2.543144 -0.591636 -5.274595
v -1.787102 -0.567465 -4.401201
v -3.769087 -0.551236 -5.088420
v -3.633206 -0.545474 -5.293017
v -3.145358 -0.516163 -5.585993
v -1.920275 -0.575200 -5.487185
v -2.562142 -0.519624 -5.705739
v -1.487253 -0.475952 -4.583226
v -1.405910 -0.590844 -4.577202
v -3.273110 -0.302054 -3.557727
v -3.203071 -0.419533 -4.423407
v -2.506867 -0.525306 -4.182766
v -1.700123 -0.645704 -5.403131
v -3.045209 -0.635034 -3.969530
v -3.017086 -0.598553 -5.473822
v -3.227883 -0.536411 -4.808582
v -3.295032 -0.623743 -4.454879
v -3.004310 -0.556284 -4.757534
v -3.134110 -0.608616 -5.230783
v -3.340601 -0.569702 -5.461645
v -2.305886 -0.569216 -5.598018
v -1.651881 -0.477403 -5.343560
v -1.645696 -0.559234 -4.771509
v -1.820262 -0.550713 -5.143217
v -3.516137 -0.568483 -5.008100
v -3.145319 -0.423092 -3.482240
v -3.288980 -0.531087 -4.622405
v -2.979576 -0.575869 -4.387392
v -2.765736 -0.544772 -5.003839
v -2.661107 -0.473572 -4.796703
v -2.443702 -0.541248 -4.708823
v -2.713107 -0.472780 -4.348083
v -3.400615 -0.433168 -3.623127
v 1.389457 0.790533 -1.083390
v 0.920154 0.730833 -2.025835
v 1.758695 0.486872 -0.752382
v 1.847017 1.094721 -1.354977
v 0.384299 1.071993 -2.135959
v 0.622355 0.534045 -2.452872
v 0.787241 1.237642 -2.251144
v 0.633572 1.094684 -2.590028
v 3.130024 -0.511940 -3.707736
v 2.955972 -0.420205 -2.818845
v 2.662270 -0.544584 -2.648736
v 2.499444 -0.338875 -3.507100
v 3.461898 -0.495319 -3.768300
v 4.081470 -0.647963 -3.441476
v 2.487650 -0.133870 -3.309538
v 3.978872 -0.446093 -3.581823
v 2.871952 -0.313311 -3.046314
v 2.885217 -0.404463 -2.489853
v 3.040783 -0.280441 -2.922186
v 3.527438 -0.447407 -3.984905
v 3.166971 -0.472970 -3.914498
v 3.904021 -0.507534 -2.924636
v 3.448454 -0.541471 -2.920114
v 3.682454 -0.596378 -2.675832
v 3.887079 -0.430440 -2.682568
v 3.855335 -0.495052 -3.261697
v 3.489448 -0.670533 -4.012388
v 2.912001 -0.370127 -3.167719
v 3.315225 -0.595123 -2.145127
v 3.640160 -0.349855 -3.352742
v 3.678917 -0.556476 -3.371533
v 3.383635 -0.397985 -2.193115
v 3.396379 -0.570930 -2.403675
v 2.246009 -0.256404 -2.780054
v 2.062759 -0.474042 -2.719168
v 2.077022 -0.389186 -3.175063
v 2.813512 -0.400102 -2.724269
v 2.765164 -0.287533 -3.351108
v 2.108310 -0.144635 -3.067805
v 3.484635 2.001297 -1.674324
v 3.587482 2.546845 -1.471434
v 3.134437 2.536702 -1.403220
v 3.975281 2.115875 -1.372322
v 3.931110 2.468061 -0.912949
v 3.611007 1.574478 -1.245329
vn -0.2561 0.6346 0.7292
vn -0.1093 0.9482 0.2983
vn -0.1504 -0.3583 0.9214
vn 0.3388 -0.8115 0.4762
vn -0.0026 -0.9622 0.2723
vn -0.9533 -0.2940 -0.0697
vn -0.9276 0.0792 0.3650
vn -0.5800 0.8146 -0.0023
vn 0.5234 0.8432 0.1227
vn 0.7662 0.3118 0.5619
vn 0.2573 0.6015 0.7564
vn 0.0740 -0.5331 0.8428
vn -0.4177 0.5618 0.7141
vn 0.6123 -0.7735 0.1634
vn -0.5714 -0.5160 -0.6381
vn 0.2324 -0.2732 -0.9335
vn -0.0871 0.8120 -0.5771
vn -0.2406 -0.6958 -0.6768
vn 0.7996 -0.4776 0.3641
vn -0.0538 0.5251 0.8493
vn -0.7123 0.5833 -0.3905
vn -0.8073 -0.5511 0.2111
vn -0.0962 0.8145 0.5721
vn -0.2723 0.9616 -0.0353
vn -0.2332 0.9723 -0.0171
vn 0.0350 -0.9994 0.0061
vn 0.1986 -0.9646 -0.1733
vn 0.0471 -0.9465 0.3191
vn -0.3000 -0.9415 0.1535
vn 0.8058 -0.4253 0.4121
vn -0.0259 -0.9929 0.1160
vn -0.3421 0.3846 0.8574
vn 0.1988 -0.4836 0.8524
vn 0.9776 0.1825 -0.1049
vn 0.6863 0.6484 0.3295
vn 0.5531 0.1546 0.8187
vn 0.3472 -0.3014 0.8880
vn 0.2063 -0.6148 0.7613
vn -0.1543 -0.2678 0.9510
vn 0.7568 0.6347 -0.1559
vn 0.3740 0.9220 -0.1007
vn -0.3652 0.9280 -0.0741
vn -0.4432 0.5050 0.7406
vn 0.0682 0.9568 0.2828
vn 0.7771 0.3569 0.5184
vn -0.6901 0.7055 0.1611
vn 0.7694 0.1962 -0.6079
vn -0.2050 -0.9695 -0.1341
vn -0.9612 -0.2493 0.1183
vn 0.0993 0.9831 0.1541
vn -0.8874 0.4601 0.0296
vn -0.0336 0.9781 0.2056
vn 0.0080 0.9096 0.4155
vn -0.4974 0.7009 0.5112
vn -0.8991 0.0720 0.4318
vn 0.3733 0.8526 0.3656
vn -0.6419 -0.0294 0.7662
vn 0.2412 0.9705 -0.0041
vn -0.8314 -0.3169 0.4564
vn -0.3560 0.2407 0.9030
vn -0.3666 -0.8446 0.3903
vn -0.0622 0.9631 0.2619
vn 0.4035 -0.1197 0.9071
vn 0.1342 -0.9755 -0.1745
vn 0.3377 0.1115 0.9346
vn 0.6246 0.2435 -0.7420
vn 0.7235 -0.6815 -0.1104
vn 0.1984 0.9791 -0.0440
vn 0.0793 -0.9968 0.0096
vn -0.2160 -0.9759 -0.0300
vn 0.0391 -0.9925 0.1162
vn -0.3212 -0.3544 0.8782
vn 0.3317 -0.9434 -0.0017
vn 0.5216 -0.0401 0.8523
vn 0.6095 0.7915 0.0443
vn -0.8284 -0.0287 0.5595
vn 0.0511 -0.9368 0.3460
vn -0.7739 0.2368 0.5874
vn 0.6452 -0.7160 -0.2665
vn 0.9507 -0.2758 -0.1414
vn 0.6260 -0.1733 0.7603
vn 0.4388 0.3319 0.8351
vn 0.8859 0.2809 -0.3692
vn 0.1062 -0.9834 -0.1471
vn 0.7743 0.5189 -0.3622
vn -0.9499 0.3125 0.0103
vn 0.9171 0.0296 0.3976
vn 0.4597 0.3438 0.8188
vn 0.7563 -0.6249 0.1937
vn 0.0332 0.9151 0.4018
vn -0.7414 -0.6518 -0.1597
vn -0.5370 -0.7619 0.3622
vn -0.8213 0.2156 0.5281
vn -0.0075 -0.2756 -0.9612
vn -0.7108 0.5115 -0.4828
vn -0.0755 0.8565 0.5107
vn 0.1613 0.9367 -0.3109
vn 0.1779 0.9840 0.0081
vn 0.3513 0.7426 -0.5701
vn 0.8460 0.4869 0.2173
vn -0.0429 0.9880 -0.1482
vn 0.6499 -0.7596 0.0250
vn 0.1396 -0.9729 0.1841
vn 0.3021 -0.2740 -0.9130
vn -0.0757 -0.9872 0.1403
vn -0.5453 0.0516 0.8367
vn 0.9622 -0.2715 0.0206
vn 0.4342 -0.5276 0.7301
vn 0.8153 0.4224 0.3961
vn 0.1407 0.9607 0.2392
vn 0.0294 -0.1245 0.9918
vn 0.8254 -0.1303 -0.5493
vn 0.3686 0.8554 0.3640
vn 0.3876 -0.5207 0.7607
vn -0.1681 -0.9651 -0.2008
vn 0.7492 0.5138 -0.4181
vn 0.7771 -0.6288 0.0278
vn 0.2804 0.0547 0.9583
vn 0.8120 0.4835 -0.3270
vn -0.1300 -0.4792 -0.8680
vn 0.5165 -0.8204 -0.2452
vn -0.3525 -0.7412 -0.5713
vn 0.1038 0.2855 -0.9528
vn 0.0227 -0.0379 0.9990
vn 0.7398 -0.3434 0.5786
vn 0.6009 0.5123 0.6136
vn 0.4041 0.9054 0.1300
vn 0.7002 -0.5030 -0.5066
vn -0.1485 0.9225 -0.3562
vn -0.1273 -0.2068 -0.9701
vn 0.6091 -0.2980 -0.7349
vn -0.9274 0.0538 -0.3701
vn -0.1204 -0.9733 -0.1954
vn 0.2769 0.9505 -0.1410
vn -0.8263 -0.0513 0.5609
vn -0.0085 0.8191 -0.5735
vn -0.4449 0.4915 -0.7487
vn 0.5918 -0.1531 -0.7914
vn 0.4853 -0.8527 0.1934
vn 0.0310 0.3479 0.9370
vn 0.3919 -0.9178 0.0645
vn -0.4260 0.8748 0.2305
vn -0.5485 -0.4669 0.6936
vn 0.9940 -0.1017 -0.0411
vn -0.7034 -0.6125 -0.3608
vn 0.0101 0.4789 -0.8778
vn -0.3784 0.4294 -0.8200
vn -0.2546 0.6199 -0.7422
vn -0.2876 0.9572 -0.0331
vn -0.0128 -0.9582 -0.2859
vn -0.0773 -0.7953 -0.6012
vn 0.5257 0.1562 -0.8362
vn 0.5806 0.7408 -0.3378
vn 0.2199 -0.6257 -0.7484
vn -0.1484 -0.3695 -0.9173
vn -0.4083 0.0308 -0.9123
vn 0.1807 -0.5070 -0.8428
vn -0.4188 0.6938 -0.5859
vn 0.8670 0.4785 0.1388
vn -0.1146 0.9640 0.2399
vn 0.3525 0.9046 -0.2397
vn 0.8017 0.2738 -0.5314
vn 0.8396 0.0953 0.5349
vn -0.0044 0.9990 -0.0435
vn -0.9645 -0.1068 -0.2416
vn -0.9276 0.2804 -0.2467
vn 0.1648 0.9578 -0.2355
vn 0.0912 0.9506 -0.2967
vn 0.2708 0.9618 0.0411
vn 0.2866 0.0238 -0.9578
vn 0.3233 -0.9452 -0.0459
vn -0.2218 -0.9651 -0.1390
vn 0.0131 -0.9923 -0.1234
vn -0.9728 -0.0349 -0.2289
vn 0.8109 -0.4098 -0.4177
vn -0.6861 0.7086 0.1649
vn 0.9533 -0.2319 -0.1937
vn -0.9231 -0.0772 -0.3767
vn -0.0136 0.9709 -0.2392
vn -0.4681 -0.4371 -0.7680
vn -0.0951 -0.1369 -0.9860
vn 0.5614 0.8250 0.0656
vn 0.2166 -0.9599 0.1779
vn -0.0617 -0.9862 0.1536
vn 0.1733 -0.9834 -0.0530
vn -0.0085 0.0072 -0.9999
vn 0.2819 0.7804 -0.5581
vn 0.0893 -0.9559 -0.2797
vn 0.6154 -0.6749 -0.4072
vn -0.5101 0.0412 -0.8592
vn 0.7597 0.6499 -0.0216
vn 0.3221 -0.9323 0.1648
vn -0.6595 0.4562 -0.5974
vn 0.7834 0.4299 0.4489
vn 0.3121 -0.6772 0.6663
vn 0.9159 -0.3884 0.1010
vn 0.1485 0.3299 -0.9323
vn 0.7280 0.1296 -0.6732
vn -0.4336 0.8742 -0.2186
vn 0.4820 0.8753 -0.0400
vn 0.0644 -0.8449 0.5311
vn -0.7945 -0.5727 -0.2019
vn -0.1786 -0.8228 0.5395
vn 0.2769 0.6444 0.7128
vn -0.0455 0.7921 -0.6087
vn 0.1874 0.9797 -0.0712
vn -0.9298 0.2609 0.2595
vn 0.3739 0.9274 -0.0104
vn 0.1483 0.9462 0.2876
vn 0.2032 0.9507 0.2342
vn -0.0947 0.9461 -0.3096
vn 0.8040 0.4620 -0.3744
vn -0.4191 -0.3212 -0.8492
vn 0.6248 -0.3276 -0.7087
vn 0.1598 -0.9871 0.0045
vn 0.3863 -0.7666 -0.5130
vn 0.6979 0.5023 -0.5106
vn 0.6875 -0.0158 0.7260
vn -0.5472 -0.0480 -0.8356
vn 0.1542 -0.5432 0.8253
vn 0.7667 -0.3211 -0.5559
vn 0.5260 0.7074 0.4720
vn 0.0682 -0.5190 -0.8521
vn 0.4278 -0.6400 0.6383
vn 0.0499 -0.7349 0.6763
vn 0.7153 -0.0087 -0.6987
vn 0.7559 0.4207 0.5016
vn 0.7640 -0.6220 0.1714
vn -0.1762 -0.9524 0.2488
vn -0.1274 -0.9573 0.2594
vn 0.8078 -0.5871 -0.0534
vn -0.1936 -0.9779 -0.0786
vn 0.5281 0.3358 -0.7800
vn 0.3937 0.0458 0.9181
vn 0.2882 0.6325 -0.7189
vn 0.8607 -0.0056 -0.5091
vn 0.1258 -0.1769 -0.9762
vn 0.7747 0.6089 -0.1704
vn 0.3671 -0.6465 0.6688
vn 0.6548 0.3715 0.6582
vn -0.9323 -0.0243 -0.3608
vn 0.5096 0.8104 0.2891
vn 0.8511 -0.2109 -0.4808
vn -0.3421 0.0392 -0.9388
vn -0.5120 -0.5823 -0.6315
vn -0.3366 0.5733 -0.7470
vt 0.506618 0.607672
vt 0.680397 0.627618
vt 0.572466 0.650349
vt 0.274807 0.165640
vt 0.298572 0.241964
vt 0.256001 0.265819
vt 0.320628 0.114188
vt 0.260340 0.113285
vt 0.317677 0.094783
vt 0.726350 0.734272
vt 0.713177 0.570953
vt 0.659374 0.654256
vt 0.746467 0.756706
vt 0.739280 0.655056
vt 0.778725 0.766916
vt 0.793870 0.751487
vt 0.871171 0.737863
vt 0.762730 0.724510
vt 0.826034 0.706052
vt 0.791471 0.723104
vt 0.099617 0.030647
vt 0.149039 0.086990
vt 0.155020 0.165660
vt 0.094796 0.040215
vt 0.129775 0.141887
vt 0.879002 0.727546
vt 0.884798 0.714546
vt 0.144009 0.167609
vt 0.490877 0.666443
vt 0.463700 0.658201
vt 0.440044 0.583834
vt 0.506657 0.549720
vt 0.310292 0.359987
vt 0.329473 0.471673
vt 0.248776 0.376069
vt 0.222089 0.331178
vt 0.286992 0.147133
vt 0.304149 0.559231
vt 0.279268 0.471561
vt 0.679661 0.289806
vt 0.669264 0.253762
vt 0.704347 0.233185
vt 0.533900 0.770700
vt 0.561720 0.750616
vt 0.547592 0.793611
vt 0.673978 0.077736
vt 0.690236 0.106926
vt 0.659713 0.135377
vt 0.659517 0.089728
vt 0.642939 0.189375
vt 0.619490 0.170040
vt 0.640116 0.200886
vt 0.643225 0.222036
vt 0.650769 0.240668
vt 0.600563 0.225006
vt 0.408383 0.719172
vt 0.400085 0.688974
vt 0.448737 0.696167
vt 0.455398 0.672738
vt 0.474505 0.717598
vt 0.441684 0.716919
vt 0.367980 0.730732
vt 0.510098 0.730095
vt 0.488854 0.697711
vt 0.734016 0.762693
vt 0.258434 0.173334
vt 0.924430 0.761506
vt 0.911768 0.768771
vt 0.041611 0.046544
vt 0.081556 0.049989
vt 0.037708 0.034052
vt 0.896721 0.715856
vt 0.085536 0.018215
vt 0.112564 0.030258
vt 0.104688 0.022723
vt 0.095797 0.019323
vt 0.210443 0.842107
vt 0.227878 0.802567
vt 0.226241 0.829822
vt 0.193966 0.848057
vt 0.218575 0.869470
vt 0.284096 0.797339
vt 0.264032 0.804039
vt 0.266324 0.882222
vt 0.246888 0.872067
vt 0.240975 0.845385
vt 0.189159 0.868633
vt 0.184877 0.895366
vt 0.180630 0.888206
vt 0.117419 0.761463
vt 0.119681 0.750571
vt 0.121421 0.765160
vt 0.180584 0.906089
vt 0.171672 0.889345
vt 0.038680 0.856937
vt 0.021393 0.865721
vt 0.018007 0.860383
vt 0.189043 0.834670
vt 0.081916 0.806010
vt 0.114972 0.803194
vt 0.084079 0.825399
vt 0.033682 0.868784
vt 0.097386 0.809367
vt 0.086625 0.762224
vt 0.291348 0.849961
vt 0.273368 0.842822
vt 0.292105 0.839902
vt 0.087696 0.752528
vt 0.075932 0.749108
vt 0.057766 0.816940
vt 0.012954 0.811871
vt 0.020158 0.808075
vt 0.047128 0.781926
vt 0.067228 0.808241
vt 0.264505 0.893781
vt 0.005155 0.807113
vt 0.009529 0.820303
vt 0.167389 0.904637
vt 0.285661 0.807723
vt 0.082519 0.843315
vt 0.057550 0.844346
vt 0.202618 0.870175
vt 0.256717 0.823878
vt 0.247316 0.837417
vt 0.247953 0.813654
vt 0.055721 0.833513
vt 0.129064 0.749057
vt 0.131020 0.812354
vt 0.100893 0.777292
vt 0.112844 0.784087
vt 0.081111 0.795013
vt 0.037049 0.028519
vt 0.228110 0.454911
vt 0.131942 0.370235
vt 0.643865 0.701267
vt 0.102807 0.327721
vt 0.019876 0.367174
vt 0.101205 0.306652
vt 0.024017 0.390387
vt 0.679828 0.793389
vt 0.635936 0.719228
vt 0.139128 0.306969
vt 0.118366 0.973402
vt 0.104681 0.923572
vt 0.127549 0.952648
vt 0.081786 0.957095
vt 0.073775 0.934591
vt 0.080363 0.927011
vt 0.116546 0.895006
vt 0.490045 0.852577
vt 0.455031 0.904056
vt 0.449402 0.888697
vt 0.421854 0.945516
vt 0.467505 0.938781
vt 0.464980 0.950742
vt 0.475418 0.930513
vt 0.106933 0.905805
vt 0.112334 0.882590
vt 0.065573 0.969959
vt 0.078366 0.977582
vt 0.028693 0.978007
vt 0.020969 0.909699
vt 0.020765 0.918935
vt 0.014194 0.925172
vt 0.520035 0.903745
vt 0.538051 0.893903
vt 0.539088 0.906992
vt 0.507608 0.944820
vt 0.523608 0.953756
vt 0.054335 0.895687
vt 0.055163 0.882557
vt 0.478391 0.855473
vt 0.428437 0.851669
vt 0.440230 0.883503
vt 0.427574 0.894220
vt 0.478987 0.906835
vt 0.467593 0.906147
vt 0.434304 0.848979
vt 0.125845 0.911521
vt 0.123719 0.879944
vt 0.067163 0.955166
vt 0.615575 0.955580
vt 0.639892 0.941937
vt 0.640719 0.968903
vt 0.640167 0.995162
vt 0.596149 0.980512
vt 0.713305 0.190007
vt 0.743265 0.181689
vt 0.686296 0.166573
vt 0.667322 0.070442
vt 0.693890 0.503246
vt 0.588957 0.490894
vt 0.676444 0.470761
vt 0.382797 0.119093
vt 0.347081 0.152574
vt 0.759960 0.421624
vt 0.771035 0.463768
vt 0.450971 0.125807
vt 0.428817 0.116444
vt 0.510317 0.127411
vt 0.485805 0.161559
vt 0.534575 0.039526
vt 0.782683 0.404571
vt 0.838740 0.427638
vt 0.832925 0.451459
vt 0.471376 0.092151
vt 0.468604 0.146117
vt 0.539816 0.049047
vt 0.905749 0.457417
vt 0.911089 0.471922
vt 0.749345 0.406418
vt 0.778838 0.391235
vt 0.459378 0.171288
vt 0.512592 0.439379
vt 0.501161 0.443917
vt 0.452357 0.472550
vt 0.525317 0.499707
vt 0.449415 0.515586
vt 0.379408 0.367052
vt 0.350954 0.239933
vt 0.415935 0.326514
vt 0.331065 0.559386
vt 0.806583 0.085133
vt 0.828129 0.139171
vt 0.795477 0.106707
vt 0.826077 0.091668
vt 0.863954 0.169071
vt 0.842086 0.218531
vt 0.833043 0.249952
vt 0.829390 0.236924
vt 0.406672 0.466132
vt 0.374770 0.512854
vt 0.878479 0.233721
vt 0.047390 0.728896
vt 0.051524 0.699154
vt 0.070400 0.724450
vt 0.135480 0.696756
vt 0.132000 0.732647
vt 0.102788 0.707803
vt 0.105388 0.726717
vt 0.084133 0.680882
vt 0.170129 0.740255
vt 0.363470 0.173962
vt 0.590184 0.044238
vt 0.951899 0.420863
vt 0.963595 0.431403
vt 0.923274 0.459982
vt 0.591019 0.028660
vt 0.528188 0.028864
vt 0.549186 0.019337
vt 0.622434 0.873113
vt 0.635982 0.858680
vt 0.617692 0.895527
vt 0.846871 0.807922
vt 0.876300 0.781479
vt 0.861700 0.829416
vt 0.839137 0.817959
vt 0.829332 0.772736
vt 0.840379 0.779545
vt 0.651436 0.831353
vt 0.654841 0.809235
vt 0.664138 0.834115
vt 0.884995 0.771522
vt 0.873121 0.768368
vt 0.652537 0.850779
vt 0.680801 0.899759
vt 0.595130 0.895519
vt 0.559916 0.901087
vt 0.561838 0.910539
vt 0.873850 0.865044
vt 0.840836 0.851465
vt 0.872403 0.844434
vt 0.658146 0.796197
vt 0.667455 0.801763
vt 0.616091 0.890001
vt 0.880672 0.861484
vt 0.538541 0.856676
vt 0.548480 0.850355
vt 0.544304 0.862283
vt 0.909769 0.799432
vt 0.949778 0.822878
vt 0.899720 0.834659
vt 0.598542 0.864039
vt 0.593817 0.880141
vt 0.919562 0.880468
vt 0.940803 0.875718
vt 0.939953 0.886222
vt 0.917870 0.887185
vt 0.876666 0.791023
vt 0.870376 0.811521
vt 0.641671 0.829042
vt 0.904185 0.852456
vt 0.829724 0.825066
vt 0.806434 0.860942
vt 0.673269 0.912174
vt 0.892644 0.826091
vt 0.905113 0.869883
vt 0.295385 0.739980
vt 0.345592 0.772462
vt 0.316392 0.794680
vt 0.502748 0.357303
vt 0.535719 0.321762
vt 0.608897 0.385961
vt 0.602211 0.398297
vt 0.449567 0.752000
vt 0.390959 0.831576
vt 0.432574 0.741049
vt 0.503167 0.297797
vt 0.511590 0.307330
vt 0.457581 0.310352
vt 0.761860 0.924023
vt 0.718718 0.952153
vt 0.733373 0.912884
vt 0.729557 0.976309
vt 0.810962 0.927773
vt 0.767871 0.973264
vt 0.766001 0.932581
vt 0.324515 0.969730
vt 0.309095 0.955072
vt 0.311095 0.936947
vt 0.832353 0.965244
vt 0.827693 0.972614
vt 0.823468 0.962766
vt 0.762569 0.979646
vt 0.811445 0.982315
vt 0.720136 0.886933
vt 0.359808 0.872325
vt 0.351878 0.871116
vt 0.352591 0.865170
vt 0.301963 0.892940
vt 0.330432 0.908969
vt 0.317200 0.925681
vt 0.303936 0.875494
vt 0.289251 0.878598
vt 0.296225 0.868612
vt 0.742439 0.917384
vt 0.351064 0.919019
vt 0.280205 0.981837
vt 0.284162 0.970493
vt 0.243522 0.922364
vt 0.260858 0.927795
vt 0.249864 0.932444
vt 0.831636 0.922576
vt 0.819095 0.911050
vt 0.836597 0.915471
vt 0.264493 0.978343
vt 0.267077 0.967488
vt 0.831085 0.977858
vt 0.785255 0.908769
vt 0.790863 0.886114
vt 0.753151 0.916682
vt 0.341514 0.907681
vt 0.738986 0.895180
vt 0.377876 0.933213
vt 0.372834 0.947744
vt 0.773422 0.937285
vt 0.886116 0.949940
vt 0.873487 0.924778
vt 0.900606 0.925697
vt 0.928995 0.931725
vt 0.911867 0.964582
vt 0.889526 0.894053
vt 0.176466 0.128755
vt 0.271474 0.544543
vt 0.256187 0.506944
vt 0.637406 0.129504
vt 0.438818 0.631081
vt 0.650193 0.668986
vt 0.217878 0.916427
vt 0.148646 0.850081
vt 0.137409 0.864427
vt 0.049385 0.769401
vt 0.036182 0.768750
vt 0.227985 0.892803
vt 0.228618 0.921911
vt 0.045460 0.787537
vt 0.080118 0.762691
vt 0.229270 0.859119
vt 0.089417 0.792109
vt 0.172396 0.790393
vt 0.156684 0.845095
vt 0.189308 0.777448
vt 0.160524 0.387823
vt 0.562008 0.721804
vt 0.627479 0.688599
vt 0.012991 0.350330
vt 0.695141 0.779497
vt 0.663403 0.693692
vt 0.119773 0.871882
vt 0.114444 0.877636
vt 0.024150 0.963782
vt 0.014258 0.967985
vt 0.517570 0.962658
vt 0.494543 0.849020
vt 0.491478 0.865174
vt 0.067969 0.883706
vt 0.595260 0.943513
vt 0.627817 0.920380
vt 0.095368 0.913930
vt 0.421641 0.853414
vt 0.412925 0.919909
vt 0.115464 0.297772
vt 0.103495 0.980548
vt 0.670329 0.969581
vt 0.659117 0.930761
vt 0.591179 0.459467
vt 0.790328 0.429447
vt 0.774991 0.106038
vt 0.286300 0.761900
vt 0.801664 0.166520
vt 0.776668 0.177048
vt 0.837350 0.188215
vt 0.658075 0.462931
vt 0.943353 0.838149
vt 0.954658 0.831204
vt 0.945930 0.414453
vt 0.591645 0.036915
vt 0.690232 0.888604
vt 0.605633 0.852596
vt 0.627531 0.838729
vt 0.616580 0.792754
vt 0.567890 0.871740
vt 0.821391 0.883877
vt 0.854624 0.802234
vt 0.887502 0.806611
vt 0.914462 0.804790
vt 0.924803 0.790243
vt 0.954262 0.838550
vt 0.558563 0.913024
vt 0.608420 0.835801
vt 0.585445 0.834534
vt 0.576421 0.816589
vt 0.883046 0.764647
vt 0.597158 0.909023
vt 0.840034 0.766802
vt 0.915834 0.782446
vt 0.569665 0.825331
vt 0.612704 0.800359
vt 0.617063 0.807724
vt 0.624648 0.791651
vt 0.617703 0.348989
vt 0.613894 0.359054
vt 0.534107 0.299686
vt 0.389834 0.812659
vt 0.743367 0.983638
vt 0.728092 0.881403
vt 0.798409 0.892025
vt 0.258022 0.914380
vt 0.305060 0.907520
vt 0.779891 0.885611
vt 0.354958 0.970176
vt 0.777604 0.962972
vt 0.411575 0.835774
vt 0.400700 0.850500
vt 0.917849 0.905664
vt 0.861295 0.903060
vt 0.849821 0.939848
vt 0.881804 0.970970
vt 0.435075 0.544542
vt 0.781851 0.236868
s 1
usemtl Frog
f 16/1/1 1/2/2 17/3/3
f 3/4/4 126/5/5 17/6/3
f 130/7/6 4/8/7 2/9/8
f 7/10/9 1/2/2 2/11/8
f 7/10/9 5/12/10 1/2/2
f 14/13/11 7/10/9 4/14/7
f 12/15/12 11/16/13 36/17/14
f 15/18/15 10/19/16 9/20/17
f 8/21/18 10/22/16 13/23/19
f 36/24/14 8/21/18 12/25/12
f 39/26/20 11/16/13 37/27/21
f 11/16/13 9/20/17 37/27/21
f 10/19/16 37/27/21 9/20/17
f 4/14/7 15/18/15 14/13/11
f 12/15/12 14/13/11 11/16/13
f 11/16/13 14/13/11 9/20/17
f 12/25/12 13/23/19 14/28/11
f 17/3/3 23/29/22 28/30/23
f 22/31/24 127/32/25 16/1/1
f 18/33/26 147/34/27 83/35/28
f 83/35/28 23/36/22 126/5/5
f 126/5/5 3/4/4 6/37/29
f 147/34/27 31/38/30 30/39/31
f 16/40/1 25/41/32 22/42/24
f 25/43/32 28/44/23 29/45/33
f 19/46/34 20/47/35 26/48/36
f 19/46/34 26/48/36 31/49/30
f 34/50/37 27/51/38 26/48/36
f 27/51/38 34/52/37 121/53/39
f 25/54/32 29/55/33 121/53/39
f 123/56/40 21/57/41 33/58/42
f 22/59/24 33/58/42 21/57/41
f 119/60/43 118/61/44 33/58/42
f 21/57/41 123/56/40 24/62/45
f 121/63/39 119/60/43 25/64/32
f 16/1/1 17/3/3 28/30/23
f 5/12/10 17/3/3 1/2/2
f 13/65/19 5/12/10 7/10/9
f 5/66/10 13/23/19 3/4/4
f 4/14/7 7/10/9 2/11/8
f 35/67/46 43/68/47 39/26/20
f 43/69/47 36/24/14 39/70/20
f 43/69/47 57/71/48 36/24/14
f 39/26/20 37/27/21 35/67/46
f 37/27/21 38/72/49 35/67/46
f 8/21/18 57/71/48 38/73/49
f 37/74/21 10/22/16 8/21/18
f 37/75/21 8/21/18 38/76/49
f 79/77/50 72/78/51 77/79/52
f 40/80/53 79/77/50 63/81/54
f 72/78/51 70/82/55 69/83/56
f 66/84/57 68/85/58 76/86/59
f 80/87/60 47/88/61 51/89/62
f 69/90/56 61/91/63 54/92/64
f 51/89/62 55/93/65 65/94/66
f 47/95/61 60/96/67 55/97/65
f 41/98/68 40/80/53 51/89/62
f 75/99/69 74/100/70 58/101/71
f 47/95/61 65/102/66 60/96/67
f 74/100/70 75/99/69 78/103/72
f 74/100/70 78/103/72 67/104/73
f 52/105/74 42/106/75 59/107/76
f 59/108/76 67/104/73 52/109/74
f 63/110/54 45/111/77 46/112/78
f 53/113/79 75/99/69 62/114/80
f 66/84/57 49/115/81 68/85/58
f 56/116/82 45/111/77 50/117/83
f 46/112/78 45/111/77 56/116/82
f 55/93/65 60/118/67 65/94/66
f 61/119/63 69/83/56 70/82/55
f 44/120/84 47/95/61 80/121/60
f 64/122/85 40/80/53 63/81/54
f 76/86/59 68/85/58 77/79/52
f 48/123/86 71/124/87 77/79/52
f 73/125/88 72/78/51 69/83/56
f 44/120/84 64/126/85 45/111/77
f 70/127/55 72/128/51 54/92/64
f 74/100/70 48/129/86 73/130/88
f 78/103/72 75/99/69 76/131/59
f 77/79/52 71/124/87 76/86/59
f 62/114/80 58/101/71 63/110/54
f 44/120/84 80/121/60 64/126/85
f 35/132/46 38/73/49 57/71/48
f 29/133/33 116/134/89 30/39/31
f 28/44/23 85/135/90 29/45/33
f 82/136/91 91/137/92 81/138/93
f 82/136/91 116/134/89 96/139/94
f 96/140/94 116/141/89 85/135/90
f 116/134/89 147/34/27 30/39/31
f 116/134/89 83/35/28 147/34/27
f 23/36/22 82/136/91 84/142/95
f 86/143/96 95/144/97 96/145/94
f 95/144/97 86/143/96 88/146/98
f 88/146/98 107/147/99 108/148/100
f 95/144/97 101/149/101 96/145/94
f 112/150/102 89/151/103 90/152/104
f 91/153/92 103/154/105 97/155/106
f 89/151/103 115/156/107 103/154/105
f 114/157/108 113/158/109 101/149/101
f 87/159/110 97/160/106 99/161/111
f 93/162/112 110/163/113 105/164/114
f 111/165/115 93/166/112 105/167/114
f 106/168/116 92/169/117 103/154/105
f 88/146/98 105/164/114 110/163/113
f 102/170/118 94/171/119 108/148/100
f 108/148/100 94/171/119 95/144/97
f 90/152/104 104/172/120 112/150/102
f 98/173/121 114/174/108 109/175/122
f 93/166/112 111/165/115 107/176/99
f 108/177/100 111/165/115 115/156/107
f 105/167/114 115/156/107 111/165/115
f 101/149/101 95/144/97 114/157/108
f 114/174/108 98/173/121 113/178/109
f 109/179/122 101/149/101 100/180/123
f 115/181/107 88/146/98 87/159/110
f 88/146/98 115/181/107 105/164/114
f 84/142/95 82/136/91 81/138/93
f 120/182/124 122/183/125 117/184/126
f 117/184/126 118/185/44 119/186/43
f 117/184/126 119/186/43 120/182/124
f 21/187/41 144/188/127 22/42/24
f 21/187/41 24/189/45 20/47/35
f 151/190/128 19/46/34 31/49/30
f 131/191/129 124/192/130 128/193/131
f 139/194/132 130/7/6 2/9/8
f 139/194/132 132/195/133 130/7/6
f 138/196/134 139/197/132 131/191/129
f 140/198/135 139/194/132 141/199/136
f 133/200/137 143/201/138 159/202/139
f 141/203/136 133/204/137 134/205/140
f 134/206/140 142/207/141 140/198/135
f 135/208/142 133/200/137 159/202/139
f 135/209/142 136/210/143 134/205/140
f 138/196/134 137/211/144 143/212/138
f 137/213/144 142/207/141 143/201/138
f 202/214/145 124/192/130 205/215/146
f 148/216/147 125/217/148 145/218/149
f 147/34/27 18/33/26 204/219/150
f 204/219/150 129/220/151 202/221/145
f 147/34/27 151/222/128 31/38/30
f 19/223/34 149/224/152 153/225/153
f 151/226/128 149/224/152 19/223/34
f 152/227/154 150/228/155 149/224/152
f 150/228/155 148/229/147 157/230/156
f 146/231/157 152/232/154 147/34/27
f 148/229/147 150/228/155 146/233/157
f 157/234/156 148/235/147 243/236/158
f 144/237/127 245/238/159 154/239/160
f 156/240/161 154/239/160 245/238/159
f 144/237/127 154/239/160 145/241/149
f 245/238/159 144/237/127 155/242/162
f 127/32/25 145/218/149 125/217/148
f 128/193/131 138/196/134 131/191/129
f 128/243/131 132/195/133 137/213/144
f 139/194/132 140/198/135 132/195/133
f 159/202/139 194/244/163 135/208/142
f 178/245/164 201/246/165 158/247/166
f 201/248/165 136/249/143 158/250/166
f 200/251/167 160/252/168 161/253/169
f 195/254/170 187/255/171 196/256/172
f 185/257/173 171/258/174 193/259/175
f 195/260/170 193/261/175 163/262/176
f 183/263/177 187/255/171 188/264/178
f 179/265/179 178/266/164 161/253/169
f 168/267/180 161/253/169 191/268/181
f 161/253/169 176/269/182 191/268/181
f 166/270/183 182/271/184 167/272/185
f 172/273/186 171/274/174 163/262/176
f 200/251/167 161/253/169 162/275/187
f 167/272/185 180/276/188 166/270/183
f 181/277/189 174/278/190 190/279/191
f 182/271/184 169/280/192 167/272/185
f 182/271/184 185/257/173 195/254/170
f 174/281/190 167/272/185 199/282/193
f 174/278/190 199/283/193 165/284/194
f 170/285/195 191/286/181 177/287/196
f 176/288/182 170/285/195 177/287/196
f 165/284/194 200/251/167 162/275/187
f 182/271/184 196/256/172 169/280/192
f 187/255/171 173/289/197 186/290/198
f 184/291/199 179/265/179 160/252/168
f 165/292/194 180/276/188 167/272/185
f 193/259/175 195/254/170 185/257/173
f 171/258/174 185/257/173 163/293/176
f 185/257/173 201/294/165 163/293/176
f 178/266/164 194/295/163 161/253/169
f 184/291/199 195/260/170 179/265/179
f 167/272/185 198/296/200 199/282/193
f 180/276/188 168/297/180 166/270/183
f 161/253/169 168/267/180 162/275/187
f 146/298/157 203/299/201 205/300/146
f 203/301/201 207/302/202 236/303/203
f 235/304/204 203/301/201 236/303/203
f 240/305/205 208/306/206 235/307/204
f 147/34/27 203/301/201 146/231/157
f 204/219/150 203/301/201 147/34/27
f 208/308/206 206/309/207 205/310/146
f 220/311/208 235/312/204 219/313/209
f 220/311/208 240/314/205 235/312/204
f 231/315/210 216/316/211 218/317/212
f 213/318/213 239/319/214 229/320/215
f 228/321/216 221/322/217 214/323/218
f 213/324/213 216/316/211 222/325/219
f 221/322/217 222/325/219 216/316/211
f 219/313/209 235/312/204 230/326/220
f 230/327/220 234/328/221 233/329/222
f 224/330/223 211/331/224 218/332/212
f 225/333/225 223/334/226 226/335/227
f 218/317/212 216/316/211 220/311/208
f 238/336/228 220/311/208 219/313/209
f 213/318/213 229/320/215 212/337/229
f 221/322/217 216/316/211 214/323/218
f 213/318/213 222/338/219 210/339/230
f 215/340/231 232/341/232 217/342/233
f 217/343/233 231/315/210 227/344/234
f 227/344/234 215/345/231 217/343/233
f 210/339/230 228/346/216 214/347/218
f 221/322/217 228/348/216 222/325/219
f 224/349/223 220/311/208 226/350/227
f 224/330/223 225/333/225 211/331/224
f 211/351/224 226/350/227 220/311/208
f 212/337/229 238/352/228 234/328/221
f 234/353/221 238/336/228 219/313/209
f 235/354/204 236/355/203 212/337/229
f 229/356/215 231/315/210 218/317/212
f 212/337/229 211/331/224 238/352/228
f 242/357/235 244/358/236 241/359/237
f 157/360/156 243/361/158 241/359/237
f 246/362/238 241/359/237 244/358/236
f 125/217/148 2/11/8 127/32/25
f 129/220/151 126/5/5 132/195/133
f 130/7/6 132/195/133 6/37/29
f 2/11/8 1/2/2 16/1/1
f 83/35/28 126/5/5 18/33/26
f 4/8/7 130/7/6 6/37/29
f 3/4/4 13/23/19 6/37/29
f 36/17/14 11/16/13 39/26/20
f 14/13/11 13/65/19 7/10/9
f 12/25/12 8/21/18 13/23/19
f 9/20/17 14/13/11 15/18/15
f 13/23/19 10/22/16 15/363/15
f 20/47/35 144/188/127 21/187/41
f 126/5/5 23/36/22 17/6/3
f 32/364/239 27/365/38 31/38/30
f 31/38/30 27/365/38 30/39/31
f 26/48/36 20/47/35 24/189/45
f 34/50/37 26/48/36 24/189/45
f 26/48/36 32/366/239 31/49/30
f 32/366/239 26/48/36 27/51/38
f 25/367/32 16/1/1 28/30/23
f 27/365/38 29/133/33 30/39/31
f 121/53/39 29/55/33 27/51/38
f 123/56/40 33/58/42 118/61/44
f 22/59/24 25/64/32 33/58/42
f 119/60/43 33/58/42 25/64/32
f 127/32/25 2/11/8 16/1/1
f 5/12/10 3/368/4 17/3/3
f 15/363/15 4/8/7 6/37/29
f 15/363/15 6/37/29 13/23/19
f 8/21/18 36/24/14 57/71/48
f 41/98/68 72/78/51 79/77/50
f 41/98/68 79/77/50 40/80/53
f 68/85/58 79/77/50 77/79/52
f 50/369/83 64/122/85 63/81/54
f 44/120/84 57/370/48 43/371/47
f 44/120/84 74/100/70 57/370/48
f 67/104/73 48/129/86 74/100/70
f 41/98/68 51/89/62 65/94/66
f 66/372/57 53/113/79 49/373/81
f 46/374/78 56/375/82 50/369/83
f 74/100/70 73/130/88 54/92/64
f 44/120/84 58/101/71 74/100/70
f 77/79/52 72/78/51 73/125/88
f 48/123/86 77/79/52 73/125/88
f 72/128/51 57/370/48 74/100/70
f 44/120/84 43/371/47 65/102/66
f 69/90/56 54/92/64 73/130/88
f 68/376/58 53/113/79 62/114/80
f 42/106/75 71/124/87 48/123/86
f 53/113/79 76/131/59 75/99/69
f 52/109/74 67/104/73 42/377/75
f 54/92/64 61/91/63 70/127/55
f 68/376/58 49/373/81 53/113/79
f 47/88/61 55/93/65 51/89/62
f 80/87/60 51/89/62 40/80/53
f 58/101/71 44/120/84 45/111/77
f 50/369/83 63/81/54 46/374/78
f 62/378/80 79/77/50 68/85/58
f 75/99/69 58/101/71 62/114/80
f 48/123/86 59/107/76 42/106/75
f 45/111/77 64/126/85 50/117/83
f 47/95/61 44/120/84 65/102/66
f 53/113/79 66/372/57 76/131/59
f 67/104/73 78/103/72 71/379/87
f 71/379/87 42/377/75 67/104/73
f 59/108/76 48/129/86 67/104/73
f 74/100/70 54/92/64 72/128/51
f 65/94/66 43/380/47 41/98/68
f 72/128/51 35/381/46 57/370/48
f 43/380/47 35/382/46 41/98/68
f 71/379/87 78/103/72 76/131/59
f 63/110/54 58/101/71 45/111/77
f 63/81/54 79/77/50 62/378/80
f 64/122/85 80/87/60 40/80/53
f 41/98/68 35/382/46 72/78/51
f 29/133/33 85/383/90 116/134/89
f 23/384/22 84/385/95 28/44/23
f 86/386/96 81/138/93 91/137/92
f 91/137/92 82/136/91 96/139/94
f 86/387/96 96/140/94 85/135/90
f 81/388/93 86/387/96 85/135/90
f 116/134/89 82/136/91 83/35/28
f 23/36/22 83/35/28 82/136/91
f 85/135/90 28/44/23 84/385/95
f 90/152/104 109/175/122 114/174/108
f 103/154/105 115/156/107 106/168/116
f 115/156/107 89/151/103 108/177/100
f 108/177/100 89/151/103 112/150/102
f 108/148/100 95/144/97 88/146/98
f 97/160/106 87/159/110 86/143/96
f 91/153/92 89/151/103 103/154/105
f 98/389/121 100/180/123 113/390/109
f 106/391/116 99/161/111 92/392/117
f 88/146/98 86/143/96 87/159/110
f 113/158/109 100/180/123 101/149/101
f 99/393/111 97/155/106 103/154/105
f 106/391/116 115/181/107 87/159/110
f 94/394/119 102/395/118 112/150/102
f 94/394/119 112/150/102 104/172/120
f 106/391/116 87/159/110 99/161/111
f 92/169/117 99/393/111 103/154/105
f 102/395/118 108/177/100 112/150/102
f 104/396/120 95/144/97 94/171/119
f 121/397/39 34/398/37 122/183/125 120/182/124
f 95/144/97 104/396/120 90/399/104
f 109/179/122 96/145/94 101/149/101
f 98/173/121 109/175/122 100/400/123
f 95/144/97 90/399/104 114/157/108
f 107/176/99 111/165/115 108/177/100
f 96/401/94 109/175/122 89/151/103
f 89/151/103 91/153/92 96/401/94
f 90/152/104 89/151/103 109/175/122
f 81/138/93 85/402/90 84/142/95
f 97/160/106 86/143/96 91/403/92
f 120/182/124 119/186/43 121/397/39
f 123/404/40 117/184/126 122/183/125 24/405/45
f 24/405/45 122/183/125 34/398/37
f 243/236/158 148/235/147 145/241/149 154/239/160
f 88/146/98 110/163/113 93/162/112 107/147/99
f 117/184/126 123/404/40 118/185/44
f 125/217/148 131/191/129 2/11/8
f 131/191/129 139/197/132 2/11/8
f 202/214/145 129/406/151 124/192/130
f 18/33/26 129/220/151 204/219/150
f 18/33/26 126/5/5 129/220/151
f 128/193/131 137/211/144 138/196/134
f 136/249/143 142/207/141 134/206/140
f 136/249/143 159/202/139 142/207/141
f 141/203/136 134/205/140 140/407/135
f 159/202/139 143/201/138 142/207/141
f 134/205/140 133/204/137 135/209/142
f 138/196/134 141/203/136 139/197/132
f 143/212/138 133/204/137 141/203/136
f 141/203/136 138/196/134 143/212/138
f 125/217/148 205/215/146 124/192/130
f 205/215/146 125/217/148 148/216/147
f 19/223/34 153/225/153 20/408/35
f 152/232/154 151/222/128 147/34/27
f 146/298/157 205/300/146 148/409/147
f 149/224/152 155/410/162 144/411/127
f 155/410/162 149/224/152 246/412/238
f 144/411/127 153/225/153 149/224/152
f 151/226/128 152/227/154 149/224/152
f 149/224/152 150/228/155 246/412/238
f 152/227/154 146/233/157 150/228/155
f 154/239/160 156/240/161 243/236/158
f 128/193/131 124/192/130 129/406/151 132/413/133
f 131/191/129 125/217/148 124/192/130
f 192/414/240 165/292/194 167/272/185 181/415/189
f 132/195/133 140/198/135 142/207/141
f 137/213/144 132/195/133 142/207/141
f 135/209/142 194/416/163 178/245/164
f 194/244/163 159/202/139 182/417/184
f 178/245/164 158/247/166 135/209/142
f 201/248/165 182/417/184 136/249/143
f 135/209/142 158/247/166 136/210/143
f 163/262/176 201/418/165 178/266/164
f 160/252/168 200/251/167 198/419/200
f 184/291/199 186/420/198 173/421/197
f 192/422/240 174/278/190 165/284/194
f 170/285/195 194/423/163 166/270/183
f 196/256/172 182/271/184 195/254/170
f 195/254/170 184/424/199 187/255/171
f 196/256/172 197/425/241 169/280/192
f 170/285/195 168/297/180 191/286/181
f 164/426/242 169/280/192 189/427/243
f 181/415/189 190/428/191 192/414/240
f 160/252/168 179/265/179 161/253/169
f 163/262/176 178/266/164 179/265/179
f 176/269/182 177/429/196 191/268/181
f 174/278/190 192/422/240 190/279/191
f 198/419/200 197/430/241 160/252/168
f 198/419/200 164/431/242 197/430/241
f 197/430/241 164/431/242 175/432/244
f 172/273/186 163/262/176 193/261/175
f 173/433/197 183/263/177 188/264/178
f 170/434/195 176/269/182 161/253/169
f 169/280/192 164/426/242 198/296/200
f 172/435/186 193/259/175 171/258/174
f 175/436/244 189/427/243 169/280/192
f 175/432/244 164/431/242 189/437/243
f 183/438/177 173/421/197 187/439/171
f 175/436/244 169/280/192 197/425/241
f 182/271/184 166/270/183 194/423/163
f 165/284/194 199/283/193 200/251/167
f 173/421/197 188/440/178 184/291/199
f 187/255/171 184/424/199 188/264/178
f 186/420/198 184/291/199 160/252/168
f 186/290/198 196/256/172 187/255/171
f 195/260/170 163/262/176 179/265/179
f 240/441/205 237/442/245 207/302/202 209/443/246
f 167/272/185 174/281/190 181/415/189
f 166/270/183 168/297/180 170/285/195
f 167/272/185 169/280/192 198/296/200
f 170/434/195 161/253/169 194/295/163
f 182/271/184 201/294/165 185/257/173
f 186/420/198 160/252/168 197/430/241
f 186/290/198 197/425/241 196/256/172
f 199/283/193 198/419/200 200/251/167
f 165/284/194 162/275/187 168/267/180
f 165/292/194 168/297/180 180/276/188
f 136/249/143 182/417/184 159/202/139
f 209/443/246 207/302/202 206/309/207
f 237/442/245 236/303/203 207/302/202
f 203/444/201 235/307/204 208/306/206
f 203/301/201 204/219/150 202/221/145
f 206/309/207 202/221/145 205/310/146
f 203/301/201 202/221/145 206/309/207
f 205/300/146 203/299/201 208/306/206
f 220/311/208 216/316/211 240/314/205
f 240/314/205 216/316/211 213/324/213
f 239/319/214 213/318/213 210/339/230
f 214/347/218 239/319/214 210/339/230
f 230/327/220 235/354/204 212/337/229
f 211/331/224 229/320/215 218/332/212
f 237/445/245 240/314/205 213/324/213
f 230/326/220 233/446/222 219/313/209
f 224/349/223 226/350/227 223/447/226
f 225/333/225 224/330/223 223/334/226
f 232/341/232 215/340/231 227/448/234
f 222/338/219 228/346/216 210/339/230
f 229/320/215 239/319/214 232/341/232
f 227/344/234 231/315/210 229/356/215
f 220/449/208 224/330/223 218/332/212
f 211/351/224 225/450/225 226/350/227
f 237/451/245 213/318/213 212/337/229
f 212/337/229 236/355/203 237/451/245
f 231/315/210 217/343/233 239/452/214
f 239/319/214 217/342/233 232/341/232
f 227/448/234 229/320/215 232/341/232
f 214/323/218 216/316/211 239/452/214
f 234/353/221 219/313/209 233/446/222
f 234/328/221 230/327/220 212/337/229
f 220/311/208 238/336/228 211/351/224
f 239/452/214 216/316/211 231/315/210
f 211/331/224 212/337/229 229/320/215
f 240/305/205 209/453/246 208/306/206
f 207/302/202 203/301/201 206/309/207
f 208/306/206 209/453/246 206/454/207
f 241/359/237 243/361/158 242/357/235
f 150/455/155 157/360/156 241/359/237
f 246/362/238 150/455/155 241/359/237
f 246/362/238 244/358/236 155/456/162
f 245/457/159 155/456/162 244/358/236
f 242/357/235 245/457/159 244/358/236
f 245/457/159 242/357/235 156/458/161
f 242/357/235 243/361/158 156/458/161
f 126/5/5 6/37/29 132/195/133
f 127/32/25 22/459/24 145/218/149
f 144/188/127 145/460/149 22/42/24
f 20/408/35 153/225/153 144/411/127
