# Blender 5.0.1
# www.blender.org
mtllib key.mtl
o key
v 19.567978 7.996341 -21.296425
v 19.567978 -7.996343 -21.296425
v 19.567978 9.332225 -60.432392
v 19.567978 -9.332227 -60.432392
v -19.567978 9.332226 -60.432392
v -19.567978 -9.332224 -60.432392
v -19.567978 7.996343 -21.296425
v -19.567978 -7.996341 -21.296425
v -15.058320 -6.153494 -25.806082
v 15.058320 -6.153495 -25.806082
v -15.058320 -6.153494 -55.922714
v 15.058320 -6.153495 -55.922714
v -15.058320 6.153495 -25.806082
v 15.058320 6.153494 -25.806082
v 15.058320 6.153494 -55.922714
v -15.058320 6.153495 -55.922714
v -1.385775 -10.035359 -65.422104
v -1.385774 10.035359 -65.422104
v -1.066408 7.722598 -59.762501
v -1.066408 -7.722598 -59.762501
v -0.179008 -7.722598 -21.966303
v -0.232617 -10.035359 -16.306709
v -0.232617 10.035359 -16.306709
v -0.179008 7.722598 -21.966303
v -18.898096 -7.722597 -40.753197
v -24.557690 -10.035358 -40.719887
v -24.557690 10.035360 -40.719887
v -18.898096 7.722599 -40.753197
v 18.898096 -7.722599 -40.892162
v 24.557690 -10.035360 -40.900475
v 24.557690 10.035358 -40.900475
v 18.898096 7.722597 -40.892162
v -4.918777 7.996342 -13.308756
v -4.918778 -7.996342 -13.308756
v -0.058473 -10.035359 -12.551675
v -0.058473 10.035359 -12.551675
v 4.918777 -7.996342 -13.308756
v 4.918778 7.996342 -13.308756
v -4.918777 7.996342 59.780266
v -4.918778 -7.996342 59.780266
v -0.058473 -10.035359 60.537350
v -0.058473 10.035359 60.537350
v 4.918777 -7.996342 59.780266
v 4.918778 7.996342 59.780266
v -0.058473 -10.035359 52.200619
v -4.918778 -7.996342 51.443535
v -4.918777 7.996342 51.443535
v -0.058473 10.035359 52.200619
v 4.918778 7.996342 51.443535
v 4.918777 -7.996342 51.443535
v -0.058473 -10.035359 45.735344
v -4.918778 -7.996342 44.978271
v -4.918777 7.996342 44.978271
v -0.058473 10.035359 45.735344
v 4.918778 7.996342 44.978271
v 4.918777 -7.996342 44.978271
v -0.058473 -10.035359 34.084888
v -4.918778 -7.996342 33.327812
v -4.918777 7.996342 33.327812
v -0.058473 10.035359 34.084888
v 4.918778 7.996342 33.327812
v 4.918777 -7.996342 33.327812
v -0.058473 -10.035359 27.173466
v -4.918778 -7.996342 26.416384
v -4.918777 7.996342 26.416384
v -0.058473 10.035359 27.173466
v 4.918778 7.996342 26.416384
v 4.918777 -7.996342 26.416384
v -25.716597 -7.996341 44.978271
v -25.716597 7.996343 44.978271
v -25.716597 -7.996341 51.443535
v -25.716597 7.996343 51.443535
v -25.716597 -7.996341 26.416384
v -25.716597 7.996343 26.416384
v -25.716597 -7.996341 33.327812
v -25.716597 7.996343 33.327812
v -20.541513 0.864843 -62.743259
v -25.787046 0.941000 -40.956242
v -20.541513 0.741043 -22.047745
v -5.141254 0.741042 -13.741776
v -5.141254 0.741042 27.566389
v -27.005371 0.741043 27.566389
v -27.005371 0.741043 34.753239
v -5.141254 0.741042 34.753239
v -5.141254 0.741042 46.867958
v -27.005371 0.741043 46.867958
v -27.005371 0.741043 53.590862
v -5.141254 0.741042 53.590862
v -5.141254 0.741042 62.259804
v -0.031762 0.940999 63.047058
v 5.200670 0.741042 62.259804
v 5.200670 0.741042 53.590862
v 5.200670 0.741042 46.867958
v 5.200670 0.741042 34.753239
v 5.200670 0.741042 27.566397
v 5.200670 0.741042 -13.741776
v 20.600931 0.741041 -22.047745
v 25.846464 0.940998 -41.144024
v 20.600931 0.864841 -62.743259
v -1.427115 0.940999 -67.931816
v -0.163044 1.312865 -23.651571
v -13.715470 1.067680 -27.148932
v -17.212828 1.312866 -40.763115
v -13.715470 1.067680 -54.579865
v -0.971310 1.312865 -58.077232
v 13.715470 1.067678 -54.579865
v 17.212828 1.312864 -40.889687
v 13.715470 1.067678 -27.148932
vn 0.9580 0.1202 0.2603
vn 0.9653 -0.0013 0.2611
vn 0.9653 0.0016 0.2611
vn 0.2265 0.2697 -0.9359
vn 0.2344 -0.0016 -0.9721
vn 0.2344 0.0010 -0.9721
vn -0.9585 0.1549 -0.2393
vn -0.9703 -0.0016 -0.2417
vn -0.9703 0.0008 -0.2417
vn -0.2094 0.2877 0.9346
vn -0.2067 -0.0160 0.9783
vn -0.2079 0.0163 0.9780
vn -0.1042 -0.9899 -0.0962
vn -0.0274 -0.9511 -0.3077
vn -0.0000 -0.9257 -0.3783
vn 0.4548 -0.8888 0.0572
vn -0.0544 -0.8878 0.4570
vn -0.3783 -0.9257 -0.0000
vn -0.0274 0.9511 -0.3077
vn -0.1042 0.9899 -0.0962
vn -0.0000 0.9257 -0.3783
vn -0.3783 0.9257 -0.0000
vn -0.0544 0.8878 0.4570
vn 0.4548 0.8888 0.0572
vn 0.6720 0.3158 -0.6699
vn -0.0003 0.2795 -0.9602
vn -0.0001 0.0070 -1.0000
vn 0.7084 -0.0052 -0.7058
vn 0.9602 0.2795 0.0002
vn 1.0000 0.0070 0.0001
vn 0.7295 -0.0054 0.6839
vn 0.6897 0.3157 0.6516
vn -0.9602 0.2795 0.0004
vn -1.0000 0.0070 -0.0000
vn -0.7043 -0.0051 -0.7099
vn -0.6685 0.3158 -0.6733
vn -0.6539 0.3157 0.6876
vn -0.0020 0.2794 0.9602
vn -0.0006 0.0070 1.0000
vn -0.6867 -0.0049 0.7269
vn -0.2588 0.2696 -0.9276
vn -0.2677 0.0012 -0.9635
vn -0.2677 -0.0017 -0.9635
vn 0.0611 0.8901 0.4517
vn 0.0611 -0.8901 0.4517
vn 0.0269 -0.9511 -0.3077
vn 0.0984 -0.9892 -0.1085
vn 0.2049 0.2892 0.9351
vn 0.2035 0.0160 0.9789
vn 0.2023 -0.0158 0.9792
vn 0.0984 0.9892 -0.1085
vn 0.0269 0.9511 -0.3077
vn 0.3783 -0.9257 -0.0000
vn -0.9583 0.1133 0.2625
vn -0.9648 0.0015 0.2631
vn -0.9648 -0.0013 0.2631
vn 0.3783 0.9257 -0.0000
vn -0.4544 -0.8889 0.0576
vn 0.9569 0.1616 -0.2412
vn 0.9698 0.0008 -0.2440
vn 0.9698 -0.0016 -0.2439
vn -0.4544 0.8889 0.0576
vn -0.4764 -0.0324 0.8786
vn -0.4767 0.0001 0.8791
vn -0.4767 -0.0001 0.8791
vn -0.2244 -0.9324 0.2833
vn -0.2244 0.9324 0.2833
vn 0.2164 -0.9391 0.2668
vn 0.4767 0.0001 0.8791
vn 0.4765 -0.0285 0.8787
vn 0.4767 -0.0000 0.8791
vn 0.2164 0.9391 0.2668
vn -0.9995 0.0306 -0.0000
vn -1.0000 -0.0001 -0.0000
vn -0.3869 -0.9221 -0.0000
vn -0.3869 0.9221 -0.0000
vn 0.3791 -0.9254 -0.0000
vn 1.0000 -0.0000 -0.0000
vn 0.9992 0.0388 -0.0000
vn 0.3791 0.9254 -0.0000
vn -1.0000 0.0002 -0.0000
vn -1.0000 -0.0003 -0.0000
vn 1.0000 -0.0003 -0.0000
vn -0.9846 0.1749 -0.0000
vn -1.0000 0.0008 -0.0000
vn -1.0000 -0.0011 -0.0000
vn -1.0000 0.0001 -0.0000
vn -1.0000 -0.0002 -0.0000
vn -1.0000 0.0005 -0.0000
vn -1.0000 -0.0007 -0.0000
vn -0.0000 -0.2520 -0.9677
vn -0.0000 -0.0002 -1.0000
vn -0.0000 0.0009 -1.0000
vn -0.0000 -1.0000 -0.0000
vn -0.0000 0.0002 1.0000
vn -0.0000 0.2838 0.9589
vn -0.0000 -0.0011 1.0000
vn -0.0000 1.0000 -0.0000
vn -0.0000 -0.1566 -0.9877
vn -0.0000 -0.0001 -1.0000
vn -0.0000 0.0006 -1.0000
vn -0.0000 0.0001 1.0000
vn -0.0000 0.1928 0.9812
vn -0.0000 -0.0007 1.0000
vn -0.9624 -0.1289 -0.2393
vn -0.9607 -0.0943 0.2610
vn -0.4765 0.0269 0.8788
vn -0.9997 -0.0255 -0.0000
vn -0.0000 0.1305 -0.9914
vn -0.9893 -0.1459 -0.0000
vn -0.0000 -0.1610 0.9870
vn -0.0000 0.2114 -0.9774
vn -0.0000 -0.2387 0.9711
vn -0.1920 -0.2426 0.9509
vn 0.1878 -0.2437 0.9515
vn 0.9995 -0.0322 -0.0000
vn 0.4765 0.0237 0.8788
vn 0.9607 -0.1001 0.2588
vn 0.9611 -0.1345 -0.2412
vn 0.2276 -0.2263 -0.9471
vn -0.2600 -0.2262 -0.9387
vn -0.0003 -0.2023 -0.9793
vn 0.6895 -0.2283 -0.6873
vn 0.9793 -0.2023 0.0003
vn 0.7079 -0.2281 0.6685
vn -0.0023 -0.2023 0.9793
vn -0.6708 -0.2283 0.7056
vn -0.9793 -0.2023 0.0001
vn -0.6860 -0.2283 -0.6909
vt 0.375000 0.000000
vt 0.488340 0.000000
vt 0.488340 0.125184
vt 0.375000 0.125184
vt 0.375000 0.250000
vt 0.488340 0.250000
vt 0.488340 0.382054
vt 0.375000 0.382054
vt 0.375000 0.500000
vt 0.488340 0.500000
vt 0.488340 0.625736
vt 0.375000 0.625736
vt 0.375000 0.750000
vt 0.488340 0.750000
vt 0.488340 0.873816
vt 0.375000 0.873816
vt 0.751184 0.000000
vt 0.875000 0.000000
vt 0.875000 0.124264
vt 0.875000 0.250000
vt 0.757054 0.250000
vt 0.625000 0.250000
vt 0.625000 0.125184
vt 0.625000 0.000000
vt 0.125000 0.000000
vt 0.248816 0.000000
vt 0.242946 0.250000
vt 0.125000 0.250000
vt 0.125000 0.124264
vt 0.000000 0.000000
vt 0.495264 0.000000
vt 0.495264 0.414221
vt 0.000000 0.414221
vt 0.497058 1.000000
vt 0.497058 0.585779
vt 1.000000 0.585779
vt 1.000000 1.000000
vt 0.499266 1.000000
vt 0.499266 0.585779
vt 0.528215 0.000000
vt 0.528215 0.414221
vt 1.000000 0.000000
vt 1.000000 0.414221
vt 0.488340 1.000000
vt 0.375000 1.000000
vt 0.000000 0.585779
vt 0.000000 1.000000
vt 0.625000 0.750000
vt 0.625000 0.873816
vt 0.625000 1.000000
vt 0.625000 0.500000
vt 0.625000 0.625736
vt 0.625000 0.382054
vt 0.495264 1.000000
vt 0.497058 0.000000
vt 0.528215 1.000000
vt 0.499266 0.000000
s 1
usemtl initialShadingGroup
f 1/1/1 97/2/2 98/3/3 31/4/1
f 3/5/4 99/6/5 100/7/6 18/8/4
f 5/9/7 77/10/8 78/11/9 27/12/7
f 39/13/10 89/14/11 90/15/12 42/16/10
f 22/17/13 8/18/14 9/18/15 21/17/15
f 26/19/16 6/20/16 11/20/16 25/19/16
f 20/21/17 17/21/17 4/22/17 12/22/17
f 30/23/18 2/24/18 10/24/18 29/23/18
f 7/25/19 23/26/20 24/26/21 13/25/21
f 1/1/22 31/4/22 32/4/22 14/1/22
f 3/5/23 18/27/23 19/27/23 15/5/23
f 5/28/24 27/29/24 28/29/24 16/28/24
f 13/30/25 24/31/26 101/32/27 102/33/28
f 28/34/29 103/35/30 104/36/31 16/37/32
f 32/38/33 107/39/34 108/36/35 14/37/36
f 15/30/37 19/40/38 105/41/39 106/33/40
f 18/8/41 100/7/42 77/10/43 5/9/41
f 19/27/44 18/27/44 5/28/44 16/28/44
f 105/41/39 19/40/38 16/42/32 104/43/31
f 6/20/45 17/21/45 20/21/45 11/20/45
f 2/24/46 22/17/47 21/17/15 10/24/15
f 42/16/48 90/15/49 91/44/50 44/45/48
f 24/26/21 23/26/51 1/1/52 14/1/21
f 108/43/35 101/32/27 24/31/26 14/42/36
f 8/18/53 26/19/53 25/19/53 9/18/53
f 27/12/54 78/11/55 79/14/56 7/13/54
f 28/29/57 27/29/57 7/25/57 13/25/57
f 102/46/28 103/35/30 28/34/29 13/47/25
f 4/22/58 30/23/58 29/23/58 12/22/58
f 31/4/59 98/3/60 99/6/61 3/5/59
f 32/4/62 31/4/62 3/5/62 15/5/62
f 106/46/40 107/39/34 32/38/33 15/47/37
f 7/13/63 79/14/64 80/14/65 33/13/63
f 8/48/14 22/49/13 35/49/66 34/48/66
f 23/16/20 7/13/19 33/13/67 36/16/67
f 22/49/47 2/50/46 37/50/68 35/49/68
f 97/44/69 1/45/70 38/45/70 96/44/71
f 1/45/52 23/16/51 36/16/72 38/45/72
f 33/13/73 80/14/74 81/14/74 65/13/73
f 34/48/75 35/49/75 63/49/75 64/48/75
f 36/16/76 33/13/76 65/13/76 66/16/76
f 35/49/77 37/50/77 68/50/77 63/49/77
f 96/44/78 38/45/79 67/45/79 95/44/78
f 38/45/80 36/16/80 66/16/80 67/45/80
f 46/48/75 45/49/75 41/49/75 40/48/75
f 47/13/73 88/14/81 89/14/82 39/13/73
f 48/16/76 47/13/76 39/13/76 42/16/76
f 49/45/80 48/16/80 42/16/80 44/45/80
f 92/44/78 49/45/79 44/45/79 91/44/83
f 45/49/77 50/50/77 43/50/77 41/49/77
f 52/48/75 51/49/75 45/49/75 46/48/75
f 70/13/84 86/14/85 87/14/86 72/13/84
f 54/16/76 53/13/76 47/13/76 48/16/76
f 55/45/80 54/16/80 48/16/80 49/45/80
f 93/44/78 55/45/79 49/45/79 92/44/78
f 51/49/77 56/50/77 50/50/77 45/49/77
f 58/48/75 57/49/75 51/49/75 52/48/75
f 59/13/73 84/14/87 85/14/88 53/13/73
f 60/16/76 59/13/76 53/13/76 54/16/76
f 61/45/80 60/16/80 54/16/80 55/45/80
f 94/44/78 61/45/79 55/45/79 93/44/78
f 57/49/77 62/50/77 56/50/77 51/49/77
f 64/48/75 63/49/75 57/49/75 58/48/75
f 74/13/84 82/14/89 83/14/90 76/13/84
f 66/16/76 65/13/76 59/13/76 60/16/76
f 67/45/80 66/16/80 60/16/80 61/45/80
f 95/44/78 67/45/79 61/45/79 94/44/78
f 63/49/77 68/50/77 62/50/77 57/49/77
f 53/13/91 85/14/92 86/14/93 70/13/91
f 52/48/94 46/48/94 71/48/94 69/48/94
f 88/14/95 47/13/96 72/13/96 87/14/97
f 47/13/98 53/13/98 70/13/98 72/13/98
f 65/13/99 81/14/100 82/14/101 74/13/99
f 64/48/94 58/48/94 75/48/94 73/48/94
f 84/14/102 59/13/103 76/13/103 83/14/104
f 59/13/98 65/13/98 74/13/98 76/13/98
f 77/10/8 6/51/105 26/52/105 78/11/9
f 79/14/56 78/11/55 26/52/106 8/48/106
f 80/14/65 79/14/64 8/48/107 34/48/107
f 81/14/74 80/14/74 34/48/108 64/48/108
f 82/14/101 81/14/100 64/48/109 73/48/109
f 83/14/90 82/14/89 73/48/110 75/48/110
f 58/48/111 84/14/102 83/14/104 75/48/111
f 85/14/88 84/14/87 58/48/108 52/48/108
f 86/14/93 85/14/92 52/48/112 69/48/112
f 87/14/86 86/14/85 69/48/110 71/48/110
f 46/48/113 88/14/95 87/14/97 71/48/113
f 89/14/82 88/14/81 46/48/108 40/48/108
f 90/15/12 89/14/11 40/48/114 41/49/114
f 91/44/50 90/15/49 41/49/115 43/50/115
f 50/50/116 92/44/78 91/44/83 43/50/116
f 56/50/116 93/44/78 92/44/78 50/50/116
f 62/50/116 94/44/78 93/44/78 56/50/116
f 68/50/116 95/44/78 94/44/78 62/50/116
f 37/50/116 96/44/78 95/44/78 68/50/116
f 2/50/117 97/44/69 96/44/71 37/50/117
f 98/3/3 97/2/2 2/24/118 30/23/118
f 99/6/61 98/3/60 30/23/119 4/22/119
f 100/7/6 99/6/5 4/22/120 17/53/120
f 77/10/43 100/7/42 17/53/121 6/51/121
f 102/33/28 101/32/27 21/54/122 9/47/123
f 9/30/123 25/55/124 103/35/30 102/46/28
f 104/36/31 103/35/30 25/55/124 11/42/125
f 20/56/126 105/41/39 104/43/31 11/37/125
f 106/33/40 105/41/39 20/56/126 12/47/127
f 12/30/127 29/57/128 107/39/34 106/46/40
f 108/36/35 107/39/34 29/57/128 10/42/129
f 21/54/122 101/32/27 108/43/35 10/37/129
