# Blender 5.0.1
# www.blender.org
mtllib openBook.mtl
o BookOpen_LP
v 0.625313 1.018056 0.428460
v 0.625313 1.018056 -0.428460
v -0.616417 1.003922 0.428460
v -0.616417 1.003922 -0.428460
v 0.625313 1.028916 0.428460
v 0.625313 1.028916 -0.428460
v -0.616417 1.017206 0.428460
v -0.616417 1.017206 -0.428460
v -0.501508 1.005032 0.428460
v -0.501508 1.005032 -0.428460
v -0.501508 1.083847 0.418782
v -0.375952 1.006898 0.428460
v -0.375952 1.006898 -0.428460
v -0.375952 1.087728 -0.417237
v -0.375952 1.087728 0.418782
v -0.252328 1.008607 0.428460
v -0.252328 1.008607 -0.428460
v -0.252328 1.106285 0.418782
v -0.121944 1.010337 0.428460
v -0.121944 1.010337 -0.428460
v -0.121944 1.122497 -0.417237
v -0.121944 1.122497 0.418782
v -0.021499 1.000000 -0.428460
v -0.021499 1.086762 -0.417237
v -0.000251 1.000000 0.428460
v -0.000251 1.000000 -0.428460
v -0.000251 1.042081 -0.417237
v -0.000251 1.042081 0.418782
v 0.102125 1.007762 0.428460
v 0.102125 1.007762 -0.428460
v 0.102125 1.137249 -0.417237
v 0.096702 1.132176 0.418782
v 0.254719 1.008813 0.428460
v 0.254719 1.008813 -0.428460
v 0.254719 1.119601 -0.417237
v 0.254719 1.118178 0.418782
v 0.346472 1.008958 0.428460
v 0.346472 1.008958 -0.428460
v 0.346472 1.102216 -0.417237
v 0.346472 1.102216 0.418782
v 0.483617 1.008106 0.428460
v 0.483617 1.008106 -0.428460
v 0.483617 1.101250 -0.417237
v 0.483617 1.101250 0.418782
v 0.595651 1.012500 0.428460
v 0.595651 1.012500 -0.428460
v -0.069447 1.014645 0.428460
v -0.069447 1.014645 -0.428460
v -0.070498 1.115737 -0.417237
v -0.070498 1.115737 0.418782
v -0.057375 1.000000 0.428460
v -0.057375 1.000000 -0.428460
v -0.050924 1.107352 -0.417237
v -0.044263 1.103196 0.418782
v 0.051221 1.002552 0.428460
v 0.051221 1.002552 -0.428460
v 0.022515 1.099939 -0.417237
v 0.022533 1.093228 0.418782
v 0.067624 1.015868 0.428460
v 0.067624 1.015868 -0.428460
v 0.050507 1.123520 -0.417237
v 0.050847 1.120466 0.418782
v -0.000251 1.012630 0.428460
v -0.021499 1.013689 0.428460
v -0.056357 1.016937 0.428460
v -0.069613 1.030595 0.428460
v -0.121944 1.026772 0.428460
v -0.252328 1.020860 0.428460
v -0.375952 1.017237 0.428460
v -0.501508 1.015475 0.428460
v -0.501508 1.015475 -0.428460
v -0.375952 1.017237 -0.428460
v -0.252328 1.020860 -0.428460
v -0.121944 1.026772 -0.428460
v -0.069613 1.030595 -0.428460
v -0.056357 1.016937 -0.428460
v -0.021499 1.013689 -0.428460
v -0.000251 1.012630 -0.428460
v 0.046692 1.015768 -0.428460
v 0.064923 1.032853 -0.428460
v 0.102125 1.028191 -0.428460
v 0.254719 1.021734 -0.428460
v 0.346472 1.021414 -0.428460
v 0.483617 1.019833 -0.428460
v 0.595651 1.026442 -0.428460
v 0.595651 1.026442 0.428460
v 0.483617 1.019833 0.428460
v 0.346472 1.021414 0.428460
v 0.254719 1.021734 0.428460
v 0.102125 1.028191 0.428460
v 0.064923 1.032853 0.428460
v 0.046692 1.015768 0.428460
v -0.602918 1.017206 0.421075
v -0.501508 1.015475 0.418782
v -0.375952 1.017237 0.418782
v -0.252328 1.020860 0.418782
v -0.121944 1.026772 0.418782
v -0.069613 1.030595 0.418782
v -0.056357 1.016937 0.418782
v -0.021499 1.013689 0.418782
v -0.000251 1.012630 0.418782
v 0.046692 1.015768 0.418782
v 0.064923 1.032853 0.418782
v 0.102125 1.028191 0.418782
v 0.254719 1.021734 0.418782
v 0.346472 1.021414 0.418782
v 0.483617 1.019833 0.418782
v 0.595651 1.026442 0.418571
v -0.602918 1.017206 -0.418247
v -0.501508 1.083847 -0.417237
v 0.595651 1.026442 -0.417105
v 0.483617 1.019833 -0.417237
v 0.346472 1.021414 -0.417237
v 0.254719 1.021734 -0.417237
v 0.102125 1.028191 -0.417237
v 0.064923 1.032853 -0.417237
v 0.046692 1.015768 -0.417237
v -0.000251 1.012630 -0.417237
v -0.021499 1.013689 -0.417237
v -0.056357 1.016937 -0.417237
v -0.069613 1.030595 -0.417237
v -0.121944 1.026772 -0.417237
v -0.252328 1.020860 -0.417237
v -0.375952 1.017237 -0.417237
v -0.501508 1.015475 -0.417237
v 0.625313 1.028916 0.418951
v 0.625162 1.028903 -0.417861
v -0.616417 1.017206 -0.418827
v -0.616417 1.017206 0.418633
v -0.069447 1.014645 -0.410325
v -0.057375 1.000000 -0.410325
v -0.000251 1.000000 -0.410325
v 0.051221 1.002552 -0.410325
v 0.067624 1.015868 -0.410325
v -0.069447 1.014645 -0.223541
v -0.057375 1.000000 -0.223541
v -0.000251 1.000000 -0.223541
v 0.051221 1.002552 -0.223541
v 0.067624 1.015868 -0.223541
v -0.069447 1.014645 -0.198910
v -0.057375 1.000000 -0.198910
v -0.000251 1.000000 -0.198910
v 0.051221 1.002552 -0.198910
v 0.067624 1.015868 -0.198910
v -0.069447 1.014645 -0.069599
v -0.057375 1.000000 -0.069599
v -0.000251 1.000000 -0.069599
v 0.051221 1.002552 -0.069599
v 0.067624 1.015868 -0.069599
v -0.069447 1.014645 -0.048047
v -0.057375 1.000000 -0.048047
v -0.000251 1.000000 -0.048047
v 0.051221 1.002552 -0.048047
v 0.067624 1.015868 -0.048047
v -0.069447 1.014645 0.082291
v -0.057375 1.000000 0.082291
v -0.000251 1.000000 0.082291
v 0.051221 1.002552 0.082291
v 0.067624 1.015868 0.082291
v -0.069447 1.014645 0.105895
v -0.057375 1.000000 0.105895
v -0.000251 1.000000 0.105895
v 0.051221 1.002552 0.105895
v 0.067624 1.015868 0.105895
v -0.069447 1.014645 0.233154
v -0.057375 1.000000 0.233154
v -0.000251 1.000000 0.233154
v 0.051221 1.002552 0.233154
v 0.067624 1.015868 0.233154
v -0.069447 1.014645 0.254706
v -0.057375 1.000000 0.254706
v -0.000251 1.000000 0.254706
v 0.051221 1.002552 0.254706
v 0.067624 1.015868 0.254706
v -0.069447 1.014645 0.407622
v -0.057375 1.000000 0.407622
v -0.021499 1.000000 0.407622
v -0.000251 1.000000 0.407622
v 0.051221 1.002552 0.407622
v 0.067624 1.015868 0.407622
v -0.057346 0.996800 0.424752
v -0.067060 1.008583 0.424752
v -0.067060 1.008583 0.411331
v -0.057346 0.996800 0.411331
v -0.021471 0.996800 0.411331
v -0.000223 0.996800 0.411331
v 0.051250 0.999352 0.411331
v 0.064773 1.010331 0.411331
v 0.064773 1.010331 0.424752
v 0.051250 0.999352 0.424752
v -0.000223 0.996800 0.424752
v -0.000223 0.996800 -0.424752
v 0.051250 0.999352 -0.424752
v 0.064773 1.010331 -0.424752
v 0.064773 1.010331 -0.414033
v 0.051250 0.999352 -0.414033
v -0.000223 0.996800 -0.414033
v -0.057346 0.996800 -0.414033
v -0.067060 1.008583 -0.414033
v -0.067060 1.008583 -0.424752
v -0.057346 0.996800 -0.424752
v -0.057346 0.996800 -0.219833
v -0.000223 0.996800 -0.219833
v 0.051250 0.999352 -0.219833
v 0.064773 1.010331 -0.219833
v 0.064773 1.010331 -0.202619
v 0.051250 0.999352 -0.202619
v -0.000223 0.996800 -0.202619
v -0.057346 0.996800 -0.202619
v -0.067060 1.008583 -0.202619
v -0.067060 1.008583 -0.219833
v -0.057346 0.996800 -0.065890
v -0.000223 0.996800 -0.065890
v 0.051250 0.999352 -0.065890
v 0.064773 1.010331 -0.065890
v 0.064773 1.010331 -0.051755
v 0.051250 0.999352 -0.051755
v -0.000223 0.996800 -0.051755
v -0.057346 0.996800 -0.051755
v -0.067060 1.008583 -0.051755
v -0.067060 1.008583 -0.065890
v -0.057346 0.996800 0.085999
v -0.000223 0.996800 0.085999
v 0.051250 0.999352 0.085999
v 0.064773 1.010331 0.085999
v 0.064773 1.010331 0.102187
v 0.051250 0.999352 0.102187
v -0.000223 0.996800 0.102187
v -0.057346 0.996800 0.102187
v -0.067060 1.008583 0.102187
v -0.067060 1.008583 0.085999
v -0.057346 0.996800 0.236863
v -0.000223 0.996800 0.236863
v 0.051250 0.999352 0.236863
v 0.064773 1.010331 0.236863
v 0.064773 1.010331 0.250998
v 0.051250 0.999352 0.250998
v -0.000223 0.996800 0.250998
v -0.057346 0.996800 0.250998
v -0.067060 1.008583 0.250998
v -0.067060 1.008583 0.236863
v -0.021499 1.081058 0.418782
v -0.252419 1.106423 -0.417141
vn 0.1841 -0.9829 -0.0000
vn 0.1120 -0.9937 -0.0000
vn -0.0831 0.9965 -0.0000
vn -0.0733 0.9973 -0.0000
vn 1.0000 -0.0000 -0.0000
vn 1.0000 0.0002 -0.0000
vn -0.0000 -0.0000 -1.0000
vn -0.7003 -0.7138 0.0045
vn -0.7001 -0.7140 -0.0045
vn -1.0000 -0.0000 -0.0000
vn -1.0000 0.0003 -0.0000
vn -0.0000 -0.0000 1.0000
vn 0.0055 0.9999 0.0086
vn 0.0005 1.0000 -0.0000
vn 0.0005 1.0000 0.0006
vn 0.0100 0.9998 0.0183
vn -0.0000 1.0000 -0.0000
vn -0.0309 0.9995 -0.0000
vn -0.0899 0.9960 0.0001
vn -0.1360 0.9907 -0.0000
vn -0.1359 0.9907 0.0002
vn 0.0035 1.0000 0.0001
vn 0.7636 0.6457 -0.0001
vn 0.5705 0.8213 0.0024
vn 0.7969 0.6041 0.0041
vn -0.3842 -0.8711 0.3059
vn -0.3842 -0.8711 -0.3059
vn -0.0000 -0.9373 -0.3485
vn 0.0232 -0.9377 -0.3467
vn 0.0232 -0.9377 0.3467
vn 0.8790 0.4768 0.0031
vn -0.0729 0.9973 0.0030
vn -0.4860 0.8739 0.0052
vn -0.0815 0.9967 0.0055
vn 0.1320 0.9912 0.0031
vn 0.0965 0.9953 0.0008
vn 0.0895 0.9960 -0.0000
vn 0.0070 1.0000 -0.0000
vn -0.2287 -0.9735 -0.0000
vn -0.1086 -0.9941 0.0050
vn 0.0230 -0.9995 0.0202
vn 0.1046 -0.9945 0.0073
vn -0.1521 -0.9847 -0.0853
vn -0.0031 -1.0000 0.0071
vn 0.0039 -1.0000 0.0091
vn 0.0196 -0.9990 -0.0396
vn 0.2649 0.9643 0.0007
vn 0.2843 0.9587 -0.0000
vn -0.8197 -0.5352 0.2039
vn -0.8197 -0.5352 -0.2039
vn 0.3252 -0.8908 -0.3173
vn 0.3252 -0.8908 0.3173
vn -0.8117 0.5841 0.0017
vn -0.9143 0.4050 0.0031
vn -0.8190 0.5738 0.0046
vn 0.7186 -0.6529 -0.2394
vn 0.7186 -0.6529 0.2394
vn 0.0113 -0.0000 0.9999
vn 0.0086 -0.0000 1.0000
vn 0.0226 -0.0000 0.9997
vn 0.0100 -0.0000 -1.0000
vn 0.0038 -0.0000 -1.0000
vn 0.0050 -0.0000 -1.0000
vn 0.0001 0.0002 -1.0000
vn -0.0000 0.0007 -1.0000
vn -0.0002 0.0002 -1.0000
vn 0.0009 -0.0000 1.0000
vn 0.0007 -0.0000 1.0000
vn 0.0004 -0.0000 -1.0000
vn 0.0006 -0.0000 -1.0000
vn 0.0019 -0.0000 1.0000
vn 0.0012 -0.0000 -1.0000
vn -0.0217 0.9998 -0.0000
vn -0.0373 0.9993 -0.0000
vn -0.0591 0.9983 -0.0000
vn -0.0729 0.9973 -0.0000
vn 0.4319 0.9019 -0.0000
vn 0.7176 0.6965 -0.0000
vn 0.0713 0.9975 -0.0000
vn -0.0085 1.0000 -0.0000
vn -0.3985 0.9172 -0.0000
vn -0.6838 0.7297 -0.0000
vn 0.0834 0.9965 -0.0000
vn 0.1243 0.9922 -0.0000
vn 0.0229 0.9997 -0.0000
vn 0.0075 1.0000 -0.0000
vn -0.0237 0.9997 -0.0000
vn -0.0710 0.9975 -0.0000
vn -0.0589 0.9983 -0.0000
vn -0.0711 0.9975 -0.0000
vn 0.0015 1.0000 -0.0000
vn 0.0015 1.0000 -0.0006
vn 0.5553 0.8316 -0.0000
vn -0.5492 0.8357 -0.0000
vn -0.0746 0.9972 -0.0000
vn 0.0080 0.9999 -0.0101
vn 0.0062 0.9999 -0.0082
vn 0.0248 -0.9997 -0.0000
vn -0.4266 -0.9045 -0.0000
vn -0.7716 -0.6361 -0.0000
vn 0.3576 -0.9339 -0.0000
vn 0.6303 -0.7764 -0.0000
vn -0.0000 -1.0000 -0.0000
vn -0.4168 -0.6898 0.5920
vn -0.8728 -0.4537 0.1797
vn -0.8728 -0.4537 -0.1797
vn -0.4168 -0.6898 -0.5920
vn -0.0000 -0.7571 -0.6533
vn 0.0189 -0.7569 -0.6533
vn 0.3209 -0.7158 -0.6202
vn 0.7924 -0.5638 -0.2328
vn 0.7924 -0.5638 0.2328
vn 0.3209 -0.7158 0.6202
vn 0.0189 -0.7569 0.6533
vn 0.1506 0.9886 0.0017
vn -0.4616 0.8871 0.0034
vn -0.9306 0.3661 -0.0000
vn 0.9031 0.4295 -0.0000
vn 0.4856 0.8742 0.0005
vn 0.0041 1.0000 -0.0000
vn -0.0904 0.9959 -0.0000
vn -0.0002 0.0011 -1.0000
vn 0.0146 -0.9999 -0.0032
vn -0.0016 -1.0000 -0.0046
vn 0.0049 -1.0000 -0.0024
vn -0.1495 -0.9845 -0.0916
vn 0.0253 -0.9990 0.0360
vn 0.0196 -0.9998 -0.0000
vn 0.0223 -0.9998 0.0018
vn 0.0123 -0.9769 0.2133
vt 0.659083 0.982467
vt 0.644679 0.982467
vt 0.659083 0.566314
vt 0.919634 0.637850
vt 0.925932 0.637850
vt 0.925513 0.654208
vt 0.919634 0.654292
vt 0.863010 0.973378
vt 0.856991 0.973378
vt 0.856991 0.503672
vt 0.856991 0.498401
vt 0.863010 0.498401
vt 0.923186 0.029112
vt 0.921815 0.012671
vt 0.927834 0.012671
vt 0.930914 0.029112
vt 0.827668 0.502564
vt 0.827668 0.977541
vt 0.820306 0.977541
vt 0.820306 0.972094
vt 0.820306 0.507904
vt 0.820306 0.502564
vt 0.892082 0.336034
vt 0.899445 0.336034
vt 0.898829 0.399726
vt 0.893042 0.399726
vt 0.953728 0.639329
vt 0.953728 0.575677
vt 0.959093 0.575677
vt 0.957823 0.631848
vt 0.959176 0.639329
vt 0.892082 0.315846
vt 0.893042 0.252154
vt 0.898830 0.252154
vt 0.899445 0.315846
vt 0.897795 0.469319
vt 0.892064 0.469319
vt 0.090673 0.475516
vt 0.090453 0.070184
vt 0.151355 0.070151
vt 0.892065 0.182561
vt 0.897795 0.182561
vt 0.896848 0.537841
vt 0.890056 0.537841
vt 0.211991 0.475507
vt 0.211964 0.070118
vt 0.890057 0.114039
vt 0.896848 0.114039
vt 0.895889 0.610111
vt 0.886779 0.610111
vt 0.275703 0.070112
vt 0.886779 0.041769
vt 0.895889 0.041769
vt 0.893501 0.639209
vt 0.884661 0.639117
vt 0.328629 0.475676
vt 0.314981 0.070112
vt 0.330385 0.070106
vt 0.783078 0.617121
vt 0.783078 0.609534
vt 0.802963 0.609534
vt 0.802399 0.618922
vt 0.301182 0.996109
vt 0.301182 0.989266
vt 0.319474 0.989266
vt 0.330308 0.989266
vt 0.330308 0.996109
vt 0.351920 0.070070
vt 0.771301 0.616534
vt 0.771301 0.609534
vt 0.798145 0.579876
vt 0.772125 0.578137
vt 0.772125 0.571137
vt 0.800655 0.572551
vt 0.455081 0.473214
vt 0.429696 0.067795
vt 0.452645 0.067836
vt 0.922216 0.302663
vt 0.933540 0.302663
vt 0.929047 0.321787
vt 0.919632 0.323284
vt 0.890824 0.764596
vt 0.887245 0.680016
vt 0.898568 0.680016
vt 0.897985 0.764596
vt 0.529564 0.067830
vt 0.925796 0.218084
vt 0.932957 0.218084
vt 0.891001 0.815453
vt 0.897905 0.815453
vt 0.574844 0.473185
vt 0.574721 0.067816
vt 0.925973 0.167227
vt 0.932877 0.167227
vt 0.898378 0.891470
vt 0.891877 0.891470
vt 0.641222 0.067796
vt 0.926849 0.091210
vt 0.933349 0.091210
vt 0.888214 0.953568
vt 0.895942 0.953568
vt 0.388248 0.575122
vt 0.388248 0.566314
vt 0.405004 0.566314
vt 0.590271 0.566314
vt 0.644679 0.566314
vt 0.388248 0.982468
vt 0.523668 0.566314
vt 0.479109 0.566314
vt 0.388248 0.972348
vt 0.388248 0.898086
vt 0.388248 0.887620
vt 0.388248 0.825818
vt 0.388248 0.814355
vt 0.388248 0.751058
vt 0.388248 0.740591
vt 0.388248 0.677792
vt 0.388248 0.665831
vt 0.892862 0.970009
vt 0.886843 0.970009
vt 0.741027 0.580525
vt 0.733679 0.588095
vt 0.733771 0.579254
vt 0.740462 0.571137
vt 0.271460 0.980751
vt 0.245951 0.980751
vt 0.182593 0.980751
vt 0.122521 0.980751
vt 0.061511 0.980751
vt 0.005674 0.980751
vt 0.005673 0.564353
vt 0.300875 0.475677
vt 0.300875 0.070112
vt 0.884661 0.012763
vt 0.893501 0.012671
vt 0.296228 0.996109
vt 0.296228 0.989266
vt 0.809654 0.617651
vt 0.809746 0.626492
vt 0.760348 0.578724
vt 0.809747 0.579932
vt 0.808250 0.589346
vt 0.356554 0.989266
vt 0.356554 0.996109
vt 0.411435 0.473108
vt 0.383497 0.067581
vt 0.410646 0.067727
vt 0.745281 0.618274
vt 0.742770 0.610949
vt 0.363449 0.989266
vt 0.363449 0.996109
vt 0.735176 0.627744
vt 0.733679 0.618330
vt 0.884661 0.659396
vt 0.894075 0.660893
vt 0.119441 0.006912
vt 0.119441 0.040064
vt 0.070267 0.007751
vt 0.073762 0.539433
vt 0.122891 0.507149
vt 0.122891 0.540272
vt 0.180321 0.007766
vt 0.183716 0.505269
vt 0.183716 0.539418
vt 0.240264 0.009523
vt 0.240264 0.050944
vt 0.243606 0.537663
vt 0.303486 0.012390
vt 0.306771 0.488425
vt 0.306771 0.534799
vt 0.328860 0.014243
vt 0.328431 0.055527
vt 0.341177 0.495761
vt 0.355432 0.541137
vt 0.338545 0.539563
vt 0.362493 0.019812
vt 0.352190 0.038712
vt 0.362493 0.005532
vt 0.365725 0.527383
vt 0.365725 0.541650
vt 0.386811 0.041081
vt 0.375763 0.016280
vt 0.375763 0.002000
vt 0.416556 0.536093
vt 0.409566 0.492130
vt 0.434594 0.538353
vt 0.499394 0.006414
vt 0.499394 0.053178
vt 0.422774 0.059965
vt 0.508584 0.494031
vt 0.508584 0.541485
vt 0.543882 0.045439
vt 0.553073 0.541640
vt 0.610382 0.005493
vt 0.610382 0.044970
vt 0.619572 0.502929
vt 0.619572 0.542406
vt 0.664705 0.008697
vt 0.673896 0.539202
vt 0.335288 0.007621
vt 0.332123 0.532947
vt 0.341152 0.049447
vt 0.407365 0.011806
vt 0.400540 0.054288
vt 0.384954 0.531619
vt 0.407716 0.544377
vt 0.384954 0.545899
vt 0.959093 0.506068
vt 0.953728 0.506068
vt 0.959093 0.437499
vt 0.953728 0.437499
vt 0.959093 0.365147
vt 0.953728 0.365147
vt 0.959093 0.336085
vt 0.953728 0.336085
vt 0.744228 0.680363
vt 0.733679 0.680297
vt 0.733713 0.674933
vt 0.744262 0.675000
vt 0.763632 0.680486
vt 0.763665 0.675122
vt 0.775423 0.680560
vt 0.775457 0.675196
vt 0.801501 0.680723
vt 0.801535 0.675359
vt 0.815350 0.680809
vt 0.815384 0.675445
vt 0.919750 0.695113
vt 0.919750 0.674479
vt 0.925117 0.674479
vt 0.925117 0.695113
vt 0.919750 0.779749
vt 0.925117 0.779749
vt 0.919750 0.830638
vt 0.925117 0.830638
vt 0.919750 0.906705
vt 0.925117 0.906705
vt 0.919632 0.968844
vt 0.925117 0.968844
vt 0.925859 0.575737
vt 0.919634 0.575737
vt 0.925858 0.499667
vt 0.919633 0.499667
vt 0.925858 0.448778
vt 0.919633 0.448778
vt 0.925858 0.364121
vt 0.919632 0.364121
vt 0.925857 0.343471
vt 0.919632 0.343471
vt 0.801500 0.648032
vt 0.815349 0.647931
vt 0.815394 0.654152
vt 0.801546 0.654253
vt 0.775423 0.648221
vt 0.775468 0.654442
vt 0.763632 0.648307
vt 0.763677 0.654528
vt 0.744228 0.648448
vt 0.744273 0.654669
vt 0.733679 0.648525
vt 0.733724 0.654745
vt 0.953728 0.041732
vt 0.953728 0.012671
vt 0.959950 0.012671
vt 0.959950 0.041732
vt 0.953728 0.114079
vt 0.959950 0.114079
vt 0.953728 0.182643
vt 0.959950 0.182643
vt 0.953728 0.252248
vt 0.959950 0.252248
vt 0.749312 0.470479
vt 0.683992 0.065173
vt 0.749312 0.065275
vt 0.002000 0.073971
vt 0.060839 0.075083
vt 0.060839 0.480451
vt 0.919843 0.985296
vt 0.925117 0.985296
vt 0.836804 0.018965
vt 0.836804 0.482166
vt 0.820306 0.482377
vt 0.954288 0.308417
vt 0.959950 0.315897
vt 0.954609 0.315897
vt 0.864473 0.012671
vt 0.856991 0.478213
vt 0.856991 0.014025
vt 0.330308 0.568420
vt 0.301181 0.568420
vt 0.301181 0.562955
vt 0.330308 0.562955
vt 0.296228 0.568420
vt 0.296228 0.562955
vt 0.356554 0.568420
vt 0.356554 0.562955
vt 0.363449 0.568420
vt 0.363449 0.562955
vt 0.330293 0.665550
vt 0.301167 0.665550
vt 0.301167 0.570311
vt 0.330293 0.570311
vt 0.295011 0.665550
vt 0.295011 0.570311
vt 0.356539 0.665550
vt 0.356539 0.570311
vt 0.364903 0.665550
vt 0.364903 0.570311
vt 0.330308 0.667441
vt 0.330308 0.676218
vt 0.301181 0.676218
vt 0.301181 0.667441
vt 0.296228 0.676218
vt 0.296228 0.667441
vt 0.356554 0.676218
vt 0.356554 0.667441
vt 0.363449 0.676218
vt 0.363449 0.667441
vt 0.330293 0.744044
vt 0.301167 0.744044
vt 0.301167 0.678109
vt 0.330293 0.678109
vt 0.295011 0.744044
vt 0.295011 0.678109
vt 0.356539 0.744044
vt 0.356539 0.678109
vt 0.364903 0.744044
vt 0.364903 0.678109
vt 0.330308 0.745935
vt 0.330308 0.753142
vt 0.301181 0.753142
vt 0.301181 0.745935
vt 0.296228 0.753142
vt 0.296228 0.745935
vt 0.356554 0.753142
vt 0.356554 0.745935
vt 0.363449 0.753142
vt 0.363449 0.745935
vt 0.330293 0.821491
vt 0.301167 0.821491
vt 0.301167 0.755033
vt 0.330293 0.755033
vt 0.295011 0.821491
vt 0.295011 0.755033
vt 0.356539 0.821491
vt 0.356539 0.755033
vt 0.364903 0.821491
vt 0.364903 0.755033
vt 0.330308 0.823382
vt 0.330308 0.831636
vt 0.301181 0.831636
vt 0.301181 0.823382
vt 0.296228 0.831636
vt 0.296228 0.823382
vt 0.356554 0.831636
vt 0.356554 0.823382
vt 0.363449 0.831636
vt 0.363449 0.823382
vt 0.330293 0.898415
vt 0.301167 0.898415
vt 0.301167 0.833527
vt 0.330293 0.833527
vt 0.295011 0.898415
vt 0.295011 0.833527
vt 0.356539 0.898415
vt 0.356539 0.833527
vt 0.364903 0.898415
vt 0.364903 0.833527
vt 0.330308 0.900306
vt 0.330308 0.907514
vt 0.301181 0.907514
vt 0.301181 0.900306
vt 0.296228 0.907514
vt 0.296228 0.900306
vt 0.356554 0.907514
vt 0.356554 0.900306
vt 0.363449 0.907514
vt 0.363449 0.900306
vt 0.319459 0.987375
vt 0.301167 0.987375
vt 0.301167 0.909404
vt 0.330293 0.909404
vt 0.330294 0.987375
vt 0.295011 0.987375
vt 0.295011 0.909404
vt 0.356539 0.987375
vt 0.356539 0.909404
vt 0.364903 0.987375
vt 0.364903 0.909404
vt 0.301167 0.998000
vt 0.295011 0.998000
vt 0.364903 0.998000
vt 0.356539 0.998000
vt 0.330294 0.998000
vt 0.330293 0.561064
vt 0.356539 0.561064
vt 0.364903 0.561064
vt 0.295011 0.561064
vt 0.301167 0.561064
vt 0.319459 0.561064
vt 0.303486 0.058805
vt 0.180321 0.041946
vt 0.352190 0.006046
vt 0.398525 0.003521
vt 0.425403 0.009545
vt 0.543882 0.006259
vt 0.820306 0.012671
vt 0.820389 0.018546
vt 0.683992 0.470542
vt 0.641345 0.473164
vt 0.529564 0.473199
vt 0.429182 0.473166
vt 0.381287 0.472943
vt 0.352630 0.475634
vt 0.311206 0.475677
vt 0.275703 0.475677
vt 0.151576 0.475483
vt 0.002000 0.480941
vt 0.864473 0.477892
vt 0.243606 0.495911
vt 0.331694 0.491699
vt 0.355432 0.505737
vt 0.395993 0.503564
vt 0.434594 0.485473
vt 0.553073 0.502460
vt 0.590271 0.982468
vt 0.523668 0.982468
vt 0.479109 0.982468
vt 0.405004 0.982468
vt 0.182593 0.564353
vt 0.245951 0.564353
vt 0.271460 0.564353
vt 0.271460 0.970625
vt 0.271460 0.896319
vt 0.271460 0.885847
vt 0.271460 0.824009
vt 0.271460 0.812539
vt 0.271460 0.749204
vt 0.271460 0.738732
vt 0.271460 0.675896
vt 0.271460 0.663927
vt 0.271460 0.573165
vt 0.061511 0.564353
vt 0.122521 0.564353
s 1
usemtl 01_-_Default
f 1/1/1 45/2/2 2/3/1
f 85/4/3 111/5/4 127/6/3
f 127/6/3 6/7/3 85/4/3
f 2/8/5 6/9/5 126/10/6
f 2/8/5 126/10/6 5/11/5
f 2/8/5 5/11/5 1/12/5
f 85/13/7 6/14/7 2/15/7
f 2/15/7 46/16/7 85/13/7
f 4/17/8 3/18/9 7/19/10
f 4/17/8 7/19/10 129/20/11
f 4/17/8 129/20/11 128/21/10
f 4/17/8 128/21/10 8/22/10
f 7/23/12 3/24/12 9/25/12
f 9/25/12 70/26/12 7/23/12
f 7/27/13 70/28/14 94/29/15
f 7/27/13 94/29/15 93/30/16
f 7/27/13 93/30/16 129/31/17
f 8/32/7 71/33/7 10/34/7
f 10/34/7 4/35/7 8/32/7
f 70/26/12 9/25/12 12/36/12
f 12/36/12 69/37/12 70/26/12
f 110/38/18 11/39/18 15/40/19
f 72/41/7 13/42/7 10/34/7
f 10/34/7 71/33/7 72/41/7
f 69/37/12 12/36/12 16/43/12
f 16/43/12 68/44/12 69/37/12
f 243/45/20 15/40/19 18/46/21
f 73/47/7 17/48/7 13/42/7
f 13/42/7 72/41/7 73/47/7
f 68/44/12 16/43/12 19/49/12
f 19/49/12 67/50/12 68/44/12
f 243/45/20 18/46/21 22/51/22
f 73/47/7 74/52/7 20/53/7
f 20/53/7 17/48/7 73/47/7
f 67/50/12 19/49/12 47/54/12
f 47/54/12 66/55/12 67/50/12
f 24/56/23 54/57/24 242/58/25
f 77/59/7 23/60/7 52/61/7
f 52/61/7 76/62/7 77/59/7
f 181/63/26 184/64/27 185/65/28
f 185/65/28 186/66/29 191/67/30
f 181/63/26 185/65/28 191/67/30
f 24/56/23 242/58/25 28/68/31
f 78/69/7 26/70/7 23/60/7
f 23/60/7 77/59/7 78/69/7
f 92/71/12 63/72/12 25/73/12
f 25/73/12 55/74/12 92/71/12
f 31/75/32 62/76/33 32/77/34
f 81/78/7 30/79/7 60/80/7
f 60/80/7 80/81/7 81/78/7
f 89/82/12 90/83/12 29/84/12
f 29/84/12 33/85/12 89/82/12
f 31/75/32 32/77/34 36/86/35
f 82/87/7 34/88/7 30/79/7
f 30/79/7 81/78/7 82/87/7
f 88/89/12 89/82/12 33/85/12
f 33/85/12 37/90/12 88/89/12
f 39/91/36 36/86/35 40/92/37
f 83/93/7 38/94/7 34/88/7
f 34/88/7 82/87/7 83/93/7
f 88/89/12 37/90/12 41/95/12
f 41/95/12 87/96/12 88/89/12
f 39/91/36 40/92/37 44/97/38
f 84/98/7 42/99/7 38/94/7
f 38/94/7 83/93/7 84/98/7
f 86/100/12 87/96/12 41/95/12
f 41/95/12 45/101/12 86/100/12
f 134/102/39 60/103/39 30/104/40
f 42/105/41 46/106/42 59/107/43
f 38/108/44 42/105/41 59/107/43
f 34/109/45 38/108/44 59/107/43
f 30/104/40 34/109/45 59/107/43
f 30/104/40 59/107/43 180/110/39
f 30/104/40 180/110/39 174/111/39
f 30/104/40 174/111/39 169/112/39
f 30/104/40 169/112/39 164/113/39
f 30/104/40 164/113/39 159/114/39
f 30/104/40 159/114/39 154/115/39
f 30/104/40 154/115/39 149/116/39
f 30/104/40 149/116/39 144/117/39
f 30/104/40 144/117/39 139/118/39
f 134/102/39 30/104/40 139/118/39
f 85/13/7 46/16/7 42/99/7
f 42/99/7 84/98/7 85/13/7
f 86/100/12 45/101/12 1/119/12
f 1/119/12 5/120/12 86/100/12
f 65/121/12 66/122/12 47/123/12
f 47/123/12 51/124/12 65/121/12
f 47/125/46 19/126/7 16/127/7
f 47/125/46 16/127/7 12/128/7
f 47/125/46 12/128/7 9/129/7
f 47/125/46 9/129/7 3/130/9
f 47/125/46 3/130/9 4/131/8
f 49/132/47 22/51/22 50/133/48
f 74/52/7 75/134/7 48/135/7
f 48/135/7 20/53/7 74/52/7
f 184/64/27 181/63/26 182/136/49
f 182/136/49 183/137/50 184/64/27
f 49/132/47 50/133/48 54/57/24
f 76/62/7 52/61/7 48/138/7
f 48/138/7 75/139/7 76/62/7
f 25/73/12 63/72/12 64/140/12
f 64/140/12 65/121/12 51/124/12
f 25/73/12 64/140/12 51/124/12
f 92/71/12 55/74/12 59/141/12
f 59/141/12 91/142/12 92/71/12
f 187/143/51 190/144/52 191/67/30
f 191/67/30 186/66/29 187/143/51
f 57/145/53 28/146/54 58/147/55
f 79/148/7 56/149/7 26/70/7
f 26/70/7 78/69/7 79/148/7
f 188/150/56 189/151/57 190/144/52
f 190/144/52 187/143/51 188/150/56
f 57/145/53 58/147/55 62/76/33
f 79/148/7 80/152/7 60/153/7
f 60/153/7 56/149/7 79/148/7
f 90/83/12 91/154/12 59/155/12
f 59/155/12 29/84/12 90/83/12
f 94/156/58 11/157/59 93/158/60
f 109/159/61 110/160/62 125/161/63
f 95/162/12 11/157/59 94/156/58
f 125/161/63 14/163/64 124/164/7
f 96/165/12 18/166/12 95/162/12
f 124/164/7 14/163/64 123/167/65
f 97/168/12 18/166/12 96/165/12
f 123/167/65 21/169/66 122/170/7
f 98/171/12 50/172/12 97/168/12
f 53/173/7 119/174/7 120/175/7
f 28/176/12 242/177/12 101/178/12
f 27/179/7 118/180/7 119/174/7
f 58/181/12 28/182/12 101/183/12
f 116/184/7 61/185/7 115/186/7
f 105/187/12 36/188/12 32/189/12
f 115/186/7 35/190/7 114/191/7
f 40/192/12 36/188/12 105/187/12
f 114/191/7 35/190/7 113/193/7
f 107/194/67 44/195/68 40/192/12
f 113/193/7 43/196/69 112/197/70
f 108/198/71 44/195/68 107/194/67
f 112/197/70 43/196/69 111/199/72
f 50/172/12 98/171/12 99/200/12
f 122/170/7 21/169/66 121/201/7
f 121/201/7 53/173/7 120/175/7
f 54/202/12 99/200/12 242/177/12
f 103/203/12 62/204/12 58/181/12
f 27/205/7 117/206/7 118/207/7
f 61/185/7 116/184/7 117/206/7
f 32/189/12 62/204/12 103/203/12
f 95/208/73 94/29/15 70/28/14
f 70/28/14 69/209/73 95/208/73
f 96/210/74 95/208/73 69/209/73
f 69/209/73 68/211/74 96/210/74
f 97/212/75 96/210/74 68/211/74
f 68/211/74 67/213/75 97/212/75
f 98/214/76 97/212/75 67/213/75
f 67/213/75 66/215/76 98/214/76
f 99/216/77 98/217/78 66/218/78
f 66/218/78 65/219/77 99/216/77
f 100/220/79 99/216/77 65/219/77
f 65/219/77 64/221/79 100/220/79
f 101/222/80 100/220/79 64/221/79
f 64/221/79 63/223/80 101/222/80
f 102/224/81 101/222/80 63/223/80
f 63/223/80 92/225/81 102/224/81
f 103/226/82 102/224/81 92/225/81
f 92/225/81 91/227/82 103/226/82
f 104/228/83 103/229/84 91/230/84
f 91/230/84 90/231/83 104/228/83
f 105/232/85 104/228/83 90/231/83
f 90/231/83 89/233/85 105/232/85
f 106/234/86 105/232/85 89/233/85
f 89/233/85 88/235/86 106/234/86
f 107/236/87 106/234/86 88/235/86
f 88/235/86 87/237/87 107/236/87
f 108/238/88 107/236/87 87/237/87
f 87/237/87 86/239/89 108/238/88
f 112/240/87 111/5/90 85/4/89
f 85/4/89 84/241/87 112/240/87
f 113/242/86 112/240/87 84/241/87
f 84/241/87 83/243/86 113/242/86
f 114/244/85 113/242/86 83/243/86
f 83/243/86 82/245/85 114/244/85
f 115/246/83 114/244/85 82/245/85
f 82/245/85 81/247/83 115/246/83
f 116/248/84 115/246/83 81/247/83
f 81/247/83 80/249/84 116/248/84
f 117/250/81 116/251/82 80/252/82
f 80/252/82 79/253/81 117/250/81
f 118/254/80 117/250/81 79/253/81
f 79/253/81 78/255/80 118/254/80
f 119/256/79 118/254/80 78/255/80
f 78/255/80 77/257/79 119/256/79
f 120/258/77 119/256/79 77/257/79
f 77/257/79 76/259/77 120/258/77
f 121/260/78 120/258/77 76/259/77
f 76/259/77 75/261/78 121/260/78
f 122/262/75 121/263/76 75/264/76
f 75/264/76 74/265/75 122/262/75
f 123/266/74 122/262/75 74/265/75
f 74/265/75 73/267/74 123/266/74
f 124/268/73 123/266/74 73/267/74
f 73/267/74 72/269/73 124/268/73
f 125/270/91 124/268/73 72/269/73
f 72/269/73 71/271/92 125/270/91
f 111/272/93 44/273/93 108/274/93
f 93/275/94 11/276/94 110/277/94
f 126/278/3 108/238/95 86/239/3
f 86/239/3 5/279/3 126/278/3
f 111/280/4 108/281/95 126/282/3
f 109/283/96 125/270/91 71/271/92
f 109/283/96 71/271/92 8/284/97
f 109/283/96 8/284/97 128/285/17
f 93/286/16 128/287/17 129/288/17
f 197/289/30 198/290/26 201/291/27
f 201/291/27 192/292/29 197/289/30
f 198/290/26 199/293/49 200/294/50
f 200/294/50 201/291/27 198/290/26
f 196/295/52 197/289/30 192/292/29
f 192/292/29 193/296/51 196/295/52
f 195/297/57 196/295/52 193/296/51
f 193/296/51 194/298/56 195/297/57
f 137/299/98 136/300/99 131/301/99
f 131/301/99 132/302/98 137/299/98
f 136/300/99 135/303/100 130/304/100
f 130/304/100 131/301/99 136/300/99
f 138/305/101 137/299/98 132/302/98
f 132/302/98 133/306/101 138/305/101
f 139/307/102 138/305/101 133/306/101
f 133/306/101 134/308/102 139/307/102
f 203/309/29 208/310/30 209/311/26
f 209/311/26 202/312/27 203/309/29
f 209/311/26 210/313/49 211/314/50
f 211/314/50 202/312/27 209/311/26
f 207/315/52 208/310/30 203/309/29
f 203/309/29 204/316/51 207/315/52
f 206/317/57 207/315/52 204/316/51
f 204/316/51 205/318/56 206/317/57
f 147/319/98 146/320/99 141/321/99
f 141/321/99 142/322/98 147/319/98
f 146/320/99 145/323/100 140/324/100
f 140/324/100 141/321/99 146/320/99
f 148/325/101 147/319/98 142/322/98
f 142/322/98 143/326/101 148/325/101
f 149/327/102 148/325/101 143/326/101
f 143/326/101 144/328/102 149/327/102
f 213/329/29 218/330/30 219/331/26
f 219/331/26 212/332/27 213/329/29
f 219/331/26 220/333/49 221/334/50
f 221/334/50 212/332/27 219/331/26
f 217/335/52 218/330/30 213/329/29
f 213/329/29 214/336/51 217/335/52
f 216/337/57 217/335/52 214/336/51
f 214/336/51 215/338/56 216/337/57
f 157/339/98 156/340/99 151/341/99
f 151/341/99 152/342/98 157/339/98
f 156/340/99 155/343/100 150/344/100
f 150/344/100 151/341/99 156/340/99
f 158/345/101 157/339/98 152/342/98
f 152/342/98 153/346/101 158/345/101
f 159/347/102 158/345/101 153/346/101
f 153/346/101 154/348/102 159/347/102
f 223/349/29 228/350/30 229/351/26
f 229/351/26 222/352/27 223/349/29
f 229/351/26 230/353/49 231/354/50
f 231/354/50 222/352/27 229/351/26
f 227/355/52 228/350/30 223/349/29
f 223/349/29 224/356/51 227/355/52
f 226/357/57 227/355/52 224/356/51
f 224/356/51 225/358/56 226/357/57
f 167/359/98 166/360/99 161/361/99
f 161/361/99 162/362/98 167/359/98
f 166/360/99 165/363/100 160/364/100
f 160/364/100 161/361/99 166/360/99
f 168/365/101 167/359/98 162/362/98
f 162/362/98 163/366/101 168/365/101
f 169/367/102 168/365/101 163/366/101
f 163/366/101 164/368/102 169/367/102
f 233/369/29 238/370/30 239/371/26
f 239/371/26 232/372/27 233/369/29
f 239/371/26 240/373/49 241/374/50
f 241/374/50 232/372/27 239/371/26
f 237/375/52 238/370/30 233/369/29
f 233/369/29 234/376/51 237/375/52
f 236/377/57 237/375/52 234/376/51
f 234/376/51 235/378/56 236/377/57
f 177/379/103 176/380/99 171/381/99
f 177/379/103 171/381/99 172/382/98
f 177/379/103 172/382/98 178/383/98
f 176/380/99 175/384/100 170/385/100
f 170/385/100 171/381/99 176/380/99
f 179/386/101 178/383/98 172/382/98
f 172/382/98 173/387/101 179/386/101
f 180/388/102 179/386/101 173/387/101
f 173/387/101 174/389/102 180/388/102
f 182/136/49 181/63/26 51/390/104
f 51/390/104 47/391/105 182/136/49
f 183/137/50 182/136/49 47/391/105
f 47/391/105 175/384/106 183/137/50
f 184/64/27 183/137/50 175/384/106
f 175/384/106 176/380/107 184/64/27
f 185/65/28 184/64/27 176/380/107
f 176/380/107 177/379/108 185/65/28
f 186/66/29 185/65/28 177/379/108
f 177/379/108 178/383/109 186/66/29
f 187/143/51 186/66/29 178/383/109
f 178/383/109 179/386/110 187/143/51
f 188/150/56 187/143/51 179/386/110
f 179/386/110 180/388/111 188/150/56
f 189/151/57 188/150/56 180/388/111
f 180/388/111 59/392/112 189/151/57
f 190/144/52 189/151/57 59/392/112
f 59/392/112 55/393/113 190/144/52
f 191/67/30 190/144/52 55/393/113
f 55/393/113 25/394/114 191/67/30
f 181/63/26 191/67/30 25/394/114
f 25/394/114 51/390/104 181/63/26
f 193/296/51 192/292/29 26/395/109
f 26/395/109 56/396/110 193/296/51
f 194/298/56 193/296/51 56/396/110
f 56/396/110 60/397/111 194/298/56
f 195/297/57 194/298/56 60/397/111
f 60/397/111 134/308/112 195/297/57
f 196/295/52 195/297/57 134/308/112
f 134/308/112 133/306/113 196/295/52
f 197/289/30 196/295/52 133/306/113
f 133/306/113 132/302/114 197/289/30
f 198/290/26 197/289/30 132/302/114
f 132/302/114 131/301/104 198/290/26
f 199/293/49 198/290/26 131/301/104
f 131/301/104 130/304/105 199/293/49
f 200/294/50 199/293/49 130/304/105
f 130/304/105 48/398/106 200/294/50
f 201/291/27 200/294/50 48/398/106
f 48/398/106 52/399/107 201/291/27
f 23/400/108 26/395/109 192/292/29
f 23/400/108 192/292/29 201/291/27
f 23/400/108 201/291/27 52/399/107
f 203/309/29 202/312/27 136/300/107
f 136/300/107 137/299/109 203/309/29
f 204/316/51 203/309/29 137/299/109
f 137/299/109 138/305/110 204/316/51
f 205/318/56 204/316/51 138/305/110
f 138/305/110 139/307/111 205/318/56
f 206/317/57 205/318/56 139/307/111
f 139/307/111 144/328/112 206/317/57
f 207/315/52 206/317/57 144/328/112
f 144/328/112 143/326/113 207/315/52
f 208/310/30 207/315/52 143/326/113
f 143/326/113 142/322/114 208/310/30
f 209/311/26 208/310/30 142/322/114
f 142/322/114 141/321/104 209/311/26
f 210/313/49 209/311/26 141/321/104
f 141/321/104 140/324/105 210/313/49
f 211/314/50 210/313/49 140/324/105
f 140/324/105 135/303/106 211/314/50
f 202/312/27 211/314/50 135/303/106
f 135/303/106 136/300/107 202/312/27
f 213/329/29 212/332/27 146/320/107
f 146/320/107 147/319/109 213/329/29
f 214/336/51 213/329/29 147/319/109
f 147/319/109 148/325/110 214/336/51
f 215/338/56 214/336/51 148/325/110
f 148/325/110 149/327/111 215/338/56
f 216/337/57 215/338/56 149/327/111
f 149/327/111 154/348/112 216/337/57
f 217/335/52 216/337/57 154/348/112
f 154/348/112 153/346/113 217/335/52
f 218/330/30 217/335/52 153/346/113
f 153/346/113 152/342/114 218/330/30
f 219/331/26 218/330/30 152/342/114
f 152/342/114 151/341/104 219/331/26
f 220/333/49 219/331/26 151/341/104
f 151/341/104 150/344/105 220/333/49
f 221/334/50 220/333/49 150/344/105
f 150/344/105 145/323/106 221/334/50
f 212/332/27 221/334/50 145/323/106
f 145/323/106 146/320/107 212/332/27
f 223/349/29 222/352/27 156/340/107
f 156/340/107 157/339/109 223/349/29
f 224/356/51 223/349/29 157/339/109
f 157/339/109 158/345/110 224/356/51
f 225/358/56 224/356/51 158/345/110
f 158/345/110 159/347/111 225/358/56
f 226/357/57 225/358/56 159/347/111
f 159/347/111 164/368/112 226/357/57
f 227/355/52 226/357/57 164/368/112
f 164/368/112 163/366/113 227/355/52
f 228/350/30 227/355/52 163/366/113
f 163/366/113 162/362/114 228/350/30
f 229/351/26 228/350/30 162/362/114
f 162/362/114 161/361/104 229/351/26
f 230/353/49 229/351/26 161/361/104
f 161/361/104 160/364/105 230/353/49
f 231/354/50 230/353/49 160/364/105
f 160/364/105 155/343/106 231/354/50
f 222/352/27 231/354/50 155/343/106
f 155/343/106 156/340/107 222/352/27
f 233/369/29 232/372/27 166/360/107
f 166/360/107 167/359/109 233/369/29
f 234/376/51 233/369/29 167/359/109
f 167/359/109 168/365/110 234/376/51
f 235/378/56 234/376/51 168/365/110
f 168/365/110 169/367/111 235/378/56
f 236/377/57 235/378/56 169/367/111
f 169/367/111 174/389/112 236/377/57
f 237/375/52 236/377/57 174/389/112
f 174/389/112 173/387/113 237/375/52
f 238/370/30 237/375/52 173/387/113
f 173/387/113 172/382/114 238/370/30
f 239/371/26 238/370/30 172/382/114
f 172/382/114 171/381/104 239/371/26
f 240/373/49 239/371/26 171/381/104
f 171/381/104 170/385/105 240/373/49
f 241/374/50 240/373/49 170/385/105
f 170/385/105 165/363/106 241/374/50
f 232/372/27 241/374/50 165/363/106
f 165/363/106 166/360/107 232/372/27
f 99/200/12 54/202/12 50/172/12
f 50/172/12 22/401/12 97/168/12
f 97/168/12 22/401/12 18/166/12
f 18/166/12 15/402/12 95/162/12
f 95/162/12 15/402/12 11/157/59
f 99/200/12 100/403/12 242/177/12
f 242/177/12 100/403/12 101/178/12
f 101/183/12 102/404/12 58/181/12
f 58/181/12 102/404/12 103/203/12
f 103/203/12 104/405/12 32/189/12
f 32/189/12 104/405/12 105/187/12
f 105/187/12 106/406/12 40/192/12
f 40/192/12 106/406/12 107/194/67
f 126/282/3 6/407/3 127/408/3
f 127/408/3 111/280/4 126/282/3
f 111/272/93 43/409/93 44/273/93
f 44/97/38 43/410/38 39/91/36
f 39/91/36 35/411/115 36/86/35
f 36/86/35 35/411/115 31/75/32
f 31/75/32 61/412/116 62/76/33
f 62/76/33 61/412/116 57/145/53
f 57/145/53 27/413/117 28/146/54
f 28/68/31 27/414/118 24/56/23
f 24/56/23 53/415/119 54/57/24
f 54/57/24 53/415/119 49/132/47
f 49/132/47 21/416/120 22/51/22
f 22/51/22 21/416/120 243/45/20
f 243/45/20 14/417/121 15/40/19
f 15/40/19 14/417/121 110/38/18
f 110/277/94 109/418/94 93/275/94
f 93/286/16 109/419/96 128/287/17
f 125/161/63 110/160/62 14/163/64
f 14/163/64 243/420/122 123/167/65
f 123/167/65 243/420/122 21/169/66
f 21/169/66 49/421/7 121/201/7
f 121/201/7 49/421/7 53/173/7
f 53/173/7 24/422/7 119/174/7
f 119/174/7 24/422/7 27/179/7
f 27/205/7 57/423/7 117/206/7
f 117/206/7 57/423/7 61/185/7
f 61/185/7 31/424/7 115/186/7
f 115/186/7 31/424/7 35/190/7
f 35/190/7 39/425/7 113/193/7
f 113/193/7 39/425/7 43/196/69
f 46/106/42 45/2/2 41/426/123
f 46/106/42 41/426/123 37/427/124
f 46/106/42 37/427/124 33/428/125
f 46/106/42 33/428/125 29/429/126
f 46/106/42 29/429/126 59/107/43
f 45/2/2 46/106/42 2/3/1
f 17/430/12 20/431/12 48/432/127
f 175/433/128 47/125/46 4/131/8
f 170/434/128 175/433/128 4/131/8
f 165/435/128 170/434/128 4/131/8
f 160/436/128 165/435/128 4/131/8
f 155/437/128 160/436/128 4/131/8
f 150/438/128 155/437/128 4/131/8
f 145/439/128 150/438/128 4/131/8
f 140/440/128 145/439/128 4/131/8
f 135/441/128 140/440/128 4/131/8
f 130/442/129 135/441/128 4/131/8
f 4/131/8 10/443/12 13/444/130
f 130/442/129 4/131/8 13/444/130
f 48/432/127 130/442/129 13/444/130
f 17/430/12 48/432/127 13/444/130
