# Blender 5.0.1
# www.blender.org
mtllib pawn.mtl
o pawn
v -0.130196 -3.085466 -1.952294
v 0.112782 -2.698363 -2.286281
v -0.115201 -2.576991 -2.283084
v -0.475915 -2.338954 -1.890610
v 0.233839 -2.335842 -1.930300
v -0.353612 -1.805680 -2.130274
v 0.017823 -1.249629 -1.845662
v -0.358259 -1.180487 -1.818847
v 0.221494 -0.771078 -1.487100
v -0.358925 -0.550633 -1.502415
v 0.215047 -0.596737 -1.558792
v 0.216126 -0.452100 -1.441739
v -0.190590 -0.325549 -1.432447
v 0.235080 -0.213793 -1.227349
v -0.423784 -0.210295 -1.168803
v 0.113027 -0.162210 -1.229503
v -0.147548 0.555291 -0.860472
v -0.134884 1.827147 -1.382881
v -0.069270 2.123467 -1.392539
v -0.031136 2.577500 -0.703667
v -0.650744 3.104797 -0.968356
v -0.132435 3.010984 -1.097271
v 0.058175 4.173532 -1.276975
v -0.106568 4.615221 -1.034739
v -0.000206 4.982012 -0.586782
v 0.116397 5.085093 0.299133
v -0.928781 -3.082586 -1.722696
v -0.879883 -2.697973 -2.123132
v -1.083179 -2.576829 -2.020908
v -1.322802 -2.340689 -1.452749
v -1.284628 -1.660930 -1.690742
v -0.921899 -1.956905 -1.910832
v -1.129977 -1.247668 -1.453625
v -0.626319 -1.257235 -1.735214
v -1.181755 -1.183748 -1.427617
v -0.460082 -0.772326 -1.439183
v -1.019527 -0.571714 -1.197366
v -0.491182 -0.452595 -1.384481
v -1.015000 -0.334995 -1.043376
v -0.769868 -0.206147 -0.978902
v -0.588695 0.575495 -0.633628
v -0.392429 1.778504 -0.609819
v -0.700419 1.798084 -0.277644
v -0.573503 2.593444 -0.407621
v -0.997258 2.950577 -0.345819
v -0.648929 3.847253 -1.145401
v -0.686765 4.448539 -0.923913
v -1.546140 -3.083784 -1.196012
v -1.867748 -3.077044 -0.565558
v -2.222371 -2.694213 -0.556002
v -1.767309 -2.693431 -1.469997
v -1.908894 -2.580686 -1.274815
v -1.797121 -2.339604 -0.743722
v -1.761795 -2.050344 -1.171385
v -1.807488 -1.495058 -0.993098
v -1.578598 -1.254910 -0.948132
v -1.176868 -0.765141 -0.959657
v -1.232516 -0.454379 -0.815786
v -1.405702 -0.325492 -0.305186
v -0.782982 0.505727 -0.436368
v -1.123319 -0.207125 -0.536476
v -0.866609 1.827239 -1.099248
v -1.102284 3.878462 -0.675037
v -1.235619 3.459504 -0.283721
v -0.497592 4.917665 -0.545480
v -2.272157 -2.697470 0.228668
v -2.259348 -2.578071 -0.341970
v -1.956237 -2.339532 -0.003895
v -2.117237 -1.872184 -0.352305
v -1.990149 -1.400547 0.000003
v -1.732904 -1.204007 -0.672970
v -1.487175 -0.772583 -0.233887
v -1.561572 -0.594798 0.150576
v -1.493644 -0.591749 -0.461661
v -0.743503 1.236110 -0.164829
v -1.328899 1.823680 -0.390872
v -1.285824 3.843578 0.105957
v -1.144489 4.286421 0.379438
v -1.098583 4.455896 -0.298470
v -0.490705 5.005528 -0.268807
v -1.949401 -3.085807 0.095313
v -1.801755 -3.079312 0.745968
v -2.025708 -2.697842 1.085480
v -1.776903 -2.337213 0.791046
v -2.114466 -1.859641 0.366989
v -1.701762 -1.226557 0.724890
v -1.844346 -1.208035 0.118834
v -1.475159 -0.772949 0.276092
v -1.465687 -0.456348 0.002373
v -1.372824 -0.325570 0.431715
v -1.172249 -0.202386 0.388465
v -1.238404 -0.204542 -0.025900
v -0.704958 1.770662 0.180239
v -1.343280 1.826953 0.408342
v -0.690312 2.596344 0.027958
v -1.160682 3.485974 0.513332
v -0.967386 2.960109 0.377093
v -0.872938 4.757403 0.248083
v -1.420154 -3.082976 1.344790
v -1.282195 -2.699209 1.904553
v -1.621920 -2.577996 1.623326
v -2.199422 -2.581856 0.665626
v -1.371754 -2.341212 1.394369
v -1.840603 -1.867804 1.104826
v -1.365974 -1.248272 1.244258
v -1.405273 -1.202914 1.221835
v -1.251356 -0.769352 0.842892
v -1.043398 -0.628920 1.158984
v -1.396399 -0.648782 0.682415
v -1.235895 -0.453336 0.809970
v -0.921757 -0.206387 0.842843
v -0.806584 0.004105 0.766159
v -0.831196 0.644408 0.211974
v -0.698874 3.869024 1.129342
v -0.841665 4.359236 0.834731
v -0.401331 4.972876 0.455523
v -0.831675 -3.078651 1.768368
v -0.474836 -2.337927 1.906855
v -1.333623 -1.814398 1.690574
v -0.732985 -1.393659 1.842725
v -0.833761 -1.208890 1.645119
v -0.690006 -0.453943 1.291390
v -0.611971 -0.331287 1.297986
v -1.060910 -0.333133 0.967922
v -0.421410 -0.204030 1.167634
v -0.545918 0.560537 0.678187
v -0.420955 0.918476 0.676116
v -0.076543 1.800504 0.753410
v -0.570903 1.798512 0.480943
v -0.911862 1.833514 1.039418
v -0.234327 2.587698 0.650826
v -0.637103 3.065467 0.948622
v -0.273753 -3.078935 1.932830
v -0.336753 -2.693335 2.264748
v -0.018542 -2.579234 2.295014
v -0.882875 -2.578327 2.102466
v -0.530760 -1.904257 2.087023
v 0.073474 -1.255768 1.864539
v -0.184496 -1.180842 1.842707
v -0.706856 -0.769999 1.333372
v -0.465373 -0.588010 1.498168
v 0.176700 -0.589818 1.550062
v 0.029838 -0.206625 1.239658
v -0.347223 1.824916 1.347800
v 0.152214 2.584337 0.679926
v -0.179784 3.292490 1.225545
v -0.008932 4.387395 1.186410
v -0.413415 4.637269 0.929036
v 0.361181 -3.083109 1.921650
v 0.673915 -2.699377 2.196160
v 0.872463 -2.577704 2.106031
v 0.471969 -2.339914 1.891498
v 0.967163 -1.466443 1.794492
v 0.581837 -1.210678 1.754722
v -0.069441 -0.768865 1.502067
v 0.709756 -0.593072 1.405791
v 0.133892 -0.451359 1.468692
v 0.001114 -0.329380 1.439269
v 0.427990 -0.205046 1.159958
v -0.042355 0.692822 0.807253
v 0.274856 0.803833 0.756521
v 0.164497 2.955608 1.056957
v 0.069550 3.732435 1.327560
v 0.505753 4.443965 1.032621
v 0.105490 4.850373 0.804272
v 1.107700 -3.079359 1.616879
v 1.633507 -2.694618 1.615559
v 0.540904 -1.867186 2.087278
v 1.333174 -1.922370 1.659612
v 1.204379 -1.218886 1.405088
v 0.632672 -0.775929 1.377622
v 0.834677 -0.201346 0.918035
v 0.735756 0.403519 0.553541
v 0.562042 0.791367 0.586539
v 0.469013 1.791716 0.575551
v 0.519865 2.118521 1.302500
v 0.515374 2.593056 0.465113
v 0.673971 3.073528 0.922698
v 0.543286 3.843511 1.206276
v 0.664614 4.783988 0.572032
v 1.675327 -3.085935 1.001143
v 1.530904 -2.577991 1.698533
v 1.241494 -2.339841 1.511925
v 1.767278 -1.846959 1.240333
v 1.735864 -1.391446 0.955163
v 1.641599 -1.214535 0.840759
v 1.246366 -0.771149 0.852376
v 1.464612 -0.631590 0.534294
v 1.223067 -0.557511 0.949401
v 0.927713 -0.454045 1.132124
v 0.850343 -0.326208 1.183476
v 1.102177 -0.207479 0.576165
v 0.911376 2.894127 0.380106
v 1.162719 3.516756 0.571931
v 0.992401 4.249230 0.720299
v 1.912028 -3.080712 0.381401
v 2.285822 -2.699405 0.122190
v 2.113450 -2.623423 0.946211
v 1.905326 -2.336298 -0.477479
v 1.850179 -2.339579 0.661894
v 2.119260 -1.822619 0.403846
v 1.487397 -0.771056 0.218249
v 1.454445 -0.446892 -0.136080
v 1.355532 -0.456274 0.561902
v 1.377979 -0.330215 0.417167
v 1.231542 -0.199014 0.091644
v 0.741975 1.157095 -0.235989
v 0.774233 0.824204 0.202088
v 0.719411 1.799449 0.187299
v 1.262429 1.823037 0.583882
v 1.353049 2.122919 0.267900
v 1.263915 3.927136 0.239070
v 1.055100 4.588067 0.028910
v 0.534403 5.004594 -0.160669
v 1.936927 -3.075475 -0.285000
v 1.722837 -3.084447 -0.906093
v 2.202271 -2.621077 -0.707017
v 2.284565 -2.579258 0.094122
v 2.088501 -1.875746 -0.452800
v 1.879249 -1.661323 -0.953634
v 2.030310 -1.445429 -0.099489
v 1.755461 -1.219146 -0.583877
v 1.839726 -1.200213 0.180698
v 1.568520 -0.596083 -0.181084
v 1.264696 -0.507964 -0.835329
v 1.402057 -0.329915 -0.353154
v 1.188382 -0.210163 -0.374037
v 0.855445 0.306077 -0.428592
v 0.702084 1.799878 -0.239928
v 1.377255 1.826452 -0.197804
v 1.102167 3.067269 -0.213651
v 1.228347 3.605363 -0.431247
v 1.087463 4.168458 -0.636403
v 1.370722 -3.078054 -1.402771
v 1.778468 -2.699134 -1.454464
v 1.764998 -2.578342 -1.444220
v 1.416940 -2.335847 -1.341402
v 1.749432 -2.028433 -1.169024
v 1.344571 -1.247235 -1.282478
v 1.443567 -0.768965 -0.441004
v 1.267020 -0.774289 -0.812527
v 1.044238 -0.325646 -0.981692
v 0.489580 1.800993 -0.555823
v 1.064968 1.825878 -0.886230
v 0.772510 3.011001 -0.778249
v 0.830303 -2.342065 -1.763343
v 0.994507 -1.995828 -1.864279
v 1.371183 -1.682959 -1.619175
v 0.667545 -1.404731 -1.870409
v 1.305750 -1.180116 -1.314779
v 0.830382 -0.773893 -1.262565
v 0.931514 -0.631909 -1.249632
v 0.848288 -0.458307 -1.208487
v 0.954884 -0.206929 -0.803128
v 0.612491 -0.158162 -1.066086
v 0.401862 0.937438 -0.687048
v 0.360471 2.999240 -1.029254
v 0.702708 3.569839 -1.087520
v 0.692349 4.245847 -1.031717
v 0.544890 4.790417 -0.715195
v 0.987238 -2.699570 -2.064843
v 0.978114 -2.575853 -2.084385
v 0.341571 -1.780933 -2.122797
v 0.872109 -1.258022 -1.631872
v 0.533076 -1.179663 -1.773781
v 0.553918 -0.336613 -1.331031
v 0.398930 0.442941 -0.828727
v 0.522951 1.826053 -1.280806
v 0.017937 3.545809 -1.312484
v 0.664949 -3.076286 -1.840170
v -0.960164 2.122814 1.019638
v 1.136466 2.116838 0.797425
v -0.778613 2.118886 -1.145517
v -1.221244 2.120402 -0.653179
v -1.392557 2.119538 0.151603
v -0.270479 2.116766 1.362524
v 1.346218 2.116631 -0.362120
v 0.836207 2.124280 -1.122711
v -0.507556 2.425073 -0.469703
v -0.691085 2.423064 -0.075506
v -0.556351 2.592936 0.424697
v -0.623609 2.424174 0.289365
v 0.161476 2.426464 0.676174
v 0.516063 2.423448 0.459416
v 0.702231 2.424705 -0.000457
v 0.706621 2.601285 0.008830
v 0.492081 2.590983 -0.499383
v 0.514556 2.426479 -0.457660
v 0.190646 2.422496 -0.669555
v 0.585650 1.825536 1.276415
v 0.047147 1.796398 -0.745217
v -0.204251 2.426647 -0.652514
v -0.348648 2.426145 0.604069
vn -0.2299 -0.8881 -0.3980
vn -0.3354 -0.2232 -0.9152
vn -0.0357 -0.8885 -0.4575
vn -0.0840 0.3624 -0.9282
vn 0.0940 -0.2221 -0.9705
vn -0.2329 0.2789 -0.9317
vn -0.1604 0.0697 -0.9846
vn 0.1174 0.2873 -0.9506
vn -0.3307 0.4423 -0.8337
vn -0.5932 0.2218 -0.7739
vn 0.0125 0.4937 -0.8696
vn -0.1795 0.1639 -0.9700
vn -0.3154 0.2768 -0.9077
vn 0.1395 0.1745 -0.9747
vn -0.6066 0.2227 -0.7632
vn -0.1849 0.2644 -0.9465
vn 0.1376 0.1512 -0.9789
vn -0.1419 0.3148 -0.9385
vn 0.0199 0.1689 -0.9854
vn -0.2682 0.6492 -0.7118
vn -0.5035 0.0378 -0.8632
vn 0.0198 -0.1426 -0.9896
vn -0.5342 -0.4348 -0.7250
vn 0.0519 0.2800 -0.9586
vn -0.5430 0.4631 -0.7005
vn -0.0675 0.6060 -0.7926
vn -0.4152 0.8056 -0.4227
vn -0.3922 0.9098 -0.1354
vn 0.0898 0.9791 0.1824
vn 0.0208 0.9109 -0.4120
vn -0.3643 -0.8903 -0.2731
vn -0.7205 -0.1973 -0.6647
vn -0.8081 0.3389 -0.4819
vn -0.4867 0.3586 -0.7965
vn -0.6286 0.2992 -0.7179
vn -0.8132 -0.2327 -0.5334
vn -0.4414 -0.1765 -0.8798
vn -0.5682 0.2497 -0.7841
vn -0.6425 0.2255 -0.7323
vn -0.7606 0.2854 -0.5831
vn -0.3327 0.5009 -0.7990
vn -0.7789 0.4038 -0.4798
vn -0.6192 0.3486 -0.7036
vn -0.0991 0.4616 -0.8815
vn -0.4487 0.6752 -0.5855
vn -0.6204 0.2971 -0.7258
vn -0.8411 0.3554 -0.4077
vn -0.1025 -0.6475 -0.7551
vn -0.4469 -0.6410 -0.6240
vn -0.6163 -0.7536 -0.2285
vn -0.0631 -0.4504 -0.8906
vn -0.7177 -0.4412 -0.5388
vn -0.4528 -0.8786 -0.1521
vn -0.9321 -0.2273 -0.2820
vn -0.8042 0.3790 -0.4578
vn -0.7693 0.5734 -0.2819
vn -0.6374 0.5938 -0.4910
vn -0.9325 0.1713 -0.3179
vn -0.6746 0.6599 -0.3308
vn -0.9793 0.0758 -0.1877
vn -0.4855 -0.6180 -0.6184
vn -0.7678 0.4860 -0.4175
vn -0.4424 0.5339 -0.7206
vn -0.9492 -0.2310 -0.2136
vn -0.8078 -0.5307 -0.2566
vn -0.8576 0.0556 -0.5113
vn -0.8475 0.4770 -0.2328
vn -0.9110 0.3967 -0.1125
vn -0.9758 -0.2005 0.0868
vn -0.8899 0.3435 -0.3000
vn -0.9579 0.2871 -0.0021
vn -0.9797 -0.0527 -0.1936
vn -0.8851 0.4654 0.0039
vn -0.9798 -0.0041 0.2002
vn -0.8095 0.5820 0.0772
vn -0.9648 0.2111 -0.1571
vn -0.9796 0.1639 0.1161
vn -0.8717 0.4901 -0.0002
vn -0.7444 0.6674 -0.0214
vn -0.9332 0.2773 0.2287
vn -0.7512 -0.6253 -0.2113
vn -0.8687 0.4889 0.0798
vn -0.9227 -0.3803 0.0636
vn -0.9965 0.0525 0.0645
vn -0.8935 0.3283 0.3065
vn -0.6705 0.7193 0.1819
vn -0.3242 0.8848 0.3347
vn -0.9134 0.3047 0.2701
vn -0.8761 0.2781 0.3937
vn -0.8589 0.0133 0.5120
vn -0.7923 0.5088 0.3368
vn -0.9639 0.1725 0.2029
vn -0.7751 0.3883 0.4985
vn -0.9117 -0.0240 0.4102
vn -0.8688 0.4202 0.2619
vn -0.8749 0.4327 -0.2174
vn -0.6824 0.6830 0.2605
vn -0.8099 0.5552 0.1894
vn -0.5000 -0.7640 0.4078
vn -0.7194 -0.4467 0.5319
vn -0.8043 -0.5304 0.2679
vn -0.8960 -0.1952 0.3989
vn -0.3390 -0.8855 0.3177
vn -0.8609 -0.1441 0.4880
vn -0.4305 -0.8866 0.1692
vn -0.6933 0.2792 0.6644
vn -0.5405 -0.2039 0.8162
vn -0.6464 0.3166 0.6942
vn -0.6128 0.0440 0.7890
vn -0.7527 0.0650 0.6552
vn -0.7719 0.1599 0.6153
vn -0.8036 0.2118 0.5562
vn -0.6666 0.0297 0.7448
vn -0.5099 0.7236 0.4652
vn -0.6459 0.4603 0.6090
vn -0.5847 0.3280 0.7420
vn -0.4801 0.1254 0.8682
vn -0.7546 -0.5962 0.2741
vn -0.6073 0.4942 0.6220
vn -0.5113 -0.4748 0.7163
vn -0.1885 -0.8863 0.4229
vn -0.3658 0.3264 0.8716
vn -0.2978 0.4881 0.8204
vn -0.2231 -0.0473 0.9736
vn -0.3925 0.5639 0.7266
vn -0.4641 0.2278 0.8560
vn -0.2700 0.1788 0.9461
vn -0.4573 0.3721 0.8078
vn -0.6180 0.4902 0.6146
vn -0.3244 0.5160 0.7928
vn -0.2589 0.6782 0.6877
vn -0.1085 0.2581 0.9600
vn -0.0628 -0.7627 0.6437
vn -0.1512 -0.3338 0.9304
vn -0.5508 0.0621 0.8323
vn -0.6695 0.4009 0.6253
vn -0.3461 0.6176 0.7063
vn -0.1688 -0.2266 0.9592
vn -0.0622 -0.8914 0.4490
vn 0.0752 -0.8898 0.4500
vn 0.0505 0.4743 0.8789
vn 0.2210 -0.0144 0.9752
vn -0.1641 0.1151 0.9797
vn -0.0391 0.2242 0.9737
vn 0.1014 0.4793 0.8718
vn 0.1208 0.0853 0.9890
vn -0.0531 0.5174 0.8541
vn 0.2065 -0.4200 0.8837
vn 0.1261 -0.5478 0.8271
vn -0.2727 -0.4218 0.8647
vn -0.0309 0.4126 0.9104
vn 0.0470 -0.0323 0.9984
vn 0.0858 0.7902 0.6069
vn 0.2685 -0.2153 0.9389
vn 0.0262 0.3042 0.9523
vn -0.2399 0.2935 0.9254
vn 0.2217 0.2962 0.9290
vn 0.4369 0.4148 0.7982
vn 0.2291 0.5381 0.8111
vn 0.4145 0.1908 0.8899
vn 0.4624 0.2101 0.8614
vn 0.4847 0.4566 0.7460
vn 0.2610 0.6558 0.7083
vn 0.3312 0.1921 0.9238
vn 0.4326 -0.7300 0.5291
vn 0.4574 0.0203 0.8891
vn 0.5361 -0.4485 0.7151
vn 0.7036 -0.2650 0.6593
vn 0.2656 -0.8781 0.3981
vn 0.4066 0.3997 0.8216
vn 0.6113 0.2914 0.7358
vn 0.5605 0.5495 0.6196
vn 0.8136 -0.0116 0.5813
vn 0.7362 0.2937 0.6097
vn 0.7954 0.2219 0.5640
vn 0.6178 0.3681 0.6948
vn 0.4846 0.7005 0.5238
vn 0.7265 0.3750 0.5758
vn 0.6848 0.1529 0.7125
vn 0.3313 -0.6276 0.7045
vn 0.6804 -0.4282 0.5947
vn 0.8851 -0.1839 0.4275
vn 0.7760 0.3191 0.5440
vn 0.4068 0.4714 0.7825
vn 0.5291 0.7428 0.4102
vn 0.3982 -0.8871 0.2333
vn 0.9006 0.1208 0.4175
vn 0.9000 0.2911 0.3245
vn 0.6061 -0.0844 0.7909
vn 0.7745 0.4716 0.4217
vn 0.9833 0.0101 0.1818
vn 0.7374 0.5775 0.3504
vn 0.9485 -0.0035 0.3168
vn 0.8199 0.4413 0.3647
vn 0.8366 0.5009 0.2217
vn 0.6589 0.6665 0.3487
vn 0.9507 0.1995 0.2373
vn 0.6474 -0.7431 0.1696
vn 0.6939 -0.6422 0.3258
vn 0.6887 0.4782 0.5450
vn 0.7579 -0.5819 0.2950
vn 0.9027 -0.4302 -0.0064
vn 0.9850 0.1102 0.1328
vn 0.8219 0.5697 0.0036
vn 0.4808 -0.8733 -0.0792
vn 0.9402 -0.3350 0.0608
vn 0.4523 -0.8862 0.0999
vn 0.8838 0.4669 0.0303
vn 0.9325 0.2858 -0.2209
vn 0.8914 0.4508 -0.0464
vn 0.9651 0.2191 0.1437
vn 0.9875 0.1085 -0.1145
vn 0.8726 0.4876 -0.0291
vn 0.8426 0.4947 -0.2129
vn 0.7396 0.6714 0.0474
vn 0.7611 -0.6417 -0.0944
vn 0.8505 0.5019 0.1575
vn 0.8282 0.4948 -0.2631
vn 0.8687 -0.4745 -0.1420
vn 0.9439 -0.1097 -0.3115
vn 0.9782 -0.0593 -0.1991
vn 0.8007 -0.2520 -0.5435
vn 0.8550 0.2614 -0.4479
vn 0.7758 0.5645 -0.2821
vn 0.8046 0.5827 0.1147
vn 0.9078 0.2727 -0.3186
vn 0.6676 0.7125 -0.2162
vn 0.8114 0.4059 -0.4207
vn 0.6516 -0.4329 -0.6229
vn 0.4376 0.7174 -0.5420
vn 0.4079 0.9069 -0.1059
vn 0.4033 -0.8931 -0.1992
vn 0.7378 -0.2762 -0.6159
vn 0.9418 0.1131 -0.3167
vn 0.6680 0.4994 -0.5517
vn 0.6890 0.2861 -0.6659
vn 0.6325 0.1992 -0.7485
vn 0.6511 0.3549 -0.6709
vn 0.8181 0.2845 -0.4997
vn 0.5060 0.2200 -0.8340
vn 0.6086 0.0351 -0.7927
vn 0.8220 0.2440 -0.5145
vn 0.5532 0.6241 -0.5518
vn 0.4235 0.3869 -0.8191
vn 0.9428 0.0929 -0.3201
vn 0.5185 0.4912 -0.6999
vn 0.6271 -0.6158 -0.4771
vn 0.6367 -0.5070 -0.5810
vn 0.5566 -0.1261 -0.8212
vn 0.8474 0.2830 -0.4493
vn 0.4136 -0.3852 -0.8249
vn 0.3875 0.3951 -0.8329
vn 0.3946 0.3033 -0.8674
vn 0.4600 -0.1688 -0.8717
vn 0.2903 0.5318 -0.7956
vn 0.7116 0.3564 -0.6054
vn 0.1616 0.0676 -0.9845
vn 0.4493 0.4953 -0.7435
vn 0.5008 0.4113 -0.7616
vn 0.5209 -0.0868 -0.8492
vn 0.5358 0.7107 -0.4559
vn 0.2707 -0.6111 -0.7438
vn 0.2916 -0.5254 -0.7994
vn 0.1565 -0.8851 -0.4383
vn 0.2672 0.0789 -0.9604
vn 0.1348 0.5198 -0.8436
vn 0.3315 0.4803 -0.8120
vn 0.1722 0.6783 -0.7143
vn 0.0587 -0.7421 -0.6677
vn 0.5286 0.1304 -0.8388
vn -0.0413 0.5046 -0.8623
vn -0.1204 -0.5210 -0.8450
vn -0.4507 -0.8924 0.0210
vn -0.5505 0.6035 -0.5769
vn -0.7704 0.6308 -0.0932
vn -0.1364 0.4990 0.8558
vn 0.2983 0.5029 0.8113
vn 0.1903 0.5987 0.7781
vn 0.7795 0.6264 -0.0036
vn -0.3001 0.6152 -0.7290
vn 0.6429 0.5859 -0.4933
vn 0.2242 0.6537 -0.7228
vn -0.1867 -0.6358 0.7489
vn -0.4904 -0.6615 0.5674
vn 0.6384 -0.7399 -0.2122
vn 0.4377 -0.7415 -0.5085
vn -0.3837 0.6149 0.6889
vn -0.7513 0.5781 0.3184
vn 0.6075 0.5908 0.5310
vn 0.0228 0.6857 0.7275
vn 0.5809 0.4089 0.7038
vn 0.3068 -0.8891 -0.3397
vn 0.5139 0.3177 -0.7969
vt 0.044811 0.450755
vt 0.046236 0.414051
vt 0.091281 0.454973
vt 0.092828 0.411742
vt 0.107104 0.421821
vt 0.069736 0.377479
vt 0.087751 0.338160
vt 0.122648 0.386984
vt 0.081573 0.289678
vt 0.062312 0.306012
vt 0.125780 0.302648
vt 0.099744 0.286895
vt 0.102850 0.244428
vt 0.153183 0.261238
vt 0.097793 0.225950
vt 0.116906 0.231370
vt 0.156020 0.248628
vt 0.159008 0.128780
vt 0.162440 0.201396
vt 0.124359 0.192762
vt 0.299654 0.672673
vt 0.265713 0.706210
vt 0.236469 0.671633
vt 0.309886 0.712800
vt 0.341101 0.683546
vt 0.347271 0.709246
vt 0.370340 0.702465
vt 0.401373 0.724253
vt 0.421357 0.748554
vt 0.383197 0.729548
vt 0.554036 0.062187
vt 0.550162 0.096608
vt 0.484337 0.071914
vt 0.566895 0.101969
vt 0.495225 0.114535
vt 0.537111 0.136769
vt 0.576132 0.154627
vt 0.504447 0.174460
vt 0.496748 0.195840
vt 0.535704 0.192437
vt 0.512703 0.227729
vt 0.550358 0.220403
vt 0.553593 0.226636
vt 0.589083 0.257293
vt 0.540933 0.273821
vt 0.554382 0.298417
vt 0.574958 0.277837
vt 0.608330 0.278322
vt 0.588900 0.294823
vt 0.565045 0.325343
vt 0.551347 0.310263
vt 0.587510 0.318037
vt 0.612204 0.384417
vt 0.638240 0.358922
vt 0.613491 0.484151
vt 0.622316 0.481436
vt 0.662025 0.481585
vt 0.603490 0.711906
vt 0.601821 0.770473
vt 0.568862 0.769302
vt 0.555116 0.556447
vt 0.588400 0.555700
vt 0.575283 0.577510
vt 0.605450 0.054857
vt 0.616561 0.087361
vt 0.594153 0.187085
vt 0.616803 0.209253
vt 0.594518 0.209148
vt 0.634898 0.258723
vt 0.629371 0.303172
vt 0.667369 0.435450
vt 0.591721 0.865623
vt 0.558869 0.844189
vt 0.600117 0.847135
vt 0.537893 0.683218
vt 0.547068 0.723670
vt 0.567442 0.653506
vt 0.611807 0.654850
vt 0.593918 0.611101
vt 0.545345 0.616916
vt 0.631234 0.093546
vt 0.666990 0.082904
vt 0.599946 0.125582
vt 0.654887 0.119695
vt 0.636092 0.154999
vt 0.660541 0.184153
vt 0.680846 0.152083
vt 0.670507 0.201177
vt 0.648568 0.242658
vt 0.678845 0.252557
vt 0.668560 0.264994
vt 0.671115 0.296303
vt 0.700760 0.370423
vt 0.541205 0.860092
vt 0.508060 0.842805
vt 0.524193 0.768720
vt 0.512066 0.654545
vt 0.497974 0.623038
vt 0.511752 0.589244
vt 0.520699 0.548908
vt 0.547911 0.518070
vt 0.695559 0.089524
vt 0.713536 0.116150
vt 0.728435 0.149785
vt 0.708035 0.195089
vt 0.685900 0.239712
vt 0.729079 0.262438
vt 0.717803 0.246612
vt 0.701877 0.273305
vt 0.648231 0.278625
vt 0.705631 0.293831
vt 0.699942 0.477389
vt 0.733298 0.480398
vt 0.498410 0.757348
vt 0.495593 0.727015
vt 0.490478 0.686229
vt 0.761461 0.049701
vt 0.723969 0.081611
vt 0.709365 0.048463
vt 0.766313 0.090558
vt 0.794755 0.084591
vt 0.766369 0.117735
vt 0.777370 0.157419
vt 0.749344 0.193171
vt 0.750494 0.201208
vt 0.733579 0.238203
vt 0.760168 0.251200
vt 0.747592 0.294751
vt 0.747635 0.315854
vt 0.749698 0.366016
vt 0.764637 0.405901
vt 0.104454 0.967984
vt 0.083536 0.956560
vt 0.103804 0.930043
vt 0.234120 0.919067
vt 0.263247 0.965458
vt 0.224409 0.956491
vt 0.814669 0.053152
vt 0.822386 0.094762
vt 0.812767 0.189869
vt 0.832845 0.159606
vt 0.798173 0.205470
vt 0.789219 0.244116
vt 0.807475 0.261883
vt 0.783608 0.268596
vt 0.747166 0.273984
vt 0.787701 0.279842
vt 0.793502 0.300047
vt 0.799604 0.386451
vt 0.783720 0.481996
vt 0.252378 0.879209
vt 0.292013 0.914685
vt 0.327580 0.935784
vt 0.349141 0.907003
vt 0.370491 0.948116
vt 0.860403 0.091423
vt 0.864150 0.058026
vt 0.907432 0.062332
vt 0.859496 0.205839
vt 0.904793 0.175245
vt 0.843759 0.216434
vt 0.839467 0.258094
vt 0.845119 0.286810
vt 0.850635 0.273772
vt 0.832744 0.292222
vt 0.179045 0.859495
vt 0.220439 0.855652
vt 0.179759 0.895291
vt 0.332942 0.874401
vt 0.285090 0.862926
vt 0.409525 0.896619
vt 0.384841 0.922493
vt 0.374417 0.879165
vt 0.925143 0.100225
vt 0.880876 0.102301
vt 0.841334 0.125942
vt 0.912318 0.137979
vt 0.910070 0.217707
vt 0.894853 0.230790
vt 0.881596 0.270822
vt 0.876129 0.287618
vt 0.867643 0.305934
vt 0.855840 0.322034
vt 0.823188 0.403174
vt 0.814737 0.482545
vt 0.297670 0.834523
vt 0.255099 0.830078
vt 0.445375 0.411446
vt 0.502167 0.400888
vt 0.478729 0.441022
vt 0.494123 0.362193
vt 0.498096 0.392824
vt 0.452473 0.371944
vt 0.485654 0.327585
vt 0.425571 0.288162
vt 0.460783 0.300171
vt 0.403129 0.343403
vt 0.460259 0.272741
vt 0.383746 0.239569
vt 0.426791 0.225291
vt 0.382373 0.256030
vt 0.402822 0.221806
vt 0.404419 0.210718
vt 0.432449 0.209126
vt 0.387304 0.197761
vt 0.414669 0.186544
vt 0.351117 0.153033
vt 0.378620 0.112940
vt 0.357422 0.114184
vt 0.350180 0.031390
vt 0.349635 0.029031
vt 0.368300 0.029400
vt 0.277023 0.531482
vt 0.220826 0.535676
vt 0.233346 0.513951
vt 0.275199 0.556408
vt 0.187831 0.572542
vt 0.135344 0.560430
vt 0.159074 0.517902
vt 0.113500 0.525629
vt 0.088634 0.562164
vt 0.073777 0.537516
vt 0.413714 0.450611
vt 0.391228 0.415410
vt 0.375739 0.386637
vt 0.445978 0.338371
vt 0.385987 0.315997
vt 0.350259 0.354525
vt 0.377264 0.300844
vt 0.350839 0.254462
vt 0.351499 0.239741
vt 0.340223 0.231550
vt 0.352958 0.210468
vt 0.314041 0.119314
vt 0.307633 0.030986
vt 0.365353 0.578495
vt 0.349823 0.563611
vt 0.385232 0.539461
vt 0.234526 0.579302
vt 0.274073 0.604872
vt 0.155338 0.594667
vt 0.106935 0.606901
vt 0.311755 0.461698
vt 0.338389 0.426588
vt 0.362586 0.457139
vt 0.336051 0.419089
vt 0.293121 0.394671
vt 0.314118 0.331296
vt 0.330756 0.269331
vt 0.301174 0.260089
vt 0.302454 0.248520
vt 0.284655 0.238891
vt 0.316994 0.216478
vt 0.367512 0.625310
vt 0.349167 0.597578
vt 0.348813 0.635891
vt 0.221427 0.626246
vt 0.181146 0.638718
vt 0.297295 0.361951
vt 0.246145 0.371730
vt 0.261185 0.350179
vt 0.279761 0.314729
vt 0.330956 0.308703
vt 0.280837 0.274256
vt 0.277103 0.220698
vt 0.260739 0.170292
vt 0.272933 0.631281
vt 0.075081 0.624813
vt 0.060448 0.603629
vt 0.680201 0.849396
vt 0.866325 0.677329
vt 0.708071 0.905489
vt 0.267682 0.463928
vt 0.231405 0.430904
vt 0.284834 0.426142
vt 0.231641 0.423414
vt 0.222114 0.395556
vt 0.209155 0.349386
vt 0.222244 0.311053
vt 0.245267 0.271307
vt 0.202386 0.270832
vt 0.210608 0.261252
vt 0.250423 0.256366
vt 0.231757 0.238468
vt 0.208675 0.165157
vt 0.280228 0.098732
vt 0.098122 0.758844
vt 0.097490 0.804218
vt 0.078760 0.778913
vt 0.073290 0.805802
vt 0.271612 0.805835
vt 0.222227 0.770285
vt 0.267489 0.756584
vt 0.206707 0.797151
vt 0.309153 0.796404
vt 0.355675 0.760747
vt 0.354998 0.796946
vt 0.385161 0.761906
vt 0.167004 0.427831
vt 0.166598 0.419789
vt 0.169103 0.391842
vt 0.179103 0.366626
vt 0.164595 0.323498
vt 0.230366 0.321829
vt 0.135949 0.344604
vt 0.185434 0.312285
vt 0.207979 0.246117
vt 0.205566 0.212921
vt 0.237819 0.218390
vt 0.081584 0.737662
vt 0.174594 0.709698
vt 0.223991 0.733087
vt 0.173897 0.763890
vt 0.153568 0.460186
vt 0.161356 0.303009
vt 0.160136 0.235422
vt 0.134119 0.216536
vt 0.187900 0.232671
vt 0.171718 0.210132
vt 0.190517 0.032007
vt 0.218843 0.105498
vt 0.078261 0.696546
vt 0.097540 0.700265
vt 0.221811 0.696604
vt 0.770566 0.677770
vt 0.818796 0.669750
vt 0.728460 0.701425
vt 0.919309 0.708803
vt 0.953422 0.759892
vt 0.959904 0.848754
vt 0.935377 0.896359
vt 0.852997 0.950962
vt 0.619493 0.847935
vt 0.576445 0.786136
vt 0.533460 0.785231
vt 0.102643 0.883415
vt 0.101765 0.845039
vt 0.163773 0.858465
vt 0.289870 0.606328
vt 0.602904 0.784828
vt 0.158060 0.768826
vt 0.157783 0.730226
vt 0.544845 0.905024
vt 0.086564 0.888650
vt 0.087237 0.926323
vt 0.042514 0.926816
vt 0.590584 0.909500
vt 0.041807 0.876745
vt 0.079362 0.839565
vt 0.412487 0.618833
vt 0.036202 0.756430
vt 0.162741 0.907871
vt 0.163278 0.945365
vt 0.291501 0.558108
vt 0.291124 0.533197
vt 0.159907 0.789891
vt 0.045973 0.405161
vt 0.059761 0.348015
vt 0.071058 0.671838
vt 0.095974 0.667600
vt 0.115421 0.220123
vt 0.133435 0.160375
vt 0.165665 0.031369
vt 0.163700 0.029100
vt 0.490541 0.106685
vt 0.487665 0.147171
vt 0.516260 0.240099
vt 0.543779 0.296149
vt 0.595853 0.386757
vt 0.657518 0.049978
vt 0.498756 0.866334
vt 0.315299 0.967156
vt 0.178404 0.933032
vt 0.286883 0.976248
vt 0.827303 0.309261
vt 0.945005 0.066070
vt 0.938800 0.111019
vt 0.452710 0.401956
vt 0.341028 0.844077
vt 0.428904 0.240372
vt 0.351864 0.520692
vt 0.046295 0.572199
vt 0.270370 0.032458
vt 0.128789 0.638875
vt 0.211106 0.463311
vt 0.235836 0.032168
vt 0.313512 0.755885
vt 0.698681 0.734607
vt 0.675880 0.790965
vt 0.962467 0.805222
vt 0.897748 0.932641
vt 0.804719 0.955431
vt 0.756104 0.940766
vt 0.505589 0.782954
vt 0.160544 0.692007
vt 0.173286 0.789216
vt 0.506893 0.903218
vt 0.406091 0.587652
vt 0.033239 0.778861
vt 0.035587 0.716501
s 1
usemtl 12937_WoodenChessPawnSideB
f 27/1/1 28/2/2 1/3/3
f 28/2/2 3/4/4 2/5/5
f 4/6/6 6/7/7 5/8/8
f 34/9/9 6/7/7 31/10/10
f 6/7/7 34/9/9 7/11/11
f 7/11/11 34/9/9 8/12/12
f 36/13/13 9/14/14 8/12/12
f 37/15/15 10/16/16 36/13/13
f 11/17/17 36/13/13 10/16/16
f 17/18/18 16/19/19 15/20/20
f 46/21/21 269/22/22 21/23/23
f 46/21/21 23/24/24 269/22/22
f 47/25/25 24/26/26 23/24/24
f 24/26/26 47/25/25 65/27/27
f 80/28/28 26/29/29 25/30/30
f 48/31/31 51/32/32 27/33/1
f 52/34/33 29/35/34 51/32/32
f 30/36/35 29/35/34 52/34/33
f 30/36/35 54/37/36 32/38/37
f 6/39/7 32/38/37 31/40/10
f 34/41/9 31/40/10 33/42/38
f 35/43/39 34/41/9 33/42/38
f 57/44/40 36/45/13 35/43/39
f 38/46/41 37/47/15 58/48/42
f 38/46/41 58/48/42 39/49/43
f 39/49/43 15/50/20 13/51/44
f 40/52/45 41/53/46 15/50/20
f 40/52/45 60/54/47 41/53/46
f 18/55/48 42/56/49 43/57/50
f 21/58/23 20/59/51 44/60/52
f 80/61/28 25/62/30 65/63/27
f 48/31/31 49/64/53 50/65/54
f 50/65/54 52/34/33 51/32/32
f 55/66/55 31/40/10 54/37/36
f 71/67/56 35/43/39 56/68/57
f 33/42/38 56/68/57 35/43/39
f 57/44/40 35/43/39 71/67/56
f 57/44/40 74/69/58 37/47/15
f 61/70/59 60/54/47 40/52/45
f 41/53/46 60/54/47 75/71/60
f 62/72/61 274/73/62 273/74/63
f 64/75/64 21/58/23 45/76/65
f 21/58/23 63/77/66 46/78/21
f 47/79/25 63/77/66 79/80/67
f 79/80/67 65/63/27 47/79/25
f 67/81/68 50/65/54 66/82/69
f 53/83/70 67/81/68 68/84/71
f 69/85/72 54/37/36 68/84/71
f 55/66/55 69/85/72 70/86/73
f 70/86/73 69/85/72 85/87/74
f 71/67/56 70/86/73 87/88/75
f 56/68/57 55/66/55 71/67/56
f 71/67/56 87/88/75 72/89/76
f 57/44/40 72/89/76 74/69/58
f 73/90/77 89/91/78 74/69/58
f 92/92/79 113/93/80 60/54/47
f 92/92/79 60/54/47 61/70/59
f 60/54/47 113/93/80 75/71/60
f 274/73/62 76/94/81 275/95/82
f 45/76/65 44/60/52 95/96/83
f 77/97/84 63/77/66 64/75/64
f 63/77/66 77/97/84 79/80/67
f 78/98/85 98/99/86 79/80/67
f 65/63/27 98/99/86 80/61/28
f 98/99/86 65/63/27 79/80/67
f 116/100/87 26/101/29 80/61/28
f 66/82/69 102/102/88 67/81/68
f 69/85/72 68/84/71 85/87/74
f 85/87/74 84/103/89 104/104/90
f 86/105/91 85/87/74 104/104/90
f 85/87/74 86/105/91 70/86/73
f 72/89/76 87/88/75 88/106/92
f 110/107/93 73/90/77 109/108/94
f 89/91/78 90/109/95 59/110/96
f 90/109/95 91/111/97 92/92/79
f 75/71/60 113/93/80 93/112/98
f 93/112/98 129/113/99 43/57/50
f 281/114/100 97/115/101 95/96/83
f 96/116/102 64/75/64 45/76/65
f 45/76/65 97/115/101 96/116/102
f 96/116/102 77/97/84 64/75/64
f 99/117/103 83/118/104 82/119/105
f 101/120/106 83/118/104 100/121/107
f 101/120/106 102/102/88 83/118/104
f 84/103/89 102/102/88 101/120/106
f 101/120/106 103/122/108 84/103/89
f 103/122/108 104/104/90 84/103/89
f 104/104/90 103/122/108 119/123/109
f 104/104/90 105/124/110 86/105/91
f 86/105/91 105/124/110 106/125/111
f 109/108/94 107/126/112 108/127/113
f 111/128/114 112/129/115 91/111/97
f 112/129/115 126/130/116 113/93/80
f 112/129/115 113/93/80 91/111/97
f 93/112/98 126/130/116 127/131/117
f 275/132/82 94/133/118 271/134/119
f 132/135/120 96/136/102 97/137/101
f 100/121/107 99/117/103 117/138/121
f 136/139/122 101/120/106 100/121/107
f 105/124/110 119/123/109 120/140/123
f 120/140/123 119/123/109 137/141/124
f 120/140/123 121/142/125 106/125/111
f 107/126/112 106/125/111 140/143/126
f 140/143/126 141/144/127 108/127/113
f 108/127/113 141/144/127 122/145/128
f 124/146/129 122/145/128 123/147/130
f 123/147/130 125/148/131 111/128/114
f 123/147/130 111/128/114 124/146/129
f 111/128/114 125/148/131 112/129/115
f 160/149/132 126/130/116 125/148/131
f 127/131/117 128/150/133 129/113/99
f 146/151/134 114/152/135 132/135/120
f 115/153/136 148/154/137 98/155/86
f 134/156/138 117/138/121 133/157/139
f 149/158/140 134/156/138 133/157/139
f 138/159/141 137/141/124 168/160/142
f 120/140/123 137/141/124 138/159/141
f 139/161/143 121/142/125 138/159/141
f 121/142/125 139/161/143 140/143/126
f 141/144/127 140/143/126 155/162/144
f 157/163/145 141/144/127 142/164/146
f 158/165/147 125/148/131 123/147/130
f 128/150/133 127/131/117 160/149/132
f 145/166/148 162/167/149 131/168/150
f 162/167/149 132/135/120 131/168/150
f 162/167/149 146/151/134 132/135/120
f 147/169/151 114/152/135 163/170/152
f 114/152/135 147/169/151 148/154/137
f 26/171/29 116/172/87 165/173/153
f 149/158/140 150/174/154 134/156/138
f 134/156/138 150/174/154 135/175/155
f 118/176/156 135/175/155 152/177/157
f 138/159/141 168/160/142 153/178/158
f 154/179/159 155/162/144 139/161/143
f 155/162/144 154/179/159 171/180/160
f 171/180/160 156/181/161 142/164/146
f 142/164/146 156/181/161 157/163/145
f 157/163/145 191/182/162 158/165/147
f 159/183/163 161/184/164 160/149/132
f 175/185/165 128/150/133 161/184/164
f 163/170/152 146/151/134 162/167/149
f 179/186/166 163/170/152 178/187/167
f 179/186/166 147/169/151 163/170/152
f 167/188/168 150/189/154 166/190/169
f 152/191/157 151/192/170 183/193/171
f 152/191/157 183/193/171 168/194/142
f 170/195/172 153/196/158 184/197/173
f 154/198/159 153/196/158 170/195/172
f 189/199/174 156/200/161 187/201/175
f 189/199/174 190/202/176 156/200/161
f 190/202/176 191/203/162 157/204/145
f 191/203/162 172/205/177 159/206/163
f 173/207/178 159/206/163 172/205/177
f 161/208/164 173/207/178 174/209/179
f 161/208/164 159/206/163 173/207/178
f 175/210/165 290/211/180 128/212/133
f 145/213/148 178/214/167 162/215/149
f 178/214/167 145/213/148 177/216/181
f 194/217/182 195/218/183 179/219/166
f 195/218/183 164/220/184 179/219/166
f 195/218/183 180/221/185 164/220/184
f 165/222/153 164/220/184 180/221/185
f 181/223/186 198/224/187 167/188/168
f 183/193/171 198/224/187 200/225/188
f 183/193/171 184/197/173 169/226/189
f 185/227/190 184/197/173 201/228/191
f 170/195/172 185/227/190 186/229/192
f 187/201/175 188/230/193 189/199/174
f 204/231/194 189/199/174 188/230/193
f 204/231/194 205/232/195 191/203/162
f 205/232/195 192/233/196 191/203/162
f 191/203/162 192/233/196 172/205/177
f 173/207/178 208/234/197 174/209/179
f 174/209/179 209/235/198 175/210/165
f 290/211/180 175/210/165 209/235/198
f 210/236/199 272/237/200 290/238/180
f 177/216/181 193/239/201 178/214/167
f 193/239/201 177/216/181 286/240/202
f 194/217/182 178/214/167 193/239/201
f 212/241/203 195/218/183 194/217/182
f 213/242/204 180/221/185 195/218/183
f 215/243/205 197/244/206 196/245/207
f 200/225/188 198/224/187 218/246/208
f 200/225/188 201/228/191 184/197/173
f 201/228/191 200/225/188 199/247/209
f 185/227/190 201/228/191 221/248/210
f 202/249/211 224/250/212 188/230/193
f 205/232/195 203/251/213 226/252/214
f 226/252/214 206/253/215 205/232/195
f 206/253/215 192/233/196 205/232/195
f 210/236/199 230/254/216 211/255/217
f 277/256/218 211/255/217 230/254/216
f 210/236/199 211/255/217 272/237/200
f 193/239/201 231/257/219 194/217/182
f 194/217/182 232/258/220 212/241/203
f 232/258/220 194/217/182 231/257/219
f 212/241/203 213/242/204 195/218/183
f 199/247/209 219/259/221 201/228/191
f 201/228/191 219/259/221 221/248/210
f 219/259/221 238/260/222 220/261/223
f 221/248/210 220/261/223 222/262/224
f 221/248/210 222/262/224 223/263/225
f 222/262/224 240/264/226 223/263/225
f 227/265/227 228/266/228 206/253/215
f 287/267/229 231/257/219 286/240/202
f 213/242/204 260/268/230 214/269/231
f 1/270/3 181/271/186 27/272/1
f 216/273/232 235/274/233 217/275/234
f 199/247/209 236/276/235 237/277/236
f 248/278/237 220/261/223 238/260/222
f 250/279/238 240/264/226 222/262/224
f 240/264/226 250/279/238 241/280/239
f 240/264/226 241/280/239 224/250/212
f 241/280/239 251/281/240 252/282/241
f 226/252/214 225/283/242 242/284/243
f 267/285/244 207/286/245 228/266/228
f 278/287/246 277/288/218 244/289/247
f 230/290/216 244/289/247 277/288/218
f 232/291/220 245/292/248 258/293/249
f 245/292/248 232/291/220 231/294/219
f 233/295/250 232/291/220 258/293/249
f 233/295/250 260/296/230 213/297/204
f 25/30/30 26/29/29 214/298/231
f 261/299/251 262/300/252 235/274/233
f 262/300/252 246/301/253 237/277/236
f 247/302/254 237/277/236 246/301/253
f 248/278/237 249/303/255 239/304/256
f 249/303/255 248/278/237 263/305/257
f 239/304/256 264/306/258 250/279/238
f 11/17/17 252/282/241 251/281/240
f 225/283/242 252/282/241 253/307/259
f 255/308/260 228/266/228 254/309/261
f 278/287/246 244/289/247 268/310/262
f 20/311/51 257/312/263 287/313/229
f 245/292/248 257/312/263 258/293/249
f 1/3/3 2/5/5 270/314/264
f 246/301/253 262/300/252 5/8/8
f 264/306/258 249/303/255 7/11/11
f 8/12/12 265/315/265 7/11/11
f 264/306/258 7/11/11 265/315/265
f 251/281/240 265/315/265 9/14/14
f 251/281/240 9/14/14 11/17/17
f 12/316/266 13/317/44 266/318/267
f 13/317/44 14/319/268 266/318/267
f 267/285/244 255/308/260 16/19/19
f 291/320/269 256/321/270 17/18/18
f 268/310/262 18/322/48 19/323/271
f 22/324/272 269/22/22 257/312/263
f 258/293/249 257/312/263 269/22/22
f 23/24/24 24/26/26 260/296/230
f 53/83/70 30/36/35 52/34/33
f 215/325/205 196/326/207 216/327/232
f 216/327/232 196/326/207 181/271/186
f 166/328/169 149/329/140 181/271/186
f 117/330/121 99/331/103 149/329/140
f 99/331/103 81/332/273 181/271/186
f 19/333/271 273/74/63 279/334/274
f 273/74/63 274/73/62 279/334/274
f 280/335/275 274/73/62 275/95/82
f 276/336/276 176/337/277 283/338/278
f 211/255/217 277/256/218 285/339/279
f 44/60/52 292/340/280 279/334/274
f 131/168/150 283/338/278 145/166/148
f 288/341/281 289/342/282 287/313/229
f 287/313/229 289/342/282 20/311/51
f 43/343/50 76/94/81 62/72/61
f 94/133/118 144/344/283 130/345/284
f 129/346/99 144/344/283 94/133/118
f 18/347/48 43/343/50 62/72/61
f 144/344/283 128/348/133 290/349/180
f 210/236/199 229/350/285 230/254/216
f 244/289/247 243/351/286 268/310/262
f 279/334/274 292/340/280 19/333/271
f 271/134/119 293/352/287 282/353/288
f 283/338/278 293/352/287 276/336/276
f 284/354/289 283/355/278 272/237/200
f 288/341/281 285/356/279 277/288/218
f 289/342/282 288/341/281 278/287/246
f 28/2/2 2/5/5 1/3/3
f 28/2/2 29/357/34 3/4/4
f 5/8/8 3/4/4 4/6/6
f 3/4/4 29/357/34 4/6/6
f 6/7/7 4/6/6 32/358/37
f 7/11/11 263/305/257 6/7/7
f 11/17/17 9/14/14 36/13/13
f 62/359/61 273/360/63 19/323/271 18/322/48
f 13/317/44 12/316/266 38/361/41
f 13/317/44 15/20/20 14/319/268
f 15/20/20 16/19/19 14/319/268
f 41/362/46 17/18/18 15/20/20
f 42/363/49 291/320/269 17/18/18
f 18/364/48 291/320/269 42/363/49
f 111/128/114 91/111/97 90/109/95 124/146/129
f 21/23/23 22/324/272 20/311/51
f 21/23/23 269/22/22 22/324/272
f 47/25/25 23/24/24 46/21/21
f 25/30/30 24/26/26 65/27/27
f 27/33/1 51/32/32 28/365/2
f 28/365/2 51/32/32 29/35/34
f 30/36/35 32/38/37 4/366/6
f 32/38/37 54/37/36 31/40/10
f 34/41/9 35/43/39 8/367/12
f 35/43/39 36/45/13 8/367/12
f 57/44/40 37/47/15 36/45/13
f 10/368/16 37/47/15 38/46/41
f 13/51/44 38/46/41 39/49/43
f 39/49/43 40/52/45 15/50/20
f 41/53/46 42/56/49 17/369/18
f 45/76/65 21/58/23 44/60/52
f 51/32/32 48/31/31 50/65/54
f 30/36/35 53/83/70 54/37/36
f 38/361/41 12/316/266 11/17/17 10/16/16
f 69/85/72 55/66/55 54/37/36
f 33/42/38 31/40/10 55/66/55
f 33/42/38 55/66/55 56/68/57
f 37/47/15 74/69/58 58/48/42
f 59/110/96 39/49/43 58/48/42
f 39/49/43 59/110/96 61/70/59
f 39/49/43 61/70/59 40/52/45
f 42/56/49 41/53/46 43/57/50
f 41/53/46 75/71/60 43/57/50
f 76/94/81 274/73/62 62/72/61
f 64/75/64 63/77/66 21/58/23
f 47/79/25 46/78/21 63/77/66
f 50/65/54 49/64/53 81/370/273
f 50/65/54 81/370/273 66/82/69
f 50/65/54 67/81/68 52/34/33
f 53/83/70 52/34/33 67/81/68
f 68/84/71 54/37/36 53/83/70
f 71/67/56 55/66/55 70/86/73
f 57/44/40 71/67/56 72/89/76
f 72/89/76 73/90/77 74/69/58
f 74/69/58 89/91/78 58/48/42
f 89/91/78 59/110/96 58/48/42
f 61/70/59 59/110/96 92/92/79
f 275/95/82 76/94/81 94/371/118
f 66/82/69 81/370/273 82/119/105
f 82/119/105 83/118/104 66/82/69
f 66/82/69 83/118/104 102/102/88
f 68/84/71 67/81/68 102/102/88
f 68/84/71 84/103/89 85/87/74
f 70/86/73 86/105/91 87/88/75
f 87/88/75 86/105/91 88/106/92
f 107/126/112 88/106/92 86/105/91
f 73/90/77 72/89/76 88/106/92
f 107/126/112 109/108/94 88/106/92
f 73/90/77 88/106/92 109/108/94
f 73/90/77 110/107/93 89/91/78
f 110/107/93 90/109/95 89/91/78
f 59/110/96 90/109/95 92/92/79
f 113/93/80 92/92/79 91/111/97
f 43/57/50 75/71/60 93/112/98
f 95/96/83 97/115/101 45/76/65
f 78/98/85 79/80/67 77/97/84
f 116/100/87 80/61/28 98/99/86
f 99/117/103 100/121/107 83/118/104
f 105/124/110 104/104/90 119/123/109
f 86/105/91 106/125/111 107/126/112
f 110/107/93 109/108/94 108/127/113
f 124/146/129 90/109/95 110/107/93
f 115/153/136 78/372/85 96/136/102 114/152/135
f 93/112/98 113/93/80 126/130/116
f 129/113/99 93/112/98 127/131/117
f 130/345/284 271/134/119 94/133/118
f 281/373/100 132/135/120 97/137/101
f 132/135/120 114/152/135 96/136/102
f 77/374/84 96/136/102 78/372/85
f 118/176/156 103/122/108 101/120/106 136/139/122
f 115/153/136 98/155/86 78/372/85
f 157/163/145 158/165/147 123/147/130 122/145/128
f 119/123/109 103/122/108 137/141/124
f 118/176/156 137/141/124 103/122/108
f 106/125/111 105/124/110 120/140/123
f 121/142/125 140/143/126 106/125/111
f 107/126/112 140/143/126 108/127/113
f 108/127/113 122/145/128 110/107/93
f 124/146/129 110/107/93 122/145/128
f 125/148/131 126/130/116 112/129/115
f 271/134/119 144/344/283 276/336/276
f 130/345/284 144/344/283 271/134/119
f 281/373/100 131/168/150 132/135/120
f 115/153/136 114/152/135 148/154/137
f 98/155/86 148/154/137 116/172/87
f 27/272/1 181/271/186 81/332/273
f 100/121/107 117/138/121 134/156/138
f 135/175/155 136/139/122 134/156/138
f 136/139/122 100/121/107 134/156/138
f 118/176/156 136/139/122 135/175/155
f 138/159/141 121/142/125 120/140/123
f 155/162/144 140/143/126 139/161/143
f 142/164/146 141/144/127 155/162/144
f 141/144/127 157/163/145 122/145/128
f 152/177/157 168/160/142 137/141/124 118/176/156
f 158/165/147 143/375/290 125/148/131
f 127/131/117 126/130/116 160/149/132
f 125/148/131 143/375/290 160/149/132
f 146/151/134 163/170/152 114/152/135
f 148/154/137 147/169/151 165/173/153
f 148/154/137 165/173/153 116/172/87
f 150/174/154 149/158/140 166/376/169
f 150/174/154 151/377/170 135/175/155
f 152/177/157 135/175/155 151/377/170
f 176/337/277 276/336/276 144/344/283 290/349/180
f 138/159/141 153/178/158 154/179/159
f 138/159/141 154/179/159 139/161/143
f 142/164/146 155/162/144 171/180/160
f 143/375/290 158/165/147 159/183/163
f 158/165/147 191/182/162 159/183/163
f 143/375/290 159/183/163 160/149/132
f 161/184/164 128/150/133 160/149/132
f 150/189/154 167/188/168 182/378/291 151/192/170
f 178/187/167 163/170/152 162/167/149
f 147/169/151 179/186/166 164/379/184
f 165/173/153 147/169/151 164/379/184
f 221/248/210 223/263/225 186/229/192 185/227/190
f 183/193/171 151/192/170 182/378/291
f 168/194/142 183/193/171 169/226/189
f 184/197/173 153/196/158 169/226/189
f 168/194/142 169/226/189 153/196/158
f 171/380/160 154/198/159 170/195/172
f 187/201/175 171/380/160 170/195/172
f 156/200/161 171/380/160 187/201/175
f 156/200/161 190/202/176 157/204/145
f 192/233/196 173/207/178 172/205/177
f 174/209/179 175/210/165 161/208/164
f 176/381/277 290/238/180 272/237/200
f 194/217/182 179/219/166 178/214/167
f 165/222/153 180/221/185 26/382/29
f 166/190/169 181/223/186 167/188/168
f 167/188/168 198/224/187 182/378/291
f 183/193/171 182/378/291 198/224/187
f 200/225/188 184/197/173 183/193/171
f 170/195/172 184/197/173 185/227/190
f 187/201/175 170/195/172 186/229/192
f 204/231/194 190/202/176 189/199/174
f 191/203/162 190/202/176 204/231/194
f 192/233/196 206/253/215 173/207/178
f 208/234/197 209/235/198 174/209/179
f 26/382/29 180/221/185 214/269/231
f 181/223/186 196/245/207 198/224/187
f 197/244/206 198/224/187 196/245/207
f 197/244/206 218/246/208 198/224/187
f 199/247/209 200/225/188 218/246/208
f 223/263/225 202/249/211 187/201/175 186/229/192
f 227/265/227 226/252/214 242/284/243 254/309/261
f 187/201/175 202/249/211 188/230/193
f 224/250/212 204/231/194 188/230/193
f 204/231/194 224/250/212 203/251/213
f 205/232/195 204/231/194 203/251/213
f 173/207/178 206/253/215 208/234/197
f 209/235/198 208/234/197 207/286/245
f 231/257/219 193/239/201 286/240/202
f 214/269/231 180/221/185 213/242/204
f 217/275/234 215/243/205 216/273/232
f 217/275/234 197/244/206 215/243/205
f 217/275/234 218/246/208 197/244/206
f 217/275/234 199/247/209 218/246/208
f 219/259/221 199/247/209 238/260/222
f 220/261/223 221/248/210 219/259/221
f 223/263/225 240/264/226 202/249/211
f 224/250/212 202/249/211 240/264/226
f 225/283/242 203/251/213 224/250/212
f 203/251/213 225/283/242 226/252/214
f 226/252/214 227/265/227 206/253/215
f 206/253/215 228/266/228 208/234/197
f 228/266/228 207/286/245 208/234/197
f 209/235/198 207/286/245 229/383/285
f 233/384/250 213/242/204 212/241/203
f 233/384/250 212/241/203 232/258/220
f 235/274/233 216/273/232 234/385/292
f 236/276/235 217/275/234 235/274/233
f 199/247/209 217/275/234 236/276/235
f 237/277/236 238/260/222 199/247/209
f 239/304/256 222/262/224 220/261/223
f 220/261/223 248/278/237 239/304/256
f 239/304/256 250/279/238 222/262/224
f 251/281/240 241/280/239 250/279/238
f 224/250/212 241/280/239 225/283/242
f 225/283/242 241/280/239 252/282/241
f 225/283/242 253/307/259 242/284/243
f 14/319/268 254/309/261 242/284/243 266/318/267
f 254/309/261 228/266/228 227/265/227
f 243/386/286 207/286/245 256/321/270
f 243/386/286 229/383/285 207/286/245
f 287/313/229 245/292/248 231/294/219
f 233/295/250 259/387/293 260/296/230
f 261/299/251 235/274/233 234/385/292
f 234/385/292 270/314/264 261/299/251
f 235/274/233 262/300/252 236/276/235
f 236/276/235 262/300/252 237/277/236
f 238/260/222 237/277/236 247/302/254
f 263/305/257 248/278/237 247/302/254
f 238/260/222 247/302/254 248/278/237
f 239/304/256 249/303/255 264/306/258
f 264/306/258 265/315/265 250/279/238
f 265/315/265 251/281/240 250/279/238
f 253/307/259 252/282/241 11/17/17
f 266/318/267 242/284/243 253/307/259
f 246/301/253 5/8/8 263/305/257 247/302/254
f 254/309/261 14/319/268 255/308/260
f 228/266/228 255/308/260 267/285/244
f 267/285/244 256/321/270 207/286/245
f 243/386/286 256/321/270 291/320/269
f 287/313/229 257/312/263 245/292/248
f 259/387/293 233/295/250 258/293/249
f 25/30/30 214/298/231 260/296/230
f 2/5/5 261/299/251 270/314/264
f 2/5/5 3/4/4 262/300/252
f 262/300/252 261/299/251 2/5/5
f 262/300/252 3/4/4 5/8/8
f 23/24/24 259/387/293 258/293/249 269/22/22
f 6/7/7 263/305/257 5/8/8
f 249/303/255 263/305/257 7/11/11
f 8/12/12 9/14/14 265/315/265
f 253/307/259 11/17/17 12/316/266
f 253/307/259 12/316/266 266/318/267
f 255/308/260 14/319/268 16/19/19
f 17/18/18 267/285/244 16/19/19
f 17/18/18 256/321/270 267/285/244
f 19/323/271 278/287/246 268/310/262
f 20/311/51 22/324/272 257/312/263
f 272/237/200 211/255/217 285/339/279 284/354/289
f 259/387/293 23/24/24 260/296/230
f 260/296/230 24/26/26 25/30/30
f 4/366/6 29/35/34 30/36/35
f 102/102/88 84/103/89 68/84/71
f 181/271/186 1/270/3 234/388/292
f 1/270/3 270/389/264 234/388/292
f 181/271/186 234/388/292 216/327/232
f 133/390/139 117/330/121 149/329/140
f 99/331/103 82/391/105 81/332/273
f 49/392/53 48/393/31 81/332/273
f 149/329/140 99/331/103 181/271/186
f 27/272/1 81/332/273 48/393/31
f 275/132/82 271/134/119 282/353/288
f 293/352/287 271/134/119 276/336/276
f 272/237/200 283/355/278 176/381/277
f 282/394/288 281/114/100 95/96/83 280/335/275
f 288/341/281 277/288/218 278/287/246
f 19/323/271 289/342/282 278/287/246
f 289/342/282 292/395/280 20/311/51
f 44/60/52 20/59/51 292/340/280
f 280/335/275 44/60/52 279/334/274
f 95/96/83 44/60/52 280/335/275
f 284/354/289 285/339/279 286/240/202 177/216/181
f 281/373/100 282/353/288 293/352/287
f 293/352/287 131/168/150 281/373/100
f 131/168/150 293/352/287 283/338/278
f 284/354/289 177/216/181 283/355/278
f 177/216/181 145/213/148 283/355/278
f 288/341/281 287/313/229 286/396/202 285/356/279
f 76/94/81 129/397/99 94/371/118
f 209/398/198 210/236/199 290/238/180
f 43/343/50 129/397/99 76/94/81
f 129/346/99 128/348/133 144/344/283
f 210/236/199 209/398/198 229/350/285
f 244/289/247 229/399/285 243/351/286
f 244/289/247 230/290/216 229/399/285
f 291/400/269 18/322/48 268/310/262
f 243/351/286 291/400/269 268/310/262
f 19/323/271 292/395/280 289/342/282
f 280/335/275 279/334/274 274/73/62
f 280/335/275 275/95/82 282/394/288
