# Blender 5.0.1
# www.blender.org
mtllib prisonDoorCube.mtl
o door_gate_Cube.2976
v -0.250000 -0.930415 -0.622708
v -0.250000 0.953251 -0.695707
v -0.195360 -0.930415 -0.311349
v -0.188955 0.953251 -0.347849
v -0.195360 -0.930415 0.311359
v -0.188955 0.953251 0.347858
v -0.250000 -0.930415 0.622718
v -0.250000 0.953251 0.695717
v -0.304640 -0.930415 0.311359
v -0.311045 0.953251 0.347858
v -0.304640 -0.930415 -0.311349
v -0.311045 0.953251 -0.347849
v 0.750000 -0.930415 -0.622708
v 0.750000 0.953251 -0.695707
v 0.804640 -0.930415 -0.311339
v 0.811045 0.953251 -0.347849
v 0.804640 -0.930415 0.311369
v 0.811045 0.953251 0.347868
v 0.750000 -0.930415 0.622728
v 0.750000 0.953251 0.695726
v 0.695360 -0.930415 0.311369
v 0.688955 0.953251 0.347868
v 0.695360 -0.930415 -0.311349
v 0.688955 0.953251 -0.347849
v -0.750000 -0.930415 -0.622718
v -0.750000 0.953251 -0.695717
v -0.695360 -0.930415 -0.311349
v -0.688955 0.953251 -0.347858
v -0.695360 -0.930415 0.311359
v -0.688955 0.953251 0.347858
v -0.750000 -0.930415 0.622718
v -0.750000 0.953251 0.695717
v -0.804640 -0.930415 0.311359
v -0.811045 0.953251 0.347858
v -0.804640 -0.930415 -0.311359
v -0.811045 0.953251 -0.347858
v 0.250000 -0.930415 -0.622708
v 0.250000 0.953251 -0.695707
v 0.304640 -0.930415 -0.311349
v 0.311045 0.953251 -0.347849
v 0.304640 -0.930415 0.311359
v 0.311045 0.953251 0.347858
v 0.250000 -0.930415 0.622728
v 0.250000 0.953251 0.695717
v 0.195360 -0.930415 0.311359
v 0.188955 0.953251 0.347858
v 0.195360 -0.930415 -0.311349
v 0.188955 0.953251 -0.347849
v -0.900000 0.640000 -0.622767
v -0.900000 0.597378 -0.311379
v -0.900000 0.597378 0.311389
v -0.900000 0.640000 0.622767
v -0.900000 0.682622 0.311389
v -0.900000 0.682622 -0.311379
v 0.900000 0.640000 -0.622758
v 0.900000 0.597378 -0.311369
v 0.900000 0.597378 0.311398
v 0.900000 0.640000 0.622777
v 0.900000 0.682622 0.311398
v 0.900000 0.682622 -0.311369
v -0.900000 0.328000 -0.622767
v -0.900000 0.285378 -0.311379
v -0.900000 0.285378 0.311389
v -0.900000 0.328000 0.622767
v -0.900000 0.370622 0.311389
v -0.900000 0.370622 -0.311379
v 0.900000 0.328000 -0.622758
v 0.900000 0.285378 -0.311369
v 0.900000 0.285378 0.311398
v 0.900000 0.328000 0.622777
v 0.900000 0.370622 0.311398
v 0.900000 0.370622 -0.311369
v -0.900000 0.016000 -0.622767
v -0.900000 -0.026622 -0.311379
v -0.900000 -0.026622 0.311389
v -0.900000 0.016000 0.622767
v -0.900000 0.058622 0.311389
v -0.900000 0.058622 -0.311379
v 0.900000 0.016000 -0.622758
v 0.900000 -0.026622 -0.311369
v 0.900000 -0.026622 0.311399
v 0.900000 0.016000 0.622777
v 0.900000 0.058622 0.311398
v 0.900000 0.058622 -0.311369
v -0.900000 -0.296000 -0.622767
v -0.900000 -0.338622 -0.311379
v -0.900000 -0.338622 0.311389
v -0.900000 -0.296000 0.622767
v -0.900000 -0.253378 0.311389
v -0.900000 -0.253378 -0.311379
v 0.900000 -0.296000 -0.622758
v 0.900000 -0.338622 -0.311369
v 0.900000 -0.338622 0.311399
v 0.900000 -0.296000 0.622777
v 0.900000 -0.253378 0.311399
v 0.900000 -0.253378 -0.311369
v -0.900000 -0.608000 -0.622767
v -0.900000 -0.650622 -0.311379
v -0.900000 -0.650622 0.311389
v -0.900000 -0.608000 0.622767
v -0.900000 -0.565378 0.311389
v -0.900000 -0.565378 -0.311379
v 0.900000 -0.608000 -0.622757
v 0.900000 -0.650622 -0.311369
v 0.900000 -0.650622 0.311399
v 0.900000 -0.608000 0.622777
v 0.900000 -0.565378 0.311399
v 0.900000 -0.565378 -0.311369
v 0.841613 -0.164671 0.987000
v 0.826581 -0.164671 0.628808
v 0.790290 -0.164671 0.480442
v 0.753999 -0.164671 0.628808
v 0.738967 -0.164671 0.987000
v 0.753999 -0.164671 1.345192
v 0.790290 -0.164671 1.443458
v 0.826581 -0.164671 1.345192
v 0.822080 -0.241269 0.987000
v 0.808192 -0.236782 0.628808
v 0.774663 -0.225950 0.480442
v 0.741135 -0.215117 0.628808
v 0.727247 -0.210630 0.987000
v 0.741135 -0.215117 1.345192
v 0.774663 -0.225950 1.443458
v 0.808192 -0.236782 1.345192
v 0.766452 -0.306205 0.987000
v 0.755823 -0.297915 0.628808
v 0.730162 -0.277898 0.480442
v 0.704500 -0.257883 0.628808
v 0.693871 -0.249591 0.987000
v 0.704500 -0.257883 1.345192
v 0.730162 -0.277898 1.443458
v 0.755823 -0.297915 1.345192
v 0.683201 -0.349595 0.987000
v 0.677448 -0.338762 0.628808
v 0.663560 -0.312610 0.480442
v 0.649673 -0.286457 0.628808
v 0.643920 -0.275625 0.987000
v 0.649672 -0.286457 1.345192
v 0.663560 -0.312610 1.443458
v 0.677448 -0.338762 1.345192
v 0.584998 -0.364831 0.987000
v 0.584999 -0.353105 0.628808
v 0.584999 -0.324799 0.480442
v 0.584999 -0.296492 0.628808
v 0.584998 -0.284767 0.987000
v 0.584998 -0.296492 1.345192
v 0.584998 -0.324799 1.443458
v 0.584998 -0.353105 1.345192
v 0.486796 -0.349595 0.987000
v 0.492549 -0.338762 0.628808
v 0.506437 -0.312610 0.480442
v 0.520324 -0.286457 0.628808
v 0.526077 -0.275625 0.987000
v 0.520324 -0.286457 1.345182
v 0.506436 -0.312610 1.443458
v 0.492549 -0.338762 1.345192
v 0.403544 -0.306205 0.987000
v 0.414174 -0.297914 0.628808
v 0.439835 -0.277898 0.480442
v 0.465497 -0.257882 0.628808
v 0.476126 -0.249591 0.987000
v 0.465497 -0.257882 1.345182
v 0.439835 -0.277898 1.443458
v 0.414173 -0.297914 1.345182
v 0.347917 -0.241269 0.987000
v 0.361805 -0.236782 0.628808
v 0.395334 -0.225950 0.480442
v 0.428862 -0.215117 0.628808
v 0.442750 -0.210630 0.987000
v 0.428862 -0.215117 1.345182
v 0.395333 -0.225950 1.443458
v 0.361805 -0.236782 1.345182
v 0.328384 -0.164671 0.987000
v 0.343416 -0.164671 0.628808
v 0.379707 -0.164671 0.480442
v 0.415998 -0.164671 0.628808
v 0.431029 -0.164671 0.987000
v 0.415997 -0.164671 1.345182
v 0.379707 -0.164671 1.443458
v 0.343416 -0.164671 1.345182
v 0.347917 -0.088074 0.987000
v 0.361805 -0.092560 0.628808
v 0.395334 -0.103393 0.480442
v 0.428862 -0.114226 0.628808
v 0.442750 -0.118712 0.987000
v 0.428862 -0.114226 1.345182
v 0.395333 -0.103393 1.443458
v 0.361805 -0.092560 1.345182
v 0.403544 -0.023137 0.987000
v 0.414174 -0.031428 0.628808
v 0.439835 -0.051444 0.480442
v 0.465497 -0.071460 0.628808
v 0.476126 -0.079750 0.987000
v 0.465497 -0.071460 1.345182
v 0.439835 -0.051444 1.443458
v 0.414173 -0.031428 1.345182
v 0.486796 0.020252 0.987000
v 0.492549 0.009419 0.628808
v 0.506437 -0.016733 0.480442
v 0.520324 -0.042884 0.628808
v 0.526077 -0.053717 0.987000
v 0.520324 -0.042884 1.345182
v 0.506436 -0.016733 1.443458
v 0.492549 0.009419 1.345182
v 0.584998 0.035488 0.987000
v 0.584999 0.023763 0.628808
v 0.584999 -0.004544 0.480442
v 0.584999 -0.032851 0.628808
v 0.584998 -0.044576 0.987000
v 0.584998 -0.032851 1.345192
v 0.584998 -0.004544 1.443458
v 0.584998 0.023763 1.345192
v 0.683201 0.020252 0.987000
v 0.677448 0.009419 0.628808
v 0.663560 -0.016733 0.480442
v 0.649673 -0.042884 0.628808
v 0.643920 -0.053717 0.987000
v 0.649672 -0.042884 1.345192
v 0.663560 -0.016733 1.443458
v 0.677448 0.009419 1.345192
v 0.766452 -0.023137 0.987000
v 0.755823 -0.031428 0.628808
v 0.730162 -0.051444 0.480442
v 0.704500 -0.071460 0.628808
v 0.693871 -0.079750 0.987000
v 0.704500 -0.071460 1.345192
v 0.730162 -0.051444 1.443458
v 0.755823 -0.031428 1.345192
v 0.822080 -0.088073 0.987000
v 0.808192 -0.092560 0.628808
v 0.774663 -0.103393 0.480442
v 0.741135 -0.114226 0.628808
v 0.727247 -0.118712 0.987000
v 0.741135 -0.114226 1.345192
v 0.774663 -0.103393 1.443458
v 0.808192 -0.092560 1.345192
v 0.476057 -0.082437 1.492255
v 0.440359 0.042150 1.492255
v 0.476057 -0.082438 0.481735
v 0.440359 0.042150 0.481735
v 0.693943 -0.082437 1.492255
v 0.729640 0.042150 1.492255
v 0.693943 -0.082438 0.481735
v 0.729640 0.042150 0.481735
v 0.585000 -0.108568 0.269806
v 0.585000 0.068280 0.269806
v 0.585000 -0.108567 1.704184
v 0.585000 0.068280 1.704184
v -0.870728 -0.871312 0.715605
v -0.870728 0.885170 0.715605
v -0.870727 -0.871312 -0.715605
v -0.870727 0.885170 -0.715605
v 0.870728 -0.871312 0.715614
v 0.870728 0.885170 0.715614
v 0.870728 -0.871312 -0.715595
v 0.870728 0.885170 -0.715595
v -1.000000 -0.983671 0.987000
v -1.000000 0.997529 0.987000
v -1.000000 0.997528 -0.987000
v -1.000000 -0.983671 -0.987000
v 1.000000 -0.983671 -0.986990
v 1.000000 0.997528 -0.986990
v 1.000000 0.997529 0.987010
v 1.000000 -0.983671 0.987010
v -0.960572 -0.952917 0.987000
v -0.960572 0.966774 0.987000
v 0.960572 0.966774 0.987010
v 0.960572 -0.952917 0.987010
v -0.960572 0.966774 -0.987000
v -0.960572 -0.952918 -0.987000
v 0.960572 -0.952918 -0.986990
v 0.960572 0.966774 -0.986990
vn -1.0000 -0.0000 -0.0000
vn 1.0000 -0.0000 -0.0000
vn -0.0000 -1.0000 -0.0000
vn -0.0000 1.0000 -0.0000
vn -0.0000 -0.0000 1.0000
vn -0.0000 -0.0000 -1.0000
vn -0.0000 -0.9576 0.2879
vn -0.0000 0.9576 0.2880
vn -0.9493 -0.0000 0.3143
vn 0.9493 -0.0000 0.3143
vn -0.9493 -0.0000 -0.3143
vn -0.0000 -0.9576 -0.2879
vn -0.0000 0.9576 -0.2880
vn 0.9493 -0.0000 -0.3143
vn 0.9991 -0.0000 -0.0419
vn 0.8825 -0.4686 -0.0401
vn 0.9714 -0.0000 -0.2376
vn 0.8600 -0.4567 -0.2277
vn -0.9714 -0.0000 -0.2376
vn -0.8600 0.4567 -0.2277
vn -0.9991 -0.0000 -0.0419
vn -0.8825 0.4686 -0.0401
vn -0.9991 -0.0000 0.0419
vn -0.8825 0.4686 0.0401
vn -0.9381 -0.0000 0.3464
vn -0.8328 0.4423 0.3329
vn 0.9381 -0.0000 0.3464
vn 0.8328 -0.4423 0.3329
vn 0.9991 -0.0000 0.0419
vn 0.8825 -0.4686 0.0401
vn 0.6146 -0.7880 -0.0365
vn 0.6016 -0.7712 -0.2081
vn -0.6016 0.7712 -0.2081
vn -0.6146 0.7880 -0.0365
vn -0.6146 0.7880 0.0365
vn -0.5856 0.7507 0.3058
vn 0.5856 -0.7507 0.3058
vn 0.6146 -0.7880 0.0365
vn 0.3073 -0.9510 -0.0337
vn 0.3017 -0.9337 -0.1928
vn -0.3017 0.9337 -0.1928
vn -0.3073 0.9510 -0.0337
vn -0.3073 0.9510 0.0337
vn -0.2947 0.9123 0.2844
vn 0.2947 -0.9123 0.2844
vn 0.3073 -0.9510 0.0337
vn -0.0000 -0.9995 -0.0327
vn -0.0000 -0.9823 -0.1874
vn -0.0000 0.9823 -0.1874
vn -0.0000 0.9995 -0.0327
vn -0.0000 0.9995 0.0327
vn -0.0000 0.9609 0.2768
vn -0.0000 -0.9609 0.2768
vn -0.0000 -0.9995 0.0327
vn -0.3073 -0.9510 -0.0337
vn -0.3017 -0.9337 -0.1928
vn 0.3017 0.9337 -0.1928
vn 0.3073 0.9510 -0.0337
vn 0.3073 0.9510 0.0337
vn 0.2947 0.9123 0.2844
vn -0.2948 -0.9123 0.2844
vn -0.3073 -0.9510 0.0337
vn -0.6146 -0.7880 -0.0365
vn -0.6016 -0.7712 -0.2081
vn 0.6016 0.7712 -0.2081
vn 0.6146 0.7880 -0.0365
vn 0.6146 0.7880 0.0365
vn 0.5856 0.7507 0.3058
vn -0.5856 -0.7507 0.3058
vn -0.6146 -0.7880 0.0365
vn -0.8825 -0.4686 -0.0401
vn -0.8600 -0.4567 -0.2277
vn 0.8600 0.4567 -0.2277
vn 0.8825 0.4686 -0.0401
vn 0.8825 0.4686 0.0401
vn 0.8328 0.4423 0.3329
vn -0.8328 -0.4423 0.3329
vn -0.8825 -0.4686 0.0401
vn -0.2948 0.9123 0.2844
vn -0.2947 -0.9123 0.2844
vn -0.9613 -0.2754 -0.0000
vn -0.0000 -0.1942 -0.9810
vn 0.8537 -0.1011 -0.5108
vn 0.9613 -0.2754 -0.0000
vn -0.0000 -0.1942 0.9810
vn -0.8537 -0.1011 0.5108
vn 0.2332 -0.9724 -0.0000
vn -0.1778 0.9841 -0.0000
vn 0.1778 0.9841 -0.0000
vn -0.2332 -0.9724 -0.0000
vn 0.8537 -0.1011 0.5108
vn -0.8537 -0.1011 -0.5108
vn 1.0000 -0.0034 -0.0000
vn 0.9849 -0.0067 -0.1728
vn -0.9849 -0.0067 0.1728
vn -1.0000 -0.0034 -0.0000
vn -0.9849 -0.0067 -0.1728
vn 0.9849 -0.0067 0.1728
vn -0.0000 -0.9908 0.1356
vn -0.0000 0.9908 0.1356
vn -0.0000 0.9908 -0.1356
vn -0.0000 -0.9908 -0.1356
vt 0.375000 0.000000
vt 0.625000 0.000000
vt 0.625000 0.250000
vt 0.375000 0.250000
vt 0.375000 0.500000
vt 0.625000 0.500000
vt 0.625000 0.750000
vt 0.375000 0.750000
vt 0.125000 0.500000
vt 0.125000 0.750000
vt 0.875000 0.500000
vt 0.875000 0.750000
vt 0.378881 0.995071
vt 0.621119 0.995071
vt 0.625000 1.000000
vt 0.375000 1.000000
vt 0.621119 0.254929
vt 0.378881 0.254929
vt 0.378881 0.495071
vt 0.621119 0.495072
vt 0.621119 0.754929
vt 0.378881 0.754929
vt 0.617239 0.259857
vt 0.617239 0.490143
vt 0.617239 0.759857
vt 0.617239 0.990143
vt 0.382761 0.490143
vt 0.382761 0.259857
vt 0.382761 0.990143
vt 0.382761 0.759857
vt 0.500000 0.500000
vt 0.562500 0.500000
vt 0.562500 0.625000
vt 0.500000 0.625000
vt 0.562500 0.750000
vt 0.500000 0.750000
vt 0.562500 0.875000
vt 0.500000 0.875000
vt 0.562500 1.000000
vt 0.500000 1.000000
vt 0.500000 0.000000
vt 0.562500 0.000000
vt 0.562500 0.125000
vt 0.500000 0.125000
vt 0.562500 0.250000
vt 0.500000 0.250000
vt 0.562500 0.375000
vt 0.500000 0.375000
vt 0.625000 0.625000
vt 0.625000 0.875000
vt 0.625000 0.125000
vt 0.625000 0.375000
vt 0.687500 0.500000
vt 0.687500 0.625000
vt 0.687500 0.750000
vt 0.687500 0.875000
vt 0.687500 1.000000
vt 0.687500 0.000000
vt 0.687500 0.125000
vt 0.687500 0.250000
vt 0.687500 0.375000
vt 0.750000 0.500000
vt 0.750000 0.625000
vt 0.750000 0.750000
vt 0.750000 0.875000
vt 0.750000 1.000000
vt 0.750000 0.000000
vt 0.750000 0.125000
vt 0.750000 0.250000
vt 0.750000 0.375000
vt 0.812500 0.500000
vt 0.812500 0.625000
vt 0.812500 0.750000
vt 0.812500 0.875000
vt 0.812500 1.000000
vt 0.812500 0.000000
vt 0.812500 0.125000
vt 0.812500 0.250000
vt 0.812500 0.375000
vt 0.875000 0.625000
vt 0.875000 0.875000
vt 0.875000 1.000000
vt 0.875000 0.000000
vt 0.875000 0.125000
vt 0.875000 0.250000
vt 0.875000 0.375000
vt 0.937500 0.500000
vt 0.937500 0.625000
vt 0.937500 0.750000
vt 0.937500 0.875000
vt 0.937500 1.000000
vt 0.937500 0.000000
vt 0.937500 0.125000
vt 0.937500 0.250000
vt 0.937500 0.375000
vt 1.000000 0.500000
vt 1.000000 0.625000
vt 1.000000 0.750000
vt 1.000000 0.875000
vt 1.000000 1.000000
vt 1.000000 0.000000
vt 1.000000 0.125000
vt 1.000000 0.250000
vt 1.000000 0.375000
vt 0.000000 0.500000
vt 0.062500 0.500000
vt 0.062500 0.625000
vt 0.000000 0.625000
vt 0.062500 0.750000
vt 0.000000 0.750000
vt 0.062500 0.875000
vt 0.000000 0.875000
vt 0.062500 1.000000
vt 0.000000 1.000000
vt 0.000000 0.000000
vt 0.062500 0.000000
vt 0.062500 0.125000
vt 0.000000 0.125000
vt 0.062500 0.250000
vt 0.000000 0.250000
vt 0.062500 0.375000
vt 0.000000 0.375000
vt 0.125000 0.625000
vt 0.125000 0.875000
vt 0.125000 1.000000
vt 0.125000 0.000000
vt 0.125000 0.125000
vt 0.125000 0.250000
vt 0.125000 0.375000
vt 0.187500 0.500000
vt 0.187500 0.625000
vt 0.187500 0.750000
vt 0.187500 0.875000
vt 0.187500 1.000000
vt 0.187500 0.000000
vt 0.187500 0.125000
vt 0.187500 0.250000
vt 0.187500 0.375000
vt 0.250000 0.500000
vt 0.250000 0.625000
vt 0.250000 0.750000
vt 0.250000 0.875000
vt 0.250000 1.000000
vt 0.250000 0.000000
vt 0.250000 0.125000
vt 0.250000 0.250000
vt 0.250000 0.375000
vt 0.312500 0.500000
vt 0.312500 0.625000
vt 0.312500 0.750000
vt 0.312500 0.875000
vt 0.312500 1.000000
vt 0.312500 0.000000
vt 0.312500 0.125000
vt 0.312500 0.250000
vt 0.312500 0.375000
vt 0.375000 0.625000
vt 0.375000 0.875000
vt 0.375000 0.125000
vt 0.375000 0.375000
vt 0.437500 0.500000
vt 0.437500 0.625000
vt 0.437500 0.750000
vt 0.437500 0.875000
vt 0.437500 1.000000
vt 0.437500 0.000000
vt 0.437500 0.125000
vt 0.437500 0.250000
vt 0.437500 0.375000
vt 0.833333 0.500000
vt 0.833333 1.000000
vt 0.666667 1.000000
vt 0.666667 0.500000
vt 0.333333 1.000000
vt 0.333333 0.500000
vt 0.166667 1.000000
vt 0.166667 0.500000
vt -0.000000 1.000000
vt 0.750000 0.490000
vt 0.957846 0.370000
vt 0.957846 0.130000
vt 0.750000 0.010000
vt 0.542154 0.130000
vt 0.542154 0.370000
vt 0.833333 0.625000
vt 0.666667 0.625000
vt 0.333333 0.625000
vt 0.166667 0.625000
s 1
usemtl StoneDark
f 257/1/1 258/2/1 259/3/1 260/4/1
f 261/5/2 262/6/2 263/7/2 264/8/2
f 260/9/3 261/5/3 264/8/3 257/10/3
f 262/6/4 259/11/4 258/12/4 263/7/4
f 265/13/5 266/14/5 258/15/5 257/16/5
f 269/17/6 270/18/6 260/4/6 259/3/6
f 270/18/6 271/19/6 261/5/6 260/4/6
f 272/20/6 269/17/6 259/3/6 262/6/6
f 271/19/6 272/20/6 262/6/6 261/5/6
f 267/21/5 268/22/5 264/8/5 263/7/5
f 268/22/5 265/13/5 257/16/5 264/8/5
f 266/14/5 267/21/5 263/7/5 258/15/5
f 252/23/3 256/24/3 254/25/3 250/26/3
f 255/27/4 251/28/4 249/29/4 253/30/4
f 255/27/1 253/30/1 254/25/1 256/24/1
f 249/29/2 251/28/2 252/23/2 250/26/2
f 250/26/7 254/25/7 267/21/7 266/14/7
f 253/30/8 249/29/8 265/13/8 268/22/8
f 254/25/9 253/30/9 268/22/9 267/21/9
f 249/29/10 250/26/10 266/14/10 265/13/10
f 255/27/11 256/24/11 272/20/11 271/19/11
f 256/24/12 252/23/12 269/17/12 272/20/12
f 251/28/13 255/27/13 271/19/13 270/18/13
f 252/23/14 251/28/14 270/18/14 269/17/14
f 109/31/15 117/32/16 118/33/16 110/34/15
f 110/34/17 118/33/18 119/35/18 111/36/17
f 111/36/19 119/35/20 120/37/20 112/38/19
f 112/38/21 120/37/22 121/39/22 113/40/21
f 113/41/23 121/42/24 122/43/24 114/44/23
f 114/44/25 122/43/26 123/45/26 115/46/25
f 115/46/27 123/45/28 124/47/28 116/48/27
f 116/48/29 124/47/30 117/32/30 109/31/29
f 117/32/16 125/6/31 126/49/31 118/33/16
f 118/33/18 126/49/32 127/7/32 119/35/18
f 119/35/20 127/7/33 128/50/33 120/37/20
f 120/37/22 128/50/34 129/15/34 121/39/22
f 121/42/24 129/2/35 130/51/35 122/43/24
f 122/43/26 130/51/36 131/3/36 123/45/26
f 123/45/28 131/3/37 132/52/37 124/47/28
f 124/47/30 132/52/38 125/6/38 117/32/30
f 125/6/31 133/53/39 134/54/39 126/49/31
f 126/49/32 134/54/40 135/55/40 127/7/32
f 127/7/33 135/55/41 136/56/41 128/50/33
f 128/50/34 136/56/42 137/57/42 129/15/34
f 129/2/35 137/58/43 138/59/43 130/51/35
f 130/51/36 138/59/44 139/60/44 131/3/36
f 131/3/37 139/60/45 140/61/45 132/52/37
f 132/52/38 140/61/46 133/53/46 125/6/38
f 133/53/39 141/62/47 142/63/47 134/54/39
f 134/54/40 142/63/48 143/64/48 135/55/40
f 135/55/41 143/64/49 144/65/49 136/56/41
f 136/56/42 144/65/50 145/66/50 137/57/42
f 137/58/43 145/67/51 146/68/51 138/59/43
f 138/59/44 146/68/52 147/69/52 139/60/44
f 139/60/45 147/69/53 148/70/53 140/61/45
f 140/61/46 148/70/54 141/62/54 133/53/46
f 141/62/47 149/71/55 150/72/55 142/63/47
f 142/63/48 150/72/56 151/73/56 143/64/48
f 143/64/49 151/73/57 152/74/57 144/65/49
f 144/65/50 152/74/58 153/75/58 145/66/50
f 145/67/51 153/76/59 154/77/59 146/68/51
f 146/68/52 154/77/60 155/78/60 147/69/52
f 147/69/53 155/78/61 156/79/61 148/70/53
f 148/70/54 156/79/62 149/71/62 141/62/54
f 149/71/55 157/11/63 158/80/63 150/72/55
f 150/72/56 158/80/64 159/12/64 151/73/56
f 151/73/57 159/12/65 160/81/65 152/74/57
f 152/74/58 160/81/66 161/82/66 153/75/58
f 153/76/59 161/83/67 162/84/67 154/77/59
f 154/77/60 162/84/68 163/85/68 155/78/60
f 155/78/61 163/85/69 164/86/69 156/79/61
f 156/79/62 164/86/70 157/11/70 149/71/62
f 157/11/63 165/87/71 166/88/71 158/80/63
f 158/80/64 166/88/72 167/89/72 159/12/64
f 159/12/65 167/89/73 168/90/73 160/81/65
f 160/81/66 168/90/74 169/91/74 161/82/66
f 161/83/67 169/92/75 170/93/75 162/84/67
f 162/84/68 170/93/76 171/94/76 163/85/68
f 163/85/69 171/94/77 172/95/77 164/86/69
f 164/86/70 172/95/78 165/87/78 157/11/70
f 165/87/71 173/96/21 174/97/21 166/88/71
f 166/88/72 174/97/19 175/98/19 167/89/72
f 167/89/73 175/98/17 176/99/17 168/90/73
f 168/90/74 176/99/15 177/100/15 169/91/74
f 169/92/75 177/101/29 178/102/29 170/93/75
f 170/93/76 178/102/27 179/103/27 171/94/76
f 171/94/77 179/103/25 180/104/25 172/95/77
f 172/95/78 180/104/23 173/96/23 165/87/78
f 173/105/21 181/106/22 182/107/22 174/108/21
f 174/108/19 182/107/20 183/109/20 175/110/19
f 175/110/17 183/109/18 184/111/18 176/112/17
f 176/112/15 184/111/16 185/113/16 177/114/15
f 177/115/29 185/116/30 186/117/30 178/118/29
f 178/118/27 186/117/28 187/119/28 179/120/27
f 179/120/25 187/119/26 188/121/26 180/122/25
f 180/122/23 188/121/24 181/106/24 173/105/23
f 181/106/22 189/9/34 190/123/34 182/107/22
f 182/107/20 190/123/33 191/10/33 183/109/20
f 183/109/18 191/10/32 192/124/32 184/111/18
f 184/111/16 192/124/31 193/125/31 185/113/16
f 185/116/30 193/126/38 194/127/38 186/117/30
f 186/117/28 194/127/37 195/128/37 187/119/28
f 187/119/26 195/128/36 196/129/36 188/121/26
f 188/121/24 196/129/35 189/9/35 181/106/24
f 189/9/34 197/130/42 198/131/42 190/123/34
f 190/123/33 198/131/41 199/132/41 191/10/33
f 191/10/32 199/132/40 200/133/40 192/124/32
f 192/124/31 200/133/39 201/134/39 193/125/31
f 193/126/38 201/135/46 202/136/46 194/127/38
f 194/127/37 202/136/45 203/137/45 195/128/37
f 195/128/36 203/137/79 204/138/79 196/129/36
f 196/129/35 204/138/43 197/130/43 189/9/35
f 197/130/42 205/139/50 206/140/50 198/131/42
f 198/131/41 206/140/49 207/141/49 199/132/41
f 199/132/40 207/141/48 208/142/48 200/133/40
f 200/133/39 208/142/47 209/143/47 201/134/39
f 201/135/46 209/144/54 210/145/54 202/136/46
f 202/136/45 210/145/53 211/146/53 203/137/45
f 203/137/79 211/146/52 212/147/52 204/138/79
f 204/138/43 212/147/51 205/139/51 197/130/43
f 205/139/50 213/148/58 214/149/58 206/140/50
f 206/140/49 214/149/57 215/150/57 207/141/49
f 207/141/48 215/150/56 216/151/56 208/142/48
f 208/142/47 216/151/55 217/152/55 209/143/47
f 209/144/54 217/153/62 218/154/62 210/145/54
f 210/145/53 218/154/80 219/155/80 211/146/53
f 211/146/52 219/155/60 220/156/60 212/147/52
f 212/147/51 220/156/59 213/148/59 205/139/51
f 213/148/58 221/5/66 222/157/66 214/149/58
f 214/149/57 222/157/65 223/8/65 215/150/57
f 215/150/56 223/8/64 224/158/64 216/151/56
f 216/151/55 224/158/63 225/16/63 217/152/55
f 217/153/62 225/1/70 226/159/70 218/154/62
f 218/154/80 226/159/69 227/4/69 219/155/80
f 219/155/60 227/4/68 228/160/68 220/156/60
f 220/156/59 228/160/67 221/5/67 213/148/59
f 221/5/66 229/161/74 230/162/74 222/157/66
f 222/157/65 230/162/73 231/163/73 223/8/65
f 223/8/64 231/163/72 232/164/72 224/158/64
f 224/158/63 232/164/71 233/165/71 225/16/63
f 225/1/70 233/166/78 234/167/78 226/159/70
f 226/159/69 234/167/77 235/168/77 227/4/69
f 227/4/68 235/168/76 236/169/76 228/160/68
f 228/160/67 236/169/75 229/161/75 221/5/67
f 229/161/74 109/31/15 110/34/15 230/162/74
f 230/162/73 110/34/17 111/36/17 231/163/73
f 231/163/72 111/36/19 112/38/19 232/164/72
f 232/164/71 112/38/21 113/40/21 233/165/71
f 233/166/78 113/41/23 114/44/23 234/167/78
f 234/167/77 114/44/25 115/46/25 235/168/77
f 235/168/76 115/46/27 116/48/27 236/169/76
f 236/169/75 116/48/29 109/31/29 229/161/75
f 237/1/81 238/2/81 240/3/81 239/4/81
f 245/160/82 246/52/82 244/6/83 243/5/83
f 243/5/84 244/6/84 242/7/84 241/8/84
f 247/158/85 248/50/85 238/15/86 237/16/86
f 245/139/87 243/5/87 241/8/87 247/141/87
f 246/62/4 240/11/88 238/12/88 248/64/4
f 244/6/89 246/62/4 248/64/4 242/7/89
f 239/9/90 245/139/90 247/141/90 237/10/90
f 241/8/91 242/7/91 248/50/85 247/158/85
f 239/4/92 240/3/92 246/52/82 245/160/82
usemtl Black
f 3/170/93 4/171/93 6/172/93 5/173/93
f 1/96/94 2/100/94 4/171/94 3/170/94
f 7/31/95 8/40/95 10/174/95 9/175/95
f 9/175/96 10/174/96 12/176/96 11/177/96
f 11/177/97 12/176/97 2/178/97 1/105/97
f 5/173/98 6/172/98 8/40/98 7/31/98
f 1/179/3 3/180/3 5/181/3 7/182/3 9/183/3 11/184/3
f 15/170/93 16/171/93 18/172/93 17/173/93
f 13/96/94 14/100/94 16/171/94 15/170/94
f 19/31/95 20/40/95 22/174/95 21/175/95
f 21/175/96 22/174/96 24/176/96 23/177/96
f 23/177/97 24/176/97 14/178/97 13/105/97
f 17/173/98 18/172/98 20/40/98 19/31/98
f 13/179/3 15/180/3 17/181/3 19/182/3 21/183/3 23/184/3
f 27/170/93 28/171/93 30/172/93 29/173/93
f 25/96/94 26/100/94 28/171/94 27/170/94
f 31/31/95 32/40/95 34/174/95 33/175/95
f 33/175/96 34/174/96 36/176/96 35/177/96
f 35/177/97 36/176/97 26/178/97 25/105/97
f 29/173/98 30/172/98 32/40/98 31/31/98
f 25/179/3 27/180/3 29/181/3 31/182/3 33/183/3 35/184/3
f 39/170/93 40/171/93 42/172/93 41/173/93
f 37/96/94 38/100/94 40/171/94 39/170/94
f 43/31/95 44/40/95 46/174/95 45/175/95
f 45/175/96 46/174/96 48/176/96 47/177/96
f 47/177/97 48/176/97 38/178/97 37/105/97
f 41/173/98 42/172/98 44/40/98 43/31/98
f 37/179/3 39/180/3 41/181/3 43/182/3 45/183/3 47/184/3
f 56/185/3 57/186/3 51/173/3 50/170/3
f 57/186/99 58/34/99 52/31/99 51/173/99
f 58/34/100 59/187/100 53/175/100 52/31/100
f 59/187/4 60/188/4 54/177/4 53/175/4
f 60/188/101 55/108/101 49/105/101 54/177/101
f 49/179/1 50/180/1 51/181/1 52/182/1 53/183/1 54/184/1
f 55/97/102 56/185/102 50/170/102 49/96/102
f 56/185/2 55/108/2 60/188/2 59/187/2 58/34/2 57/186/2
f 68/185/3 69/186/3 63/173/3 62/170/3
f 69/186/99 70/34/99 64/31/99 63/173/99
f 70/34/100 71/187/100 65/175/100 64/31/100
f 71/187/4 72/188/4 66/177/4 65/175/4
f 72/188/101 67/108/101 61/105/101 66/177/101
f 61/179/1 62/180/1 63/181/1 64/182/1 65/183/1 66/184/1
f 67/97/102 68/185/102 62/170/102 61/96/102
f 68/185/2 67/108/2 72/188/2 71/187/2 70/34/2 69/186/2
f 80/185/3 81/186/3 75/173/3 74/170/3
f 81/186/99 82/34/99 76/31/99 75/173/99
f 82/34/100 83/187/100 77/175/100 76/31/100
f 83/187/4 84/188/4 78/177/4 77/175/4
f 84/188/101 79/108/101 73/105/101 78/177/101
f 73/179/1 74/180/1 75/181/1 76/182/1 77/183/1 78/184/1
f 79/97/102 80/185/102 74/170/102 73/96/102
f 80/185/2 79/108/2 84/188/2 83/187/2 82/34/2 81/186/2
f 92/185/3 93/186/3 87/173/3 86/170/3
f 93/186/99 94/34/99 88/31/99 87/173/99
f 94/34/100 95/187/100 89/175/100 88/31/100
f 95/187/4 96/188/4 90/177/4 89/175/4
f 96/188/101 91/108/101 85/105/101 90/177/101
f 85/179/1 86/180/1 87/181/1 88/182/1 89/183/1 90/184/1
f 91/97/102 92/185/102 86/170/102 85/96/102
f 92/185/2 91/108/2 96/188/2 95/187/2 94/34/2 93/186/2
f 104/185/3 105/186/3 99/173/3 98/170/3
f 105/186/99 106/34/99 100/31/99 99/173/99
f 106/34/100 107/187/100 101/175/100 100/31/100
f 107/187/4 108/188/4 102/177/4 101/175/4
f 108/188/101 103/108/101 97/105/101 102/177/101
f 97/179/1 98/180/1 99/181/1 100/182/1 101/183/1 102/184/1
f 103/97/102 104/185/102 98/170/102 97/96/102
f 104/185/2 103/108/2 108/188/2 107/187/2 106/34/2 105/186/2
f 36/176/4 34/174/4 32/40/4 30/172/4 28/171/4 26/178/4
f 12/176/4 10/174/4 8/40/4 6/172/4 4/171/4 2/178/4
f 48/176/4 46/174/4 44/40/4 42/172/4 40/171/4 38/178/4
f 24/176/4 22/174/4 20/40/4 18/172/4 16/171/4 14/178/4
