# Blender 5.0.1
# www.blender.org
mtllib teddy.mtl
o teddy
v 0.149210 0.181959 0.457751
v 0.197556 0.356337 0.425073
v 0.165896 0.208376 0.271458
v 0.246047 0.330700 0.270406
v 0.278306 0.345540 0.202707
v 0.356824 0.426180 0.429586
v 0.427429 0.316297 0.250556
v 0.482979 0.370958 0.408004
v 0.550460 0.150336 0.419276
v 0.407042 0.311243 0.135115
v 0.399923 -0.000954 0.234449
v 0.255090 0.031324 0.066863
v 0.213793 0.085937 0.457754
v 0.304488 0.330760 0.542704
v 0.558735 0.240936 0.402409
v 0.469073 0.278335 0.521867
v 0.447958 0.028572 0.442952
v 0.320095 0.023836 0.445732
v 0.309391 0.397396 0.003821
v 0.482630 0.134025 0.131924
v 0.309257 0.099052 -0.192542
v 0.196514 0.057203 0.188386
v 0.143933 0.060578 -0.061258
v 0.140818 0.260999 0.108316
v 0.226572 0.380695 0.085725
v 0.126022 0.173973 0.076727
v 0.334763 0.451924 -0.092883
v 0.362087 0.277091 -0.181763
v 0.383378 0.367814 -0.044084
v 0.388077 0.232336 -0.152663
v 0.214635 0.045047 -0.133063
v 0.104572 0.002649 -0.115178
v 0.179650 0.458980 0.112679
v 0.097802 0.578039 0.068462
v 0.343641 0.360380 -0.392690
v 0.292582 0.567671 -0.366257
v 0.190993 0.022274 -0.265592
v 0.275330 0.202994 -0.440109
v 0.126989 0.111623 -0.465043
v 0.281693 0.568868 -0.319389
v 0.279638 0.396329 -0.495205
v 0.190529 0.766362 -0.474285
v 0.275192 0.527009 -0.253278
v 0.275433 0.556924 -0.105570
v 0.370347 0.859084 0.236699
v 0.492960 0.921732 0.183592
v 0.473076 0.877052 0.275137
v 0.370233 0.676445 0.247755
v 0.401273 0.781045 0.302271
v 0.355654 0.552082 -0.133438
v 0.597795 0.653461 0.150706
v 0.544830 0.637020 0.290525
v 0.625851 0.758906 0.223853
v 0.568660 0.775604 0.023940
v 0.592746 0.852399 0.180380
v 0.448823 0.852581 -0.052250
v 0.282870 0.831048 -0.021898
v 0.253140 0.732152 -0.035805
v 0.289499 0.603353 -0.069555
v 0.280184 0.855587 -0.133423
v 0.375671 0.856353 -0.312083
v 0.417718 0.755010 -0.346958
v 0.411404 0.587459 -0.257420
v 0.223461 0.551255 -0.005079
v 0.230505 0.843876 -0.069502
v 0.249798 0.859294 -0.227201
v 0.327372 0.645560 -0.392293
v 0.300396 0.838296 -0.384151
v 0.245644 0.764063 -0.389348
v 0.186369 0.801758 -0.444743
v 0.128874 0.880891 -0.389072
v 0.170563 0.807148 0.021900
v 0.269786 0.845212 0.065490
v 0.312327 0.885172 -0.211286
v 0.258669 0.194648 0.543872
v 0.467408 0.147868 0.511311
v 0.358241 0.145060 0.555280
v 0.491382 0.698581 0.317907
v 0.548389 0.819203 0.289140
v 0.245642 0.883174 0.127884
v 0.374379 0.929903 -0.011281
v 0.282110 0.951465 0.209798
v 0.384135 1.126238 0.130109
v 0.365414 1.003619 0.134544
v 0.430689 1.059004 0.004335
v 0.336540 1.247856 0.120074
v 0.304684 1.142637 0.163847
v 0.191417 1.254377 0.157587
v 0.268054 1.246502 0.111600
v 0.160931 1.260092 0.220174
v 0.142465 1.322491 0.146610
v 0.099807 1.290254 0.194142
v 0.323125 1.346932 0.120696
v 0.251921 1.346866 0.123794
v 0.203557 1.419083 0.172239
v 0.374174 1.416933 0.043725
v 0.248559 1.539070 0.110108
v 0.099083 0.870390 0.282400
v 0.212857 1.011960 0.296764
v 0.173740 1.186333 0.282934
v 0.088493 1.196005 0.322977
v 0.116722 0.927153 0.309228
v 0.178022 0.941808 0.266398
v 0.108798 0.992501 0.349491
v 0.189532 1.086797 0.320078
v 0.118075 1.113316 0.328024
v 0.056242 1.189204 0.366769
v 0.100153 1.139869 0.367337
v 0.360559 1.548519 -0.108055
v 0.411293 1.442571 -0.104261
v 0.456386 1.195681 -0.186828
v 0.431911 1.181703 -0.030440
v 0.434682 1.080803 -0.321261
v 0.242073 0.940696 -0.425355
v 0.291623 1.100186 -0.489171
v 0.412700 1.266073 -0.413137
v 0.443579 1.285114 -0.294117
v 0.595467 1.258910 -0.163291
v 0.164189 1.253152 -0.576336
v 0.156005 1.467477 -0.524495
v 0.208226 1.631960 -0.091134
v 0.483535 1.459943 -0.136821
v 0.357303 1.541508 -0.204044
v 0.463588 1.289769 -0.114381
v 0.584386 1.365946 -0.250370
v 0.548469 1.273682 -0.114756
v 0.586476 1.384769 -0.076215
v 0.647563 1.400467 -0.128923
v 0.612350 1.510418 -0.175547
v 0.553065 1.565397 -0.092183
v 0.495523 1.549426 -0.242193
v 0.377623 1.461272 -0.361927
v 0.281785 1.585033 -0.268539
v 0.507602 1.373979 -0.167507
v 0.410920 1.418504 -0.303023
v 0.520516 1.444709 -0.291816
v 0.286388 1.476800 -0.459854
v -0.008231 0.029061 -0.065592
v -0.007610 0.004655 -0.274030
v -0.008627 0.590881 0.074700
v 0.075208 0.784128 0.053981
v 0.037354 0.348270 -0.575735
v 0.012432 0.799122 0.089990
v 0.107876 1.357984 0.204176
v 0.032775 0.788828 0.147042
v 0.026546 0.910870 0.297435
v 0.030124 1.123045 0.387117
v 0.048432 0.940350 -0.479359
v 0.028479 1.083005 -0.572041
v -0.075243 1.358064 -0.570999
v 0.012251 1.639329 -0.004576
v 0.062911 1.617886 -0.363962
v -0.095931 0.173067 0.267656
v -0.137148 0.343764 0.408479
v -0.079885 0.201900 0.443795
v -0.179040 0.341748 0.207601
v -0.237506 0.421394 0.454272
v -0.318848 0.349002 0.294504
v -0.368008 0.409621 0.415183
v -0.357547 0.297915 0.190844
v -0.445747 0.345061 0.402269
v -0.477455 0.210242 0.363938
v -0.335054 0.258828 -0.124245
v -0.463775 0.089853 0.421880
v -0.407358 0.075348 0.165446
v -0.315347 0.006075 0.224865
v -0.310541 0.016196 0.454714
v -0.171450 0.018335 0.228189
v -0.155231 0.073695 0.435506
v -0.182531 0.261026 0.541767
v -0.465704 0.220686 0.475036
v -0.387937 0.082466 0.496923
v -0.077821 0.229184 0.160100
v -0.075346 0.138507 0.071516
v -0.320800 0.370400 -0.036614
v -0.168327 0.044582 0.088786
v -0.080126 0.065275 -0.054460
v 0.033922 0.270559 0.144886
v -0.062869 0.175417 0.083862
v -0.107230 0.446451 0.117158
v -0.115717 0.331321 0.108716
v -0.190615 0.394309 0.065110
v -0.245888 0.393861 0.003318
v -0.286068 0.187506 -0.207551
v -0.303197 0.297674 -0.171907
v -0.255984 0.111515 -0.194064
v -0.151997 0.041449 -0.134116
v -0.138838 0.557140 0.013361
v -0.264481 0.455203 -0.065436
v -0.277649 0.430828 -0.287108
v -0.248531 0.255851 -0.422655
v -0.164365 0.032444 -0.246141
v -0.090890 0.106764 -0.444950
v -0.271017 0.471458 -0.406808
v -0.196675 0.415466 -0.499292
v -0.134566 0.780206 -0.460696
v -0.206768 0.549063 -0.264682
v -0.393565 0.918211 0.225759
v -0.323137 0.865736 -0.031219
v -0.289963 0.820152 0.239733
v -0.476659 0.893447 0.134430
v -0.298199 0.720246 0.260493
v -0.367595 0.636087 0.255187
v -0.348853 0.559368 -0.106326
v -0.467189 0.627172 0.268746
v -0.552739 0.676878 0.176249
v -0.554725 0.777398 0.150173
v -0.427168 0.828545 -0.058740
v -0.200016 0.681135 -0.040777
v -0.233953 0.556280 -0.154211
v -0.294993 0.870281 -0.277809
v -0.304190 0.592212 -0.324022
v -0.354874 0.798855 -0.321555
v -0.376175 0.654398 -0.287403
v -0.211068 0.548695 -0.086946
v -0.211996 0.858853 -0.138267
v -0.180192 0.815402 -0.054445
v -0.224063 0.846655 -0.339768
v -0.160305 0.861541 -0.259941
v -0.258468 0.694879 -0.407025
v -0.243311 0.799278 -0.400265
v -0.180623 0.771873 -0.384026
v -0.061225 0.882110 -0.388686
v -0.207712 0.618111 -0.381535
v -0.088402 0.799004 0.034389
v -0.219688 0.851481 0.062236
v -0.133732 0.924481 -0.430638
v -0.066607 0.209796 -0.535900
v -0.234440 0.125840 0.537445
v -0.383129 0.284594 0.535813
v -0.274410 0.244817 0.565458
v -0.392053 0.823235 0.308952
v -0.540944 0.733562 0.274371
v -0.518645 0.853637 0.233497
v -0.431105 0.738779 0.321368
v -0.192287 0.889807 0.132856
v -0.272585 0.904818 -0.219997
v -0.209774 0.937362 0.206656
v -0.247418 1.106217 0.169726
v -0.337108 1.061319 0.123698
v -0.353623 0.995404 0.005894
v -0.375637 1.122501 -0.078893
v -0.222347 1.173215 0.154761
v -0.285212 1.250936 0.117496
v -0.202801 1.236819 0.113798
v -0.129741 1.254271 0.157125
v -0.101129 1.256710 0.224663
v -0.134391 1.371464 0.139252
v -0.044342 1.288214 0.188819
v -0.260727 1.352871 0.120415
v -0.299152 1.456322 0.048432
v -0.174757 1.442267 0.155332
v -0.156908 1.541388 0.117006
v 0.022768 1.505423 0.179716
v -0.038821 0.849116 0.250578
v -0.166833 1.101303 0.287255
v 0.035628 1.268597 0.282657
v -0.049241 0.912885 0.287589
v -0.114732 0.942587 0.265288
v -0.061443 0.968464 0.342177
v 0.013710 1.203856 0.333843
v -0.096057 1.063545 0.336253
v -0.068256 1.135015 0.318036
v -0.028187 1.165995 0.373639
v 0.027984 1.065599 0.353168
v -0.171190 1.607077 -0.038564
v -0.345085 1.439614 -0.094835
v -0.403712 1.273132 -0.113464
v -0.398832 1.209599 -0.202318
v -0.278938 0.987431 -0.377191
v -0.217625 1.113969 -0.504449
v -0.379523 1.104272 -0.315864
v -0.379212 1.295945 -0.304155
v -0.486168 1.271829 -0.113772
v -0.292558 1.370658 -0.462115
v -0.066679 1.646638 -0.213386
v -0.288015 1.558751 -0.136680
v -0.376259 1.581871 -0.104811
v -0.384462 1.503209 -0.100453
v -0.501069 1.251751 -0.194764
v -0.568957 1.321923 -0.142674
v -0.506351 1.374238 -0.264608
v -0.527058 1.398546 -0.072022
v -0.560207 1.446514 -0.201017
v -0.550438 1.511979 -0.094188
v -0.444136 1.574593 -0.213320
v -0.434948 1.492886 -0.282417
v -0.327758 1.477823 -0.279921
v -0.444315 1.395180 -0.172467
v -0.180442 1.544167 -0.416276
v -0.068462 0.791069 -0.469078
v -0.087175 1.402799 0.193452
v 0.188925 0.835872 0.192468
v 0.218954 0.672060 0.074104
v 0.226836 0.853026 0.390319
v 0.370759 0.717486 0.145926
v 0.394780 0.788430 0.242115
v 0.280638 0.532925 0.100618
v 0.401934 0.514176 0.212255
v 0.217764 0.408967 0.131109
v 0.301893 0.365026 0.243912
v 0.143626 0.236238 0.255591
v 0.325139 0.394441 0.415695
v 0.025709 0.790164 0.216846
v 0.032422 0.640247 0.077835
v -0.052130 0.497306 0.072690
v 0.032234 0.106898 0.291389
v -0.178834 0.774734 0.115334
v -0.164193 0.853028 0.234480
v -0.298869 0.687904 0.129430
v -0.344502 0.776867 0.303801
v -0.345845 0.591526 0.177925
v -0.179349 0.450244 0.117206
v -0.260918 0.384240 0.240665
v -0.346184 0.497706 0.306294
v -0.090760 0.244449 0.250565
v -0.369317 0.635722 0.375990
v 0.242065 0.793991 0.490795
v 0.238538 0.681841 0.544986
v 0.400483 0.746158 0.428133
v 0.330608 0.549103 0.503380
v 0.427145 0.571411 0.382171
v 0.185615 0.476967 0.536677
v 0.124055 0.219055 0.374156
v 0.033098 0.771734 0.433416
v 0.022928 0.648246 0.543191
v -0.082723 0.548659 0.559095
v -0.114908 0.844517 0.385339
v -0.196258 0.764709 0.518193
v -0.291032 0.815428 0.372046
v -0.304070 0.684536 0.490321
v -0.301655 0.432767 0.406365
v -0.208224 0.538381 0.528328
v -0.197493 0.389783 0.459553
v -0.080471 0.236455 0.371141
v 0.031423 0.104363 0.329653
v -0.006519 0.352315 0.483826
vn -0.7268 0.6635 0.1778
vn -0.4737 0.8764 -0.0864
vn -0.9916 0.1291 -0.0000
vn 0.0448 0.9892 0.1394
vn 0.5765 0.7572 -0.3070
vn 0.1582 0.9626 0.2199
vn 0.9875 0.1319 -0.0865
vn 0.6483 0.7602 0.0430
vn 0.9499 -0.2622 0.1699
vn 0.6998 0.7143 0.0073
vn 0.9452 -0.1986 -0.2590
vn -0.6982 -0.7082 0.1049
vn -0.1201 -0.9900 -0.0736
vn 0.3207 -0.9416 -0.1031
vn -0.5856 -0.6607 0.4696
vn -0.9076 -0.0966 0.4085
vn -0.1846 0.4812 0.8570
vn 0.5372 0.2967 0.7895
vn 0.4474 -0.8052 0.3893
vn -0.3988 0.0272 0.9166
vn 0.2263 0.5851 0.7788
vn -0.4976 -0.4907 0.7153
vn 0.6206 0.7151 0.3215
vn 0.5931 0.7505 -0.2916
vn 0.7079 -0.6454 -0.2870
vn -0.0322 -0.9045 0.4253
vn 0.8633 -0.0451 -0.5027
vn 0.3374 -0.9399 0.0514
vn 0.0085 -0.2102 0.9776
vn 0.9571 0.0579 -0.2839
vn 0.9189 0.3276 0.2197
vn 0.3832 -0.8914 -0.2422
vn 0.1432 -0.9388 0.3132
vn 0.7274 0.2533 0.6378
vn 0.4045 0.2756 0.8720
vn 0.9487 0.0034 -0.3162
vn 0.6350 0.0110 -0.7725
vn 0.6587 -0.4235 -0.6219
vn 0.9702 0.1097 -0.2158
vn 0.4408 0.3999 -0.8036
vn 0.8064 0.5543 0.2058
vn -0.6926 0.5661 0.4470
vn 0.1620 0.9831 0.0848
vn -0.5819 0.7380 0.3418
vn 0.0210 0.7004 0.7135
vn -0.5006 0.1112 0.8585
vn -0.6670 -0.5037 0.5490
vn 0.1244 -0.9891 0.0785
vn 0.3534 -0.6778 0.6448
vn -0.0190 -0.2174 0.9759
vn 0.8135 -0.5771 -0.0721
vn 0.6360 -0.6820 -0.3611
vn 0.7438 0.1052 -0.6600
vn 0.8953 0.2347 -0.3787
vn 0.9583 0.0529 0.2808
vn 0.7873 0.6164 0.0152
vn 0.2923 0.9397 -0.1773
vn -0.0473 0.9957 0.0795
vn -0.5257 -0.6197 0.5827
vn 0.8188 -0.2132 0.5330
vn 0.3836 0.8506 -0.3597
vn -0.1127 0.6635 -0.7396
vn 0.2735 -0.3300 -0.9035
vn -0.2186 0.0346 0.9752
vn 0.9072 -0.4183 -0.0445
vn 0.4310 0.3964 -0.8106
vn 0.8185 0.1707 -0.5485
vn 0.4465 0.6420 -0.6232
vn 0.5776 -0.5883 0.5659
vn 0.4873 -0.8222 0.2943
vn 0.1571 -0.4118 0.8976
vn 0.6009 -0.7722 -0.2064
vn 0.8003 -0.5917 0.0967
vn 0.6256 -0.3348 0.7047
vn 0.2452 -0.6577 -0.7123
vn 0.0422 -0.0615 -0.9972
vn 0.5501 -0.2813 0.7863
vn 0.0367 -0.3245 0.9452
vn -0.4169 -0.1077 0.9026
vn 0.4683 0.3926 0.7915
vn 0.8840 -0.3315 -0.3297
vn 0.8704 -0.3720 0.3225
vn 0.2500 -0.5635 0.7874
vn 0.5000 -0.7204 0.4806
vn 0.5523 0.2435 0.7973
vn 0.6149 -0.3135 0.7236
vn 0.7384 0.1092 0.6655
vn 0.9616 -0.2034 0.1843
vn 0.4608 0.2191 0.8600
vn 0.9619 0.0051 0.2733
vn 0.8142 0.3061 0.4934
vn 0.5258 0.5466 0.6517
vn 0.2313 0.2382 0.9433
vn 0.1613 -0.2707 0.9491
vn 0.4916 0.0449 0.8697
vn 0.3427 0.0367 0.9387
vn 0.4308 0.6356 0.6406
vn 0.5133 -0.0251 0.8578
vn 0.2930 -0.0884 0.9520
vn 0.4747 -0.4797 0.7379
vn 0.6428 -0.2024 0.7388
vn 0.5182 0.1694 0.8383
vn 0.1498 -0.2499 0.9566
vn 0.2637 -0.8172 0.5125
vn 0.0149 0.8109 0.5850
vn 0.4536 0.5963 0.6623
vn 0.5266 0.4698 0.7085
vn 0.4561 0.0983 0.8845
vn 0.2148 0.6738 0.7070
vn 0.6862 0.0104 0.7273
vn -0.0292 -0.2330 0.9720
vn 0.6845 -0.0014 0.7290
vn 0.7301 0.2581 0.6327
vn 0.9150 -0.4031 -0.0184
vn 0.4395 -0.6609 -0.6083
vn -0.0168 -0.3184 -0.9478
vn 0.5299 -0.2861 -0.7984
vn 0.8107 0.0611 -0.5822
vn 0.1510 -0.4200 0.8949
vn 0.7230 -0.6909 0.0032
vn 0.5028 0.5309 -0.6822
vn 0.2815 0.0206 -0.9593
vn -0.2708 -0.6481 0.7118
vn 0.4404 0.8369 0.3250
vn 0.3223 0.7513 0.5759
vn 0.3396 0.8986 -0.2778
vn -0.1329 -0.0150 0.9910
vn 0.8173 -0.1359 -0.5600
vn 0.6934 -0.1615 -0.7022
vn 0.1282 -0.2122 0.9688
vn 0.9746 -0.0347 0.2212
vn 0.8157 0.5202 -0.2529
vn 0.1395 0.7958 -0.5892
vn 0.3628 0.2170 -0.9063
vn 0.4370 0.8598 -0.2643
vn 0.2869 0.9514 0.1123
vn 0.5957 0.3450 -0.7253
vn 0.1829 0.5171 -0.8362
vn 0.0583 0.8993 -0.4334
vn -0.1611 0.2227 0.9615
vn 0.2786 0.2783 0.9192
vn -0.2484 -0.3836 -0.8895
vn -0.0928 -0.9822 0.1635
vn -0.1170 -0.8752 0.4694
vn 0.4830 -0.5167 0.7070
vn -0.0349 -0.5046 0.8627
vn -0.2188 0.7506 0.6235
vn -0.0407 -0.2154 0.9757
vn -0.6092 0.3372 0.7178
vn 0.0006 0.5228 0.8525
vn 0.0352 -0.6675 -0.7438
vn -0.2076 0.2506 -0.9456
vn -0.0191 0.9475 0.3191
vn -0.1774 0.9767 -0.1206
vn 0.9946 -0.0802 0.0659
vn 0.7326 0.6769 0.0716
vn 0.9385 -0.0439 0.3424
vn 0.3905 0.9089 0.1462
vn 0.6357 -0.6704 0.3827
vn 0.0151 0.9263 -0.3764
vn -0.5801 0.7994 -0.1565
vn -0.9335 0.0866 -0.3479
vn -0.9858 0.0928 -0.1402
vn -0.3619 0.9285 0.0830
vn -0.7993 -0.5469 -0.2488
vn -0.8130 -0.5447 0.2057
vn 0.4657 -0.8849 0.0090
vn 0.5158 -0.8566 0.0127
vn -0.2831 -0.9572 -0.0607
vn 0.4948 0.2178 0.8413
vn 0.2423 -0.4307 0.8694
vn -0.4307 0.3103 0.8475
vn 0.2665 0.9298 0.2539
vn -0.8476 0.0495 0.5284
vn -0.8135 0.5809 0.0273
vn -0.4134 -0.5174 0.7493
vn -0.0664 -0.9078 0.4140
vn 0.8633 -0.4638 0.1992
vn 0.9441 0.2593 0.2036
vn -0.4379 0.6900 0.5763
vn -0.6058 0.7696 -0.2018
vn 0.2228 0.3553 0.9078
vn 0.0193 -0.9018 0.4316
vn -0.2416 -0.9702 0.0204
vn -0.6497 0.6444 0.4033
vn -0.3769 0.2526 0.8911
vn -0.8886 0.3509 0.2954
vn -0.9585 0.1456 -0.2450
vn -0.0558 0.0067 -0.9984
vn -0.7349 -0.6026 -0.3110
vn -0.6418 0.2467 0.7261
vn -0.9176 0.2102 0.3375
vn -0.9468 0.3198 0.0365
vn -0.9282 0.1802 -0.3256
vn -0.8616 0.0064 -0.5076
vn -0.5278 0.4417 -0.7255
vn -0.9592 -0.2759 -0.0613
vn 0.1311 0.9310 0.3406
vn 0.7746 0.4030 0.4875
vn 0.0670 0.9975 -0.0244
vn 0.7279 -0.2519 0.6378
vn -0.0465 -0.0817 0.9956
vn 0.3771 -0.7308 0.5689
vn -0.8828 -0.4698 -0.0024
vn -0.2778 -0.7754 0.5671
vn -0.7708 -0.0430 0.6356
vn -0.9635 0.2166 -0.1574
vn -0.5182 0.8334 -0.1922
vn -0.5518 0.7905 -0.2658
vn -0.6952 0.5920 0.4077
vn 0.1361 -0.3099 0.9410
vn -0.1569 -0.9774 0.1414
vn -0.3519 -0.9351 -0.0415
vn -0.8183 -0.3193 -0.4780
vn -0.4679 -0.6996 -0.5400
vn -0.7293 0.3829 -0.5670
vn -0.2187 0.9356 -0.2772
vn 0.1811 0.8494 -0.4958
vn -0.9495 0.2895 0.1207
vn -0.1776 -0.1253 -0.9761
vn -0.0638 0.4476 -0.8920
vn -0.3275 0.4910 -0.8072
vn -0.7263 0.1407 -0.6729
vn -0.4521 -0.5226 0.7228
vn -0.5451 -0.7876 0.2873
vn -0.6818 -0.7072 -0.1870
vn -0.8044 -0.3011 -0.5122
vn -0.5581 0.0309 -0.8292
vn -0.0154 0.1140 0.9934
vn 0.1247 0.3800 0.9165
vn -0.5674 -0.6877 0.4530
vn 0.0507 -0.9940 0.0972
vn -0.2779 -0.7555 0.5932
vn -0.7821 -0.1111 0.6132
vn -0.6490 0.1027 0.7538
vn -0.8038 -0.4319 0.4091
vn -0.9076 -0.4053 0.1094
vn -0.6602 0.1866 0.7275
vn -0.4346 0.4818 0.7609
vn -0.5775 0.5065 0.6403
vn -0.2604 -0.4862 0.8341
vn -0.2363 0.3090 0.9213
vn -0.3077 0.5301 0.7902
vn -0.4893 0.7391 0.4629
vn -0.4974 0.0650 0.8651
vn -0.2834 0.0033 0.9590
vn -0.3703 -0.6969 0.6141
vn -0.2403 -0.3981 0.8853
vn -0.3960 0.0792 0.9148
vn -0.4291 0.2202 0.8760
vn -0.3112 -0.6098 0.7289
vn -0.3718 0.6627 0.6500
vn -0.3952 0.8876 0.2367
vn -0.7695 0.4144 0.4860
vn -0.3077 0.9430 0.1266
vn -0.7333 0.2380 0.6368
vn -0.7210 -0.1184 0.6827
vn -0.9800 -0.1571 0.1225
vn -0.2334 -0.8846 -0.4037
vn -0.5083 -0.2411 -0.8267
vn -0.6546 -0.5595 -0.5084
vn -0.9272 -0.2436 -0.2844
vn -0.7619 -0.0885 -0.6416
vn -0.5965 -0.7612 -0.2545
vn -0.6873 0.2532 -0.6808
vn 0.1517 0.7760 0.6123
vn 0.1443 -0.0569 0.9879
vn 0.1318 -0.1580 0.9786
vn -0.1725 -0.5204 0.8363
vn -0.8767 0.2360 -0.4191
vn -0.9042 -0.4021 0.1439
vn -0.6809 0.5139 0.5218
vn -0.1714 -0.2052 0.9636
vn -0.2354 0.8814 -0.4095
vn -0.2336 0.3968 -0.8877
vn -0.6021 -0.1215 -0.7891
vn -0.3722 0.6489 -0.6636
vn -0.3897 0.7315 -0.5595
vn -0.4752 -0.8618 -0.1773
vn -0.0937 0.4603 -0.8828
vn -0.3727 -0.1778 -0.9107
vn 0.3895 -0.1563 -0.9077
vn 0.3655 0.5637 0.7407
vn -0.3339 -0.6999 -0.6315
vn 0.0337 0.7631 0.6454
vn -0.0281 0.8845 -0.4656
vn 0.1409 0.2649 -0.9539
vn -0.0381 0.3079 -0.9506
vn 0.7400 0.6290 -0.2383
vn 0.0540 0.9724 0.2269
vn 0.6537 0.3083 -0.6911
vn 0.8668 -0.3163 -0.3855
vn 0.4081 -0.2405 -0.8807
vn 0.6795 -0.6673 -0.3049
vn 0.3152 -0.4904 -0.8125
vn -0.0888 -0.2165 -0.9722
vn 0.6404 -0.7082 -0.2972
vn 0.5589 -0.6917 0.4573
vn 0.0278 -0.9281 -0.3713
vn 0.0097 0.9196 -0.3928
vn -0.1600 0.5863 -0.7942
vn -0.5961 0.2538 -0.7618
vn -0.8216 0.5624 -0.0931
vn -0.8443 -0.1372 -0.5181
vn -0.9711 0.0113 0.2383
vn -0.3805 -0.3986 -0.8345
vn -0.9282 -0.3687 -0.0497
vn -0.6866 -0.6452 -0.3350
vn -0.6146 -0.7085 -0.3468
vn 0.0201 -0.9511 0.3081
vn -0.0825 0.9559 -0.2817
vn 0.1252 0.9539 0.2727
vn -0.5327 0.8037 0.2650
vn 0.1402 0.6892 0.7109
vn 0.2157 0.2013 0.9555
vn 0.7791 0.4404 0.4461
vn 0.5717 -0.1915 0.7978
vn 0.9581 -0.1668 0.2329
vn 0.6727 -0.6066 0.4238
vn 0.1917 -0.3165 0.9290
vn -0.0094 0.8703 0.4924
vn 0.0225 0.3065 0.9516
vn -0.0929 -0.1258 0.9877
vn -0.1864 0.5638 0.8046
vn -0.3951 -0.2167 0.8927
vn -0.7622 -0.5156 0.3915
vn -0.6754 0.1746 0.7165
vn -0.4147 -0.5464 0.7276
vn -0.0670 -0.4808 0.8743
vn -0.7004 -0.6976 0.1507
vn -0.1999 -0.8798 0.4312
vn 0.4824 0.7737 0.4107
vn 0.7747 0.4921 -0.3970
vn -0.0734 -0.9730 -0.2186
vn -0.3348 -0.7179 -0.6104
vn -0.5577 0.1830 0.8096
vn -0.4253 0.2590 0.8672
vt 0.760726 0.532481
vt 0.766286 0.578727
vt 0.725368 0.574526
vt 0.799657 0.531648
vt 0.824285 0.578774
vt 0.779562 0.602988
vt 0.867714 0.545602
vt 0.832761 0.537509
vt 0.892696 0.565586
vt 0.817711 0.614625
vt 0.877660 0.629935
vt 0.676700 0.583244
vt 0.650089 0.609242
vt 0.646829 0.555894
vt 0.685209 0.526372
vt 0.720056 0.526219
vt 0.988799 0.883841
vt 0.937390 0.853811
vt 0.966239 0.837157
vt 0.931255 0.826553
vt 0.901011 0.873612
vt 0.882362 0.850608
vt 0.934141 0.573008
vt 0.920386 0.611276
vt 0.727024 0.622131
vt 0.765057 0.632217
vt 0.696560 0.629867
vt 0.785861 0.656236
vt 0.806911 0.667086
vt 0.874425 0.719679
vt 0.659710 0.644702
vt 0.839754 0.698134
vt 0.904843 0.722898
vt 0.919443 0.668637
vt 0.238213 0.770750
vt 0.241135 0.801758
vt 0.212182 0.793201
vt 0.252552 0.837756
vt 0.280064 0.851811
vt 0.329425 0.868260
vt 0.291693 0.875249
vt 0.839005 0.712855
vt 0.453130 0.352217
vt 0.419985 0.311984
vt 0.469159 0.313882
vt 0.244384 0.884515
vt 0.234673 0.846765
vt 0.385806 0.353791
vt 0.399171 0.463931
vt 0.352611 0.412881
vt 0.433360 0.477727
vt 0.430165 0.423506
vt 0.408423 0.526596
vt 0.448965 0.541341
vt 0.363067 0.521726
vt 0.344470 0.478166
vt 0.373983 0.714473
vt 0.408049 0.701481
vt 0.395614 0.775071
vt 0.766941 0.943768
vt 0.783853 0.950784
vt 0.779314 0.971311
vt 0.785749 0.919419
vt 0.534309 0.648286
vt 0.557898 0.753607
vt 0.510143 0.652328
vt 0.818543 0.921083
vt 0.807311 0.902669
vt 0.837602 0.925212
vt 0.488160 0.677857
vt 0.534615 0.789403
vt 0.490187 0.814052
vt 0.462609 0.715596
vt 0.850707 0.947536
vt 0.833103 0.964161
vt 0.453245 0.675431
vt 0.437349 0.685181
vt 0.437407 0.753005
vt 0.416145 0.794421
vt 0.575281 0.729571
vt 0.582721 0.756210
vt 0.463799 0.817437
vt 0.467925 0.841754
vt 0.518203 0.838538
vt 0.272362 0.901963
vt 0.260042 0.909222
vt 0.234609 0.930786
vt 0.558635 0.835438
vt 0.526785 0.857228
vt 0.479737 0.859379
vt 0.436103 0.833183
vt 0.437458 0.575791
vt 0.460636 0.576999
vt 0.301665 0.018018
vt 0.315207 0.052776
vt 0.238352 0.007973
vt 0.383290 0.050481
vt 0.355963 0.081646
vt 0.354377 0.031079
vt 0.472752 0.407669
vt 0.491503 0.469113
vt 0.906540 0.906586
vt 0.935992 0.900864
vt 0.919552 0.942179
vt 0.976851 0.917807
vt 0.959075 0.883272
vt 0.807500 0.952446
vt 0.804843 0.980668
vt 0.768832 0.224427
vt 0.782719 0.284709
vt 0.759666 0.288479
vt 0.294630 0.092457
vt 0.245468 0.067650
vt 0.296699 0.064838
vt 0.304373 0.150336
vt 0.326786 0.106833
vt 0.331366 0.142435
vt 0.362821 0.119838
vt 0.320841 0.176969
vt 0.371253 0.158572
vt 0.334165 0.228142
vt 0.283126 0.182326
vt 0.305485 0.179595
vt 0.292631 0.203329
vt 0.314657 0.206035
vt 0.279565 0.224250
vt 0.288062 0.256978
vt 0.270400 0.198130
vt 0.252483 0.209857
vt 0.269171 0.086069
vt 0.273758 0.108196
vt 0.267928 0.126174
vt 0.250251 0.104121
vt 0.251728 0.088277
vt 0.231675 0.172302
vt 0.246913 0.154131
vt 0.266854 0.152032
vt 0.252134 0.133469
vt 0.235967 0.147091
vt 0.244148 0.137888
vt 0.230704 0.118267
vt 0.393564 0.197802
vt 0.369153 0.248142
vt 0.414034 0.170662
vt 0.705314 0.262731
vt 0.636791 0.223575
vt 0.710771 0.211961
vt 0.746162 0.170224
vt 0.420933 0.208608
vt 0.438145 0.205469
vt 0.702920 0.116852
vt 0.676525 0.181076
vt 0.390909 0.250341
vt 0.352288 0.287972
vt 0.408018 0.281448
vt 0.373685 0.303479
vt 0.396800 0.228935
vt 0.823492 0.150897
vt 0.779855 0.156680
vt 0.814783 0.128087
vt 0.421899 0.240735
vt 0.831024 0.113940
vt 0.442255 0.248012
vt 0.441516 0.272737
vt 0.812592 0.089167
vt 0.433497 0.282413
vt 0.414170 0.302521
vt 0.786506 0.075142
vt 0.791418 0.108394
vt 0.757311 0.068549
vt 0.789475 0.057585
vt 0.744511 0.044131
vt 0.716342 0.062039
vt 0.686635 0.019742
vt 0.761932 0.113604
vt 0.659449 0.130148
vt 0.650794 0.069494
vt 0.178178 0.870445
vt 0.210447 0.876584
vt 0.180007 0.918026
vt 0.514156 0.434128
vt 0.225843 0.022053
vt 0.230291 0.710597
vt 0.263136 0.707258
vt 0.202081 0.764046
vt 0.232515 0.081338
vt 0.227840 0.155731
vt 0.229435 0.132414
vt 0.220601 0.142248
vt 0.228804 0.245557
vt 0.644871 0.269304
vt 0.617186 0.153745
vt 0.224132 0.301819
vt 0.287879 0.311696
vt 0.193196 0.328946
vt 0.401391 0.789212
vt 0.223665 0.957649
vt 0.229600 0.946800
vt 0.205977 0.936644
vt 0.266915 0.587339
vt 0.224457 0.554389
vt 0.257943 0.543745
vt 0.214781 0.612594
vt 0.294293 0.539262
vt 0.175208 0.588467
vt 0.162950 0.622958
vt 0.150042 0.705950
vt 0.111201 0.571429
vt 0.167357 0.550694
vt 0.090561 0.632710
vt 0.080314 0.568729
vt 0.326493 0.625755
vt 0.318308 0.580203
vt 0.346910 0.635589
vt 0.224166 0.530509
vt 0.544885 0.904412
vt 0.571005 0.894915
vt 0.577826 0.931018
vt 0.633744 0.872669
vt 0.624212 0.901414
vt 0.599156 0.866204
vt 0.117244 0.548227
vt 0.140439 0.554024
vt 0.650281 0.889210
vt 0.612054 0.953008
vt 0.638573 0.961972
vt 0.588293 0.970030
vt 0.330350 0.533506
vt 0.552642 0.948489
vt 0.289578 0.640051
vt 0.262355 0.625022
vt 0.212008 0.649188
vt 0.173882 0.681179
vt 0.233036 0.639932
vt 0.276551 0.643122
vt 0.321874 0.658695
vt 0.347067 0.674123
vt 0.170497 0.802972
vt 0.133573 0.805024
vt 0.170165 0.824991
vt 0.106046 0.814259
vt 0.173933 0.705310
vt 0.134908 0.728340
vt 0.197390 0.673219
vt 0.582093 0.372621
vt 0.610079 0.391030
vt 0.624588 0.416159
vt 0.207305 0.733102
vt 0.197906 0.698182
vt 0.145560 0.854926
vt 0.110437 0.849899
vt 0.057643 0.827515
vt 0.611847 0.474704
vt 0.639903 0.462310
vt 0.577696 0.486859
vt 0.584406 0.523905
vt 0.545685 0.568007
vt 0.615479 0.513232
vt 0.828592 0.737597
vt 0.865205 0.747951
vt 0.796404 0.781603
vt 0.455818 0.884461
vt 0.439498 0.906941
vt 0.430708 0.883152
vt 0.400371 0.927208
vt 0.409551 0.898350
vt 0.421689 0.929727
vt 0.760002 0.707305
vt 0.794986 0.723669
vt 0.766826 0.772190
vt 0.478348 0.939795
vt 0.460021 0.965165
vt 0.444956 0.950278
vt 0.883337 0.754500
vt 0.859245 0.828542
vt 0.882604 0.825115
vt 0.902973 0.759921
vt 0.686198 0.673473
vt 0.707832 0.678061
vt 0.672419 0.769634
vt 0.635436 0.779981
vt 0.705318 0.817899
vt 0.735111 0.695269
vt 0.681822 0.833820
vt 0.734166 0.831592
vt 0.758862 0.838589
vt 0.652856 0.843079
vt 0.116002 0.877282
vt 0.087115 0.862574
vt 0.754531 0.864876
vt 0.802272 0.823032
vt 0.707744 0.863299
vt 0.732427 0.865577
vt 0.558578 0.574119
vt 0.570411 0.606272
vt 0.566357 0.611646
vt 0.682553 0.868779
vt 0.168895 0.016494
vt 0.136612 0.049435
vt 0.082751 0.035249
vt 0.523526 0.306130
vt 0.517838 0.286063
vt 0.567758 0.298308
vt 0.563179 0.431846
vt 0.548611 0.477430
vt 0.596886 0.903041
vt 0.462799 0.916897
vt 0.163727 0.067829
vt 0.231220 0.034033
vt 0.214265 0.062369
vt 0.127752 0.124974
vt 0.151943 0.137190
vt 0.169242 0.090270
vt 0.102308 0.103297
vt 0.182520 0.131344
vt 0.158357 0.161524
vt 0.180945 0.182644
vt 0.178504 0.202040
vt 0.157925 0.178636
vt 0.206272 0.190743
vt 0.194907 0.172533
vt 0.149921 0.203413
vt 0.199831 0.212808
vt 0.194905 0.086800
vt 0.209741 0.097146
vt 0.200717 0.120255
vt 0.208901 0.140375
vt 0.210129 0.081739
vt 0.178513 0.256357
vt 0.163876 0.297671
vt 0.131665 0.236688
vt 0.114132 0.297908
vt 0.096994 0.245987
vt 0.064283 0.193256
vt 0.072716 0.139573
vt 0.045884 0.165619
vt 0.575272 0.214290
vt 0.544806 0.247850
vt 0.512895 0.214934
vt 0.483497 0.237514
vt 0.478463 0.183141
vt 0.503016 0.154809
vt 0.462282 0.158057
vt 0.558424 0.145420
vt 0.079400 0.290625
vt 0.083852 0.263700
vt 0.065724 0.232801
vt 0.041281 0.209876
vt 0.026098 0.193076
vt 0.012095 0.263068
vt 0.019985 0.223118
vt 0.038996 0.271610
vt 0.041140 0.243588
vt 0.044569 0.292744
vt 0.498360 0.094711
vt 0.474402 0.125035
vt 0.458852 0.100817
vt 0.525103 0.096483
vt 0.584710 0.095089
vt 0.537023 0.051108
vt 0.612421 0.032525
vt 0.208500 0.685652
vt 0.520356 0.568272
vt 0.524088 0.599522
vt 0.475088 0.601422
vt 0.253855 0.190484
vt 0.607885 0.295154
vt 0.678101 0.294520
vt 0.587387 0.268400
vt 0.818446 0.814047
vt 0.144193 0.914397
vt 0.117480 0.914598
vt 0.096678 0.935076
vt 0.813149 0.472212
vt 0.813915 0.428704
vt 0.855344 0.429302
vt 0.765296 0.456968
vt 0.799162 0.498730
vt 0.780034 0.435766
vt 0.762153 0.391941
vt 0.798204 0.398096
vt 0.777997 0.351102
vt 0.807222 0.367307
vt 0.871111 0.393521
vt 0.808802 0.308946
vt 0.802036 0.293695
vt 0.846714 0.263007
vt 0.852494 0.477326
vt 0.898301 0.450733
vt 0.924166 0.435507
vt 0.950565 0.460487
vt 0.941078 0.414845
vt 0.972284 0.434144
vt 0.905390 0.381227
vt 0.963005 0.392484
vt 0.939994 0.361145
vt 0.905678 0.304733
vt 0.842422 0.250586
vt 0.901861 0.481321
vt 0.893769 0.502821
vt 0.943492 0.482031
vt 0.051817 0.465719
vt 0.079504 0.469413
vt 0.047932 0.504776
vt 0.096084 0.500035
vt 0.078828 0.529742
vt 0.129644 0.519914
vt 0.124957 0.471269
vt 0.195301 0.497706
vt 0.735454 0.409103
vt 0.759313 0.345103
vt 0.247545 0.492664
vt 0.819100 0.267100
vt 0.053461 0.414520
vt 0.026241 0.458221
vt 0.093209 0.425372
vt 0.746724 0.463376
vt 0.125018 0.413728
vt 0.087567 0.373273
vt 0.137569 0.384096
vt 0.079581 0.333719
vt 0.051078 0.373019
vt 0.053200 0.346100
vt 0.171520 0.366331
vt 0.113394 0.353824
vt 0.130370 0.328962
vt 0.172025 0.393886
vt 0.172775 0.442048
vt 0.898551 0.267653
vt 0.858900 0.505100
vt 0.223551 0.422657
vt 0.385225 0.532923
vt 0.351000 0.530000
vt 0.233744 0.973482
vt 0.236699 0.988048
vt 0.952616 0.581162
vt 0.656205 0.522865
vt 0.887924 0.928061
vt 0.870497 0.893757
vt 0.636619 0.660170
vt 0.291034 0.718228
vt 0.265106 0.738063
vt 0.308011 0.917767
vt 0.331891 0.729816
vt 0.348816 0.711817
vt 0.375605 0.792600
vt 0.345494 0.807913
vt 0.413969 0.126070
vt 0.430418 0.614243
vt 0.381994 0.036173
vt 0.732914 0.303006
vt 0.955361 0.937670
vt 0.267329 0.174845
vt 0.405472 0.093804
vt 0.801706 0.185414
vt 0.739041 0.110521
vt 0.507523 0.354329
vt 0.197281 0.543339
vt 0.037215 0.586050
vt 0.051904 0.628821
vt 0.103365 0.733461
vt 0.341640 0.570628
vt 0.646549 0.922240
vt 0.078392 0.735190
vt 0.156133 0.809216
vt 0.075687 0.773278
vt 0.547360 0.358821
vt 0.566294 0.341520
vt 0.521067 0.405559
vt 0.053572 0.859544
vt 0.479167 0.901788
vt 0.416628 0.957362
vt 0.782400 0.852200
vt 0.734134 0.882702
vt 0.076449 0.056298
vt 0.137568 0.175406
vt 0.174244 0.228436
vt 0.054171 0.100781
vt 0.454344 0.139907
vt 0.002783 0.233667
vt 0.487160 0.071664
vt 0.506324 0.054430
vt 0.925836 0.299173
vt 0.953338 0.347201
vt 0.029119 0.408474
vt 0.103150 0.325002
vt 0.170054 0.346851
s 1
usemtl _18845_Teddy_Bear_holding_a_heart_to_chest_v1default
f 2/1/1 4/2/2 3/3/3
f 4/2/2 6/4/4 7/5/5
f 7/5/5 5/6/6 4/2/2
f 15/7/7 7/5/5 8/8/8
f 7/5/5 15/7/7 9/9/9
f 10/10/10 9/9/9 20/11/11
f 22/12/12 12/13/13 11/14/14
f 22/12/12 13/15/15 1/16/16
f 1/17/16 14/18/17 2/19/1
f 2/19/1 14/18/17 6/20/4
f 6/20/4 14/18/17 16/21/18
f 8/22/8 6/20/4 16/21/18
f 9/9/9 17/23/19 11/24/14
f 24/25/20 4/2/2 25/26/21
f 24/25/20 26/27/22 22/12/12
f 5/6/6 25/26/21 4/2/2
f 19/28/23 10/10/10 29/29/24
f 20/11/11 29/29/24 10/10/10
f 20/11/11 11/24/14 21/30/25
f 22/12/12 26/27/22 23/31/26
f 29/29/24 20/11/11 30/32/27
f 31/33/28 21/30/25 12/34/13
f 26/35/22 24/36/20 178/37/29
f 24/36/20 25/38/21 178/37/29
f 19/39/23 28/40/30 27/41/31
f 29/29/24 28/42/30 19/28/23
f 29/29/24 30/32/27 28/42/30
f 30/32/27 21/30/25 28/42/30
f 21/30/25 30/32/27 20/11/11
f 37/43/32 31/44/28 32/45/33
f 27/41/31 64/46/34 33/47/35
f 21/48/25 35/49/36 28/50/30
f 41/51/37 35/49/36 38/52/38
f 35/49/36 41/51/37 36/53/39
f 36/53/39 41/51/37 42/54/40
f 36/53/39 43/55/41 27/56/31
f 45/57/42 46/58/43 57/59/44
f 45/60/42 47/61/45 46/62/43
f 49/63/46 47/61/45 45/60/42
f 48/64/47 50/65/48 52/66/49
f 78/67/50 48/68/47 52/69/49
f 51/70/51 63/71/52 62/72/53 54/73/54
f 52/69/49 51/74/51 53/75/55
f 51/70/51 54/73/54 53/76/55
f 53/76/55 54/73/54 55/77/56
f 55/77/56 54/73/54 56/78/57
f 56/78/57 57/59/44 46/58/43
f 57/59/44 56/78/57 60/79/58
f 50/65/48 48/64/47 59/80/59
f 50/65/48 51/70/51 52/66/49
f 50/65/48 59/80/59 44/81/60
f 51/70/51 50/65/48 63/71/52
f 61/82/61 56/78/57 54/73/54
f 61/82/61 68/83/62 60/79/58
f 63/71/52 67/84/63 62/72/53
f 44/85/60 59/86/59 58/87/64
f 40/88/65 50/65/48 44/81/60
f 50/65/48 40/88/65 63/71/52
f 67/84/63 40/88/65 36/89/39
f 40/88/65 67/84/63 63/71/52
f 68/83/62 69/90/66 66/91/67
f 67/84/63 36/89/39 69/90/66
f 42/54/40 69/92/66 36/53/39
f 70/93/68 69/92/66 42/54/40
f 72/94/69 73/95/70 141/96/71
f 73/95/70 74/97/72 81/98/73
f 73/95/70 65/99/74 74/97/72
f 39/100/75 142/101/76 41/51/37
f 142/101/76 42/54/40 41/51/37
f 76/102/77 77/103/78 17/104/19
f 13/105/15 77/103/78 75/106/79
f 77/103/78 14/18/17 75/106/79
f 14/18/17 77/103/78 16/21/18
f 77/103/78 76/102/77 16/21/18
f 79/107/80 52/69/49 53/75/55
f 79/107/80 53/75/55 55/108/56
f 79/107/80 55/108/56 46/62/43
f 79/107/80 78/67/50 52/69/49
f 113/109/81 81/110/73 74/111/72
f 82/112/82 98/113/83 80/114/84
f 82/112/82 80/114/84 87/115/85
f 84/116/86 87/115/85 80/114/84
f 87/115/85 84/116/86 83/117/87
f 85/118/88 84/116/86 81/98/73
f 73/95/70 81/98/73 84/116/86
f 86/119/89 112/120/90 96/121/91
f 112/120/90 83/117/87 85/118/88
f 83/117/87 112/120/90 86/119/89
f 88/122/92 87/115/85 89/123/93
f 94/124/94 93/125/95 95/126/96
f 93/125/95 97/127/97 95/126/96
f 88/122/92 94/124/94 91/128/98
f 95/126/96 91/128/98 94/124/94
f 144/129/99 91/128/98 95/126/96
f 96/121/91 93/125/95 86/119/89
f 97/127/97 93/125/95 96/121/91
f 103/130/100 82/112/82 99/131/101
f 105/132/102 82/112/82 87/115/85
f 99/131/101 104/133/103 102/134/104
f 257/135/105 101/136/106 100/137/107
f 104/133/103 99/131/101 105/132/102
f 100/137/107 101/136/106 106/138/108
f 107/139/109 108/140/110 101/136/106
f 108/140/110 106/138/108 101/136/106
f 105/132/102 106/138/108 265/141/111
f 105/132/102 265/141/111 104/133/103
f 96/121/91 124/142/112 110/143/113
f 124/142/112 96/121/91 112/120/90
f 111/144/114 124/142/112 112/120/90
f 114/145/115 149/146/116 115/147/117
f 115/147/117 113/109/81 114/145/115
f 113/109/81 115/147/117 116/148/118
f 111/144/114 126/149/119 124/142/112
f 111/144/114 118/150/120 126/149/119
f 137/151/121 116/148/118 119/152/122
f 119/152/122 116/148/118 115/147/117
f 110/143/113 122/153/123 109/154/124
f 109/154/124 130/155/125 123/156/126
f 110/143/113 124/142/112 134/157/127
f 118/158/120 117/159/128 125/160/129
f 126/149/119 118/150/120 127/161/130
f 125/160/129 128/162/131 118/158/120
f 128/163/131 127/161/130 118/150/120
f 127/161/130 130/155/125 109/154/124
f 130/155/125 127/161/130 128/163/131
f 129/164/132 130/155/125 128/163/131
f 125/160/129 129/165/132 128/162/131
f 130/155/125 129/166/132 131/167/133
f 131/168/133 129/165/132 136/169/134
f 131/168/133 123/170/126 130/171/125
f 109/172/124 133/173/135 121/174/136
f 134/157/127 126/149/119 127/161/130
f 134/157/127 124/142/112 126/149/119
f 127/161/130 122/153/123 134/157/127
f 135/175/137 131/168/133 136/169/134
f 137/151/121 120/176/138 152/177/139
f 140/178/140 33/47/35 34/179/141
f 141/180/71 140/178/140 34/179/141
f 39/100/75 228/181/142 142/101/76
f 143/182/143 141/96/71 73/95/70
f 143/182/143 73/95/70 80/114/84
f 26/35/22 138/183/144 32/184/33
f 179/185/145 26/35/22 178/37/29
f 146/186/146 102/134/104 104/133/103
f 101/136/106 257/135/105 261/187/147
f 147/188/148 107/139/109 264/189/149
f 254/190/150 144/129/99 95/126/96
f 148/191/151 149/146/116 114/145/115
f 149/146/116 119/152/122 115/147/117
f 150/192/152 120/176/138 119/152/122
f 97/127/97 151/193/153 254/190/150
f 151/193/153 97/127/97 121/194/136
f 121/194/136 276/195/154 151/193/153
f 60/79/58 65/196/74 57/59/44
f 65/197/74 58/87/64 57/198/44
f 72/199/69 58/87/64 65/197/74
f 153/200/155 154/201/156 155/202/157
f 153/200/155 156/203/158 154/201/156
f 155/202/157 169/204/159 153/200/155
f 154/201/156 156/203/158 158/205/160
f 158/205/160 156/203/158 160/206/161
f 160/206/161 163/207/162 162/208/163
f 159/209/164 158/205/160 160/206/161
f 162/208/163 165/210/165 164/211/166
f 162/208/163 163/207/162 165/210/165
f 176/212/167 168/213/168 166/214/169
f 169/204/159 168/213/168 153/200/155
f 170/215/170 155/202/157 154/201/156
f 155/216/157 170/217/170 229/218/171
f 159/219/164 230/220/172 157/221/173
f 162/208/163 171/222/174 161/223/175
f 161/224/175 230/220/172 159/219/164
f 172/225/176 164/226/166 167/227/177
f 167/228/177 168/213/168 169/204/159
f 169/229/159 229/218/171 167/227/177
f 174/230/178 173/231/179 153/200/155
f 160/206/161 182/232/180 175/233/181
f 181/234/182 173/231/179 179/235/145
f 175/233/181 163/207/162 160/206/161
f 177/236/183 176/212/167 187/237/184
f 176/212/167 177/236/183 174/230/178
f 176/212/167 166/214/169 187/237/184
f 179/185/145 178/37/29 181/238/182
f 183/239/185 180/240/186 189/241/187
f 163/207/162 185/242/188 184/243/189
f 163/207/162 175/233/181 185/242/188
f 175/233/181 183/244/185 185/242/188
f 186/245/190 184/246/189 185/247/188
f 177/248/183 187/249/184 138/183/144
f 177/236/183 179/235/145 174/230/178
f 189/241/187 188/250/191 215/251/192
f 190/252/193 189/241/187 215/251/192
f 190/253/193 185/247/188 189/254/187
f 194/255/194 224/256/195 196/257/196
f 224/256/195 190/253/193 197/258/197
f 190/253/193 224/256/195 194/255/194
f 198/259/198 200/260/199 199/261/200
f 202/262/201 235/263/202 203/264/203
f 206/265/204 205/266/205 233/267/206
f 207/268/207 201/269/208 208/270/209
f 198/271/198 201/272/208 234/273/210
f 200/260/199 202/274/201 209/275/211
f 210/276/212 209/275/211 203/277/203
f 203/278/203 205/279/205 204/280/213
f 203/278/203 204/280/213 210/281/212
f 214/282/214 204/280/213 206/283/204
f 214/282/214 212/284/215 204/280/213
f 207/268/207 213/285/216 214/282/214
f 208/270/209 199/261/200 211/286/217
f 204/280/213 212/284/215 197/287/197
f 209/288/211 210/289/212 215/251/192
f 218/290/218 211/286/217 216/291/219
f 210/281/212 204/280/213 197/287/197
f 220/292/220 213/285/216 221/293/221
f 221/293/221 211/286/217 218/290/218
f 222/294/222 218/295/218 219/296/223
f 221/293/221 224/297/195 220/292/220
f 225/298/224 143/182/143 226/299/225
f 226/299/225 216/300/219 225/298/224
f 216/301/219 237/302/226 219/303/223
f 228/181/142 191/304/227 195/305/228
f 195/305/228 142/101/76 228/181/142
f 196/257/196 142/101/76 195/305/228
f 231/306/229 170/217/170 157/221/173
f 172/225/176 229/218/171 231/306/229
f 232/307/230 198/271/198 234/273/210
f 235/263/202 233/267/206 205/266/205
f 232/307/230 233/267/206 235/263/202
f 236/308/231 145/309/232 255/310/233
f 226/299/225 236/308/231 240/311/234
f 239/312/235 236/308/231 238/313/236
f 240/311/234 241/314/237 226/299/225
f 239/312/235 256/315/238 243/316/239
f 246/317/240 248/318/241 245/319/242
f 246/317/240 249/320/243 248/318/241
f 249/320/243 246/317/240 247/321/244
f 257/135/105 249/320/243 247/321/244
f 248/318/241 250/322/245 245/319/242
f 250/322/245 248/318/241 292/323/246
f 259/324/247 238/313/236 255/310/233
f 256/315/238 247/321/244 243/316/239
f 256/315/238 260/325/248 262/326/249
f 263/327/250 256/315/238 262/326/249
f 261/187/147 257/135/105 247/321/244
f 260/325/248 259/324/247 258/328/251
f 260/325/248 265/141/111 262/326/249
f 253/329/252 151/193/153 266/330/253
f 251/331/254 266/330/253 277/332/255
f 251/331/254 267/333/256 268/334/257
f 242/335/258 268/334/257 269/336/259
f 271/337/260 270/338/261 272/339/262
f 242/340/258 269/341/259 273/342/263
f 272/339/262 242/340/258 273/342/263
f 273/342/263 269/341/259 280/343/264
f 275/344/265 271/337/260 272/339/262
f 150/192/152 271/337/260 275/344/265
f 277/332/255 278/345/266 279/346/267
f 268/334/257 267/333/256 289/347/268
f 274/348/269 280/349/264 269/336/259
f 284/350/270 281/351/271 285/352/272
f 283/353/273 285/352/272 281/351/271
f 284/350/270 285/352/272 286/354/274
f 286/354/274 285/352/272 278/345/266
f 278/345/266 283/353/273 279/346/267
f 289/347/268 283/353/273 274/348/269
f 274/348/269 268/334/257 289/347/268
f 287/355/275 282/356/276 284/357/270
f 287/355/275 288/358/277 273/342/263
f 275/344/265 290/359/278 150/192/152
f 277/360/255 276/361/154 290/359/278
f 288/358/277 277/360/255 290/359/278
f 32/184/33 138/183/144 192/362/279
f 33/47/35 180/240/186 178/37/29
f 140/178/140 180/240/186 33/47/35
f 291/363/280 142/101/76 196/257/196
f 142/101/76 291/363/280 42/54/40
f 291/363/280 223/364/281 71/365/282
f 143/182/143 225/298/224 141/96/71
f 145/309/232 236/308/231 143/182/143
f 257/135/105 92/366/283 249/320/243
f 255/310/233 145/309/232 98/113/83
f 265/141/111 260/325/248 146/186/146
f 265/141/111 147/188/148 264/189/149
f 223/367/281 148/191/151 71/368/282
f 148/191/151 223/367/281 227/369/284
f 227/369/284 149/146/116 148/191/151
f 150/192/152 149/146/116 271/337/260
f 120/176/138 150/192/152 290/359/278
f 217/370/285 216/291/219 199/261/200
f 209/288/211 225/371/224 217/372/285
f 217/372/285 225/371/224 216/373/219
f 293/374/286 294/375/287 305/376/288
f 297/377/289 293/374/286 295/378/290
f 297/377/289 296/379/291 293/374/286
f 299/380/292 298/381/293 296/379/291
f 299/380/292 301/382/294 300/383/295
f 306/384/296 298/381/293 300/383/295
f 294/375/287 298/381/293 306/384/296
f 302/385/297 324/386/298 307/387/299
f 305/376/288 304/388/300 293/374/286
f 305/376/288 294/375/287 306/384/296
f 301/382/294 302/385/297 300/383/295
f 306/384/296 308/389/301 305/376/288
f 310/390/302 311/391/303 308/389/301
f 306/384/296 310/390/302 308/389/301
f 311/391/303 312/392/304 317/393/305
f 313/394/306 310/390/302 306/384/296
f 315/395/307 312/392/304 314/396/308
f 314/396/308 312/392/304 313/394/306
f 313/394/306 316/397/309 314/396/308
f 307/387/299 336/398/310 316/397/309
f 304/388/300 308/389/301 309/399/311
f 308/389/301 304/388/300 305/376/288
f 328/400/312 304/388/300 309/399/311
f 307/387/299 313/394/306 306/384/296
f 311/391/303 330/401/313 309/399/311
f 317/393/305 312/392/304 315/395/307
f 318/402/314 319/403/315 320/404/316
f 321/405/317 322/406/318 320/404/316
f 303/407/319 321/405/317 323/408/320
f 324/409/298 303/407/319 323/408/320
f 299/380/292 322/410/318 303/411/319
f 336/412/310 324/409/298 323/408/320
f 336/413/310 307/387/299 324/386/298
f 325/414/321 318/402/314 295/415/290
f 318/402/314 325/414/321 326/416/322
f 326/416/322 319/403/315 318/402/314
f 326/416/322 323/408/320 319/403/315
f 293/374/286 304/388/300 295/378/290
f 320/417/316 297/377/289 295/378/290
f 327/418/323 329/419/324 333/420/325
f 330/421/313 328/422/312 309/423/311
f 332/424/326 331/425/327 317/426/305
f 332/424/326 333/420/325 331/425/327
f 334/427/328 333/420/325 332/424/326
f 337/428/329 327/418/323 334/427/328
f 335/429/330 316/397/309 336/398/310
f 326/416/322 325/414/321 329/419/324
f 325/430/321 304/388/300 328/400/312
f 332/424/326 335/431/330 334/427/328
f 40/432/65 44/433/60 43/55/41
f 65/197/74 60/434/58 66/435/67
f 3/3/3 1/16/16 2/1/1
f 1/16/16 3/3/3 22/12/12
f 3/3/3 24/25/20 22/12/12
f 2/1/1 6/4/4 4/2/2
f 7/5/5 10/10/10 5/6/6
f 10/10/10 7/5/5 9/9/9
f 6/4/4 8/8/8 7/5/5
f 20/11/11 9/9/9 11/24/14
f 11/24/14 17/23/19 18/436/331
f 21/30/25 11/24/14 12/34/13
f 18/437/331 22/12/12 11/14/14
f 22/12/12 18/437/331 13/15/15
f 9/438/9 15/439/7 16/21/18
f 15/439/7 8/22/8 16/21/18
f 4/2/2 24/25/20 3/3/3
f 19/28/23 5/6/6 10/10/10
f 12/13/13 22/12/12 23/31/26
f 25/26/21 5/6/6 19/28/23
f 31/440/28 12/13/13 23/31/26
f 178/37/29 25/38/21 33/47/35
f 33/47/35 25/38/21 19/39/23
f 33/47/35 19/39/23 27/41/31
f 21/48/25 31/44/28 37/43/32
f 32/184/33 31/441/28 23/442/26
f 23/442/26 26/35/22 32/184/33
f 33/47/35 64/46/34 34/179/141
f 27/41/31 44/85/60 64/46/34
f 35/49/36 27/56/31 28/50/30
f 27/56/31 35/49/36 36/53/39
f 37/43/32 38/52/38 21/48/25
f 37/43/32 39/100/75 38/52/38
f 21/48/25 38/52/38 35/49/36
f 40/432/65 43/55/41 36/53/39
f 27/41/31 43/443/41 44/85/60
f 48/444/47 49/445/46 45/57/42
f 48/444/47 45/57/42 58/446/64
f 49/63/46 48/68/47 78/67/50
f 46/58/43 55/77/56 56/78/57
f 58/446/64 45/57/42 57/59/44
f 58/446/64 59/447/59 48/444/47
f 60/79/58 56/78/57 61/82/61
f 113/448/81 111/144/114 112/120/90 85/118/88
f 61/82/61 54/73/54 62/72/53
f 64/46/34 44/85/60 58/87/64
f 60/79/58 68/83/62 66/91/67
f 62/72/53 68/83/62 61/82/61
f 66/449/67 70/93/68 71/365/282
f 70/93/68 66/449/67 69/92/66
f 67/84/63 68/83/62 62/72/53
f 67/84/63 69/90/66 68/83/62
f 34/179/141 64/46/34 72/199/69
f 72/199/69 141/180/71 34/179/141
f 72/94/69 65/99/74 73/95/70
f 74/97/72 65/99/74 66/450/67
f 74/111/72 71/368/282 114/145/115
f 71/368/282 74/111/72 66/451/67
f 114/145/115 71/368/282 148/191/151
f 38/52/38 39/100/75 41/51/37
f 1/17/16 75/106/79 14/18/17
f 1/17/16 13/105/15 75/106/79
f 16/21/18 76/102/77 9/438/9
f 76/102/77 17/104/19 9/438/9
f 18/452/331 17/104/19 77/103/78
f 13/105/15 18/452/331 77/103/78
f 47/61/45 79/107/80 46/62/43
f 49/63/46 79/107/80 47/61/45
f 49/63/46 78/67/50 79/107/80
f 74/111/72 114/145/115 113/109/81
f 80/114/84 98/113/83 145/309/232
f 84/116/86 80/114/84 73/95/70
f 85/118/88 83/117/87 84/116/86
f 86/119/89 87/115/85 83/117/87
f 87/115/85 86/119/89 89/123/93
f 88/122/92 90/453/332 87/115/85
f 94/124/94 88/122/92 89/123/93
f 92/366/283 90/453/332 88/122/92
f 92/366/283 88/122/92 91/128/98
f 93/125/95 89/123/93 86/119/89
f 94/124/94 89/123/93 93/125/95
f 91/128/98 144/129/99 92/366/283
f 95/126/96 97/127/97 254/190/150
f 103/130/100 98/113/83 82/112/82
f 105/132/102 99/131/101 82/112/82
f 100/137/107 105/132/102 87/115/85
f 100/137/107 87/115/85 90/453/332
f 90/453/332 257/135/105 100/137/107
f 103/130/100 99/131/101 102/134/104
f 146/186/146 103/130/100 102/134/104
f 105/132/102 100/137/107 106/138/108
f 261/187/147 107/139/109 101/136/106
f 106/138/108 108/140/110 265/141/111
f 97/127/97 109/154/124 121/194/136
f 109/154/124 97/127/97 96/121/91
f 109/154/124 96/121/91 110/143/113
f 302/385/297 301/382/294 303/411/319 324/386/298
f 85/118/88 81/98/73 113/454/81
f 118/158/120 111/455/114 117/159/128
f 132/456/333 117/159/128 116/148/118
f 117/159/128 111/455/114 113/109/81
f 116/148/118 117/159/128 113/109/81
f 129/165/132 125/160/129 136/169/134
f 109/154/124 122/153/123 127/161/130
f 123/170/126 132/456/333 133/173/135
f 123/170/126 133/173/135 109/172/124
f 134/157/127 122/153/123 110/143/113
f 120/176/138 137/151/121 119/152/122
f 132/456/333 116/148/118 137/151/121
f 135/175/137 117/159/128 132/456/333
f 117/159/128 135/175/137 136/169/134
f 125/160/129 117/159/128 136/169/134
f 123/170/126 131/168/133 135/175/137
f 135/175/137 132/456/333 123/170/126
f 132/456/333 137/151/121 133/173/135
f 137/151/121 152/177/139 133/173/135
f 152/177/139 121/174/136 133/173/135
f 37/43/32 139/457/334 39/100/75
f 37/43/32 32/45/33 139/457/334
f 70/93/68 42/54/40 291/363/280
f 71/365/282 70/93/68 291/363/280
f 26/35/22 179/185/145 138/183/144
f 145/309/232 143/182/143 80/114/84
f 92/366/283 257/135/105 90/453/332
f 103/130/100 146/186/146 98/113/83
f 107/139/109 147/188/148 108/140/110
f 147/188/148 265/141/111 108/140/110
f 265/141/111 146/186/146 104/133/103
f 144/129/99 254/190/150 292/323/246
f 121/174/136 152/177/139 276/361/154
f 58/87/64 72/199/69 64/46/34
f 157/458/173 154/201/156 158/205/160
f 158/205/160 159/209/164 157/458/173
f 162/208/163 161/223/175 160/206/161
f 161/223/175 159/209/164 160/206/161
f 164/211/166 165/210/165 167/459/177
f 165/210/165 166/460/169 167/459/177
f 166/460/169 165/210/165 186/461/190
f 166/462/169 168/213/168 167/228/177
f 168/213/168 176/212/167 174/230/178
f 168/213/168 174/230/178 153/200/155
f 169/229/159 155/216/157 229/218/171
f 157/458/173 170/215/170 154/201/156
f 171/222/174 162/208/163 164/211/166
f 230/220/172 161/224/175 171/463/174
f 173/231/179 181/234/182 156/203/158
f 153/200/155 173/231/179 156/203/158
f 173/231/179 174/230/178 179/235/145
f 181/234/182 182/232/180 156/203/158
f 160/206/161 156/203/158 182/232/180
f 186/461/190 165/210/165 184/243/189
f 175/233/181 182/232/180 183/244/185
f 163/207/162 184/243/189 165/210/165
f 186/461/190 187/464/184 166/460/169
f 181/238/182 178/37/29 180/240/186
f 180/240/186 182/465/180 181/238/182
f 183/239/185 182/465/180 180/240/186
f 189/241/187 185/466/188 183/239/185
f 192/467/279 187/468/184 186/245/190
f 138/183/144 187/249/184 192/362/279
f 179/185/145 177/248/183 138/183/144
f 189/241/187 180/240/186 188/250/191
f 186/245/190 185/247/188 191/304/227
f 190/253/193 194/255/194 185/247/188
f 191/304/227 192/467/279 186/245/190
f 191/304/227 193/469/335 192/467/279
f 193/469/335 191/304/227 228/181/142
f 191/304/227 185/247/188 194/255/194
f 191/304/227 194/255/194 195/305/228
f 195/305/228 194/255/194 196/257/196
f 215/251/192 197/470/197 190/252/193
f 197/470/197 215/251/192 210/289/212
f 200/471/199 198/271/198 232/307/230
f 199/261/200 201/269/208 198/259/198
f 202/262/201 200/471/199 232/307/230
f 235/263/202 202/262/201 232/307/230
f 235/263/202 205/266/205 203/264/203
f 206/283/204 204/280/213 205/279/205
f 207/472/207 233/267/206 234/273/210
f 207/472/207 206/265/204 233/267/206
f 234/273/210 201/272/208 207/472/207
f 200/260/199 209/275/211 217/370/285
f 209/275/211 202/274/201 203/277/203
f 213/285/216 207/268/207 208/270/209
f 208/270/209 201/269/208 199/261/200
f 206/283/204 207/268/207 214/282/214
f 208/270/209 211/286/217 213/285/216
f 214/282/214 213/285/216 220/292/220
f 213/285/216 211/286/217 221/293/221
f 209/288/211 215/251/192 188/250/191
f 219/473/223 218/290/218 216/291/219
f 212/284/215 224/297/195 197/287/197
f 220/292/220 212/284/215 214/282/214
f 218/290/218 222/474/222 221/293/221
f 196/257/196 219/296/223 223/364/281
f 222/294/222 219/296/223 196/257/196
f 220/292/220 224/297/195 212/284/215
f 196/257/196 224/256/195 222/294/222
f 221/293/221 222/474/222 224/297/195
f 291/363/280 196/257/196 223/364/281
f 140/178/140 188/250/191 180/240/186
f 225/371/224 188/250/191 140/178/140
f 188/250/191 225/371/224 209/288/211
f 226/299/225 241/314/237 237/475/226
f 226/299/225 237/475/226 216/300/219
f 219/303/223 237/302/226 227/369/284
f 219/303/223 227/369/284 223/367/281
f 230/220/172 231/306/229 157/221/173
f 230/220/172 171/463/174 172/225/176
f 164/226/166 172/225/176 171/463/174
f 231/306/229 229/218/171 170/217/170
f 230/220/172 172/225/176 231/306/229
f 229/218/171 172/225/176 167/227/177
f 233/267/206 232/307/230 234/273/210
f 270/338/261 227/369/284 237/302/226
f 270/338/261 237/302/226 272/339/262
f 143/182/143 236/308/231 226/299/225
f 238/313/236 236/308/231 255/310/233
f 239/312/235 240/311/234 236/308/231
f 239/312/235 238/313/236 256/315/238
f 241/314/237 240/311/234 242/335/258
f 244/476/336 240/311/234 239/312/235
f 240/311/234 244/476/336 242/335/258
f 239/312/235 243/316/239 244/476/336
f 243/316/239 246/317/240 245/319/242
f 245/319/242 244/476/336 243/316/239
f 243/316/239 247/321/244 246/317/240
f 249/320/243 292/323/246 248/318/241
f 245/319/242 250/322/245 244/476/336
f 250/322/245 252/477/337 251/331/254
f 250/322/245 292/323/246 252/477/337
f 252/477/337 292/323/246 254/190/150
f 250/322/245 251/331/254 244/476/336
f 253/329/252 251/331/254 252/477/337
f 254/190/150 253/329/252 252/477/337
f 259/324/247 255/310/233 258/328/251
f 238/313/236 259/324/247 260/325/248
f 260/325/248 256/315/238 238/313/236
f 256/315/238 261/187/147 247/321/244
f 263/327/250 261/187/147 256/315/238
f 263/327/250 264/189/149 261/187/147
f 265/141/111 264/189/149 263/327/250
f 262/326/249 265/141/111 263/327/250
f 251/331/254 253/329/252 266/330/253
f 267/333/256 251/331/254 277/332/255
f 244/476/336 268/334/257 242/335/258
f 268/334/257 244/476/336 251/331/254
f 242/335/258 272/478/262 237/475/226
f 241/314/237 242/335/258 237/475/226
f 227/369/284 270/338/261 271/337/260
f 227/369/284 271/337/260 149/146/116
f 268/334/257 274/348/269 269/336/259
f 275/344/265 272/339/262 273/342/263
f 266/330/253 151/193/153 276/195/154
f 277/332/255 266/330/253 276/195/154
f 279/346/267 267/333/256 277/332/255
f 289/347/268 267/333/256 279/346/267
f 281/351/271 280/349/264 274/348/269
f 280/343/264 281/479/271 282/356/276
f 274/348/269 283/353/273 281/351/271
f 281/351/271 284/350/270 282/480/276
f 278/345/266 285/352/272 283/353/273
f 277/360/255 286/481/274 278/482/266
f 288/358/277 286/481/274 277/360/255
f 286/481/274 288/358/277 287/355/275
f 279/346/267 283/353/273 289/347/268
f 275/344/265 273/342/263 288/358/277
f 273/342/263 282/356/276 287/355/275
f 280/343/264 282/356/276 273/342/263
f 287/355/275 284/357/270 286/481/274
f 275/344/265 288/358/277 290/359/278
f 276/361/154 152/177/139 290/359/278
f 139/457/334 32/45/33 192/467/279
f 140/178/140 141/180/71 225/371/224
f 139/457/334 193/469/335 39/100/75
f 193/469/335 139/457/334 192/467/279
f 193/469/335 228/181/142 39/100/75
f 92/366/283 144/129/99 249/320/243
f 144/129/99 292/323/246 249/320/243
f 258/328/251 255/310/233 98/113/83
f 146/186/146 258/328/251 98/113/83
f 146/186/146 260/325/248 258/328/251
f 264/189/149 107/139/109 261/187/147
f 150/192/152 119/152/122 149/146/116
f 253/329/252 254/190/150 151/193/153
f 152/177/139 120/176/138 290/359/278
f 200/260/199 217/370/285 199/261/200
f 216/291/219 211/286/217 199/261/200
f 294/375/287 293/374/286 296/379/291
f 298/381/293 294/375/287 296/379/291
f 297/377/289 322/410/318 299/380/292
f 296/379/291 297/377/289 299/380/292
f 299/380/292 300/383/295 298/381/293
f 299/380/292 303/411/319 301/382/294
f 335/483/330 332/484/326 314/396/308 316/397/309
f 300/383/295 307/387/299 306/384/296
f 300/383/295 302/385/297 307/387/299
f 297/377/289 320/417/316 322/410/318
f 308/389/301 311/391/303 309/399/311
f 312/392/304 311/391/303 310/390/302
f 312/392/304 310/390/302 313/394/306
f 316/397/309 313/394/306 307/387/299
f 318/402/314 320/404/316 295/415/290
f 319/403/315 321/405/317 320/404/316
f 303/407/319 322/406/318 321/405/317
f 323/408/320 321/405/317 319/403/315
f 337/428/329 336/412/310 323/408/320
f 304/485/300 325/414/321 295/415/290
f 326/416/322 327/418/323 323/408/320
f 327/418/323 337/428/329 323/408/320
f 326/416/322 329/419/324 327/418/323
f 331/425/327 329/419/324 330/421/313
f 328/422/312 330/421/313 329/419/324
f 333/420/325 329/419/324 331/425/327
f 331/425/327 311/486/303 317/426/305
f 330/421/313 311/486/303 331/425/327
f 332/424/326 317/426/305 315/487/307
f 315/395/307 314/396/308 332/484/326
f 333/420/325 334/427/328 327/418/323
f 334/427/328 336/412/310 337/428/329
f 329/419/324 325/414/321 328/422/312
f 336/412/310 334/427/328 335/431/330
